%TF.GenerationSoftware,KiCad,Pcbnew,10.0.5*%
%TF.CreationDate,2026-08-25T10:32:37+02:00*%
%TF.ProjectId,Flight Controller,466c6967-6874-4204-936f-6e74726f6c6c,rev?*%
%TF.SameCoordinates,Original*%
%TF.FileFunction,Drillmap*%
%TF.FilePolarity,Positive*%
%FSLAX45Y45*%
G04 Gerber Fmt 4.5, Leading zero omitted, Abs format (unit mm)*
G04 Created by KiCad (PCBNEW 10.0.5) date 2026-08-25 10:32:37*
%MOMM*%
%LPD*%
G01*
G04 APERTURE LIST*
%ADD10C,0.050000*%
%ADD11C,0.200000*%
%ADD12C,0.320000*%
G04 APERTURE END LIST*
D10*
X12950000Y-8250000D02*
X12950000Y-11750000D01*
X12950000Y-8250000D02*
G75*
G02*
X13250000Y-7950000I300000J0D01*
G01*
X13250000Y-12050000D02*
G75*
G02*
X12950000Y-11750000I0J300000D01*
G01*
X16750000Y-7950000D02*
X13250000Y-7950000D01*
X16750000Y-7950000D02*
G75*
G02*
X17050000Y-8250000I0J-300000D01*
G01*
X16750000Y-12050000D02*
X13250000Y-12050000D01*
X17050000Y-10000000D02*
X17050000Y-8250000D01*
X17050000Y-10000000D02*
X17050000Y-11750000D01*
X17050000Y-11750000D02*
G75*
G02*
X16750000Y-12050000I-300000J0D01*
G01*
D11*
D12*
X13315000Y-8315000D02*
X13635000Y-8635000D01*
X13635000Y-8315000D02*
X13315000Y-8635000D01*
X13315000Y-11365000D02*
X13635000Y-11685000D01*
X13635000Y-11365000D02*
X13315000Y-11685000D01*
X16365000Y-8315000D02*
X16685000Y-8635000D01*
X16685000Y-8315000D02*
X16365000Y-8635000D01*
X16365000Y-11365000D02*
X16685000Y-11685000D01*
X16685000Y-11365000D02*
X16365000Y-11685000D01*
D11*
X13208277Y-12363984D02*
X13208277Y-12163984D01*
X13208277Y-12163984D02*
X13255896Y-12163984D01*
X13255896Y-12163984D02*
X13284467Y-12173508D01*
X13284467Y-12173508D02*
X13303515Y-12192555D01*
X13303515Y-12192555D02*
X13313039Y-12211603D01*
X13313039Y-12211603D02*
X13322562Y-12249698D01*
X13322562Y-12249698D02*
X13322562Y-12278269D01*
X13322562Y-12278269D02*
X13313039Y-12316365D01*
X13313039Y-12316365D02*
X13303515Y-12335412D01*
X13303515Y-12335412D02*
X13284467Y-12354460D01*
X13284467Y-12354460D02*
X13255896Y-12363984D01*
X13255896Y-12363984D02*
X13208277Y-12363984D01*
X13408277Y-12363984D02*
X13408277Y-12230650D01*
X13408277Y-12268746D02*
X13417801Y-12249698D01*
X13417801Y-12249698D02*
X13427324Y-12240174D01*
X13427324Y-12240174D02*
X13446372Y-12230650D01*
X13446372Y-12230650D02*
X13465420Y-12230650D01*
X13532086Y-12363984D02*
X13532086Y-12230650D01*
X13532086Y-12163984D02*
X13522562Y-12173508D01*
X13522562Y-12173508D02*
X13532086Y-12183031D01*
X13532086Y-12183031D02*
X13541610Y-12173508D01*
X13541610Y-12173508D02*
X13532086Y-12163984D01*
X13532086Y-12163984D02*
X13532086Y-12183031D01*
X13655896Y-12363984D02*
X13636848Y-12354460D01*
X13636848Y-12354460D02*
X13627324Y-12335412D01*
X13627324Y-12335412D02*
X13627324Y-12163984D01*
X13760658Y-12363984D02*
X13741610Y-12354460D01*
X13741610Y-12354460D02*
X13732086Y-12335412D01*
X13732086Y-12335412D02*
X13732086Y-12163984D01*
X13989229Y-12363984D02*
X13989229Y-12163984D01*
X13989229Y-12163984D02*
X14055896Y-12306841D01*
X14055896Y-12306841D02*
X14122562Y-12163984D01*
X14122562Y-12163984D02*
X14122562Y-12363984D01*
X14303515Y-12363984D02*
X14303515Y-12259222D01*
X14303515Y-12259222D02*
X14293991Y-12240174D01*
X14293991Y-12240174D02*
X14274943Y-12230650D01*
X14274943Y-12230650D02*
X14236848Y-12230650D01*
X14236848Y-12230650D02*
X14217801Y-12240174D01*
X14303515Y-12354460D02*
X14284467Y-12363984D01*
X14284467Y-12363984D02*
X14236848Y-12363984D01*
X14236848Y-12363984D02*
X14217801Y-12354460D01*
X14217801Y-12354460D02*
X14208277Y-12335412D01*
X14208277Y-12335412D02*
X14208277Y-12316365D01*
X14208277Y-12316365D02*
X14217801Y-12297317D01*
X14217801Y-12297317D02*
X14236848Y-12287793D01*
X14236848Y-12287793D02*
X14284467Y-12287793D01*
X14284467Y-12287793D02*
X14303515Y-12278269D01*
X14398753Y-12230650D02*
X14398753Y-12430650D01*
X14398753Y-12240174D02*
X14417801Y-12230650D01*
X14417801Y-12230650D02*
X14455896Y-12230650D01*
X14455896Y-12230650D02*
X14474943Y-12240174D01*
X14474943Y-12240174D02*
X14484467Y-12249698D01*
X14484467Y-12249698D02*
X14493991Y-12268746D01*
X14493991Y-12268746D02*
X14493991Y-12325888D01*
X14493991Y-12325888D02*
X14484467Y-12344936D01*
X14484467Y-12344936D02*
X14474943Y-12354460D01*
X14474943Y-12354460D02*
X14455896Y-12363984D01*
X14455896Y-12363984D02*
X14417801Y-12363984D01*
X14417801Y-12363984D02*
X14398753Y-12354460D01*
X14579705Y-12344936D02*
X14589229Y-12354460D01*
X14589229Y-12354460D02*
X14579705Y-12363984D01*
X14579705Y-12363984D02*
X14570182Y-12354460D01*
X14570182Y-12354460D02*
X14579705Y-12344936D01*
X14579705Y-12344936D02*
X14579705Y-12363984D01*
X14579705Y-12240174D02*
X14589229Y-12249698D01*
X14589229Y-12249698D02*
X14579705Y-12259222D01*
X14579705Y-12259222D02*
X14570182Y-12249698D01*
X14570182Y-12249698D02*
X14579705Y-12240174D01*
X14579705Y-12240174D02*
X14579705Y-12259222D01*
X12747500Y-12592500D02*
X12947500Y-12792500D01*
X12947500Y-12592500D02*
X12747500Y-12792500D01*
X13189229Y-12583984D02*
X13313039Y-12583984D01*
X13313039Y-12583984D02*
X13246372Y-12660174D01*
X13246372Y-12660174D02*
X13274943Y-12660174D01*
X13274943Y-12660174D02*
X13293991Y-12669698D01*
X13293991Y-12669698D02*
X13303515Y-12679222D01*
X13303515Y-12679222D02*
X13313039Y-12698269D01*
X13313039Y-12698269D02*
X13313039Y-12745888D01*
X13313039Y-12745888D02*
X13303515Y-12764936D01*
X13303515Y-12764936D02*
X13293991Y-12774460D01*
X13293991Y-12774460D02*
X13274943Y-12783984D01*
X13274943Y-12783984D02*
X13217801Y-12783984D01*
X13217801Y-12783984D02*
X13198753Y-12774460D01*
X13198753Y-12774460D02*
X13189229Y-12764936D01*
X13398753Y-12764936D02*
X13408277Y-12774460D01*
X13408277Y-12774460D02*
X13398753Y-12783984D01*
X13398753Y-12783984D02*
X13389229Y-12774460D01*
X13389229Y-12774460D02*
X13398753Y-12764936D01*
X13398753Y-12764936D02*
X13398753Y-12783984D01*
X13484467Y-12603031D02*
X13493991Y-12593508D01*
X13493991Y-12593508D02*
X13513039Y-12583984D01*
X13513039Y-12583984D02*
X13560658Y-12583984D01*
X13560658Y-12583984D02*
X13579705Y-12593508D01*
X13579705Y-12593508D02*
X13589229Y-12603031D01*
X13589229Y-12603031D02*
X13598753Y-12622079D01*
X13598753Y-12622079D02*
X13598753Y-12641127D01*
X13598753Y-12641127D02*
X13589229Y-12669698D01*
X13589229Y-12669698D02*
X13474943Y-12783984D01*
X13474943Y-12783984D02*
X13598753Y-12783984D01*
X13722562Y-12583984D02*
X13741610Y-12583984D01*
X13741610Y-12583984D02*
X13760658Y-12593508D01*
X13760658Y-12593508D02*
X13770182Y-12603031D01*
X13770182Y-12603031D02*
X13779705Y-12622079D01*
X13779705Y-12622079D02*
X13789229Y-12660174D01*
X13789229Y-12660174D02*
X13789229Y-12707793D01*
X13789229Y-12707793D02*
X13779705Y-12745888D01*
X13779705Y-12745888D02*
X13770182Y-12764936D01*
X13770182Y-12764936D02*
X13760658Y-12774460D01*
X13760658Y-12774460D02*
X13741610Y-12783984D01*
X13741610Y-12783984D02*
X13722562Y-12783984D01*
X13722562Y-12783984D02*
X13703515Y-12774460D01*
X13703515Y-12774460D02*
X13693991Y-12764936D01*
X13693991Y-12764936D02*
X13684467Y-12745888D01*
X13684467Y-12745888D02*
X13674943Y-12707793D01*
X13674943Y-12707793D02*
X13674943Y-12660174D01*
X13674943Y-12660174D02*
X13684467Y-12622079D01*
X13684467Y-12622079D02*
X13693991Y-12603031D01*
X13693991Y-12603031D02*
X13703515Y-12593508D01*
X13703515Y-12593508D02*
X13722562Y-12583984D01*
X13913039Y-12583984D02*
X13932086Y-12583984D01*
X13932086Y-12583984D02*
X13951134Y-12593508D01*
X13951134Y-12593508D02*
X13960658Y-12603031D01*
X13960658Y-12603031D02*
X13970182Y-12622079D01*
X13970182Y-12622079D02*
X13979705Y-12660174D01*
X13979705Y-12660174D02*
X13979705Y-12707793D01*
X13979705Y-12707793D02*
X13970182Y-12745888D01*
X13970182Y-12745888D02*
X13960658Y-12764936D01*
X13960658Y-12764936D02*
X13951134Y-12774460D01*
X13951134Y-12774460D02*
X13932086Y-12783984D01*
X13932086Y-12783984D02*
X13913039Y-12783984D01*
X13913039Y-12783984D02*
X13893991Y-12774460D01*
X13893991Y-12774460D02*
X13884467Y-12764936D01*
X13884467Y-12764936D02*
X13874943Y-12745888D01*
X13874943Y-12745888D02*
X13865420Y-12707793D01*
X13865420Y-12707793D02*
X13865420Y-12660174D01*
X13865420Y-12660174D02*
X13874943Y-12622079D01*
X13874943Y-12622079D02*
X13884467Y-12603031D01*
X13884467Y-12603031D02*
X13893991Y-12593508D01*
X13893991Y-12593508D02*
X13913039Y-12583984D01*
X14065420Y-12783984D02*
X14065420Y-12650650D01*
X14065420Y-12669698D02*
X14074943Y-12660174D01*
X14074943Y-12660174D02*
X14093991Y-12650650D01*
X14093991Y-12650650D02*
X14122563Y-12650650D01*
X14122563Y-12650650D02*
X14141610Y-12660174D01*
X14141610Y-12660174D02*
X14151134Y-12679222D01*
X14151134Y-12679222D02*
X14151134Y-12783984D01*
X14151134Y-12679222D02*
X14160658Y-12660174D01*
X14160658Y-12660174D02*
X14179705Y-12650650D01*
X14179705Y-12650650D02*
X14208277Y-12650650D01*
X14208277Y-12650650D02*
X14227324Y-12660174D01*
X14227324Y-12660174D02*
X14236848Y-12679222D01*
X14236848Y-12679222D02*
X14236848Y-12783984D01*
X14332086Y-12783984D02*
X14332086Y-12650650D01*
X14332086Y-12669698D02*
X14341610Y-12660174D01*
X14341610Y-12660174D02*
X14360658Y-12650650D01*
X14360658Y-12650650D02*
X14389229Y-12650650D01*
X14389229Y-12650650D02*
X14408277Y-12660174D01*
X14408277Y-12660174D02*
X14417801Y-12679222D01*
X14417801Y-12679222D02*
X14417801Y-12783984D01*
X14417801Y-12679222D02*
X14427324Y-12660174D01*
X14427324Y-12660174D02*
X14446372Y-12650650D01*
X14446372Y-12650650D02*
X14474943Y-12650650D01*
X14474943Y-12650650D02*
X14493991Y-12660174D01*
X14493991Y-12660174D02*
X14503515Y-12679222D01*
X14503515Y-12679222D02*
X14503515Y-12783984D01*
X14893991Y-12574460D02*
X14722563Y-12831603D01*
X15151134Y-12583984D02*
X15170182Y-12583984D01*
X15170182Y-12583984D02*
X15189229Y-12593508D01*
X15189229Y-12593508D02*
X15198753Y-12603031D01*
X15198753Y-12603031D02*
X15208277Y-12622079D01*
X15208277Y-12622079D02*
X15217801Y-12660174D01*
X15217801Y-12660174D02*
X15217801Y-12707793D01*
X15217801Y-12707793D02*
X15208277Y-12745888D01*
X15208277Y-12745888D02*
X15198753Y-12764936D01*
X15198753Y-12764936D02*
X15189229Y-12774460D01*
X15189229Y-12774460D02*
X15170182Y-12783984D01*
X15170182Y-12783984D02*
X15151134Y-12783984D01*
X15151134Y-12783984D02*
X15132086Y-12774460D01*
X15132086Y-12774460D02*
X15122563Y-12764936D01*
X15122563Y-12764936D02*
X15113039Y-12745888D01*
X15113039Y-12745888D02*
X15103515Y-12707793D01*
X15103515Y-12707793D02*
X15103515Y-12660174D01*
X15103515Y-12660174D02*
X15113039Y-12622079D01*
X15113039Y-12622079D02*
X15122563Y-12603031D01*
X15122563Y-12603031D02*
X15132086Y-12593508D01*
X15132086Y-12593508D02*
X15151134Y-12583984D01*
X15303515Y-12764936D02*
X15313039Y-12774460D01*
X15313039Y-12774460D02*
X15303515Y-12783984D01*
X15303515Y-12783984D02*
X15293991Y-12774460D01*
X15293991Y-12774460D02*
X15303515Y-12764936D01*
X15303515Y-12764936D02*
X15303515Y-12783984D01*
X15503515Y-12783984D02*
X15389229Y-12783984D01*
X15446372Y-12783984D02*
X15446372Y-12583984D01*
X15446372Y-12583984D02*
X15427325Y-12612555D01*
X15427325Y-12612555D02*
X15408277Y-12631603D01*
X15408277Y-12631603D02*
X15389229Y-12641127D01*
X15579706Y-12603031D02*
X15589229Y-12593508D01*
X15589229Y-12593508D02*
X15608277Y-12583984D01*
X15608277Y-12583984D02*
X15655896Y-12583984D01*
X15655896Y-12583984D02*
X15674944Y-12593508D01*
X15674944Y-12593508D02*
X15684467Y-12603031D01*
X15684467Y-12603031D02*
X15693991Y-12622079D01*
X15693991Y-12622079D02*
X15693991Y-12641127D01*
X15693991Y-12641127D02*
X15684467Y-12669698D01*
X15684467Y-12669698D02*
X15570182Y-12783984D01*
X15570182Y-12783984D02*
X15693991Y-12783984D01*
X15865420Y-12583984D02*
X15827325Y-12583984D01*
X15827325Y-12583984D02*
X15808277Y-12593508D01*
X15808277Y-12593508D02*
X15798753Y-12603031D01*
X15798753Y-12603031D02*
X15779706Y-12631603D01*
X15779706Y-12631603D02*
X15770182Y-12669698D01*
X15770182Y-12669698D02*
X15770182Y-12745888D01*
X15770182Y-12745888D02*
X15779706Y-12764936D01*
X15779706Y-12764936D02*
X15789229Y-12774460D01*
X15789229Y-12774460D02*
X15808277Y-12783984D01*
X15808277Y-12783984D02*
X15846372Y-12783984D01*
X15846372Y-12783984D02*
X15865420Y-12774460D01*
X15865420Y-12774460D02*
X15874944Y-12764936D01*
X15874944Y-12764936D02*
X15884467Y-12745888D01*
X15884467Y-12745888D02*
X15884467Y-12698269D01*
X15884467Y-12698269D02*
X15874944Y-12679222D01*
X15874944Y-12679222D02*
X15865420Y-12669698D01*
X15865420Y-12669698D02*
X15846372Y-12660174D01*
X15846372Y-12660174D02*
X15808277Y-12660174D01*
X15808277Y-12660174D02*
X15789229Y-12669698D01*
X15789229Y-12669698D02*
X15779706Y-12679222D01*
X15779706Y-12679222D02*
X15770182Y-12698269D01*
X16008277Y-12583984D02*
X16027325Y-12583984D01*
X16027325Y-12583984D02*
X16046372Y-12593508D01*
X16046372Y-12593508D02*
X16055896Y-12603031D01*
X16055896Y-12603031D02*
X16065420Y-12622079D01*
X16065420Y-12622079D02*
X16074944Y-12660174D01*
X16074944Y-12660174D02*
X16074944Y-12707793D01*
X16074944Y-12707793D02*
X16065420Y-12745888D01*
X16065420Y-12745888D02*
X16055896Y-12764936D01*
X16055896Y-12764936D02*
X16046372Y-12774460D01*
X16046372Y-12774460D02*
X16027325Y-12783984D01*
X16027325Y-12783984D02*
X16008277Y-12783984D01*
X16008277Y-12783984D02*
X15989229Y-12774460D01*
X15989229Y-12774460D02*
X15979706Y-12764936D01*
X15979706Y-12764936D02*
X15970182Y-12745888D01*
X15970182Y-12745888D02*
X15960658Y-12707793D01*
X15960658Y-12707793D02*
X15960658Y-12660174D01*
X15960658Y-12660174D02*
X15970182Y-12622079D01*
X15970182Y-12622079D02*
X15979706Y-12603031D01*
X15979706Y-12603031D02*
X15989229Y-12593508D01*
X15989229Y-12593508D02*
X16008277Y-12583984D01*
X16151134Y-12583984D02*
X16151134Y-12622079D01*
X16227325Y-12583984D02*
X16227325Y-12622079D01*
X16522563Y-12860174D02*
X16513039Y-12850650D01*
X16513039Y-12850650D02*
X16493991Y-12822079D01*
X16493991Y-12822079D02*
X16484468Y-12803031D01*
X16484468Y-12803031D02*
X16474944Y-12774460D01*
X16474944Y-12774460D02*
X16465420Y-12726841D01*
X16465420Y-12726841D02*
X16465420Y-12688746D01*
X16465420Y-12688746D02*
X16474944Y-12641127D01*
X16474944Y-12641127D02*
X16484468Y-12612555D01*
X16484468Y-12612555D02*
X16493991Y-12593508D01*
X16493991Y-12593508D02*
X16513039Y-12564936D01*
X16513039Y-12564936D02*
X16522563Y-12555412D01*
X16684468Y-12650650D02*
X16684468Y-12783984D01*
X16636848Y-12574460D02*
X16589229Y-12717317D01*
X16589229Y-12717317D02*
X16713039Y-12717317D01*
X16941611Y-12783984D02*
X16941611Y-12583984D01*
X17027325Y-12783984D02*
X17027325Y-12679222D01*
X17027325Y-12679222D02*
X17017801Y-12660174D01*
X17017801Y-12660174D02*
X16998753Y-12650650D01*
X16998753Y-12650650D02*
X16970182Y-12650650D01*
X16970182Y-12650650D02*
X16951134Y-12660174D01*
X16951134Y-12660174D02*
X16941611Y-12669698D01*
X17151134Y-12783984D02*
X17132087Y-12774460D01*
X17132087Y-12774460D02*
X17122563Y-12764936D01*
X17122563Y-12764936D02*
X17113039Y-12745888D01*
X17113039Y-12745888D02*
X17113039Y-12688746D01*
X17113039Y-12688746D02*
X17122563Y-12669698D01*
X17122563Y-12669698D02*
X17132087Y-12660174D01*
X17132087Y-12660174D02*
X17151134Y-12650650D01*
X17151134Y-12650650D02*
X17179706Y-12650650D01*
X17179706Y-12650650D02*
X17198753Y-12660174D01*
X17198753Y-12660174D02*
X17208277Y-12669698D01*
X17208277Y-12669698D02*
X17217801Y-12688746D01*
X17217801Y-12688746D02*
X17217801Y-12745888D01*
X17217801Y-12745888D02*
X17208277Y-12764936D01*
X17208277Y-12764936D02*
X17198753Y-12774460D01*
X17198753Y-12774460D02*
X17179706Y-12783984D01*
X17179706Y-12783984D02*
X17151134Y-12783984D01*
X17332087Y-12783984D02*
X17313039Y-12774460D01*
X17313039Y-12774460D02*
X17303515Y-12755412D01*
X17303515Y-12755412D02*
X17303515Y-12583984D01*
X17484468Y-12774460D02*
X17465420Y-12783984D01*
X17465420Y-12783984D02*
X17427325Y-12783984D01*
X17427325Y-12783984D02*
X17408277Y-12774460D01*
X17408277Y-12774460D02*
X17398753Y-12755412D01*
X17398753Y-12755412D02*
X17398753Y-12679222D01*
X17398753Y-12679222D02*
X17408277Y-12660174D01*
X17408277Y-12660174D02*
X17427325Y-12650650D01*
X17427325Y-12650650D02*
X17465420Y-12650650D01*
X17465420Y-12650650D02*
X17484468Y-12660174D01*
X17484468Y-12660174D02*
X17493992Y-12679222D01*
X17493992Y-12679222D02*
X17493992Y-12698269D01*
X17493992Y-12698269D02*
X17398753Y-12717317D01*
X17570182Y-12774460D02*
X17589230Y-12783984D01*
X17589230Y-12783984D02*
X17627325Y-12783984D01*
X17627325Y-12783984D02*
X17646373Y-12774460D01*
X17646373Y-12774460D02*
X17655896Y-12755412D01*
X17655896Y-12755412D02*
X17655896Y-12745888D01*
X17655896Y-12745888D02*
X17646373Y-12726841D01*
X17646373Y-12726841D02*
X17627325Y-12717317D01*
X17627325Y-12717317D02*
X17598753Y-12717317D01*
X17598753Y-12717317D02*
X17579706Y-12707793D01*
X17579706Y-12707793D02*
X17570182Y-12688746D01*
X17570182Y-12688746D02*
X17570182Y-12679222D01*
X17570182Y-12679222D02*
X17579706Y-12660174D01*
X17579706Y-12660174D02*
X17598753Y-12650650D01*
X17598753Y-12650650D02*
X17627325Y-12650650D01*
X17627325Y-12650650D02*
X17646373Y-12660174D01*
X17722563Y-12860174D02*
X17732087Y-12850650D01*
X17732087Y-12850650D02*
X17751134Y-12822079D01*
X17751134Y-12822079D02*
X17760658Y-12803031D01*
X17760658Y-12803031D02*
X17770182Y-12774460D01*
X17770182Y-12774460D02*
X17779706Y-12726841D01*
X17779706Y-12726841D02*
X17779706Y-12688746D01*
X17779706Y-12688746D02*
X17770182Y-12641127D01*
X17770182Y-12641127D02*
X17760658Y-12612555D01*
X17760658Y-12612555D02*
X17751134Y-12593508D01*
X17751134Y-12593508D02*
X17732087Y-12564936D01*
X17732087Y-12564936D02*
X17722563Y-12555412D01*
X18084468Y-12860174D02*
X18074944Y-12850650D01*
X18074944Y-12850650D02*
X18055896Y-12822079D01*
X18055896Y-12822079D02*
X18046373Y-12803031D01*
X18046373Y-12803031D02*
X18036849Y-12774460D01*
X18036849Y-12774460D02*
X18027325Y-12726841D01*
X18027325Y-12726841D02*
X18027325Y-12688746D01*
X18027325Y-12688746D02*
X18036849Y-12641127D01*
X18036849Y-12641127D02*
X18046373Y-12612555D01*
X18046373Y-12612555D02*
X18055896Y-12593508D01*
X18055896Y-12593508D02*
X18074944Y-12564936D01*
X18074944Y-12564936D02*
X18084468Y-12555412D01*
X18160658Y-12650650D02*
X18160658Y-12783984D01*
X18160658Y-12669698D02*
X18170182Y-12660174D01*
X18170182Y-12660174D02*
X18189230Y-12650650D01*
X18189230Y-12650650D02*
X18217801Y-12650650D01*
X18217801Y-12650650D02*
X18236849Y-12660174D01*
X18236849Y-12660174D02*
X18246373Y-12679222D01*
X18246373Y-12679222D02*
X18246373Y-12783984D01*
X18370182Y-12783984D02*
X18351134Y-12774460D01*
X18351134Y-12774460D02*
X18341611Y-12764936D01*
X18341611Y-12764936D02*
X18332087Y-12745888D01*
X18332087Y-12745888D02*
X18332087Y-12688746D01*
X18332087Y-12688746D02*
X18341611Y-12669698D01*
X18341611Y-12669698D02*
X18351134Y-12660174D01*
X18351134Y-12660174D02*
X18370182Y-12650650D01*
X18370182Y-12650650D02*
X18398754Y-12650650D01*
X18398754Y-12650650D02*
X18417801Y-12660174D01*
X18417801Y-12660174D02*
X18427325Y-12669698D01*
X18427325Y-12669698D02*
X18436849Y-12688746D01*
X18436849Y-12688746D02*
X18436849Y-12745888D01*
X18436849Y-12745888D02*
X18427325Y-12764936D01*
X18427325Y-12764936D02*
X18417801Y-12774460D01*
X18417801Y-12774460D02*
X18398754Y-12783984D01*
X18398754Y-12783984D02*
X18370182Y-12783984D01*
X18493992Y-12650650D02*
X18570182Y-12650650D01*
X18522563Y-12583984D02*
X18522563Y-12755412D01*
X18522563Y-12755412D02*
X18532087Y-12774460D01*
X18532087Y-12774460D02*
X18551134Y-12783984D01*
X18551134Y-12783984D02*
X18570182Y-12783984D01*
X18789230Y-12650650D02*
X18789230Y-12850650D01*
X18789230Y-12660174D02*
X18808277Y-12650650D01*
X18808277Y-12650650D02*
X18846373Y-12650650D01*
X18846373Y-12650650D02*
X18865420Y-12660174D01*
X18865420Y-12660174D02*
X18874944Y-12669698D01*
X18874944Y-12669698D02*
X18884468Y-12688746D01*
X18884468Y-12688746D02*
X18884468Y-12745888D01*
X18884468Y-12745888D02*
X18874944Y-12764936D01*
X18874944Y-12764936D02*
X18865420Y-12774460D01*
X18865420Y-12774460D02*
X18846373Y-12783984D01*
X18846373Y-12783984D02*
X18808277Y-12783984D01*
X18808277Y-12783984D02*
X18789230Y-12774460D01*
X18998754Y-12783984D02*
X18979706Y-12774460D01*
X18979706Y-12774460D02*
X18970182Y-12755412D01*
X18970182Y-12755412D02*
X18970182Y-12583984D01*
X19160658Y-12783984D02*
X19160658Y-12679222D01*
X19160658Y-12679222D02*
X19151135Y-12660174D01*
X19151135Y-12660174D02*
X19132087Y-12650650D01*
X19132087Y-12650650D02*
X19093992Y-12650650D01*
X19093992Y-12650650D02*
X19074944Y-12660174D01*
X19160658Y-12774460D02*
X19141611Y-12783984D01*
X19141611Y-12783984D02*
X19093992Y-12783984D01*
X19093992Y-12783984D02*
X19074944Y-12774460D01*
X19074944Y-12774460D02*
X19065420Y-12755412D01*
X19065420Y-12755412D02*
X19065420Y-12736365D01*
X19065420Y-12736365D02*
X19074944Y-12717317D01*
X19074944Y-12717317D02*
X19093992Y-12707793D01*
X19093992Y-12707793D02*
X19141611Y-12707793D01*
X19141611Y-12707793D02*
X19160658Y-12698269D01*
X19227325Y-12650650D02*
X19303515Y-12650650D01*
X19255896Y-12583984D02*
X19255896Y-12755412D01*
X19255896Y-12755412D02*
X19265420Y-12774460D01*
X19265420Y-12774460D02*
X19284468Y-12783984D01*
X19284468Y-12783984D02*
X19303515Y-12783984D01*
X19446373Y-12774460D02*
X19427325Y-12783984D01*
X19427325Y-12783984D02*
X19389230Y-12783984D01*
X19389230Y-12783984D02*
X19370182Y-12774460D01*
X19370182Y-12774460D02*
X19360658Y-12755412D01*
X19360658Y-12755412D02*
X19360658Y-12679222D01*
X19360658Y-12679222D02*
X19370182Y-12660174D01*
X19370182Y-12660174D02*
X19389230Y-12650650D01*
X19389230Y-12650650D02*
X19427325Y-12650650D01*
X19427325Y-12650650D02*
X19446373Y-12660174D01*
X19446373Y-12660174D02*
X19455896Y-12679222D01*
X19455896Y-12679222D02*
X19455896Y-12698269D01*
X19455896Y-12698269D02*
X19360658Y-12717317D01*
X19627325Y-12783984D02*
X19627325Y-12583984D01*
X19627325Y-12774460D02*
X19608277Y-12783984D01*
X19608277Y-12783984D02*
X19570182Y-12783984D01*
X19570182Y-12783984D02*
X19551135Y-12774460D01*
X19551135Y-12774460D02*
X19541611Y-12764936D01*
X19541611Y-12764936D02*
X19532087Y-12745888D01*
X19532087Y-12745888D02*
X19532087Y-12688746D01*
X19532087Y-12688746D02*
X19541611Y-12669698D01*
X19541611Y-12669698D02*
X19551135Y-12660174D01*
X19551135Y-12660174D02*
X19570182Y-12650650D01*
X19570182Y-12650650D02*
X19608277Y-12650650D01*
X19608277Y-12650650D02*
X19627325Y-12660174D01*
X19703516Y-12860174D02*
X19713039Y-12850650D01*
X19713039Y-12850650D02*
X19732087Y-12822079D01*
X19732087Y-12822079D02*
X19741611Y-12803031D01*
X19741611Y-12803031D02*
X19751135Y-12774460D01*
X19751135Y-12774460D02*
X19760658Y-12726841D01*
X19760658Y-12726841D02*
X19760658Y-12688746D01*
X19760658Y-12688746D02*
X19751135Y-12641127D01*
X19751135Y-12641127D02*
X19741611Y-12612555D01*
X19741611Y-12612555D02*
X19732087Y-12593508D01*
X19732087Y-12593508D02*
X19713039Y-12564936D01*
X19713039Y-12564936D02*
X19703516Y-12555412D01*
M02*
