%TF.GenerationSoftware,KiCad,Pcbnew,10.0.5*%
%TF.CreationDate,2026-08-25T10:36:00+02:00*%
%TF.ProjectId,Flight Controller,466c6967-6874-4204-936f-6e74726f6c6c,rev?*%
%TF.SameCoordinates,Original*%
%TF.FileFunction,Copper,L4,Bot*%
%TF.FilePolarity,Positive*%
%FSLAX46Y46*%
G04 Gerber Fmt 4.6, Leading zero omitted, Abs format (unit mm)*
G04 Created by KiCad (PCBNEW 10.0.5) date 2026-08-25 10:36:00*
%MOMM*%
%LPD*%
G01*
G04 APERTURE LIST*
G04 Aperture macros list*
%AMRoundRect*
0 Rectangle with rounded corners*
0 $1 Rounding radius*
0 $2 $3 $4 $5 $6 $7 $8 $9 X,Y pos of 4 corners*
0 Add a 4 corners polygon primitive as box body*
4,1,4,$2,$3,$4,$5,$6,$7,$8,$9,$2,$3,0*
0 Add four circle primitives for the rounded corners*
1,1,$1+$1,$2,$3*
1,1,$1+$1,$4,$5*
1,1,$1+$1,$6,$7*
1,1,$1+$1,$8,$9*
0 Add four rect primitives between the rounded corners*
20,1,$1+$1,$2,$3,$4,$5,0*
20,1,$1+$1,$4,$5,$6,$7,0*
20,1,$1+$1,$6,$7,$8,$9,0*
20,1,$1+$1,$8,$9,$2,$3,0*%
G04 Aperture macros list end*
%TA.AperFunction,ComponentPad*%
%ADD10C,0.600000*%
%TD*%
%TA.AperFunction,ComponentPad*%
%ADD11C,0.700000*%
%TD*%
%TA.AperFunction,ComponentPad*%
%ADD12O,2.400000X0.900000*%
%TD*%
%TA.AperFunction,ComponentPad*%
%ADD13O,1.700000X0.900000*%
%TD*%
%TA.AperFunction,SMDPad,CuDef*%
%ADD14R,1.500000X1.000000*%
%TD*%
%TA.AperFunction,SMDPad,CuDef*%
%ADD15RoundRect,0.250000X0.350000X-0.450000X0.350000X0.450000X-0.350000X0.450000X-0.350000X-0.450000X0*%
%TD*%
%TA.AperFunction,SMDPad,CuDef*%
%ADD16RoundRect,0.135000X0.135000X0.185000X-0.135000X0.185000X-0.135000X-0.185000X0.135000X-0.185000X0*%
%TD*%
%TA.AperFunction,SMDPad,CuDef*%
%ADD17RoundRect,0.140000X-0.170000X0.140000X-0.170000X-0.140000X0.170000X-0.140000X0.170000X0.140000X0*%
%TD*%
%TA.AperFunction,SMDPad,CuDef*%
%ADD18RoundRect,0.225000X0.250000X-0.225000X0.250000X0.225000X-0.250000X0.225000X-0.250000X-0.225000X0*%
%TD*%
%TA.AperFunction,SMDPad,CuDef*%
%ADD19RoundRect,0.140000X-0.140000X-0.170000X0.140000X-0.170000X0.140000X0.170000X-0.140000X0.170000X0*%
%TD*%
%TA.AperFunction,SMDPad,CuDef*%
%ADD20RoundRect,0.135000X0.185000X-0.135000X0.185000X0.135000X-0.185000X0.135000X-0.185000X-0.135000X0*%
%TD*%
%TA.AperFunction,SMDPad,CuDef*%
%ADD21R,0.600000X1.550000*%
%TD*%
%TA.AperFunction,SMDPad,CuDef*%
%ADD22R,1.200000X1.800000*%
%TD*%
%TA.AperFunction,SMDPad,CuDef*%
%ADD23RoundRect,0.135000X-0.185000X0.135000X-0.185000X-0.135000X0.185000X-0.135000X0.185000X0.135000X0*%
%TD*%
%TA.AperFunction,SMDPad,CuDef*%
%ADD24RoundRect,0.250000X0.250000X0.475000X-0.250000X0.475000X-0.250000X-0.475000X0.250000X-0.475000X0*%
%TD*%
%TA.AperFunction,SMDPad,CuDef*%
%ADD25RoundRect,0.140000X0.170000X-0.140000X0.170000X0.140000X-0.170000X0.140000X-0.170000X-0.140000X0*%
%TD*%
%TA.AperFunction,SMDPad,CuDef*%
%ADD26C,1.000000*%
%TD*%
%TA.AperFunction,SMDPad,CuDef*%
%ADD27R,0.350000X0.350000*%
%TD*%
%TA.AperFunction,SMDPad,CuDef*%
%ADD28RoundRect,0.250000X0.475000X-0.250000X0.475000X0.250000X-0.475000X0.250000X-0.475000X-0.250000X0*%
%TD*%
%TA.AperFunction,SMDPad,CuDef*%
%ADD29RoundRect,0.250000X-0.450000X-0.350000X0.450000X-0.350000X0.450000X0.350000X-0.450000X0.350000X0*%
%TD*%
%TA.AperFunction,SMDPad,CuDef*%
%ADD30RoundRect,0.135000X-0.135000X-0.185000X0.135000X-0.185000X0.135000X0.185000X-0.135000X0.185000X0*%
%TD*%
%TA.AperFunction,SMDPad,CuDef*%
%ADD31RoundRect,0.225000X-0.225000X-0.250000X0.225000X-0.250000X0.225000X0.250000X-0.225000X0.250000X0*%
%TD*%
%TA.AperFunction,SMDPad,CuDef*%
%ADD32RoundRect,0.150000X0.150000X-0.587500X0.150000X0.587500X-0.150000X0.587500X-0.150000X-0.587500X0*%
%TD*%
%TA.AperFunction,SMDPad,CuDef*%
%ADD33RoundRect,0.125000X0.200000X0.125000X-0.200000X0.125000X-0.200000X-0.125000X0.200000X-0.125000X0*%
%TD*%
%TA.AperFunction,HeatsinkPad*%
%ADD34R,3.400000X4.300000*%
%TD*%
%TA.AperFunction,SMDPad,CuDef*%
%ADD35RoundRect,0.147500X-0.147500X-0.172500X0.147500X-0.172500X0.147500X0.172500X-0.147500X0.172500X0*%
%TD*%
%TA.AperFunction,SMDPad,CuDef*%
%ADD36RoundRect,0.140000X0.140000X0.170000X-0.140000X0.170000X-0.140000X-0.170000X0.140000X-0.170000X0*%
%TD*%
%TA.AperFunction,SMDPad,CuDef*%
%ADD37R,1.550000X0.600000*%
%TD*%
%TA.AperFunction,SMDPad,CuDef*%
%ADD38R,1.800000X1.200000*%
%TD*%
%TA.AperFunction,SMDPad,CuDef*%
%ADD39R,1.475000X0.450000*%
%TD*%
%TA.AperFunction,SMDPad,CuDef*%
%ADD40R,2.750000X6.200000*%
%TD*%
%TA.AperFunction,SMDPad,CuDef*%
%ADD41RoundRect,0.150000X0.512500X0.150000X-0.512500X0.150000X-0.512500X-0.150000X0.512500X-0.150000X0*%
%TD*%
%TA.AperFunction,SMDPad,CuDef*%
%ADD42RoundRect,0.250000X-0.475000X0.250000X-0.475000X-0.250000X0.475000X-0.250000X0.475000X0.250000X0*%
%TD*%
%TA.AperFunction,SMDPad,CuDef*%
%ADD43RoundRect,0.150000X-0.512500X-0.150000X0.512500X-0.150000X0.512500X0.150000X-0.512500X0.150000X0*%
%TD*%
%TA.AperFunction,SMDPad,CuDef*%
%ADD44RoundRect,0.087500X-0.207500X-0.087500X0.207500X-0.087500X0.207500X0.087500X-0.207500X0.087500X0*%
%TD*%
%TA.AperFunction,SMDPad,CuDef*%
%ADD45RoundRect,0.087500X-0.087500X-0.207500X0.087500X-0.207500X0.087500X0.207500X-0.087500X0.207500X0*%
%TD*%
%TA.AperFunction,SMDPad,CuDef*%
%ADD46RoundRect,0.200000X1.150000X-0.200000X1.150000X0.200000X-1.150000X0.200000X-1.150000X-0.200000X0*%
%TD*%
%TA.AperFunction,ViaPad*%
%ADD47C,0.600000*%
%TD*%
%TA.AperFunction,ViaPad*%
%ADD48C,0.800000*%
%TD*%
%TA.AperFunction,Conductor*%
%ADD49C,0.500000*%
%TD*%
%TA.AperFunction,Conductor*%
%ADD50C,0.400000*%
%TD*%
%TA.AperFunction,Conductor*%
%ADD51C,0.900000*%
%TD*%
%TA.AperFunction,Conductor*%
%ADD52C,0.300000*%
%TD*%
%TA.AperFunction,Conductor*%
%ADD53C,0.600000*%
%TD*%
%TA.AperFunction,Conductor*%
%ADD54C,1.500000*%
%TD*%
%TA.AperFunction,Conductor*%
%ADD55C,1.000000*%
%TD*%
%TA.AperFunction,Conductor*%
%ADD56C,0.127000*%
%TD*%
%TA.AperFunction,Conductor*%
%ADD57C,0.150000*%
%TD*%
%TA.AperFunction,Conductor*%
%ADD58C,0.200000*%
%TD*%
%TA.AperFunction,Conductor*%
%ADD59C,0.250000*%
%TD*%
G04 APERTURE END LIST*
D10*
%TO.P,U_BUCK1,V1,GND_V1*%
%TO.N,GND*%
X134000000Y-103050000D03*
%TO.P,U_BUCK1,V2,GND_V2*%
X134000000Y-101750000D03*
%TO.P,U_BUCK1,V3,GND_V3*%
X135200000Y-103050000D03*
%TO.P,U_BUCK1,V4,GND_V4*%
X135200000Y-101750000D03*
%TO.P,U_BUCK1,V5,GND_V5*%
X136400000Y-103050000D03*
%TO.P,U_BUCK1,V6,GND_V6*%
X136400000Y-101750000D03*
%TD*%
D11*
%TO.P,J_USB1,A1,GND_A1*%
%TO.N,GND*%
X161725000Y-96725000D03*
%TO.P,J_USB1,A4,VBUS_A4*%
%TO.N,/Interfaces&IO/+5V_USB*%
X161725000Y-95875000D03*
%TO.P,J_USB1,A5,CC1_A5*%
%TO.N,Net-(J_USB1-CC1)*%
X161725000Y-95025000D03*
%TO.P,J_USB1,A6,D+_A6*%
%TO.N,/Interfaces&IO/USB_C_DP*%
X161725000Y-94175000D03*
%TO.P,J_USB1,A7,D-_A7*%
%TO.N,/Interfaces&IO/USB_C_DN*%
X161725000Y-93325000D03*
%TO.P,J_USB1,A8,SBU1_A8*%
%TO.N,unconnected-(J_USB1-SBU1-PadA8)*%
X161725000Y-92475000D03*
%TO.P,J_USB1,A9,VBUS_A9*%
%TO.N,/Interfaces&IO/+5V_USB*%
X161725000Y-91625000D03*
%TO.P,J_USB1,A12,GND_A12*%
%TO.N,GND*%
X161725000Y-90775000D03*
%TO.P,J_USB1,B1,GND_B1*%
X163075000Y-90775000D03*
%TO.P,J_USB1,B4,VBUS_B4*%
%TO.N,/Interfaces&IO/+5V_USB*%
X163075000Y-91625000D03*
%TO.P,J_USB1,B5,CC2_B5*%
%TO.N,Net-(J_USB1-CC2)*%
X163075000Y-92475000D03*
%TO.P,J_USB1,B6,D+_B6*%
%TO.N,/Interfaces&IO/USB_C_DP*%
X163075000Y-93325000D03*
%TO.P,J_USB1,B7,D-_B7*%
%TO.N,/Interfaces&IO/USB_C_DN*%
X163075000Y-94175000D03*
%TO.P,J_USB1,B8,SBU2_B8*%
%TO.N,unconnected-(J_USB1-SBU2-PadB8)*%
X163075000Y-95025000D03*
%TO.P,J_USB1,B9,VBUS_B9*%
%TO.N,/Interfaces&IO/+5V_USB*%
X163075000Y-95875000D03*
%TO.P,J_USB1,B12,GND_B12*%
%TO.N,GND*%
X163075000Y-96725000D03*
D12*
%TO.P,J_USB1,SH,SHIELD_SH*%
%TO.N,Net-(J_USB1-SHIELD)*%
X162705000Y-98075000D03*
D13*
X166085000Y-98075000D03*
D12*
X162705000Y-89425000D03*
D13*
X166085000Y-89425000D03*
%TD*%
D14*
%TO.P,JP_BOOT0,1,A_1*%
%TO.N,+3V3*%
X143750000Y-86150000D03*
%TO.P,JP_BOOT0,2,B_2*%
%TO.N,Net-(JP_BOOT0-B)*%
X143750000Y-84850000D03*
%TD*%
D15*
%TO.P,Y_HSE1,1,1_1*%
%TO.N,Net-(C_HSE1-Pad2)*%
X140300000Y-95800000D03*
%TO.P,Y_HSE1,2,G_2*%
%TO.N,GND*%
X140300000Y-93600000D03*
%TO.P,Y_HSE1,3,3_3*%
%TO.N,/MCU Core/RCC_OSC_IN*%
X142000000Y-93600000D03*
%TO.P,Y_HSE1,4,G_4*%
%TO.N,GND*%
X142000000Y-95800000D03*
%TD*%
D16*
%TO.P,R_USB_SH1,1*%
%TO.N,Net-(J_USB1-SHIELD)*%
X166510000Y-97000000D03*
%TO.P,R_USB_SH1,2*%
%TO.N,GND*%
X165490000Y-97000000D03*
%TD*%
D17*
%TO.P,C_VID_IN_AC1,1*%
%TO.N,/Video&OSD/VIDEO_IN*%
X157000000Y-85770000D03*
%TO.P,C_VID_IN_AC1,2*%
%TO.N,Net-(U_OSD1-VIN)*%
X157000000Y-86730000D03*
%TD*%
D18*
%TO.P,C_3V3_BULK1,1*%
%TO.N,+3V3*%
X136750000Y-96775000D03*
%TO.P,C_3V3_BULK1,2*%
%TO.N,GND*%
X136750000Y-95225000D03*
%TD*%
D19*
%TO.P,C_LDO_IN1,1*%
%TO.N,+5V*%
X132520000Y-93750000D03*
%TO.P,C_LDO_IN1,2*%
%TO.N,GND*%
X133480000Y-93750000D03*
%TD*%
D20*
%TO.P,R_FLASH_WP1,1*%
%TO.N,+3V3*%
X164000000Y-108010000D03*
%TO.P,R_FLASH_WP1,2*%
%TO.N,Net-(U_FLASH1-~{WP}{slash}IO_{2})*%
X164000000Y-106990000D03*
%TD*%
D21*
%TO.P,J_GPS1,1,1_1*%
%TO.N,+5V*%
X154500000Y-116225000D03*
%TO.P,J_GPS1,2,2_2*%
%TO.N,/Interfaces&IO/GPS_RX*%
X155500000Y-116225000D03*
%TO.P,J_GPS1,3,3_3*%
%TO.N,/Interfaces&IO/GPS_TX*%
X156500000Y-116225000D03*
%TO.P,J_GPS1,4,4_4*%
%TO.N,/MCU Core/I2C1_SDA*%
X157500000Y-116225000D03*
%TO.P,J_GPS1,5,5_5*%
%TO.N,/MCU Core/I2C1_SCL*%
X158500000Y-116225000D03*
%TO.P,J_GPS1,6,6_6*%
%TO.N,GND*%
X159500000Y-116225000D03*
D22*
%TO.P,J_GPS1,S1,SHIELD_S1*%
X153200000Y-118750000D03*
%TO.P,J_GPS1,S2,SHIELD_S2*%
X160800000Y-118750000D03*
%TD*%
D23*
%TO.P,R_VID_OUT_T1,1*%
%TO.N,/Video&OSD/VIDEO_OUT*%
X151000000Y-81720000D03*
%TO.P,R_VID_OUT_T1,2*%
%TO.N,Net-(C_OSD_SAG1-Pad1)*%
X151000000Y-82740000D03*
%TD*%
D24*
%TO.P,C_VID1,1*%
%TO.N,+5V_VIDEO*%
X136450000Y-89250000D03*
%TO.P,C_VID1,2*%
%TO.N,GND*%
X134550000Y-89250000D03*
%TD*%
D23*
%TO.P,R_BUCK_FB1,1*%
%TO.N,+5V*%
X139750000Y-101490000D03*
%TO.P,R_BUCK_FB1,2*%
%TO.N,Net-(U_BUCK1-FB)*%
X139750000Y-102510000D03*
%TD*%
D16*
%TO.P,R_CC2,1*%
%TO.N,Net-(J_USB1-CC2)*%
X159380000Y-91000000D03*
%TO.P,R_CC2,2*%
%TO.N,GND*%
X158360000Y-91000000D03*
%TD*%
D25*
%TO.P,C_VDDA_HF1,1*%
%TO.N,Net-(U_MCU1-VDDA)*%
X144900000Y-97730000D03*
%TO.P,C_VDDA_HF1,2*%
%TO.N,GND*%
X144900000Y-96770000D03*
%TD*%
D23*
%TO.P,R_VID_IN_T1,1*%
%TO.N,/Video&OSD/VIDEO_IN*%
X158000000Y-85740000D03*
%TO.P,R_VID_IN_T1,2*%
%TO.N,GND*%
X158000000Y-86760000D03*
%TD*%
%TO.P,R_OSD_RST1,1*%
%TO.N,+3V3*%
X154500000Y-86240000D03*
%TO.P,R_OSD_RST1,2*%
%TO.N,Net-(U_OSD1-~{RESET})*%
X154500000Y-87260000D03*
%TD*%
D25*
%TO.P,C_VDDA1,1*%
%TO.N,Net-(U_MCU1-VDDA)*%
X146100000Y-97730000D03*
%TO.P,C_VDDA1,2*%
%TO.N,GND*%
X146100000Y-96770000D03*
%TD*%
%TO.P,C_HSE1,1*%
%TO.N,GND*%
X138750000Y-96750000D03*
%TO.P,C_HSE1,2*%
%TO.N,Net-(C_HSE1-Pad2)*%
X138750000Y-95790000D03*
%TD*%
D19*
%TO.P,C_IMU_VDD1,1*%
%TO.N,Net-(U_IMU1-VDD)*%
X152500000Y-99750000D03*
%TO.P,C_IMU_VDD1,2*%
%TO.N,GND*%
X153460000Y-99750000D03*
%TD*%
D26*
%TO.P,TP_IMU_INT_0,1,1_1*%
%TO.N,/MCU Core/IMU_INT*%
X151750000Y-103000000D03*
%TD*%
D27*
%TO.P,U_BARO1,1,GND_1*%
%TO.N,GND*%
X152275000Y-104675000D03*
%TO.P,U_BARO1,2,~{CSB}_2*%
%TO.N,+3V3*%
X151625000Y-104675000D03*
%TO.P,U_BARO1,3,SDI_3*%
%TO.N,/MCU Core/I2C1_SDA*%
X150975000Y-104675000D03*
%TO.P,U_BARO1,4,SCK_4*%
%TO.N,/MCU Core/I2C1_SCL*%
X150325000Y-104675000D03*
%TO.P,U_BARO1,5,SDO_5*%
%TO.N,GND*%
X150325000Y-106125000D03*
%TO.P,U_BARO1,6,VDDIO_6*%
%TO.N,+3V3*%
X150975000Y-106125000D03*
%TO.P,U_BARO1,7,GND_7*%
%TO.N,GND*%
X151625000Y-106125000D03*
%TO.P,U_BARO1,8,VDD_8*%
%TO.N,+3V3*%
X152275000Y-106125000D03*
%TD*%
D25*
%TO.P,C_OSD_AVDD1,1*%
%TO.N,GND*%
X157000000Y-89980000D03*
%TO.P,C_OSD_AVDD1,2*%
%TO.N,+5V_VIDEO*%
X157000000Y-89020000D03*
%TD*%
D28*
%TO.P,C_VID_OUT_AC1,1*%
%TO.N,Net-(U_OSD1-VOUT)*%
X147000000Y-83950000D03*
%TO.P,C_VID_OUT_AC1,2*%
%TO.N,Net-(C_OSD_SAG1-Pad1)*%
X147000000Y-82050000D03*
%TD*%
D25*
%TO.P,C_VID3,1*%
%TO.N,+5V_VIDEO*%
X138000000Y-89750000D03*
%TO.P,C_VID3,2*%
%TO.N,GND*%
X138000000Y-88790000D03*
%TD*%
D29*
%TO.P,Y_OSD1,1,1_1*%
%TO.N,/Video&OSD/OSD_CLK_OUT*%
X139900000Y-88400000D03*
%TO.P,Y_OSD1,2,G_2*%
%TO.N,GND*%
X142100000Y-88400000D03*
%TO.P,Y_OSD1,3,3_3*%
%TO.N,/Video&OSD/OSD_CLK_IN*%
X142100000Y-90100000D03*
%TO.P,Y_OSD1,4,G_4*%
%TO.N,GND*%
X139900000Y-90100000D03*
%TD*%
D20*
%TO.P,R_CURR_F1,1*%
%TO.N,/Interfaces&IO/ESC_CURR*%
X141000000Y-98510000D03*
%TO.P,R_CURR_F1,2*%
%TO.N,/Interfaces&IO/ESC_CURR_IN*%
X141000000Y-97490000D03*
%TD*%
D25*
%TO.P,C_BARO2,1*%
%TO.N,+3V3*%
X154500000Y-106230000D03*
%TO.P,C_BARO2,2*%
%TO.N,GND*%
X154500000Y-105270000D03*
%TD*%
D30*
%TO.P,R_BUCK_RT1,1*%
%TO.N,Net-(U_BUCK1-RT{slash}SYNC)*%
X136540000Y-106850000D03*
%TO.P,R_BUCK_RT1,2*%
%TO.N,GND*%
X137560000Y-106850000D03*
%TD*%
%TO.P,R_I2C_SCL1,1*%
%TO.N,+3V3*%
X149990000Y-97000000D03*
%TO.P,R_I2C_SCL1,2*%
%TO.N,/MCU Core/I2C1_SCL*%
X151010000Y-97000000D03*
%TD*%
%TO.P,R_HSE2,1*%
%TO.N,Net-(C_HSE1-Pad2)*%
X142240000Y-97500000D03*
%TO.P,R_HSE2,2*%
%TO.N,/MCU Core/RCC_OSC_OUT*%
X143260000Y-97500000D03*
%TD*%
D25*
%TO.P,C_HSE2,1*%
%TO.N,GND*%
X138750000Y-93980000D03*
%TO.P,C_HSE2,2*%
%TO.N,/MCU Core/RCC_OSC_IN*%
X138750000Y-93020000D03*
%TD*%
%TO.P,C_OSD_XTAL1,1*%
%TO.N,GND*%
X143600000Y-90080000D03*
%TO.P,C_OSD_XTAL1,2*%
%TO.N,/Video&OSD/OSD_CLK_IN*%
X143600000Y-89120000D03*
%TD*%
D31*
%TO.P,C_OSD_PVDD1,1*%
%TO.N,+5V_VIDEO*%
X156725000Y-84000000D03*
%TO.P,C_OSD_PVDD1,2*%
%TO.N,GND*%
X158275000Y-84000000D03*
%TD*%
D32*
%TO.P,D_VID_CLAMP1,1,K_1*%
%TO.N,GND*%
X161950000Y-86187500D03*
%TO.P,D_VID_CLAMP1,2,A_2*%
%TO.N,+5V_VIDEO*%
X160050000Y-86187500D03*
%TO.P,D_VID_CLAMP1,3,K_3*%
%TO.N,/Video&OSD/VIDEO_IN*%
X161000000Y-84312500D03*
%TD*%
D23*
%TO.P,R_BOOT0,1*%
%TO.N,GND*%
X145500000Y-83990000D03*
%TO.P,R_BOOT0,2*%
%TO.N,Net-(JP_BOOT0-B)*%
X145500000Y-85010000D03*
%TD*%
D33*
%TO.P,U_FLASH1,1,~{CS}_1*%
%TO.N,/MCU Core/FLASH_CS*%
X163350000Y-101195000D03*
%TO.P,U_FLASH1,2,DO/IO_{1}_2*%
%TO.N,/MCU Core/SPI2_MISO*%
X163350000Y-102465000D03*
%TO.P,U_FLASH1,3,~{WP}/IO_{2}_3*%
%TO.N,Net-(U_FLASH1-~{WP}{slash}IO_{2})*%
X163350000Y-103735000D03*
%TO.P,U_FLASH1,4,GND_4*%
%TO.N,GND*%
X163350000Y-105005000D03*
%TO.P,U_FLASH1,5,DI/IO_{0}_5*%
%TO.N,/MCU Core/SPI2_MOSI*%
X155850000Y-105005000D03*
%TO.P,U_FLASH1,6,CLK_6*%
%TO.N,/MCU Core/SPI2_SCK*%
X155850000Y-103735000D03*
%TO.P,U_FLASH1,7,~{HOLD}/~{RESET}/IO_{3}_7*%
%TO.N,Net-(U_FLASH1-~{HOLD}{slash}~{RESET}{slash}IO_{3})*%
X155850000Y-102465000D03*
%TO.P,U_FLASH1,8,VCC_8*%
%TO.N,+3V3*%
X155850000Y-101195000D03*
D34*
%TO.P,U_FLASH1,9,EP_9*%
%TO.N,GND*%
X159600000Y-103100000D03*
%TD*%
D25*
%TO.P,C_IMU_VIO2,1*%
%TO.N,+3V3*%
X147500000Y-98000000D03*
%TO.P,C_IMU_VIO2,2*%
%TO.N,GND*%
X147500000Y-97040000D03*
%TD*%
D35*
%TO.P,FB_VDDA1,1*%
%TO.N,+3V3*%
X144515000Y-98900000D03*
%TO.P,FB_VDDA1,2*%
%TO.N,Net-(U_MCU1-VDDA)*%
X145485000Y-98900000D03*
%TD*%
D25*
%TO.P,C_BARO1,1*%
%TO.N,+3V3*%
X153500000Y-106230000D03*
%TO.P,C_BARO1,2*%
%TO.N,GND*%
X153500000Y-105270000D03*
%TD*%
D36*
%TO.P,C_FLASH1,1*%
%TO.N,+3V3*%
X154480000Y-102000000D03*
%TO.P,C_FLASH1,2*%
%TO.N,GND*%
X153520000Y-102000000D03*
%TD*%
D37*
%TO.P,J_ESC1,1,1_1*%
%TO.N,VBAT*%
X165525000Y-108700000D03*
%TO.P,J_ESC1,2,2_2*%
%TO.N,GND*%
X165525000Y-107700000D03*
%TO.P,J_ESC1,3,3_3*%
%TO.N,/Interfaces&IO/M1*%
X165525000Y-106700000D03*
%TO.P,J_ESC1,4,4_4*%
%TO.N,/Interfaces&IO/M2*%
X165525000Y-105700000D03*
%TO.P,J_ESC1,5,5_5*%
%TO.N,/Interfaces&IO/M3*%
X165525000Y-104700000D03*
%TO.P,J_ESC1,6,6_6*%
%TO.N,/Interfaces&IO/M4*%
X165525000Y-103700000D03*
%TO.P,J_ESC1,7,7_7*%
%TO.N,/Interfaces&IO/ESC_CURR_IN*%
X165525000Y-102700000D03*
%TO.P,J_ESC1,8,8_8*%
%TO.N,/Interfaces&IO/ESC_TEL*%
X165525000Y-101700000D03*
D38*
%TO.P,J_ESC1,S1,SHIELD_S1*%
%TO.N,GND*%
X168050000Y-110000000D03*
%TO.P,J_ESC1,S2,SHIELD_S2*%
X168050000Y-100400000D03*
%TD*%
D16*
%TO.P,R_CC1,1*%
%TO.N,Net-(J_USB1-CC1)*%
X159380000Y-96250000D03*
%TO.P,R_CC1,2*%
%TO.N,GND*%
X158360000Y-96250000D03*
%TD*%
D39*
%TO.P,U_OSD1,1,N.C._1_1*%
%TO.N,unconnected-(U_OSD1-N.C._1-Pad1)*%
X147000000Y-94550000D03*
%TO.P,U_OSD1,2,N.C._2_2*%
%TO.N,unconnected-(U_OSD1-N.C._2-Pad2)*%
X147000000Y-93900000D03*
%TO.P,U_OSD1,3,DVDD_3*%
%TO.N,+3V3*%
X147000000Y-93250000D03*
%TO.P,U_OSD1,4,DGND_4*%
%TO.N,GND*%
X147000000Y-92600000D03*
%TO.P,U_OSD1,5,CLKIN_5*%
%TO.N,/Video&OSD/OSD_CLK_IN*%
X147000000Y-91950000D03*
%TO.P,U_OSD1,6,XFB_6*%
%TO.N,/Video&OSD/OSD_CLK_OUT*%
X147000000Y-91300000D03*
%TO.P,U_OSD1,7,CLKOUT_7*%
%TO.N,unconnected-(U_OSD1-CLKOUT-Pad7)*%
X147000000Y-90650000D03*
%TO.P,U_OSD1,8,~{CS}_8*%
%TO.N,/MCU Core/OSD_CS*%
X147000000Y-90000000D03*
%TO.P,U_OSD1,9,SDIN_9*%
%TO.N,/MCU Core/SPI3_MOSI*%
X147000000Y-89350000D03*
%TO.P,U_OSD1,10,SCLK_10*%
%TO.N,/MCU Core/SPI3_SCK*%
X147000000Y-88700000D03*
%TO.P,U_OSD1,11,SDOUT_11*%
%TO.N,/MCU Core/SPI3_MISO*%
X147000000Y-88050000D03*
%TO.P,U_OSD1,12,LOS_12*%
%TO.N,unconnected-(U_OSD1-LOS-Pad12)*%
X147000000Y-87400000D03*
%TO.P,U_OSD1,13,SYNC_IN_13*%
%TO.N,GND*%
X147000000Y-86750000D03*
%TO.P,U_OSD1,14,N.C._3_14*%
%TO.N,unconnected-(U_OSD1-N.C._3-Pad14)*%
X147000000Y-86100000D03*
%TO.P,U_OSD1,15,N.C._4_15*%
%TO.N,unconnected-(U_OSD1-N.C._4-Pad15)*%
X152876000Y-86100000D03*
%TO.P,U_OSD1,16,N.C._5_16*%
%TO.N,unconnected-(U_OSD1-N.C._5-Pad16)*%
X152876000Y-86750000D03*
%TO.P,U_OSD1,17,~{VSYNC}_17*%
%TO.N,unconnected-(U_OSD1-~{VSYNC}-Pad17)*%
X152876000Y-87400000D03*
%TO.P,U_OSD1,18,~{HSYNC}_18*%
%TO.N,unconnected-(U_OSD1-~{HSYNC}-Pad18)*%
X152876000Y-88050000D03*
%TO.P,U_OSD1,19,~{RESET}_19*%
%TO.N,Net-(U_OSD1-~{RESET})*%
X152876000Y-88700000D03*
%TO.P,U_OSD1,20,AGND_20*%
%TO.N,GND*%
X152876000Y-89350000D03*
%TO.P,U_OSD1,21,AVDD_21*%
%TO.N,+5V_VIDEO*%
X152876000Y-90000000D03*
%TO.P,U_OSD1,22,VIN_22*%
%TO.N,Net-(U_OSD1-VIN)*%
X152876000Y-90650000D03*
%TO.P,U_OSD1,23,PGND_23*%
%TO.N,GND*%
X152876000Y-91300000D03*
%TO.P,U_OSD1,24,PVDD_24*%
%TO.N,+5V_VIDEO*%
X152876000Y-91950000D03*
%TO.P,U_OSD1,25,SAG_25*%
%TO.N,Net-(U_OSD1-SAG)*%
X152876000Y-92600000D03*
%TO.P,U_OSD1,26,VOUT_26*%
%TO.N,Net-(U_OSD1-VOUT)*%
X152876000Y-93250000D03*
%TO.P,U_OSD1,27,N.C._6_27*%
%TO.N,unconnected-(U_OSD1-N.C._6-Pad27)*%
X152876000Y-93900000D03*
%TO.P,U_OSD1,28,N.C._7_28*%
%TO.N,unconnected-(U_OSD1-N.C._7-Pad28)*%
X152876000Y-94550000D03*
D40*
%TO.P,U_OSD1,29,THERMALPAD_29*%
%TO.N,GND*%
X149938000Y-90325000D03*
%TD*%
D20*
%TO.P,R_VID_BYPASS1,1*%
%TO.N,/Video&OSD/VIDEO_IN*%
X156500000Y-82750000D03*
%TO.P,R_VID_BYPASS1,2*%
%TO.N,/Video&OSD/VIDEO_OUT*%
X156500000Y-81730000D03*
%TD*%
D25*
%TO.P,C_IMU_VIO1,1*%
%TO.N,+3V3*%
X148750000Y-98000000D03*
%TO.P,C_IMU_VIO1,2*%
%TO.N,GND*%
X148750000Y-97040000D03*
%TD*%
D23*
%TO.P,R_BUCK_FB2,1*%
%TO.N,Net-(U_BUCK1-FB)*%
X138750000Y-102490000D03*
%TO.P,R_BUCK_FB2,2*%
%TO.N,GND*%
X138750000Y-103510000D03*
%TD*%
D41*
%TO.P,U_ESD1,1,I/O1_1*%
%TO.N,/Interfaces&IO/USB_C_DP*%
X160137500Y-92600000D03*
%TO.P,U_ESD1,2,GND_2*%
%TO.N,GND*%
X160137500Y-93550000D03*
%TO.P,U_ESD1,3,I/O2_3*%
%TO.N,/Interfaces&IO/USB_C_DN*%
X160137500Y-94500000D03*
%TO.P,U_ESD1,4,I/O2_4*%
%TO.N,/Interfaces&IO/USB_DN*%
X157862500Y-94500000D03*
%TO.P,U_ESD1,5,VBUS_5*%
%TO.N,/Interfaces&IO/+5V_USB*%
X157862500Y-93550000D03*
%TO.P,U_ESD1,6,I/O1_6*%
%TO.N,/Interfaces&IO/USB_DP*%
X157862500Y-92600000D03*
%TD*%
D25*
%TO.P,C_OSD_DVDD1,1*%
%TO.N,GND*%
X145250000Y-94980000D03*
%TO.P,C_OSD_DVDD1,2*%
%TO.N,+3V3*%
X145250000Y-94020000D03*
%TD*%
D19*
%TO.P,C_CURR_F1,1*%
%TO.N,/Interfaces&IO/ESC_CURR*%
X142370000Y-98800000D03*
%TO.P,C_CURR_F1,2*%
%TO.N,GND*%
X143330000Y-98800000D03*
%TD*%
D30*
%TO.P,R_FLASH_HD1,1*%
%TO.N,+3V3*%
X157340000Y-107150000D03*
%TO.P,R_FLASH_HD1,2*%
%TO.N,Net-(U_FLASH1-~{HOLD}{slash}~{RESET}{slash}IO_{3})*%
X158360000Y-107150000D03*
%TD*%
D19*
%TO.P,C_OSD_XTAL2,1*%
%TO.N,GND*%
X140020000Y-87000000D03*
%TO.P,C_OSD_XTAL2,2*%
%TO.N,/Video&OSD/OSD_CLK_OUT*%
X140980000Y-87000000D03*
%TD*%
D42*
%TO.P,C_OSD_SAG1,1*%
%TO.N,Net-(C_OSD_SAG1-Pad1)*%
X149250000Y-82050000D03*
%TO.P,C_OSD_SAG1,2*%
%TO.N,Net-(U_OSD1-SAG)*%
X149250000Y-83950000D03*
%TD*%
D19*
%TO.P,C_IMU_VDD2,1*%
%TO.N,Net-(U_IMU1-VDD)*%
X152500000Y-98750000D03*
%TO.P,C_IMU_VDD2,2*%
%TO.N,GND*%
X153460000Y-98750000D03*
%TD*%
D43*
%TO.P,U_LDO1,1,VIN_1*%
%TO.N,+5V*%
X132112500Y-96950000D03*
%TO.P,U_LDO1,2,GND_2*%
%TO.N,GND*%
X132112500Y-96000000D03*
%TO.P,U_LDO1,3,EN_3*%
%TO.N,+5V*%
X132112500Y-95050000D03*
%TO.P,U_LDO1,4,SH_4*%
%TO.N,GND*%
X134387500Y-95050000D03*
%TO.P,U_LDO1,5,VOUT_5*%
%TO.N,+3V3*%
X134387500Y-96950000D03*
%TD*%
D17*
%TO.P,C_OSD_PVDD2,1*%
%TO.N,+5V_VIDEO*%
X154500000Y-92000000D03*
%TO.P,C_OSD_PVDD2,2*%
%TO.N,GND*%
X154500000Y-92960000D03*
%TD*%
D44*
%TO.P,U_IMU1,1,AP_SDO/AP_AD0_1*%
%TO.N,/MCU Core/SPI1_MISO*%
X148835000Y-100750000D03*
%TO.P,U_IMU1,2,RESV_2_2*%
%TO.N,unconnected-(U_IMU1-RESV_2-Pad2)*%
X148835000Y-100250000D03*
%TO.P,U_IMU1,3,RESV_3_3*%
%TO.N,unconnected-(U_IMU1-RESV_3-Pad3)*%
X148835000Y-99750000D03*
%TO.P,U_IMU1,4,INT1/INT_4*%
%TO.N,/MCU Core/IMU_INT*%
X148835000Y-99250000D03*
D45*
%TO.P,U_IMU1,5,VDDIO_5*%
%TO.N,+3V3*%
X149500000Y-99085000D03*
%TO.P,U_IMU1,6,GND_6*%
%TO.N,GND*%
X150000000Y-99085000D03*
%TO.P,U_IMU1,7,RESV_7_7*%
X150500000Y-99085000D03*
D44*
%TO.P,U_IMU1,8,VDD_8*%
%TO.N,Net-(U_IMU1-VDD)*%
X151165000Y-99250000D03*
%TO.P,U_IMU1,9,INT2/FSYNC/CLKIN_9*%
%TO.N,unconnected-(U_IMU1-INT2{slash}FSYNC{slash}CLKIN-Pad9)*%
X151165000Y-99750000D03*
%TO.P,U_IMU1,10,RESV_10_10*%
%TO.N,unconnected-(U_IMU1-RESV_10-Pad10)*%
X151165000Y-100250000D03*
%TO.P,U_IMU1,11,RESV_11_11*%
%TO.N,unconnected-(U_IMU1-RESV_11-Pad11)*%
X151165000Y-100750000D03*
D45*
%TO.P,U_IMU1,12,AP_CS_12*%
%TO.N,/MCU Core/IMU_CS*%
X150500000Y-100915000D03*
%TO.P,U_IMU1,13,AP_SCL/AP_SCLK_13*%
%TO.N,/MCU Core/SPI1_SCK*%
X150000000Y-100915000D03*
%TO.P,U_IMU1,14,AP_SDA/AP_SDIO/AP_SDI_14*%
%TO.N,/MCU Core/SPI1_MOSI*%
X149500000Y-100915000D03*
%TD*%
D25*
%TO.P,C_BUCK_SS1,1*%
%TO.N,Net-(U_BUCK1-SS)*%
X138650000Y-100380000D03*
%TO.P,C_BUCK_SS1,2*%
%TO.N,GND*%
X138650000Y-99420000D03*
%TD*%
D35*
%TO.P,FB_IMU1,1*%
%TO.N,Net-(U_IMU1-VDD)*%
X152515000Y-97750000D03*
%TO.P,FB_IMU1,2*%
%TO.N,+3V3*%
X153485000Y-97750000D03*
%TD*%
D36*
%TO.P,C_LDO_OUT1,1*%
%TO.N,+3V3*%
X133460000Y-98250000D03*
%TO.P,C_LDO_OUT1,2*%
%TO.N,GND*%
X132500000Y-98250000D03*
%TD*%
D30*
%TO.P,R_I2C_SDA1,1*%
%TO.N,/MCU Core/I2C1_SDA*%
X148740000Y-96000000D03*
%TO.P,R_I2C_SDA1,2*%
%TO.N,+3V3*%
X149760000Y-96000000D03*
%TD*%
D46*
%TO.P,L_VID1,1,1_1*%
%TO.N,+5V*%
X136000000Y-93400000D03*
%TO.P,L_VID1,2,2_2*%
%TO.N,+5V_VIDEO*%
X136000000Y-91100000D03*
%TD*%
D47*
%TO.N,+5V*%
X139325000Y-105524999D03*
X150875000Y-113425000D03*
X139725000Y-101175000D03*
X161175000Y-114675000D03*
X138075000Y-91225000D03*
X160425000Y-108274999D03*
X159575000Y-99274999D03*
%TO.N,GND*%
X150500000Y-94500000D03*
X161500000Y-110750000D03*
X154250000Y-111750000D03*
X145812498Y-86450000D03*
X152750000Y-103250000D03*
X135750000Y-111500000D03*
X166375000Y-107625000D03*
X153500000Y-104500000D03*
X145949999Y-92587651D03*
X154500000Y-89000000D03*
X137750000Y-88000000D03*
X140800000Y-94600000D03*
X144250000Y-108760000D03*
X141000000Y-100750000D03*
X133500000Y-93000000D03*
X163000000Y-86500000D03*
X138000000Y-94000000D03*
X141000000Y-102000000D03*
X134825000Y-101175000D03*
X143000000Y-88250000D03*
X164000000Y-90750000D03*
X154250000Y-104500000D03*
X139500000Y-112000000D03*
X160750000Y-105750000D03*
X146000000Y-119000000D03*
X132250000Y-110000000D03*
X154250000Y-98750000D03*
X145250000Y-108760000D03*
X133750000Y-111500000D03*
X136500000Y-94500000D03*
X161175000Y-82125000D03*
X138000000Y-103500000D03*
X158250000Y-97000000D03*
X161000000Y-90750000D03*
X161750000Y-104750000D03*
X147250000Y-104500000D03*
X135210000Y-89690000D03*
X137000000Y-111500000D03*
X146450000Y-101975000D03*
X135250000Y-89000000D03*
X151250000Y-94000000D03*
X145575000Y-96574999D03*
X157000000Y-90750000D03*
X141250000Y-113500000D03*
X137970000Y-98900000D03*
X139250000Y-87000000D03*
X151000000Y-98250000D03*
X156825000Y-91700000D03*
X138000000Y-96750000D03*
X134500000Y-98500000D03*
X135460000Y-90190000D03*
X158250000Y-87500000D03*
X154250000Y-99481293D03*
X133310000Y-95060000D03*
X146000000Y-117500000D03*
X152525000Y-118625000D03*
X161750000Y-102750000D03*
X148000000Y-114500000D03*
X144750000Y-83750000D03*
X143486493Y-90667813D03*
X143325000Y-99375000D03*
X142125000Y-82274999D03*
X155000000Y-109250000D03*
X157475000Y-91774999D03*
X133000000Y-91500000D03*
X164750000Y-97000000D03*
X151500000Y-105500000D03*
X156250000Y-88250000D03*
X135250000Y-98500000D03*
X159250000Y-110750000D03*
X147000000Y-96500000D03*
X161475000Y-118625000D03*
X151000000Y-80500000D03*
X154100000Y-91250000D03*
X152500000Y-105500000D03*
X161750000Y-101750000D03*
X160750000Y-96750000D03*
X161750000Y-103750000D03*
X149250000Y-114500000D03*
X143770000Y-88250000D03*
X141250000Y-110500000D03*
X152250000Y-104000000D03*
X163750000Y-110750000D03*
X133400000Y-94300000D03*
X146250000Y-95250000D03*
X150950000Y-86750000D03*
X150250000Y-98250000D03*
X150079595Y-86670405D03*
X137250000Y-94500000D03*
X159306298Y-84421730D03*
X153275000Y-99375000D03*
X163450000Y-105750000D03*
X138250000Y-106250000D03*
X141000000Y-99750000D03*
X134750000Y-111500000D03*
X141302474Y-94976539D03*
X149601638Y-105293450D03*
X156750000Y-101250000D03*
X159875000Y-116225000D03*
X151000000Y-83750000D03*
X148000000Y-96500000D03*
X141077006Y-87822233D03*
X146000000Y-116000000D03*
X158500000Y-91750000D03*
X168125000Y-110625000D03*
X158500000Y-105750000D03*
X138000000Y-111500000D03*
X133500000Y-88750000D03*
X155250000Y-111750000D03*
X159103897Y-93049874D03*
X164000000Y-96750000D03*
X167125000Y-100274999D03*
X169000000Y-106000000D03*
X150000000Y-106750000D03*
X141000000Y-89250000D03*
X153464626Y-95550000D03*
X136280000Y-92020000D03*
X139000000Y-111500000D03*
X150750000Y-114500000D03*
X142575000Y-96600000D03*
X133574999Y-91325000D03*
%TO.N,/Interfaces&IO/RC_RX*%
X151675000Y-95175000D03*
X143025000Y-91324999D03*
%TO.N,/Interfaces&IO/RC_TX*%
X149825000Y-85425000D03*
X154525000Y-94225000D03*
D48*
%TO.N,VBAT*%
X164825000Y-112300000D03*
X165525000Y-112300000D03*
X141250000Y-117500000D03*
X166225000Y-112300000D03*
X140550000Y-117500000D03*
X154500000Y-80875000D03*
X141950000Y-117500000D03*
X155175000Y-80875000D03*
X153825000Y-80875000D03*
D47*
%TO.N,Net-(U_BUCK1-RT{slash}SYNC)*%
X136750000Y-106250000D03*
%TO.N,Net-(U_BUCK1-FB)*%
X138000000Y-102250000D03*
%TO.N,Net-(U_BUCK1-SS)*%
X136380000Y-98620000D03*
%TO.N,+5V_VIDEO*%
X148175000Y-81225000D03*
X154420000Y-89870000D03*
X157225000Y-88675000D03*
X136991051Y-87747017D03*
%TO.N,/Video&OSD/VIDEO_IN*%
X152000000Y-83500000D03*
%TO.N,+3V3*%
X169475000Y-95725000D03*
X144975000Y-89475000D03*
X166900000Y-111500000D03*
X154299265Y-102700735D03*
X154500000Y-85500000D03*
X143025000Y-92375000D03*
X156625000Y-108875000D03*
X144575000Y-99425000D03*
X169023980Y-99356122D03*
X153275000Y-97324999D03*
X162750000Y-107750000D03*
X150250000Y-96250000D03*
X148750000Y-105500000D03*
X155250000Y-106675000D03*
X161085199Y-99201538D03*
X149775000Y-96675000D03*
X162500000Y-106000000D03*
X149500000Y-98000000D03*
X156500000Y-107250000D03*
X154775000Y-101574999D03*
X151500000Y-104000000D03*
X157925000Y-108725000D03*
X146875000Y-102625000D03*
X136750000Y-97500000D03*
X144325000Y-91074999D03*
X136975000Y-98075000D03*
X164775000Y-91024999D03*
X144750000Y-87000000D03*
X162675000Y-106625000D03*
X164775000Y-88125000D03*
%TO.N,/MCU Core/LED_STAT2*%
X149675000Y-103425000D03*
X156625000Y-105425000D03*
%TO.N,/Interfaces&IO/+5V_USB*%
X158750000Y-93750000D03*
%TO.N,/MCU Core/RCC_OSC_IN*%
X143000000Y-93250000D03*
%TO.N,/MCU Core/RCC_OSC_OUT*%
X143060598Y-94434907D03*
%TO.N,/MCU Core/NRST*%
X146475000Y-108675000D03*
X150275000Y-112475000D03*
X146325000Y-98675000D03*
X146475000Y-104125000D03*
%TO.N,/Interfaces&IO/ESC_CURR*%
X142424999Y-98425000D03*
X141025000Y-98824999D03*
%TO.N,Net-(U_MCU1-VDDA)*%
X145625000Y-97625000D03*
%TO.N,/Interfaces&IO/GPS_TX*%
X145575000Y-101125000D03*
%TO.N,/Interfaces&IO/GPS_RX*%
X145725000Y-105725000D03*
%TO.N,/MCU Core/IMU_CS*%
X148250000Y-102500003D03*
%TO.N,/MCU Core/SPI1_SCK*%
X148250000Y-101750000D03*
%TO.N,/MCU Core/SPI1_MISO*%
X148090000Y-99305393D03*
%TO.N,/MCU Core/SPI1_MOSI*%
X149250000Y-102000000D03*
%TO.N,/MCU Core/IMU_INT*%
X148894590Y-98730000D03*
X151825000Y-102475000D03*
%TO.N,/MCU Core/OSD_CS*%
X148000000Y-95749997D03*
%TO.N,/Interfaces&IO/ESC_TEL*%
X166875000Y-102225000D03*
X151925000Y-97074999D03*
%TO.N,/MCU Core/FLASH_CS*%
X161000000Y-100500000D03*
%TO.N,/MCU Core/SPI2_SCK*%
X156200000Y-99725000D03*
%TO.N,/MCU Core/SPI2_MISO*%
X157713478Y-99657960D03*
%TO.N,/MCU Core/SPI2_MOSI*%
X157000000Y-97500000D03*
%TO.N,/Interfaces&IO/M1*%
X157325000Y-96774999D03*
X166375000Y-106524999D03*
X162525000Y-102125000D03*
%TO.N,/Interfaces&IO/M2*%
X164725000Y-105524999D03*
%TO.N,/Interfaces&IO/M3*%
X163375000Y-99225000D03*
X166775000Y-104274999D03*
X158525000Y-99274999D03*
X154525000Y-95774999D03*
%TO.N,/Interfaces&IO/M4*%
X163825000Y-88225000D03*
X166725000Y-103375000D03*
%TO.N,/Interfaces&IO/USB_DN*%
X156756040Y-93311748D03*
%TO.N,/Interfaces&IO/USB_DP*%
X156842333Y-92566726D03*
%TO.N,/MCU Core/SWDIO*%
X154225000Y-95024999D03*
X166825000Y-101375000D03*
%TO.N,/MCU Core/SWCLK*%
X158975000Y-87125000D03*
X156125000Y-85774999D03*
X155375000Y-87125000D03*
X168175000Y-102774999D03*
%TO.N,/MCU Core/SPI3_SCK*%
X145679239Y-88320761D03*
%TO.N,/MCU Core/SPI3_MISO*%
X145750000Y-87500000D03*
%TO.N,/MCU Core/SPI3_MOSI*%
X149800000Y-93875002D03*
%TO.N,/MCU Core/I2C1_SCL*%
X151000003Y-96250000D03*
%TO.N,/MCU Core/I2C1_SDA*%
X154975000Y-100425000D03*
X157275000Y-113225000D03*
X148750000Y-95250000D03*
%TO.N,Net-(JP_BOOT0-B)*%
X148250000Y-86750000D03*
%TO.N,Net-(J_USB1-CC1)*%
X161000000Y-95250000D03*
%TO.N,/Interfaces&IO/USB_C_DP*%
X161028228Y-92931918D03*
%TO.N,/Video&OSD/VIDEO_OUT*%
X156500000Y-81000000D03*
%TO.N,Net-(U_OSD1-VOUT)*%
X148105515Y-84894485D03*
X151820000Y-93250000D03*
%TO.N,/Interfaces&IO/ESC_CURR_IN*%
X152425000Y-107525000D03*
X138625000Y-98325000D03*
%TD*%
%TO.N,+5V*%
D49*
X134300000Y-92250000D02*
X135300000Y-93250000D01*
D50*
X131200000Y-95050000D02*
X131000000Y-95250000D01*
D49*
X147075000Y-113275000D02*
X139325000Y-105524999D01*
X152025000Y-113475000D02*
X149675000Y-113475000D01*
X149675000Y-113475000D02*
X149475000Y-113275000D01*
X131699999Y-92630000D02*
X131699999Y-92250000D01*
D50*
X131450001Y-96950000D02*
X132112500Y-96950000D01*
X131000000Y-94750000D02*
X131000000Y-95250000D01*
X132000000Y-93750000D02*
X131000000Y-94750000D01*
D51*
X160425000Y-113925000D02*
X161175000Y-114675000D01*
D50*
X131000000Y-96499999D02*
X131450001Y-96950000D01*
D51*
X160425000Y-108274999D02*
X160425000Y-113925000D01*
D50*
X132112500Y-95050000D02*
X131200000Y-95050000D01*
D49*
X135300000Y-93250000D02*
X135650000Y-93250000D01*
X132520000Y-93450000D02*
X131699999Y-92630000D01*
X139725000Y-101225000D02*
X139725000Y-101175000D01*
X136975000Y-93100000D02*
X136300000Y-93100000D01*
X138075000Y-91225000D02*
X138075000Y-92000000D01*
X154175000Y-115625000D02*
X152025000Y-113475000D01*
D50*
X132520000Y-93750000D02*
X132000000Y-93750000D01*
D49*
X131699999Y-92250000D02*
X134300000Y-92250000D01*
D50*
X131000000Y-95250000D02*
X131000000Y-96499999D01*
X136300000Y-93100000D02*
X136000000Y-93400000D01*
D49*
X149475000Y-113275000D02*
X147075000Y-113275000D01*
X138075000Y-92000000D02*
X136975000Y-93100000D01*
%TO.N,GND*%
D52*
X160750000Y-101750000D02*
X161750000Y-101750000D01*
X141077006Y-88027006D02*
X141450000Y-88400000D01*
X146112498Y-86750000D02*
X145812498Y-86450000D01*
X151625000Y-105625000D02*
X151500000Y-105500000D01*
X158360000Y-91000000D02*
X158360000Y-91610000D01*
X162687500Y-86187500D02*
X163000000Y-86500000D01*
D50*
X133225000Y-95381974D02*
X133310000Y-95060000D01*
D52*
X161000000Y-102750000D02*
X161750000Y-102750000D01*
X160625000Y-103125000D02*
X161000000Y-102750000D01*
X153534626Y-95480000D02*
X153464626Y-95550000D01*
D50*
X134387500Y-95050000D02*
X134050000Y-95050000D01*
D52*
X145962348Y-92600000D02*
X145949999Y-92587651D01*
X156425000Y-91774999D02*
X157475000Y-91774999D01*
D50*
X132500000Y-99500000D02*
X134500000Y-99500000D01*
D52*
X140300000Y-94100000D02*
X140800000Y-94600000D01*
X151625000Y-106125000D02*
X151625000Y-105625000D01*
X144990000Y-83990000D02*
X144750000Y-83750000D01*
X145500000Y-83990000D02*
X144990000Y-83990000D01*
X157000000Y-89980000D02*
X157000000Y-90750000D01*
X150000000Y-99085000D02*
X150000000Y-98500000D01*
X163350000Y-105650000D02*
X163450000Y-105750000D01*
X158000000Y-86760000D02*
X158000000Y-87250000D01*
X145980000Y-94980000D02*
X146250000Y-95250000D01*
X149938000Y-86812000D02*
X150079595Y-86670405D01*
X150325000Y-106125000D02*
X150325000Y-106425000D01*
D50*
X134750000Y-89250000D02*
X135210000Y-89690000D01*
D52*
X138020000Y-93980000D02*
X138000000Y-94000000D01*
D50*
X138650000Y-99420000D02*
X138379311Y-99420000D01*
X138510000Y-103510000D02*
X138500000Y-103500000D01*
D52*
X154450000Y-93010000D02*
X154500000Y-92960000D01*
D50*
X138750000Y-103510000D02*
X138010000Y-103510000D01*
X137560000Y-106690000D02*
X137560000Y-106850000D01*
D52*
X159600000Y-103100000D02*
X159625000Y-103125000D01*
X141000000Y-89250000D02*
X140150000Y-90100000D01*
X141450000Y-88400000D02*
X142100000Y-88400000D01*
X153738924Y-99750000D02*
X154007631Y-99481293D01*
X158884568Y-84000000D02*
X159306298Y-84421730D01*
X153500000Y-105270000D02*
X153500000Y-104500000D01*
D50*
X138250000Y-106250000D02*
X138000000Y-106250000D01*
D52*
X154500000Y-105270000D02*
X154500000Y-104750000D01*
X166325000Y-107625000D02*
X166375000Y-107625000D01*
X159600000Y-103100000D02*
X159600000Y-104600000D01*
X159600000Y-104600000D02*
X160750000Y-105750000D01*
D50*
X136750000Y-95000000D02*
X137250000Y-94500000D01*
X135000000Y-89250000D02*
X135250000Y-89000000D01*
D52*
X149938000Y-90325000D02*
X150500000Y-90887000D01*
X147000000Y-92600000D02*
X145962348Y-92600000D01*
D50*
X138000000Y-88250000D02*
X137750000Y-88000000D01*
D52*
X168125000Y-110574999D02*
X168125000Y-110625000D01*
D50*
X133480000Y-93750000D02*
X133480000Y-93020000D01*
D52*
X159600000Y-103100000D02*
X160250000Y-103750000D01*
X160250000Y-103750000D02*
X161750000Y-103750000D01*
X143600000Y-90554306D02*
X143486493Y-90667813D01*
X150500000Y-90887000D02*
X150500000Y-94500000D01*
X154263500Y-89000000D02*
X154500000Y-89000000D01*
D50*
X132500000Y-98250000D02*
X132500000Y-99500000D01*
D52*
X149938000Y-90325000D02*
X150950000Y-89313000D01*
D50*
X134500000Y-99500000D02*
X134500000Y-98500000D01*
X134000000Y-89250000D02*
X133500000Y-88750000D01*
D52*
X158360000Y-91610000D02*
X158500000Y-91750000D01*
X159604023Y-93550000D02*
X159103897Y-93049874D01*
X160750000Y-104750000D02*
X161750000Y-104750000D01*
X160137500Y-93550000D02*
X159604023Y-93550000D01*
X138750000Y-96750000D02*
X138000000Y-96750000D01*
X152876000Y-91300000D02*
X154200000Y-91300000D01*
D50*
X132112500Y-96000000D02*
X132606974Y-96000000D01*
D52*
X154200000Y-91300000D02*
X154100000Y-91250000D01*
D50*
X138379311Y-99420000D02*
X137970000Y-98900000D01*
D52*
X142000000Y-95674065D02*
X141302474Y-94976539D01*
X153913500Y-89350000D02*
X154263500Y-89000000D01*
X158360000Y-96890000D02*
X158250000Y-97000000D01*
X165490000Y-97000000D02*
X164750000Y-97000000D01*
D50*
X138000000Y-106250000D02*
X137560000Y-106690000D01*
D52*
X159600000Y-103100000D02*
X160750000Y-104250000D01*
X155425000Y-92774999D02*
X156425000Y-91774999D01*
D50*
X134550000Y-89250000D02*
X134750000Y-89250000D01*
D52*
X152275000Y-104025000D02*
X152250000Y-104000000D01*
X158000000Y-87250000D02*
X158250000Y-87500000D01*
X142000000Y-95800000D02*
X142000000Y-95674065D01*
X152575000Y-118625000D02*
X152525000Y-118625000D01*
X152876000Y-89350000D02*
X153913500Y-89350000D01*
X143325000Y-99125000D02*
X143325000Y-99375000D01*
X159600000Y-102900000D02*
X160750000Y-101750000D01*
X147000000Y-86750000D02*
X146112498Y-86750000D01*
X149938000Y-92688000D02*
X151250000Y-94000000D01*
X160750000Y-104250000D02*
X160750000Y-104750000D01*
D50*
X134050000Y-95050000D02*
X133400000Y-94300000D01*
X133480000Y-93020000D02*
X133500000Y-93000000D01*
D52*
X159625000Y-103125000D02*
X160625000Y-103125000D01*
X159600000Y-104650000D02*
X158500000Y-105750000D01*
D50*
X136750000Y-94750000D02*
X136500000Y-94500000D01*
D52*
X154500000Y-93000000D02*
X154500000Y-92960000D01*
X150000000Y-98500000D02*
X150250000Y-98250000D01*
X150950000Y-89313000D02*
X150950000Y-86750000D01*
D50*
X138000000Y-88790000D02*
X138000000Y-88250000D01*
D52*
X147500000Y-97000000D02*
X147000000Y-96500000D01*
X149938000Y-90325000D02*
X149938000Y-92688000D01*
D50*
X134550000Y-89250000D02*
X134000000Y-89250000D01*
D52*
X159825000Y-116225000D02*
X159875000Y-116225000D01*
X154825000Y-92774999D02*
X155425000Y-92774999D01*
X154500000Y-104750000D02*
X154250000Y-104500000D01*
D50*
X136750000Y-95225000D02*
X136750000Y-94750000D01*
D52*
X149938000Y-90325000D02*
X149938000Y-86812000D01*
D50*
X134550000Y-89250000D02*
X135000000Y-89250000D01*
D52*
X161425000Y-118625000D02*
X161475000Y-118625000D01*
X158360000Y-96250000D02*
X158360000Y-96890000D01*
X149938000Y-90325000D02*
X149938000Y-91368565D01*
X152750000Y-103250000D02*
X153520000Y-102480000D01*
X145225000Y-96574999D02*
X145575000Y-96574999D01*
X152275000Y-104675000D02*
X152275000Y-104025000D01*
X150500000Y-99085000D02*
X150500000Y-98750000D01*
X140150000Y-90100000D02*
X139900000Y-90100000D01*
X159600000Y-103100000D02*
X159600000Y-102900000D01*
X167175000Y-100274999D02*
X167125000Y-100274999D01*
X153520000Y-102480000D02*
X153520000Y-102000000D01*
X158275000Y-84000000D02*
X158884568Y-84000000D01*
X153460000Y-98750000D02*
X154250000Y-98750000D01*
X153460000Y-99750000D02*
X153738924Y-99750000D01*
X143600000Y-90080000D02*
X143600000Y-90554306D01*
X140300000Y-93600000D02*
X140300000Y-94100000D01*
X159600000Y-103100000D02*
X159600000Y-104650000D01*
X150325000Y-106425000D02*
X150000000Y-106750000D01*
X140020000Y-87000000D02*
X139250000Y-87000000D01*
X148750000Y-97040000D02*
X148540000Y-97040000D01*
D50*
X132606974Y-96000000D02*
X133225000Y-95381974D01*
D52*
X163350000Y-105005000D02*
X163350000Y-105650000D01*
X161950000Y-86187500D02*
X162687500Y-86187500D01*
X150500000Y-98750000D02*
X151000000Y-98250000D01*
X145250000Y-94980000D02*
X145980000Y-94980000D01*
X148540000Y-97040000D02*
X148000000Y-96500000D01*
X138750000Y-93980000D02*
X138020000Y-93980000D01*
X141077006Y-87822233D02*
X141077006Y-88027006D01*
D50*
X136750000Y-95225000D02*
X136750000Y-95000000D01*
%TO.N,VBAT*%
D53*
X165525000Y-108700000D02*
X165525000Y-110200000D01*
D54*
X165525000Y-110800000D02*
X165525000Y-112300000D01*
D55*
X165525000Y-110200000D02*
X165525000Y-110800000D01*
%TO.N,Net-(U_BUCK1-RT{slash}SYNC)*%
D50*
X136540000Y-106460000D02*
X136750000Y-106250000D01*
X136540000Y-106850000D02*
X136540000Y-106460000D01*
%TO.N,Net-(U_BUCK1-FB)*%
X138000000Y-102250000D02*
X138510000Y-102250000D01*
X138750000Y-102490000D02*
X139730000Y-102490000D01*
X138510000Y-102250000D02*
X138750000Y-102490000D01*
X139730000Y-102490000D02*
X139750000Y-102510000D01*
%TO.N,Net-(U_BUCK1-SS)*%
X138115893Y-100380000D02*
X138650000Y-100380000D01*
X136380000Y-98620000D02*
X138115893Y-100380000D01*
%TO.N,+5V_VIDEO*%
X153938068Y-91950000D02*
X153988068Y-92000000D01*
X136500000Y-88238068D02*
X136500000Y-88550001D01*
X136500000Y-88550001D02*
X137674999Y-89725000D01*
X136000000Y-91100000D02*
X136450000Y-90650000D01*
X154775000Y-91774999D02*
X156075000Y-90475000D01*
X159320346Y-89020000D02*
X160050000Y-88290346D01*
X137674999Y-89774999D02*
X137174999Y-89774999D01*
X156075000Y-89625000D02*
X156675000Y-89024999D01*
X143225000Y-83725000D02*
X140025000Y-83725000D01*
X147875000Y-80925000D02*
X146025000Y-80925000D01*
X136950000Y-89750000D02*
X136450000Y-89250000D01*
X158897556Y-84990000D02*
X157715000Y-84990000D01*
X160050000Y-86187500D02*
X160050000Y-86142444D01*
X156075000Y-90475000D02*
X156075000Y-89625000D01*
X146025000Y-80925000D02*
X143225000Y-83725000D01*
X157225000Y-88725000D02*
X157225000Y-88675000D01*
X136991051Y-87747017D02*
X136500000Y-88238068D01*
X136025000Y-88825000D02*
X136450000Y-89250000D01*
X160050000Y-86142444D02*
X158897556Y-84990000D01*
X153988068Y-92000000D02*
X154500000Y-92000000D01*
X136000000Y-91100000D02*
X136400000Y-91100000D01*
X136025000Y-87725000D02*
X136025000Y-88825000D01*
X136450000Y-90650000D02*
X136450000Y-89250000D01*
X140025000Y-83725000D02*
X136025000Y-87725000D01*
X160050000Y-88290346D02*
X160050000Y-86187500D01*
X152876000Y-91950000D02*
X153938068Y-91950000D01*
X157715000Y-84990000D02*
X156725000Y-84000000D01*
X157000000Y-89020000D02*
X159320346Y-89020000D01*
X148175000Y-81225000D02*
X147875000Y-80925000D01*
D56*
X152876000Y-90000000D02*
X154420000Y-89870000D01*
%TO.N,/Video&OSD/VIDEO_IN*%
D57*
X156000000Y-83250000D02*
X156500000Y-82750000D01*
X157000000Y-85770000D02*
X156000000Y-84770000D01*
X157000000Y-85770000D02*
X157970000Y-85770000D01*
X157970000Y-85770000D02*
X158000000Y-85740000D01*
X159437500Y-82750000D02*
X156500000Y-82750000D01*
X156000000Y-84770000D02*
X156000000Y-83250000D01*
X152750000Y-82750000D02*
X152000000Y-83500000D01*
X161000000Y-84312500D02*
X159437500Y-82750000D01*
X156500000Y-82750000D02*
X152750000Y-82750000D01*
%TO.N,+3V3*%
D52*
X163010000Y-108010000D02*
X162750000Y-107750000D01*
X164000000Y-108010000D02*
X163010000Y-108010000D01*
X167225000Y-108775000D02*
X166800000Y-109000000D01*
X155850000Y-101444999D02*
X155274999Y-102020000D01*
X150250000Y-96250000D02*
X150250000Y-96740000D01*
D50*
X134074999Y-97675000D02*
X136575000Y-97675000D01*
D52*
X149760000Y-96000000D02*
X150000000Y-96000000D01*
X151625000Y-104675000D02*
X151625000Y-104125000D01*
X155850000Y-101195000D02*
X155850000Y-101444999D01*
X157340000Y-107150000D02*
X156600000Y-107150000D01*
X166800000Y-110500000D02*
X166900000Y-111500000D01*
X167225000Y-106574999D02*
X167225000Y-108774999D01*
D50*
X133460000Y-98250000D02*
X134074999Y-97675000D01*
D52*
X150000000Y-96000000D02*
X150250000Y-96250000D01*
X149500000Y-98000000D02*
X148750000Y-98000000D01*
X144575000Y-99225000D02*
X144575000Y-99425000D01*
X145250000Y-94020000D02*
X146020000Y-93250000D01*
X166800000Y-109000000D02*
X166800000Y-110500000D01*
X148750000Y-98000000D02*
X147500000Y-98000000D01*
X152470000Y-106230000D02*
X153500000Y-106230000D01*
X156600000Y-107150000D02*
X156500000Y-107250000D01*
X149500000Y-99085000D02*
X149500000Y-98000000D01*
X153500000Y-106230000D02*
X154500000Y-106230000D01*
X153275000Y-97425000D02*
X153275000Y-97324999D01*
X143900000Y-86150000D02*
X144750000Y-87000000D01*
X162675000Y-107774999D02*
X162675000Y-106625000D01*
X152100000Y-106600000D02*
X152275000Y-106425000D01*
X154500000Y-106230000D02*
X154805000Y-106230000D01*
X151625000Y-104125000D02*
X151500000Y-104000000D01*
X169475000Y-104324999D02*
X167225000Y-106574999D01*
X143475000Y-92375000D02*
X143025000Y-92375000D01*
X155274999Y-102020000D02*
X154500000Y-102020000D01*
X164775000Y-88125000D02*
X164775000Y-91024999D01*
X154805000Y-106230000D02*
X155250000Y-106675000D01*
X144924999Y-93824999D02*
X143475000Y-92375000D01*
D50*
X136750000Y-96775000D02*
X136750000Y-97500000D01*
X133460000Y-97877500D02*
X134387500Y-96950000D01*
D52*
X150250000Y-96740000D02*
X149990000Y-97000000D01*
D50*
X136575000Y-97675000D02*
X136975000Y-98075000D01*
D52*
X154480000Y-102520000D02*
X154299265Y-102700735D01*
X152100000Y-106600000D02*
X152470000Y-106230000D01*
X154480000Y-102000000D02*
X154480000Y-102520000D01*
X150975000Y-106125000D02*
X150975000Y-106425000D01*
X152365000Y-106125000D02*
X152470000Y-106230000D01*
X151150000Y-106600000D02*
X152100000Y-106600000D01*
X154500000Y-86240000D02*
X154500000Y-85500000D01*
D50*
X133460000Y-98250000D02*
X133460000Y-97877500D01*
D52*
X150975000Y-106425000D02*
X151150000Y-106600000D01*
X152275000Y-106425000D02*
X152275000Y-106125000D01*
X152275000Y-106125000D02*
X152365000Y-106125000D01*
X146020000Y-93250000D02*
X147000000Y-93250000D01*
X143750000Y-86150000D02*
X143900000Y-86150000D01*
X169475000Y-95725000D02*
X169475000Y-104324999D01*
%TO.N,/Interfaces&IO/+5V_USB*%
D49*
X158062500Y-93750000D02*
X157862500Y-93550000D01*
X158750000Y-93750000D02*
X158062500Y-93750000D01*
%TO.N,/MCU Core/RCC_OSC_IN*%
D58*
X142000000Y-93600000D02*
X142650000Y-93600000D01*
X138750000Y-93020000D02*
X139170000Y-92600000D01*
X141000000Y-92600000D02*
X142000000Y-93600000D01*
X139170000Y-92600000D02*
X141000000Y-92600000D01*
X142650000Y-93600000D02*
X143000000Y-93250000D01*
%TO.N,/MCU Core/RCC_OSC_OUT*%
X143260000Y-94634309D02*
X143060598Y-94434907D01*
X143260000Y-97500000D02*
X143260000Y-94634309D01*
%TO.N,/MCU Core/NRST*%
X147525000Y-103074999D02*
X147525000Y-99875000D01*
X146475000Y-104125000D02*
X147525000Y-103074999D01*
X150275000Y-112475000D02*
X146475000Y-108675000D01*
X147525000Y-99875000D02*
X146325000Y-98675000D01*
%TO.N,/Interfaces&IO/ESC_CURR*%
X141325000Y-98675000D02*
X142075000Y-98675000D01*
%TO.N,Net-(U_MCU1-VDDA)*%
D52*
X145525000Y-98574999D02*
X145525000Y-98074999D01*
X145225000Y-97925000D02*
X145775000Y-97925000D01*
%TO.N,/Interfaces&IO/GPS_TX*%
D58*
X145575000Y-101125000D02*
X145575000Y-104524999D01*
X145575000Y-104524999D02*
X156525000Y-115475000D01*
%TO.N,/Interfaces&IO/GPS_RX*%
X145725000Y-105725000D02*
X155475000Y-115475000D01*
%TO.N,/MCU Core/IMU_CS*%
D57*
X150500000Y-100915000D02*
X150500000Y-101916727D01*
X150500000Y-101916727D02*
X149591727Y-102825000D01*
X149591727Y-102825000D02*
X148574997Y-102825000D01*
X148574997Y-102825000D02*
X148250000Y-102500003D01*
%TO.N,/MCU Core/SPI1_SCK*%
X149775000Y-102217463D02*
X149775000Y-101899264D01*
X149800000Y-101874264D02*
X149800000Y-101354366D01*
X149775000Y-101899264D02*
X149800000Y-101874264D01*
X148250000Y-101750000D02*
X148257537Y-101750000D01*
X149900000Y-100915000D02*
X150000000Y-100915000D01*
X149800000Y-101354366D02*
X149900000Y-101254366D01*
X148257537Y-101750000D02*
X149032537Y-102525000D01*
X149032537Y-102525000D02*
X149467463Y-102525000D01*
X149467463Y-102525000D02*
X149775000Y-102217463D01*
X149900000Y-101254366D02*
X149900000Y-100915000D01*
%TO.N,/MCU Core/SPI1_MISO*%
X148835000Y-100750000D02*
X148540001Y-100750000D01*
X148540001Y-100750000D02*
X148090000Y-100299999D01*
X148090000Y-100299999D02*
X148090000Y-99305393D01*
%TO.N,/MCU Core/SPI1_MOSI*%
X149500000Y-100915000D02*
X149500000Y-101750000D01*
X149500000Y-101750000D02*
X149250000Y-102000000D01*
%TO.N,/MCU Core/IMU_INT*%
D58*
X148835000Y-98789590D02*
X148894590Y-98730000D01*
X148835000Y-99250000D02*
X148835000Y-98789590D01*
%TO.N,/MCU Core/OSD_CS*%
D57*
X147887500Y-90000000D02*
X148012500Y-90125000D01*
X148012500Y-95737497D02*
X148000000Y-95749997D01*
X147000000Y-90000000D02*
X147887500Y-90000000D01*
X148012500Y-90125000D02*
X148012500Y-95737497D01*
%TO.N,/Interfaces&IO/ESC_TEL*%
D58*
X166725000Y-102225000D02*
X166325000Y-101824999D01*
X166875000Y-102225000D02*
X166725000Y-102225000D01*
%TO.N,/MCU Core/FLASH_CS*%
D57*
X161000000Y-100500000D02*
X162655000Y-100500000D01*
X162655000Y-100500000D02*
X163350000Y-101195000D01*
%TO.N,/MCU Core/SPI2_SCK*%
X157275000Y-102310000D02*
X155850000Y-103735000D01*
X157275000Y-100800000D02*
X157275000Y-102310000D01*
X156200000Y-99725000D02*
X157275000Y-100800000D01*
%TO.N,/MCU Core/SPI2_MISO*%
X158075000Y-99975000D02*
X162953440Y-99975000D01*
X163900000Y-100921560D02*
X163900000Y-101915000D01*
X162953440Y-99975000D02*
X163900000Y-100921560D01*
X157757960Y-99657960D02*
X158075000Y-99975000D01*
X157713478Y-99657960D02*
X157757960Y-99657960D01*
X163900000Y-101915000D02*
X163350000Y-102465000D01*
%TO.N,/MCU Core/SPI2_MOSI*%
X157196180Y-99934025D02*
X157196180Y-100196180D01*
X156964809Y-97535191D02*
X157000000Y-97500000D01*
X156964809Y-99702654D02*
X157196180Y-99934025D01*
X157575000Y-103280000D02*
X155850000Y-105005000D01*
X157196180Y-100196180D02*
X157575000Y-100575000D01*
X157575000Y-100575000D02*
X157575000Y-103280000D01*
X156964809Y-99702654D02*
X156964809Y-97535191D01*
%TO.N,/Interfaces&IO/M1*%
D58*
X166375000Y-106524999D02*
X166325000Y-106524999D01*
%TO.N,/Interfaces&IO/M3*%
X161375000Y-98675000D02*
X161525000Y-98675000D01*
X166775000Y-104274999D02*
X166325000Y-104725000D01*
X161075000Y-98375000D02*
X161375000Y-98675000D01*
X161525000Y-98675000D02*
X162075000Y-99225000D01*
X162075000Y-99225000D02*
X163375000Y-99225000D01*
X159425000Y-98375000D02*
X161075000Y-98375000D01*
X158525000Y-99274999D02*
X159425000Y-98375000D01*
%TO.N,/Interfaces&IO/M4*%
X166575000Y-103524999D02*
X166325000Y-103524999D01*
X166725000Y-103375000D02*
X166575000Y-103524999D01*
%TO.N,/Interfaces&IO/USB_DN*%
D59*
X156756040Y-94056039D02*
X156756040Y-93311748D01*
X157200001Y-94500000D02*
X156756040Y-94056039D01*
X157862500Y-94500000D02*
X157200001Y-94500000D01*
%TO.N,/Interfaces&IO/USB_DP*%
X156875607Y-92600000D02*
X156842333Y-92566726D01*
X157862500Y-92600000D02*
X156875607Y-92600000D01*
%TO.N,/MCU Core/SPI3_SCK*%
D57*
X146058478Y-88700000D02*
X147000000Y-88700000D01*
X145679239Y-88320761D02*
X146058478Y-88700000D01*
%TO.N,/MCU Core/SPI3_MISO*%
X146300000Y-88050000D02*
X147000000Y-88050000D01*
X145750000Y-87500000D02*
X146300000Y-88050000D01*
%TO.N,/MCU Core/SPI3_MOSI*%
X148338000Y-93650000D02*
X148338000Y-89925500D01*
X148338000Y-89925500D02*
X147762500Y-89350000D01*
X149800000Y-93875002D02*
X148563002Y-93875002D01*
X147762500Y-89350000D02*
X147000000Y-89350000D01*
X148563002Y-93875002D02*
X148338000Y-93650000D01*
%TO.N,/MCU Core/I2C1_SCL*%
D58*
X150325000Y-102551347D02*
X152566347Y-100310000D01*
X147825000Y-105175000D02*
X148625000Y-104375000D01*
X158475000Y-115475000D02*
X158475000Y-113574999D01*
X154035000Y-97413762D02*
X154035000Y-96772182D01*
X148625000Y-104375000D02*
X150025000Y-104375000D01*
X154800000Y-99709111D02*
X154800000Y-98178762D01*
X149775000Y-107725000D02*
X147825000Y-105774999D01*
X151000003Y-96990003D02*
X151010000Y-97000000D01*
X152566347Y-100310000D02*
X154199111Y-100310000D01*
X153712818Y-96450000D02*
X151560000Y-96450000D01*
X154199111Y-100310000D02*
X154800000Y-99709111D01*
X154035000Y-96772182D02*
X153712818Y-96450000D01*
X158475000Y-113574999D02*
X155175000Y-110274999D01*
X150325000Y-104675000D02*
X150325000Y-102551347D01*
X152475000Y-110274999D02*
X149925000Y-107725000D01*
X154800000Y-98178762D02*
X154035000Y-97413762D01*
X150025000Y-104375000D02*
X150225000Y-104175000D01*
X149925000Y-107725000D02*
X149775000Y-107725000D01*
X155175000Y-110274999D02*
X152475000Y-110274999D01*
X151000003Y-96250000D02*
X151000003Y-96990003D01*
X147825000Y-105774999D02*
X147825000Y-105175000D01*
X151560000Y-96450000D02*
X151010000Y-97000000D01*
%TO.N,/MCU Core/I2C1_SDA*%
X151750000Y-96100000D02*
X151080000Y-95430000D01*
X150950000Y-104650000D02*
X150950000Y-102460000D01*
X150950000Y-102460000D02*
X152750000Y-100660000D01*
X151080000Y-95430000D02*
X149310000Y-95430000D01*
X154385000Y-97268788D02*
X154385000Y-96627208D01*
X149310000Y-95430000D02*
X148740000Y-96000000D01*
X148750000Y-95250000D02*
X148750000Y-96000000D01*
X152750000Y-100660000D02*
X154344086Y-100660000D01*
X154344086Y-100660000D02*
X155150000Y-99854086D01*
X153857793Y-96100000D02*
X151750000Y-96100000D01*
X155150000Y-98033787D02*
X154385000Y-97268788D01*
X154975000Y-100425000D02*
X154725000Y-100425000D01*
X155150000Y-99854086D02*
X155150000Y-98033787D01*
X157275000Y-115475000D02*
X157275000Y-113225000D01*
X154385000Y-96627208D02*
X153857793Y-96100000D01*
X150975000Y-104675000D02*
X150950000Y-104650000D01*
%TO.N,Net-(JP_BOOT0-B)*%
X145500000Y-84990000D02*
X147352500Y-84990000D01*
X148250000Y-85887500D02*
X148250000Y-86750000D01*
X143750000Y-84850000D02*
X145360000Y-84850000D01*
X145360000Y-84850000D02*
X145500000Y-84990000D01*
X147352500Y-84990000D02*
X148250000Y-85887500D01*
%TO.N,Net-(J_USB1-CC1)*%
X161000000Y-95250000D02*
X160000000Y-96250000D01*
X160000000Y-96250000D02*
X159380000Y-96250000D01*
%TO.N,/Interfaces&IO/USB_C_DP*%
D59*
X161028228Y-92931918D02*
X160469418Y-92931918D01*
X160469418Y-92931918D02*
X160137500Y-92600000D01*
%TO.N,/Interfaces&IO/USB_C_DN*%
X161725000Y-93325000D02*
X161691116Y-93325000D01*
X163075000Y-94175000D02*
X162608884Y-94175000D01*
X162608884Y-94175000D02*
X161758884Y-93325000D01*
X161691116Y-93325000D02*
X160516116Y-94500000D01*
X161758884Y-93325000D02*
X161725000Y-93325000D01*
X160516116Y-94500000D02*
X160137500Y-94500000D01*
%TO.N,Net-(J_USB1-CC2)*%
D58*
X160205000Y-90175000D02*
X159380000Y-91000000D01*
X163075000Y-92475000D02*
X162325000Y-91725000D01*
X162325000Y-91725000D02*
X162325000Y-90526471D01*
X162325000Y-90526471D02*
X161973529Y-90175000D01*
X161973529Y-90175000D02*
X160205000Y-90175000D01*
%TO.N,Net-(J_USB1-SHIELD)*%
X166510000Y-97000000D02*
X166510000Y-96510000D01*
X166510000Y-97650000D02*
X166085000Y-98075000D01*
X166510000Y-97000000D02*
X166510000Y-97650000D01*
X166085000Y-96085000D02*
X166085000Y-89425000D01*
X166510000Y-96510000D02*
X166085000Y-96085000D01*
%TO.N,/Video&OSD/VIDEO_OUT*%
D57*
X156500000Y-81730000D02*
X156500000Y-81000000D01*
X151000000Y-81720000D02*
X156490000Y-81720000D01*
X156490000Y-81720000D02*
X156500000Y-81730000D01*
%TO.N,Net-(C_HSE1-Pad2)*%
D58*
X142000000Y-97500000D02*
X140300000Y-95800000D01*
X142240000Y-97500000D02*
X142000000Y-97500000D01*
X138750000Y-95790000D02*
X140290000Y-95790000D01*
X140290000Y-95790000D02*
X140300000Y-95800000D01*
%TO.N,Net-(U_OSD1-VIN)*%
D57*
X154675000Y-90574999D02*
X153625000Y-90574999D01*
X156675000Y-86824999D02*
X155325000Y-88175000D01*
X155325000Y-89925000D02*
X154675000Y-90574999D01*
X155325000Y-88175000D02*
X155325000Y-89925000D01*
%TO.N,Net-(U_FLASH1-~{WP}{slash}IO_{2})*%
D58*
X164000000Y-106990000D02*
X164000000Y-104385000D01*
X164000000Y-104385000D02*
X163350000Y-103735000D01*
%TO.N,Net-(C_OSD_SAG1-Pad1)*%
X150240000Y-82740000D02*
X151000000Y-82740000D01*
X147000000Y-82050000D02*
X149250000Y-82050000D01*
X149550000Y-82050000D02*
X150240000Y-82740000D01*
X149250000Y-82050000D02*
X149550000Y-82050000D01*
%TO.N,Net-(U_OSD1-~{RESET})*%
X154500000Y-88013500D02*
X153813500Y-88700000D01*
X153813500Y-88700000D02*
X152876000Y-88700000D01*
X154500000Y-87260000D02*
X154500000Y-88013500D01*
%TO.N,Net-(U_IMU1-VDD)*%
D52*
X152515000Y-97900000D02*
X151665000Y-98750000D01*
X152500000Y-99750000D02*
X152500000Y-99585000D01*
X152515000Y-97750000D02*
X152515000Y-97900000D01*
X151665000Y-98750000D02*
X152500000Y-98750000D01*
X152500000Y-99585000D02*
X151665000Y-98750000D01*
X151165000Y-99250000D02*
X151665000Y-98750000D01*
%TO.N,Net-(U_OSD1-VOUT)*%
D57*
X147944485Y-84894485D02*
X147000000Y-83950000D01*
X152876000Y-93250000D02*
X151820000Y-93250000D01*
X148105515Y-84894485D02*
X147944485Y-84894485D01*
%TO.N,/Video&OSD/OSD_CLK_OUT*%
D58*
X139900000Y-88400000D02*
X139900000Y-88080000D01*
X146062500Y-91300000D02*
X147000000Y-91300000D01*
X145962500Y-89523261D02*
X145962500Y-91200000D01*
X143439239Y-87000000D02*
X145962500Y-89523261D01*
X140980000Y-87000000D02*
X143439239Y-87000000D01*
X139900000Y-88080000D02*
X140980000Y-87000000D01*
X145962500Y-91200000D02*
X146062500Y-91300000D01*
%TO.N,/Video&OSD/OSD_CLK_IN*%
X145512500Y-91386396D02*
X146076104Y-91950000D01*
X142100000Y-90100000D02*
X142620000Y-90100000D01*
X143600000Y-89120000D02*
X145512500Y-91032500D01*
X145512500Y-91032500D02*
X145512500Y-91386396D01*
X146076104Y-91950000D02*
X147000000Y-91950000D01*
X142620000Y-90100000D02*
X143600000Y-89120000D01*
%TO.N,/Interfaces&IO/ESC_CURR_IN*%
X140675000Y-97675000D02*
X139275000Y-97675000D01*
X152425000Y-107525000D02*
X152925000Y-108025000D01*
X159525000Y-108025000D02*
X162525000Y-105025000D01*
X152925000Y-108025000D02*
X159525000Y-108025000D01*
X162825000Y-103125000D02*
X164375000Y-103125000D01*
X139275000Y-97675000D02*
X138625000Y-98325000D01*
X164375000Y-103125000D02*
X164775000Y-102725000D01*
X162525000Y-105025000D02*
X162525000Y-103425000D01*
X162525000Y-103425000D02*
X162825000Y-103125000D01*
%TO.N,Net-(U_FLASH1-~{HOLD}{slash}~{RESET}{slash}IO_{3})*%
X155850000Y-102465000D02*
X155275000Y-103040000D01*
X156566206Y-106580000D02*
X157790000Y-106580000D01*
X155275000Y-103040000D02*
X155275000Y-105288794D01*
X157790000Y-106580000D02*
X158360000Y-107150000D01*
X155275000Y-105288794D02*
X156566206Y-106580000D01*
%TO.N,Net-(U_OSD1-SAG)*%
X151938500Y-92600000D02*
X152876000Y-92600000D01*
X151500000Y-86200000D02*
X151500000Y-86975000D01*
X151563000Y-86975000D02*
X151563000Y-92224500D01*
X149250000Y-83950000D02*
X151500000Y-86200000D01*
X151563000Y-92224500D02*
X151938500Y-92600000D01*
X151500000Y-86975000D02*
X151563000Y-86975000D01*
%TD*%
M02*
