%TF.GenerationSoftware,KiCad,Pcbnew,10.0.5*%
%TF.CreationDate,2026-08-25T10:36:00+02:00*%
%TF.ProjectId,Flight Controller,466c6967-6874-4204-936f-6e74726f6c6c,rev?*%
%TF.SameCoordinates,Original*%
%TF.FileFunction,Paste,Top*%
%TF.FilePolarity,Positive*%
%FSLAX46Y46*%
G04 Gerber Fmt 4.6, Leading zero omitted, Abs format (unit mm)*
G04 Created by KiCad (PCBNEW 10.0.5) date 2026-08-25 10:36:00*
%MOMM*%
%LPD*%
G01*
G04 APERTURE LIST*
G04 Aperture macros list*
%AMRoundRect*
0 Rectangle with rounded corners*
0 $1 Rounding radius*
0 $2 $3 $4 $5 $6 $7 $8 $9 X,Y pos of 4 corners*
0 Add a 4 corners polygon primitive as box body*
4,1,4,$2,$3,$4,$5,$6,$7,$8,$9,$2,$3,0*
0 Add four circle primitives for the rounded corners*
1,1,$1+$1,$2,$3*
1,1,$1+$1,$4,$5*
1,1,$1+$1,$6,$7*
1,1,$1+$1,$8,$9*
0 Add four rect primitives between the rounded corners*
20,1,$1+$1,$2,$3,$4,$5,0*
20,1,$1+$1,$4,$5,$6,$7,0*
20,1,$1+$1,$6,$7,$8,$9,0*
20,1,$1+$1,$8,$9,$2,$3,0*%
G04 Aperture macros list end*
%ADD10C,0.010000*%
%ADD11RoundRect,0.425000X-0.425000X-2.425000X0.425000X-2.425000X0.425000X2.425000X-0.425000X2.425000X0*%
%ADD12RoundRect,0.250000X0.250000X0.475000X-0.250000X0.475000X-0.250000X-0.475000X0.250000X-0.475000X0*%
%ADD13RoundRect,0.140000X0.170000X-0.140000X0.170000X0.140000X-0.170000X0.140000X-0.170000X-0.140000X0*%
%ADD14RoundRect,0.218750X0.256250X-0.218750X0.256250X0.218750X-0.256250X0.218750X-0.256250X-0.218750X0*%
%ADD15RoundRect,0.075000X0.225000X-0.910000X0.225000X0.910000X-0.225000X0.910000X-0.225000X-0.910000X0*%
%ADD16RoundRect,0.250000X-1.100000X0.325000X-1.100000X-0.325000X1.100000X-0.325000X1.100000X0.325000X0*%
%ADD17RoundRect,0.135000X-0.185000X0.135000X-0.185000X-0.135000X0.185000X-0.135000X0.185000X0.135000X0*%
%ADD18RoundRect,0.250000X1.000000X0.650000X-1.000000X0.650000X-1.000000X-0.650000X1.000000X-0.650000X0*%
%ADD19RoundRect,0.140000X-0.140000X-0.170000X0.140000X-0.170000X0.140000X0.170000X-0.140000X0.170000X0*%
%ADD20RoundRect,0.135000X-0.135000X-0.185000X0.135000X-0.185000X0.135000X0.185000X-0.135000X0.185000X0*%
%ADD21RoundRect,0.140000X-0.170000X0.140000X-0.170000X-0.140000X0.170000X-0.140000X0.170000X0.140000X0*%
%ADD22RoundRect,0.750000X-1.750000X-1.750000X1.750000X-1.750000X1.750000X1.750000X-1.750000X1.750000X0*%
%ADD23RoundRect,0.250000X-0.325000X-1.100000X0.325000X-1.100000X0.325000X1.100000X-0.325000X1.100000X0*%
%ADD24RoundRect,0.250000X0.300000X-0.300000X0.300000X0.300000X-0.300000X0.300000X-0.300000X-0.300000X0*%
%ADD25RoundRect,0.140000X0.140000X0.170000X-0.140000X0.170000X-0.140000X-0.170000X0.140000X-0.170000X0*%
%ADD26RoundRect,0.075000X-0.700000X-0.075000X0.700000X-0.075000X0.700000X0.075000X-0.700000X0.075000X0*%
%ADD27RoundRect,0.075000X-0.075000X-0.700000X0.075000X-0.700000X0.075000X0.700000X-0.075000X0.700000X0*%
%ADD28RoundRect,0.250000X-1.500000X-0.550000X1.500000X-0.550000X1.500000X0.550000X-1.500000X0.550000X0*%
%ADD29RoundRect,0.135000X0.135000X0.185000X-0.135000X0.185000X-0.135000X-0.185000X0.135000X-0.185000X0*%
%ADD30RoundRect,0.225000X-0.225000X-0.250000X0.225000X-0.250000X0.225000X0.250000X-0.225000X0.250000X0*%
%ADD31RoundRect,0.250000X0.650000X-1.000000X0.650000X1.000000X-0.650000X1.000000X-0.650000X-1.000000X0*%
%ADD32RoundRect,0.135000X0.185000X-0.135000X0.185000X0.135000X-0.185000X0.135000X-0.185000X-0.135000X0*%
%ADD33RoundRect,0.225000X-0.250000X0.225000X-0.250000X-0.225000X0.250000X-0.225000X0.250000X0.225000X0*%
%ADD34RoundRect,0.225000X0.225000X0.250000X-0.225000X0.250000X-0.225000X-0.250000X0.225000X-0.250000X0*%
G04 APERTURE END LIST*
D10*
%TO.C,U_BUCK1*%
X133910000Y-102270000D02*
X133910000Y-101460000D01*
X135070000Y-101460000D01*
X135070000Y-102270000D01*
X133910000Y-102270000D01*
G36*
X135070000Y-102270000D02*
G01*
X133910000Y-102270000D01*
X133910000Y-101460000D01*
X135070000Y-101460000D01*
X135070000Y-102270000D01*
G37*
X133910000Y-103340000D02*
X133910000Y-102530000D01*
X135070000Y-102530000D01*
X135070000Y-103340000D01*
X133910000Y-103340000D01*
G36*
X135070000Y-103340000D02*
G01*
X133910000Y-103340000D01*
X133910000Y-102530000D01*
X135070000Y-102530000D01*
X135070000Y-103340000D01*
G37*
X135330000Y-102270000D02*
X135330000Y-101460000D01*
X136490000Y-101460000D01*
X136490000Y-102270000D01*
X135330000Y-102270000D01*
G36*
X136490000Y-102270000D02*
G01*
X135330000Y-102270000D01*
X135330000Y-101460000D01*
X136490000Y-101460000D01*
X136490000Y-102270000D01*
G37*
X135330000Y-103340000D02*
X135330000Y-102530000D01*
X136490000Y-102530000D01*
X136490000Y-103340000D01*
X135330000Y-103340000D01*
G36*
X136490000Y-103340000D02*
G01*
X135330000Y-103340000D01*
X135330000Y-102530000D01*
X136490000Y-102530000D01*
X136490000Y-103340000D01*
G37*
%TD*%
D11*
%TO.C,L_BUCK1*%
X134950000Y-95000000D03*
X139450000Y-95000000D03*
%TD*%
D12*
%TO.C,C_VCAP1*%
X155450000Y-105500000D03*
X153550000Y-105500000D03*
%TD*%
D13*
%TO.C,C_BUCK_BOOT1*%
X131750000Y-102480000D03*
X131750000Y-101520000D03*
%TD*%
D14*
%TO.C,LED_STAT1*%
X159250000Y-109675000D03*
X159250000Y-108100000D03*
%TD*%
D15*
%TO.C,U_BUCK1*%
X133295000Y-104875000D03*
X134565000Y-104875000D03*
X135835000Y-104875000D03*
X137105000Y-104875000D03*
X137105000Y-99925000D03*
X135835000Y-99925000D03*
X134565000Y-99925000D03*
X133295000Y-99925000D03*
%TD*%
D16*
%TO.C,C_BUCK_IN2*%
X138000000Y-107425000D03*
X138000000Y-110375000D03*
%TD*%
D17*
%TO.C,R_VBAT_D1*%
X143250000Y-107000000D03*
X143250000Y-108020000D03*
%TD*%
D18*
%TO.C,D_TVS1*%
X145250000Y-112000000D03*
X141250000Y-112000000D03*
%TD*%
D19*
%TO.C,C_VDD3*%
X155020000Y-101250000D03*
X155980000Y-101250000D03*
%TD*%
D20*
%TO.C,R_LED3*%
X160740000Y-106750000D03*
X161760000Y-106750000D03*
%TD*%
D21*
%TO.C,C_VDD2*%
X147250000Y-102770000D03*
X147250000Y-103730000D03*
%TD*%
D22*
%TO.C,J_BAT1*%
X141250000Y-117500000D03*
X149250000Y-117500000D03*
%TD*%
D23*
%TO.C,C_BUCK_OUT1*%
X139075000Y-100750000D03*
X142025000Y-100750000D03*
%TD*%
D14*
%TO.C,LED_PWR1*%
X163750000Y-109675000D03*
X163750000Y-108100000D03*
%TD*%
D24*
%TO.C,D_USB_VBUS1*%
X158750000Y-98150000D03*
X158750000Y-95350000D03*
%TD*%
D25*
%TO.C,C_VDD1*%
X144730000Y-89090000D03*
X143770000Y-89090000D03*
%TD*%
D26*
%TO.C,U_MCU1*%
X144325000Y-91250000D03*
X144325000Y-91750000D03*
X144325000Y-92250000D03*
X144325000Y-92750000D03*
X144325000Y-93250000D03*
X144325000Y-93750000D03*
X144325000Y-94250000D03*
X144325000Y-94750000D03*
X144325000Y-95250000D03*
X144325000Y-95750000D03*
X144325000Y-96250000D03*
X144325000Y-96750000D03*
X144325000Y-97250000D03*
X144325000Y-97750000D03*
X144325000Y-98250000D03*
X144325000Y-98750000D03*
D27*
X146250000Y-100675000D03*
X146750000Y-100675000D03*
X147250000Y-100675000D03*
X147750000Y-100675000D03*
X148250000Y-100675000D03*
X148750000Y-100675000D03*
X149250000Y-100675000D03*
X149750000Y-100675000D03*
X150250000Y-100675000D03*
X150750000Y-100675000D03*
X151250000Y-100675000D03*
X151750000Y-100675000D03*
X152250000Y-100675000D03*
X152750000Y-100675000D03*
X153250000Y-100675000D03*
X153750000Y-100675000D03*
D26*
X155675000Y-98750000D03*
X155675000Y-98250000D03*
X155675000Y-97750000D03*
X155675000Y-97250000D03*
X155675000Y-96750000D03*
X155675000Y-96250000D03*
X155675000Y-95750000D03*
X155675000Y-95250000D03*
X155675000Y-94750000D03*
X155675000Y-94250000D03*
X155675000Y-93750000D03*
X155675000Y-93250000D03*
X155675000Y-92750000D03*
X155675000Y-92250000D03*
X155675000Y-91750000D03*
X155675000Y-91250000D03*
D27*
X153750000Y-89325000D03*
X153250000Y-89325000D03*
X152750000Y-89325000D03*
X152250000Y-89325000D03*
X151750000Y-89325000D03*
X151250000Y-89325000D03*
X150750000Y-89325000D03*
X150250000Y-89325000D03*
X149750000Y-89325000D03*
X149250000Y-89325000D03*
X148750000Y-89325000D03*
X148250000Y-89325000D03*
X147750000Y-89325000D03*
X147250000Y-89325000D03*
X146750000Y-89325000D03*
X146250000Y-89325000D03*
%TD*%
D20*
%TO.C,R_LED1*%
X162980000Y-106750000D03*
X164000000Y-106750000D03*
%TD*%
D28*
%TO.C,C_B1*%
X150050000Y-110500000D03*
X155450000Y-110500000D03*
%TD*%
D29*
%TO.C,R_FLASH_CS1*%
X161510000Y-99750000D03*
X160490000Y-99750000D03*
%TD*%
D16*
%TO.C,C_BUCK_IN1*%
X134750000Y-107425000D03*
X134750000Y-110375000D03*
%TD*%
D21*
%TO.C,C_VBAT_ADC1*%
X145250000Y-107030000D03*
X145250000Y-107990000D03*
%TD*%
D30*
%TO.C,C_VDD_BULK1*%
X148975000Y-104500000D03*
X150525000Y-104500000D03*
%TD*%
D13*
%TO.C,C_NRST1*%
X142750000Y-90000000D03*
X142750000Y-89040000D03*
%TD*%
D14*
%TO.C,LED_STAT2*%
X161500000Y-109675000D03*
X161500000Y-108100000D03*
%TD*%
D31*
%TO.C,D_BUCK1*%
X131750000Y-96700000D03*
X131750000Y-92700000D03*
%TD*%
D32*
%TO.C,R_VBAT_D2*%
X144250000Y-108020000D03*
X144250000Y-107000000D03*
%TD*%
D33*
%TO.C,C_BUCK_IN3*%
X132250000Y-107305000D03*
X132250000Y-108855000D03*
%TD*%
D20*
%TO.C,R_LED2*%
X158500000Y-106750000D03*
X159520000Y-106750000D03*
%TD*%
D34*
%TO.C,C_5V_BULK1*%
X137775000Y-90750000D03*
X136225000Y-90750000D03*
%TD*%
D13*
%TO.C,C_VDD4*%
X156250000Y-89980000D03*
X156250000Y-89020000D03*
%TD*%
M02*
