M48
; DRILL file KiCad 10.0.5 date 2026-08-25T10:32:37
; FORMAT={-:-/ absolute / metric / decimal}
; #@! TF.CreationDate,2026-08-25T10:32:37+02:00
; #@! TF.GenerationSoftware,Kicad,Pcbnew,10.0.5
; #@! TF.FileFunction,Plated,1,4,PTH
FMAT,2
METRIC
; #@! TA.AperFunction,Plated,PTH,ViaDrill
T1C0.300
; #@! TA.AperFunction,Plated,PTH,ComponentDrill
T2C0.300
; #@! TA.AperFunction,Plated,PTH,ViaDrill
T3C0.400
; #@! TA.AperFunction,Plated,PTH,ComponentDrill
T4C0.400
; #@! TA.AperFunction,Plated,PTH,ComponentDrill
T5C0.600
%
G90
G05
T1
X132.25Y-110.0
X133.0Y-91.5
X133.31Y-95.06
X133.4Y-94.3
X133.5Y-88.75
X133.5Y-93.0
X133.575Y-91.325
X133.75Y-111.5
X134.5Y-98.5
X134.75Y-111.5
X134.825Y-101.175
X135.21Y-89.69
X135.25Y-89.0
X135.25Y-98.5
X135.46Y-90.19
X135.75Y-111.5
X136.28Y-92.02
X136.38Y-98.62
X136.5Y-94.5
X136.75Y-97.5
X136.75Y-106.25
X136.975Y-98.075
X136.991Y-87.747
X137.0Y-111.5
X137.25Y-94.5
X137.75Y-88.0
X137.97Y-98.9
X138.0Y-94.0
X138.0Y-96.75
X138.0Y-102.25
X138.0Y-103.5
X138.0Y-111.5
X138.075Y-91.225
X138.25Y-106.25
X138.625Y-98.325
X139.0Y-111.5
X139.25Y-87.0
X139.325Y-105.525
X139.5Y-112.0
X139.725Y-101.175
X140.8Y-94.6
X141.0Y-89.25
X141.0Y-99.75
X141.0Y-100.75
X141.0Y-102.0
X141.025Y-98.825
X141.077Y-87.822
X141.25Y-110.5
X141.25Y-113.5
X141.302Y-94.977
X142.125Y-82.275
X142.425Y-98.425
X142.575Y-96.6
X143.0Y-88.25
X143.0Y-93.25
X143.025Y-91.325
X143.025Y-92.375
X143.061Y-94.435
X143.325Y-99.375
X143.486Y-90.668
X143.77Y-88.25
X144.25Y-108.76
X144.325Y-91.075
X144.575Y-99.425
X144.75Y-83.75
X144.75Y-87.0
X144.975Y-89.475
X145.25Y-108.76
X145.575Y-96.575
X145.575Y-101.125
X145.625Y-97.625
X145.679Y-88.321
X145.725Y-105.725
X145.75Y-87.5
X145.812Y-86.45
X145.95Y-92.588
X146.0Y-116.0
X146.0Y-117.5
X146.0Y-119.0
X146.25Y-95.25
X146.325Y-98.675
X146.45Y-101.975
X146.475Y-104.125
X146.475Y-108.675
X146.875Y-102.625
X147.0Y-96.5
X147.25Y-104.5
X148.0Y-95.75
X148.0Y-96.5
X148.0Y-114.5
X148.09Y-99.305
X148.106Y-84.894
X148.175Y-81.225
X148.25Y-86.75
X148.25Y-101.75
X148.25Y-102.5
X148.75Y-95.25
X148.75Y-105.5
X148.895Y-98.73
X149.25Y-102.0
X149.25Y-114.5
X149.5Y-98.0
X149.602Y-105.293
X149.675Y-103.425
X149.775Y-96.675
X149.8Y-93.875
X149.825Y-85.425
X150.0Y-106.75
X150.08Y-86.67
X150.25Y-96.25
X150.25Y-98.25
X150.275Y-112.475
X150.5Y-94.5
X150.75Y-114.5
X150.875Y-113.425
X150.95Y-86.75
X151.0Y-80.5
X151.0Y-83.75
X151.0Y-98.25
X151.0Y-96.25
X151.25Y-94.0
X151.5Y-104.0
X151.5Y-105.5
X151.675Y-95.175
X151.82Y-93.25
X151.825Y-102.475
X151.925Y-97.075
X152.0Y-83.5
X152.25Y-104.0
X152.425Y-107.525
X152.5Y-105.5
X152.525Y-118.625
X152.75Y-103.25
X153.275Y-97.325
X153.275Y-99.375
X153.465Y-95.55
X153.5Y-104.5
X154.1Y-91.25
X154.225Y-95.025
X154.25Y-98.75
X154.25Y-99.481
X154.25Y-104.5
X154.25Y-111.75
X154.299Y-102.701
X154.42Y-89.87
X154.5Y-85.5
X154.5Y-89.0
X154.525Y-94.225
X154.525Y-95.775
X154.775Y-101.575
X154.975Y-100.425
X155.0Y-109.25
X155.25Y-106.675
X155.25Y-111.75
X155.375Y-87.125
X156.125Y-85.775
X156.2Y-99.725
X156.25Y-88.25
X156.5Y-81.0
X156.5Y-107.25
X156.625Y-105.425
X156.625Y-108.875
X156.75Y-101.25
X156.756Y-93.312
X156.825Y-91.7
X156.842Y-92.567
X157.0Y-90.75
X157.0Y-97.5
X157.225Y-88.675
X157.275Y-113.225
X157.325Y-96.775
X157.475Y-91.775
X157.713Y-99.658
X157.925Y-108.725
X158.25Y-87.5
X158.25Y-97.0
X158.5Y-91.75
X158.5Y-105.75
X158.525Y-99.275
X158.75Y-93.75
X158.975Y-87.125
X159.104Y-93.05
X159.25Y-110.75
X159.306Y-84.422
X159.575Y-99.275
X159.875Y-116.225
X160.425Y-108.275
X160.75Y-96.75
X160.75Y-105.75
X161.0Y-90.75
X161.0Y-95.25
X161.0Y-100.5
X161.028Y-92.932
X161.085Y-99.202
X161.175Y-82.125
X161.175Y-114.675
X161.475Y-118.625
X161.5Y-110.75
X161.75Y-101.75
X161.75Y-102.75
X161.75Y-103.75
X161.75Y-104.75
X162.5Y-106.0
X162.525Y-102.125
X162.675Y-106.625
X162.75Y-107.75
X163.0Y-86.5
X163.375Y-99.225
X163.45Y-105.75
X163.75Y-110.75
X163.825Y-88.225
X164.0Y-90.75
X164.0Y-96.75
X164.725Y-105.525
X164.75Y-97.0
X164.775Y-88.125
X164.775Y-91.025
X166.375Y-106.525
X166.375Y-107.625
X166.725Y-103.375
X166.775Y-104.275
X166.825Y-101.375
X166.875Y-102.225
X166.9Y-111.5
X167.125Y-100.275
X168.125Y-110.625
X168.175Y-102.775
X169.0Y-106.0
X169.024Y-99.356
X169.475Y-95.725
T2
X134.0Y-101.75
X134.0Y-103.05
X135.2Y-101.75
X135.2Y-103.05
X136.4Y-101.75
X136.4Y-103.05
T3
X140.55Y-117.5
X141.25Y-117.5
X141.95Y-117.5
X153.825Y-80.875
X154.5Y-80.875
X155.175Y-80.875
X164.825Y-112.3
X165.525Y-112.3
X166.225Y-112.3
T4
X161.725Y-90.775
X161.725Y-91.625
X161.725Y-92.475
X161.725Y-93.325
X161.725Y-94.175
X161.725Y-95.025
X161.725Y-95.875
X161.725Y-96.725
X163.075Y-90.775
X163.075Y-91.625
X163.075Y-92.475
X163.075Y-93.325
X163.075Y-94.175
X163.075Y-95.025
X163.075Y-95.875
X163.075Y-96.725
T5
X161.955Y-89.425G85X163.455Y-89.425
G05
X161.955Y-98.075G85X163.455Y-98.075
G05
X165.685Y-89.425G85X166.485Y-89.425
G05
X165.685Y-98.075G85X166.485Y-98.075
G05
M30
