%TF.GenerationSoftware,KiCad,Pcbnew,10.0.5*%
%TF.CreationDate,2026-08-25T10:36:00+02:00*%
%TF.ProjectId,Flight Controller,466c6967-6874-4204-936f-6e74726f6c6c,rev?*%
%TF.SameCoordinates,Original*%
%TF.FileFunction,Legend,Top*%
%TF.FilePolarity,Positive*%
%FSLAX46Y46*%
G04 Gerber Fmt 4.6, Leading zero omitted, Abs format (unit mm)*
G04 Created by KiCad (PCBNEW 10.0.5) date 2026-08-25 10:36:00*
%MOMM*%
%LPD*%
G01*
G04 APERTURE LIST*
%ADD10C,0.150000*%
%ADD11C,0.260000*%
%ADD12C,0.120000*%
%ADD13C,0.127000*%
%ADD14C,0.200000*%
G04 APERTURE END LIST*
D10*
X141097618Y-86312295D02*
X141097618Y-86883723D01*
X141097618Y-86883723D02*
X141059523Y-86998009D01*
X141059523Y-86998009D02*
X140983332Y-87074200D01*
X140983332Y-87074200D02*
X140869047Y-87112295D01*
X140869047Y-87112295D02*
X140792856Y-87112295D01*
X141288095Y-87188485D02*
X141897618Y-87188485D01*
X142545238Y-87112295D02*
X142278571Y-86731342D01*
X142088095Y-87112295D02*
X142088095Y-86312295D01*
X142088095Y-86312295D02*
X142392857Y-86312295D01*
X142392857Y-86312295D02*
X142469047Y-86350390D01*
X142469047Y-86350390D02*
X142507142Y-86388485D01*
X142507142Y-86388485D02*
X142545238Y-86464676D01*
X142545238Y-86464676D02*
X142545238Y-86578961D01*
X142545238Y-86578961D02*
X142507142Y-86655152D01*
X142507142Y-86655152D02*
X142469047Y-86693247D01*
X142469047Y-86693247D02*
X142392857Y-86731342D01*
X142392857Y-86731342D02*
X142088095Y-86731342D01*
X142811904Y-86312295D02*
X143345238Y-87112295D01*
X143345238Y-86312295D02*
X142811904Y-87112295D01*
X144069047Y-87112295D02*
X143611904Y-87112295D01*
X143840476Y-87112295D02*
X143840476Y-86312295D01*
X143840476Y-86312295D02*
X143764285Y-86426580D01*
X143764285Y-86426580D02*
X143688095Y-86502771D01*
X143688095Y-86502771D02*
X143611904Y-86540866D01*
X139297619Y-84562295D02*
X138916667Y-84562295D01*
X138916667Y-84562295D02*
X138878571Y-84943247D01*
X138878571Y-84943247D02*
X138916667Y-84905152D01*
X138916667Y-84905152D02*
X138992857Y-84867057D01*
X138992857Y-84867057D02*
X139183333Y-84867057D01*
X139183333Y-84867057D02*
X139259524Y-84905152D01*
X139259524Y-84905152D02*
X139297619Y-84943247D01*
X139297619Y-84943247D02*
X139335714Y-85019438D01*
X139335714Y-85019438D02*
X139335714Y-85209914D01*
X139335714Y-85209914D02*
X139297619Y-85286104D01*
X139297619Y-85286104D02*
X139259524Y-85324200D01*
X139259524Y-85324200D02*
X139183333Y-85362295D01*
X139183333Y-85362295D02*
X138992857Y-85362295D01*
X138992857Y-85362295D02*
X138916667Y-85324200D01*
X138916667Y-85324200D02*
X138878571Y-85286104D01*
X139564286Y-84562295D02*
X139830953Y-85362295D01*
X139830953Y-85362295D02*
X140097619Y-84562295D01*
X141659523Y-84600390D02*
X141583333Y-84562295D01*
X141583333Y-84562295D02*
X141469047Y-84562295D01*
X141469047Y-84562295D02*
X141354761Y-84600390D01*
X141354761Y-84600390D02*
X141278571Y-84676580D01*
X141278571Y-84676580D02*
X141240476Y-84752771D01*
X141240476Y-84752771D02*
X141202380Y-84905152D01*
X141202380Y-84905152D02*
X141202380Y-85019438D01*
X141202380Y-85019438D02*
X141240476Y-85171819D01*
X141240476Y-85171819D02*
X141278571Y-85248009D01*
X141278571Y-85248009D02*
X141354761Y-85324200D01*
X141354761Y-85324200D02*
X141469047Y-85362295D01*
X141469047Y-85362295D02*
X141545238Y-85362295D01*
X141545238Y-85362295D02*
X141659523Y-85324200D01*
X141659523Y-85324200D02*
X141697619Y-85286104D01*
X141697619Y-85286104D02*
X141697619Y-85019438D01*
X141697619Y-85019438D02*
X141545238Y-85019438D01*
X143316667Y-85362295D02*
X143050000Y-84981342D01*
X142859524Y-85362295D02*
X142859524Y-84562295D01*
X142859524Y-84562295D02*
X143164286Y-84562295D01*
X143164286Y-84562295D02*
X143240476Y-84600390D01*
X143240476Y-84600390D02*
X143278571Y-84638485D01*
X143278571Y-84638485D02*
X143316667Y-84714676D01*
X143316667Y-84714676D02*
X143316667Y-84828961D01*
X143316667Y-84828961D02*
X143278571Y-84905152D01*
X143278571Y-84905152D02*
X143240476Y-84943247D01*
X143240476Y-84943247D02*
X143164286Y-84981342D01*
X143164286Y-84981342D02*
X142859524Y-84981342D01*
X143583333Y-84562295D02*
X144116667Y-85362295D01*
X144116667Y-84562295D02*
X143583333Y-85362295D01*
X144840476Y-84562295D02*
X145297619Y-84562295D01*
X145069047Y-85362295D02*
X145069047Y-84562295D01*
X145488095Y-84562295D02*
X146021429Y-85362295D01*
X146021429Y-84562295D02*
X145488095Y-85362295D01*
X138466667Y-102562295D02*
X138466667Y-103209914D01*
X138466667Y-103209914D02*
X138504762Y-103286104D01*
X138504762Y-103286104D02*
X138542857Y-103324200D01*
X138542857Y-103324200D02*
X138619048Y-103362295D01*
X138619048Y-103362295D02*
X138771429Y-103362295D01*
X138771429Y-103362295D02*
X138847619Y-103324200D01*
X138847619Y-103324200D02*
X138885714Y-103286104D01*
X138885714Y-103286104D02*
X138923810Y-103209914D01*
X138923810Y-103209914D02*
X138923810Y-102562295D01*
X139114286Y-103438485D02*
X139723809Y-103438485D01*
X140180952Y-102943247D02*
X140295238Y-102981342D01*
X140295238Y-102981342D02*
X140333333Y-103019438D01*
X140333333Y-103019438D02*
X140371429Y-103095628D01*
X140371429Y-103095628D02*
X140371429Y-103209914D01*
X140371429Y-103209914D02*
X140333333Y-103286104D01*
X140333333Y-103286104D02*
X140295238Y-103324200D01*
X140295238Y-103324200D02*
X140219048Y-103362295D01*
X140219048Y-103362295D02*
X139914286Y-103362295D01*
X139914286Y-103362295D02*
X139914286Y-102562295D01*
X139914286Y-102562295D02*
X140180952Y-102562295D01*
X140180952Y-102562295D02*
X140257143Y-102600390D01*
X140257143Y-102600390D02*
X140295238Y-102638485D01*
X140295238Y-102638485D02*
X140333333Y-102714676D01*
X140333333Y-102714676D02*
X140333333Y-102790866D01*
X140333333Y-102790866D02*
X140295238Y-102867057D01*
X140295238Y-102867057D02*
X140257143Y-102905152D01*
X140257143Y-102905152D02*
X140180952Y-102943247D01*
X140180952Y-102943247D02*
X139914286Y-102943247D01*
X140714286Y-102562295D02*
X140714286Y-103209914D01*
X140714286Y-103209914D02*
X140752381Y-103286104D01*
X140752381Y-103286104D02*
X140790476Y-103324200D01*
X140790476Y-103324200D02*
X140866667Y-103362295D01*
X140866667Y-103362295D02*
X141019048Y-103362295D01*
X141019048Y-103362295D02*
X141095238Y-103324200D01*
X141095238Y-103324200D02*
X141133333Y-103286104D01*
X141133333Y-103286104D02*
X141171429Y-103209914D01*
X141171429Y-103209914D02*
X141171429Y-102562295D01*
X142009524Y-103286104D02*
X141971428Y-103324200D01*
X141971428Y-103324200D02*
X141857143Y-103362295D01*
X141857143Y-103362295D02*
X141780952Y-103362295D01*
X141780952Y-103362295D02*
X141666666Y-103324200D01*
X141666666Y-103324200D02*
X141590476Y-103248009D01*
X141590476Y-103248009D02*
X141552381Y-103171819D01*
X141552381Y-103171819D02*
X141514285Y-103019438D01*
X141514285Y-103019438D02*
X141514285Y-102905152D01*
X141514285Y-102905152D02*
X141552381Y-102752771D01*
X141552381Y-102752771D02*
X141590476Y-102676580D01*
X141590476Y-102676580D02*
X141666666Y-102600390D01*
X141666666Y-102600390D02*
X141780952Y-102562295D01*
X141780952Y-102562295D02*
X141857143Y-102562295D01*
X141857143Y-102562295D02*
X141971428Y-102600390D01*
X141971428Y-102600390D02*
X142009524Y-102638485D01*
X142352381Y-103362295D02*
X142352381Y-102562295D01*
X142809524Y-103362295D02*
X142466666Y-102905152D01*
X142809524Y-102562295D02*
X142352381Y-103019438D01*
X143571428Y-103362295D02*
X143114285Y-103362295D01*
X143342857Y-103362295D02*
X143342857Y-102562295D01*
X143342857Y-102562295D02*
X143266666Y-102676580D01*
X143266666Y-102676580D02*
X143190476Y-102752771D01*
X143190476Y-102752771D02*
X143114285Y-102790866D01*
X148228571Y-86312295D02*
X148228571Y-86883723D01*
X148228571Y-86883723D02*
X148190476Y-86998009D01*
X148190476Y-86998009D02*
X148114285Y-87074200D01*
X148114285Y-87074200D02*
X148000000Y-87112295D01*
X148000000Y-87112295D02*
X147923809Y-87112295D01*
X148419048Y-87188485D02*
X149028571Y-87188485D01*
X149676191Y-87036104D02*
X149638095Y-87074200D01*
X149638095Y-87074200D02*
X149523810Y-87112295D01*
X149523810Y-87112295D02*
X149447619Y-87112295D01*
X149447619Y-87112295D02*
X149333333Y-87074200D01*
X149333333Y-87074200D02*
X149257143Y-86998009D01*
X149257143Y-86998009D02*
X149219048Y-86921819D01*
X149219048Y-86921819D02*
X149180952Y-86769438D01*
X149180952Y-86769438D02*
X149180952Y-86655152D01*
X149180952Y-86655152D02*
X149219048Y-86502771D01*
X149219048Y-86502771D02*
X149257143Y-86426580D01*
X149257143Y-86426580D02*
X149333333Y-86350390D01*
X149333333Y-86350390D02*
X149447619Y-86312295D01*
X149447619Y-86312295D02*
X149523810Y-86312295D01*
X149523810Y-86312295D02*
X149638095Y-86350390D01*
X149638095Y-86350390D02*
X149676191Y-86388485D01*
X149980952Y-86883723D02*
X150361905Y-86883723D01*
X149904762Y-87112295D02*
X150171429Y-86312295D01*
X150171429Y-86312295D02*
X150438095Y-87112295D01*
X150704762Y-87112295D02*
X150704762Y-86312295D01*
X150704762Y-86312295D02*
X150971428Y-86883723D01*
X150971428Y-86883723D02*
X151238095Y-86312295D01*
X151238095Y-86312295D02*
X151238095Y-87112295D01*
X152038095Y-87112295D02*
X151580952Y-87112295D01*
X151809524Y-87112295D02*
X151809524Y-86312295D01*
X151809524Y-86312295D02*
X151733333Y-86426580D01*
X151733333Y-86426580D02*
X151657143Y-86502771D01*
X151657143Y-86502771D02*
X151580952Y-86540866D01*
X147847619Y-84562295D02*
X147466667Y-84562295D01*
X147466667Y-84562295D02*
X147428571Y-84943247D01*
X147428571Y-84943247D02*
X147466667Y-84905152D01*
X147466667Y-84905152D02*
X147542857Y-84867057D01*
X147542857Y-84867057D02*
X147733333Y-84867057D01*
X147733333Y-84867057D02*
X147809524Y-84905152D01*
X147809524Y-84905152D02*
X147847619Y-84943247D01*
X147847619Y-84943247D02*
X147885714Y-85019438D01*
X147885714Y-85019438D02*
X147885714Y-85209914D01*
X147885714Y-85209914D02*
X147847619Y-85286104D01*
X147847619Y-85286104D02*
X147809524Y-85324200D01*
X147809524Y-85324200D02*
X147733333Y-85362295D01*
X147733333Y-85362295D02*
X147542857Y-85362295D01*
X147542857Y-85362295D02*
X147466667Y-85324200D01*
X147466667Y-85324200D02*
X147428571Y-85286104D01*
X148114286Y-84562295D02*
X148380953Y-85362295D01*
X148380953Y-85362295D02*
X148647619Y-84562295D01*
X150209523Y-84600390D02*
X150133333Y-84562295D01*
X150133333Y-84562295D02*
X150019047Y-84562295D01*
X150019047Y-84562295D02*
X149904761Y-84600390D01*
X149904761Y-84600390D02*
X149828571Y-84676580D01*
X149828571Y-84676580D02*
X149790476Y-84752771D01*
X149790476Y-84752771D02*
X149752380Y-84905152D01*
X149752380Y-84905152D02*
X149752380Y-85019438D01*
X149752380Y-85019438D02*
X149790476Y-85171819D01*
X149790476Y-85171819D02*
X149828571Y-85248009D01*
X149828571Y-85248009D02*
X149904761Y-85324200D01*
X149904761Y-85324200D02*
X150019047Y-85362295D01*
X150019047Y-85362295D02*
X150095238Y-85362295D01*
X150095238Y-85362295D02*
X150209523Y-85324200D01*
X150209523Y-85324200D02*
X150247619Y-85286104D01*
X150247619Y-85286104D02*
X150247619Y-85019438D01*
X150247619Y-85019438D02*
X150095238Y-85019438D01*
X151142857Y-84562295D02*
X151409524Y-85362295D01*
X151409524Y-85362295D02*
X151676190Y-84562295D01*
X151942857Y-85362295D02*
X151942857Y-84562295D01*
X152323809Y-85362295D02*
X152323809Y-84562295D01*
X152323809Y-84562295D02*
X152514285Y-84562295D01*
X152514285Y-84562295D02*
X152628571Y-84600390D01*
X152628571Y-84600390D02*
X152704761Y-84676580D01*
X152704761Y-84676580D02*
X152742856Y-84752771D01*
X152742856Y-84752771D02*
X152780952Y-84905152D01*
X152780952Y-84905152D02*
X152780952Y-85019438D01*
X152780952Y-85019438D02*
X152742856Y-85171819D01*
X152742856Y-85171819D02*
X152704761Y-85248009D01*
X152704761Y-85248009D02*
X152628571Y-85324200D01*
X152628571Y-85324200D02*
X152514285Y-85362295D01*
X152514285Y-85362295D02*
X152323809Y-85362295D01*
X143630952Y-114062295D02*
X143630952Y-114633723D01*
X143630952Y-114633723D02*
X143592857Y-114748009D01*
X143592857Y-114748009D02*
X143516666Y-114824200D01*
X143516666Y-114824200D02*
X143402381Y-114862295D01*
X143402381Y-114862295D02*
X143326190Y-114862295D01*
X143821429Y-114938485D02*
X144430952Y-114938485D01*
X144888095Y-114443247D02*
X145002381Y-114481342D01*
X145002381Y-114481342D02*
X145040476Y-114519438D01*
X145040476Y-114519438D02*
X145078572Y-114595628D01*
X145078572Y-114595628D02*
X145078572Y-114709914D01*
X145078572Y-114709914D02*
X145040476Y-114786104D01*
X145040476Y-114786104D02*
X145002381Y-114824200D01*
X145002381Y-114824200D02*
X144926191Y-114862295D01*
X144926191Y-114862295D02*
X144621429Y-114862295D01*
X144621429Y-114862295D02*
X144621429Y-114062295D01*
X144621429Y-114062295D02*
X144888095Y-114062295D01*
X144888095Y-114062295D02*
X144964286Y-114100390D01*
X144964286Y-114100390D02*
X145002381Y-114138485D01*
X145002381Y-114138485D02*
X145040476Y-114214676D01*
X145040476Y-114214676D02*
X145040476Y-114290866D01*
X145040476Y-114290866D02*
X145002381Y-114367057D01*
X145002381Y-114367057D02*
X144964286Y-114405152D01*
X144964286Y-114405152D02*
X144888095Y-114443247D01*
X144888095Y-114443247D02*
X144621429Y-114443247D01*
X145383333Y-114633723D02*
X145764286Y-114633723D01*
X145307143Y-114862295D02*
X145573810Y-114062295D01*
X145573810Y-114062295D02*
X145840476Y-114862295D01*
X145992857Y-114062295D02*
X146450000Y-114062295D01*
X146221428Y-114862295D02*
X146221428Y-114062295D01*
X147135714Y-114862295D02*
X146678571Y-114862295D01*
X146907143Y-114862295D02*
X146907143Y-114062295D01*
X146907143Y-114062295D02*
X146830952Y-114176580D01*
X146830952Y-114176580D02*
X146754762Y-114252771D01*
X146754762Y-114252771D02*
X146678571Y-114290866D01*
X139305826Y-114475247D02*
X139420112Y-114513342D01*
X139420112Y-114513342D02*
X139458207Y-114551438D01*
X139458207Y-114551438D02*
X139496303Y-114627628D01*
X139496303Y-114627628D02*
X139496303Y-114741914D01*
X139496303Y-114741914D02*
X139458207Y-114818104D01*
X139458207Y-114818104D02*
X139420112Y-114856200D01*
X139420112Y-114856200D02*
X139343922Y-114894295D01*
X139343922Y-114894295D02*
X139039160Y-114894295D01*
X139039160Y-114894295D02*
X139039160Y-114094295D01*
X139039160Y-114094295D02*
X139305826Y-114094295D01*
X139305826Y-114094295D02*
X139382017Y-114132390D01*
X139382017Y-114132390D02*
X139420112Y-114170485D01*
X139420112Y-114170485D02*
X139458207Y-114246676D01*
X139458207Y-114246676D02*
X139458207Y-114322866D01*
X139458207Y-114322866D02*
X139420112Y-114399057D01*
X139420112Y-114399057D02*
X139382017Y-114437152D01*
X139382017Y-114437152D02*
X139305826Y-114475247D01*
X139305826Y-114475247D02*
X139039160Y-114475247D01*
X139801064Y-114665723D02*
X140182017Y-114665723D01*
X139724874Y-114894295D02*
X139991541Y-114094295D01*
X139991541Y-114094295D02*
X140258207Y-114894295D01*
X140410588Y-114094295D02*
X140867731Y-114094295D01*
X140639159Y-114894295D02*
X140639159Y-114094295D01*
X141134398Y-114589533D02*
X141743922Y-114589533D01*
X141439160Y-114894295D02*
X141439160Y-114284771D01*
X149708207Y-114132390D02*
X149632017Y-114094295D01*
X149632017Y-114094295D02*
X149517731Y-114094295D01*
X149517731Y-114094295D02*
X149403445Y-114132390D01*
X149403445Y-114132390D02*
X149327255Y-114208580D01*
X149327255Y-114208580D02*
X149289160Y-114284771D01*
X149289160Y-114284771D02*
X149251064Y-114437152D01*
X149251064Y-114437152D02*
X149251064Y-114551438D01*
X149251064Y-114551438D02*
X149289160Y-114703819D01*
X149289160Y-114703819D02*
X149327255Y-114780009D01*
X149327255Y-114780009D02*
X149403445Y-114856200D01*
X149403445Y-114856200D02*
X149517731Y-114894295D01*
X149517731Y-114894295D02*
X149593922Y-114894295D01*
X149593922Y-114894295D02*
X149708207Y-114856200D01*
X149708207Y-114856200D02*
X149746303Y-114818104D01*
X149746303Y-114818104D02*
X149746303Y-114551438D01*
X149746303Y-114551438D02*
X149593922Y-114551438D01*
X150089160Y-114894295D02*
X150089160Y-114094295D01*
X150089160Y-114094295D02*
X150546303Y-114894295D01*
X150546303Y-114894295D02*
X150546303Y-114094295D01*
X150927255Y-114894295D02*
X150927255Y-114094295D01*
X150927255Y-114094295D02*
X151117731Y-114094295D01*
X151117731Y-114094295D02*
X151232017Y-114132390D01*
X151232017Y-114132390D02*
X151308207Y-114208580D01*
X151308207Y-114208580D02*
X151346302Y-114284771D01*
X151346302Y-114284771D02*
X151384398Y-114437152D01*
X151384398Y-114437152D02*
X151384398Y-114551438D01*
X151384398Y-114551438D02*
X151346302Y-114703819D01*
X151346302Y-114703819D02*
X151308207Y-114780009D01*
X151308207Y-114780009D02*
X151232017Y-114856200D01*
X151232017Y-114856200D02*
X151117731Y-114894295D01*
X151117731Y-114894295D02*
X150927255Y-114894295D01*
X149559524Y-102062295D02*
X149559524Y-102709914D01*
X149559524Y-102709914D02*
X149597619Y-102786104D01*
X149597619Y-102786104D02*
X149635714Y-102824200D01*
X149635714Y-102824200D02*
X149711905Y-102862295D01*
X149711905Y-102862295D02*
X149864286Y-102862295D01*
X149864286Y-102862295D02*
X149940476Y-102824200D01*
X149940476Y-102824200D02*
X149978571Y-102786104D01*
X149978571Y-102786104D02*
X150016667Y-102709914D01*
X150016667Y-102709914D02*
X150016667Y-102062295D01*
X150207143Y-102938485D02*
X150816666Y-102938485D01*
X151007143Y-102862295D02*
X151007143Y-102062295D01*
X151007143Y-102062295D02*
X151273809Y-102633723D01*
X151273809Y-102633723D02*
X151540476Y-102062295D01*
X151540476Y-102062295D02*
X151540476Y-102862295D01*
X152378572Y-102786104D02*
X152340476Y-102824200D01*
X152340476Y-102824200D02*
X152226191Y-102862295D01*
X152226191Y-102862295D02*
X152150000Y-102862295D01*
X152150000Y-102862295D02*
X152035714Y-102824200D01*
X152035714Y-102824200D02*
X151959524Y-102748009D01*
X151959524Y-102748009D02*
X151921429Y-102671819D01*
X151921429Y-102671819D02*
X151883333Y-102519438D01*
X151883333Y-102519438D02*
X151883333Y-102405152D01*
X151883333Y-102405152D02*
X151921429Y-102252771D01*
X151921429Y-102252771D02*
X151959524Y-102176580D01*
X151959524Y-102176580D02*
X152035714Y-102100390D01*
X152035714Y-102100390D02*
X152150000Y-102062295D01*
X152150000Y-102062295D02*
X152226191Y-102062295D01*
X152226191Y-102062295D02*
X152340476Y-102100390D01*
X152340476Y-102100390D02*
X152378572Y-102138485D01*
X152721429Y-102062295D02*
X152721429Y-102709914D01*
X152721429Y-102709914D02*
X152759524Y-102786104D01*
X152759524Y-102786104D02*
X152797619Y-102824200D01*
X152797619Y-102824200D02*
X152873810Y-102862295D01*
X152873810Y-102862295D02*
X153026191Y-102862295D01*
X153026191Y-102862295D02*
X153102381Y-102824200D01*
X153102381Y-102824200D02*
X153140476Y-102786104D01*
X153140476Y-102786104D02*
X153178572Y-102709914D01*
X153178572Y-102709914D02*
X153178572Y-102062295D01*
X153978571Y-102862295D02*
X153521428Y-102862295D01*
X153750000Y-102862295D02*
X153750000Y-102062295D01*
X153750000Y-102062295D02*
X153673809Y-102176580D01*
X153673809Y-102176580D02*
X153597619Y-102252771D01*
X153597619Y-102252771D02*
X153521428Y-102290866D01*
X159312295Y-93271428D02*
X159883723Y-93271428D01*
X159883723Y-93271428D02*
X159998009Y-93309523D01*
X159998009Y-93309523D02*
X160074200Y-93385714D01*
X160074200Y-93385714D02*
X160112295Y-93499999D01*
X160112295Y-93499999D02*
X160112295Y-93576190D01*
X160188485Y-93080952D02*
X160188485Y-92471428D01*
X159312295Y-92280951D02*
X159959914Y-92280951D01*
X159959914Y-92280951D02*
X160036104Y-92242856D01*
X160036104Y-92242856D02*
X160074200Y-92204761D01*
X160074200Y-92204761D02*
X160112295Y-92128570D01*
X160112295Y-92128570D02*
X160112295Y-91976189D01*
X160112295Y-91976189D02*
X160074200Y-91899999D01*
X160074200Y-91899999D02*
X160036104Y-91861904D01*
X160036104Y-91861904D02*
X159959914Y-91823808D01*
X159959914Y-91823808D02*
X159312295Y-91823808D01*
X160074200Y-91480952D02*
X160112295Y-91366666D01*
X160112295Y-91366666D02*
X160112295Y-91176190D01*
X160112295Y-91176190D02*
X160074200Y-91099999D01*
X160074200Y-91099999D02*
X160036104Y-91061904D01*
X160036104Y-91061904D02*
X159959914Y-91023809D01*
X159959914Y-91023809D02*
X159883723Y-91023809D01*
X159883723Y-91023809D02*
X159807533Y-91061904D01*
X159807533Y-91061904D02*
X159769438Y-91099999D01*
X159769438Y-91099999D02*
X159731342Y-91176190D01*
X159731342Y-91176190D02*
X159693247Y-91328571D01*
X159693247Y-91328571D02*
X159655152Y-91404761D01*
X159655152Y-91404761D02*
X159617057Y-91442856D01*
X159617057Y-91442856D02*
X159540866Y-91480952D01*
X159540866Y-91480952D02*
X159464676Y-91480952D01*
X159464676Y-91480952D02*
X159388485Y-91442856D01*
X159388485Y-91442856D02*
X159350390Y-91404761D01*
X159350390Y-91404761D02*
X159312295Y-91328571D01*
X159312295Y-91328571D02*
X159312295Y-91138094D01*
X159312295Y-91138094D02*
X159350390Y-91023809D01*
X159693247Y-90414285D02*
X159731342Y-90299999D01*
X159731342Y-90299999D02*
X159769438Y-90261904D01*
X159769438Y-90261904D02*
X159845628Y-90223808D01*
X159845628Y-90223808D02*
X159959914Y-90223808D01*
X159959914Y-90223808D02*
X160036104Y-90261904D01*
X160036104Y-90261904D02*
X160074200Y-90299999D01*
X160074200Y-90299999D02*
X160112295Y-90376189D01*
X160112295Y-90376189D02*
X160112295Y-90680951D01*
X160112295Y-90680951D02*
X159312295Y-90680951D01*
X159312295Y-90680951D02*
X159312295Y-90414285D01*
X159312295Y-90414285D02*
X159350390Y-90338094D01*
X159350390Y-90338094D02*
X159388485Y-90299999D01*
X159388485Y-90299999D02*
X159464676Y-90261904D01*
X159464676Y-90261904D02*
X159540866Y-90261904D01*
X159540866Y-90261904D02*
X159617057Y-90299999D01*
X159617057Y-90299999D02*
X159655152Y-90338094D01*
X159655152Y-90338094D02*
X159693247Y-90414285D01*
X159693247Y-90414285D02*
X159693247Y-90680951D01*
X160112295Y-89461904D02*
X160112295Y-89919047D01*
X160112295Y-89690475D02*
X159312295Y-89690475D01*
X159312295Y-89690475D02*
X159426580Y-89766666D01*
X159426580Y-89766666D02*
X159502771Y-89842856D01*
X159502771Y-89842856D02*
X159540866Y-89919047D01*
X155899999Y-86312295D02*
X155899999Y-86883723D01*
X155899999Y-86883723D02*
X155861904Y-86998009D01*
X155861904Y-86998009D02*
X155785713Y-87074200D01*
X155785713Y-87074200D02*
X155671428Y-87112295D01*
X155671428Y-87112295D02*
X155595237Y-87112295D01*
X156090476Y-87188485D02*
X156699999Y-87188485D01*
X156776190Y-86312295D02*
X157042857Y-87112295D01*
X157042857Y-87112295D02*
X157309523Y-86312295D01*
X157461904Y-86312295D02*
X157919047Y-86312295D01*
X157690475Y-87112295D02*
X157690475Y-86312295D01*
X158109523Y-86312295D02*
X158642857Y-87112295D01*
X158642857Y-86312295D02*
X158109523Y-87112295D01*
X159366666Y-87112295D02*
X158909523Y-87112295D01*
X159138095Y-87112295D02*
X159138095Y-86312295D01*
X159138095Y-86312295D02*
X159061904Y-86426580D01*
X159061904Y-86426580D02*
X158985714Y-86502771D01*
X158985714Y-86502771D02*
X158909523Y-86540866D01*
X153909523Y-84943247D02*
X154023809Y-84981342D01*
X154023809Y-84981342D02*
X154061904Y-85019438D01*
X154061904Y-85019438D02*
X154100000Y-85095628D01*
X154100000Y-85095628D02*
X154100000Y-85209914D01*
X154100000Y-85209914D02*
X154061904Y-85286104D01*
X154061904Y-85286104D02*
X154023809Y-85324200D01*
X154023809Y-85324200D02*
X153947619Y-85362295D01*
X153947619Y-85362295D02*
X153642857Y-85362295D01*
X153642857Y-85362295D02*
X153642857Y-84562295D01*
X153642857Y-84562295D02*
X153909523Y-84562295D01*
X153909523Y-84562295D02*
X153985714Y-84600390D01*
X153985714Y-84600390D02*
X154023809Y-84638485D01*
X154023809Y-84638485D02*
X154061904Y-84714676D01*
X154061904Y-84714676D02*
X154061904Y-84790866D01*
X154061904Y-84790866D02*
X154023809Y-84867057D01*
X154023809Y-84867057D02*
X153985714Y-84905152D01*
X153985714Y-84905152D02*
X153909523Y-84943247D01*
X153909523Y-84943247D02*
X153642857Y-84943247D01*
X154404761Y-85133723D02*
X154785714Y-85133723D01*
X154328571Y-85362295D02*
X154595238Y-84562295D01*
X154595238Y-84562295D02*
X154861904Y-85362295D01*
X155014285Y-84562295D02*
X155471428Y-84562295D01*
X155242856Y-85362295D02*
X155242856Y-84562295D01*
X155892857Y-84562295D02*
X156159524Y-85362295D01*
X156159524Y-85362295D02*
X156426190Y-84562295D01*
X156692857Y-85362295D02*
X156692857Y-84562295D01*
X157073809Y-85362295D02*
X157073809Y-84562295D01*
X157073809Y-84562295D02*
X157264285Y-84562295D01*
X157264285Y-84562295D02*
X157378571Y-84600390D01*
X157378571Y-84600390D02*
X157454761Y-84676580D01*
X157454761Y-84676580D02*
X157492856Y-84752771D01*
X157492856Y-84752771D02*
X157530952Y-84905152D01*
X157530952Y-84905152D02*
X157530952Y-85019438D01*
X157530952Y-85019438D02*
X157492856Y-85171819D01*
X157492856Y-85171819D02*
X157454761Y-85248009D01*
X157454761Y-85248009D02*
X157378571Y-85324200D01*
X157378571Y-85324200D02*
X157264285Y-85362295D01*
X157264285Y-85362295D02*
X157073809Y-85362295D01*
X158140476Y-84562295D02*
X158597619Y-84562295D01*
X158369047Y-85362295D02*
X158369047Y-84562295D01*
X158788095Y-84562295D02*
X159321429Y-85362295D01*
X159321429Y-84562295D02*
X158788095Y-85362295D01*
X160709523Y-84600390D02*
X160633333Y-84562295D01*
X160633333Y-84562295D02*
X160519047Y-84562295D01*
X160519047Y-84562295D02*
X160404761Y-84600390D01*
X160404761Y-84600390D02*
X160328571Y-84676580D01*
X160328571Y-84676580D02*
X160290476Y-84752771D01*
X160290476Y-84752771D02*
X160252380Y-84905152D01*
X160252380Y-84905152D02*
X160252380Y-85019438D01*
X160252380Y-85019438D02*
X160290476Y-85171819D01*
X160290476Y-85171819D02*
X160328571Y-85248009D01*
X160328571Y-85248009D02*
X160404761Y-85324200D01*
X160404761Y-85324200D02*
X160519047Y-85362295D01*
X160519047Y-85362295D02*
X160595238Y-85362295D01*
X160595238Y-85362295D02*
X160709523Y-85324200D01*
X160709523Y-85324200D02*
X160747619Y-85286104D01*
X160747619Y-85286104D02*
X160747619Y-85019438D01*
X160747619Y-85019438D02*
X160595238Y-85019438D01*
X165062295Y-104559524D02*
X165633723Y-104559524D01*
X165633723Y-104559524D02*
X165748009Y-104597619D01*
X165748009Y-104597619D02*
X165824200Y-104673810D01*
X165824200Y-104673810D02*
X165862295Y-104788095D01*
X165862295Y-104788095D02*
X165862295Y-104864286D01*
X165938485Y-104369048D02*
X165938485Y-103759524D01*
X165824200Y-103607143D02*
X165862295Y-103492857D01*
X165862295Y-103492857D02*
X165862295Y-103302381D01*
X165862295Y-103302381D02*
X165824200Y-103226190D01*
X165824200Y-103226190D02*
X165786104Y-103188095D01*
X165786104Y-103188095D02*
X165709914Y-103150000D01*
X165709914Y-103150000D02*
X165633723Y-103150000D01*
X165633723Y-103150000D02*
X165557533Y-103188095D01*
X165557533Y-103188095D02*
X165519438Y-103226190D01*
X165519438Y-103226190D02*
X165481342Y-103302381D01*
X165481342Y-103302381D02*
X165443247Y-103454762D01*
X165443247Y-103454762D02*
X165405152Y-103530952D01*
X165405152Y-103530952D02*
X165367057Y-103569047D01*
X165367057Y-103569047D02*
X165290866Y-103607143D01*
X165290866Y-103607143D02*
X165214676Y-103607143D01*
X165214676Y-103607143D02*
X165138485Y-103569047D01*
X165138485Y-103569047D02*
X165100390Y-103530952D01*
X165100390Y-103530952D02*
X165062295Y-103454762D01*
X165062295Y-103454762D02*
X165062295Y-103264285D01*
X165062295Y-103264285D02*
X165100390Y-103150000D01*
X165062295Y-102883333D02*
X165862295Y-102692857D01*
X165862295Y-102692857D02*
X165290866Y-102540476D01*
X165290866Y-102540476D02*
X165862295Y-102388095D01*
X165862295Y-102388095D02*
X165062295Y-102197619D01*
X165862295Y-101892856D02*
X165062295Y-101892856D01*
X165062295Y-101892856D02*
X165062295Y-101702380D01*
X165062295Y-101702380D02*
X165100390Y-101588094D01*
X165100390Y-101588094D02*
X165176580Y-101511904D01*
X165176580Y-101511904D02*
X165252771Y-101473809D01*
X165252771Y-101473809D02*
X165405152Y-101435713D01*
X165405152Y-101435713D02*
X165519438Y-101435713D01*
X165519438Y-101435713D02*
X165671819Y-101473809D01*
X165671819Y-101473809D02*
X165748009Y-101511904D01*
X165748009Y-101511904D02*
X165824200Y-101588094D01*
X165824200Y-101588094D02*
X165862295Y-101702380D01*
X165862295Y-101702380D02*
X165862295Y-101892856D01*
X165862295Y-100673809D02*
X165862295Y-101130952D01*
X165862295Y-100902380D02*
X165062295Y-100902380D01*
X165062295Y-100902380D02*
X165176580Y-100978571D01*
X165176580Y-100978571D02*
X165252771Y-101054761D01*
X165252771Y-101054761D02*
X165290866Y-101130952D01*
X166259523Y-99739795D02*
X166754761Y-99739795D01*
X166754761Y-99739795D02*
X166488095Y-100044557D01*
X166488095Y-100044557D02*
X166602380Y-100044557D01*
X166602380Y-100044557D02*
X166678571Y-100082652D01*
X166678571Y-100082652D02*
X166716666Y-100120747D01*
X166716666Y-100120747D02*
X166754761Y-100196938D01*
X166754761Y-100196938D02*
X166754761Y-100387414D01*
X166754761Y-100387414D02*
X166716666Y-100463604D01*
X166716666Y-100463604D02*
X166678571Y-100501700D01*
X166678571Y-100501700D02*
X166602380Y-100539795D01*
X166602380Y-100539795D02*
X166373809Y-100539795D01*
X166373809Y-100539795D02*
X166297618Y-100501700D01*
X166297618Y-100501700D02*
X166259523Y-100463604D01*
X166983333Y-99739795D02*
X167250000Y-100539795D01*
X167250000Y-100539795D02*
X167516666Y-99739795D01*
X167707142Y-99739795D02*
X168202380Y-99739795D01*
X168202380Y-99739795D02*
X167935714Y-100044557D01*
X167935714Y-100044557D02*
X168049999Y-100044557D01*
X168049999Y-100044557D02*
X168126190Y-100082652D01*
X168126190Y-100082652D02*
X168164285Y-100120747D01*
X168164285Y-100120747D02*
X168202380Y-100196938D01*
X168202380Y-100196938D02*
X168202380Y-100387414D01*
X168202380Y-100387414D02*
X168164285Y-100463604D01*
X168164285Y-100463604D02*
X168126190Y-100501700D01*
X168126190Y-100501700D02*
X168049999Y-100539795D01*
X168049999Y-100539795D02*
X167821428Y-100539795D01*
X167821428Y-100539795D02*
X167745237Y-100501700D01*
X167745237Y-100501700D02*
X167707142Y-100463604D01*
X166430953Y-101829795D02*
X166430953Y-101029795D01*
X166430953Y-101029795D02*
X166621429Y-101029795D01*
X166621429Y-101029795D02*
X166735715Y-101067890D01*
X166735715Y-101067890D02*
X166811905Y-101144080D01*
X166811905Y-101144080D02*
X166850000Y-101220271D01*
X166850000Y-101220271D02*
X166888096Y-101372652D01*
X166888096Y-101372652D02*
X166888096Y-101486938D01*
X166888096Y-101486938D02*
X166850000Y-101639319D01*
X166850000Y-101639319D02*
X166811905Y-101715509D01*
X166811905Y-101715509D02*
X166735715Y-101791700D01*
X166735715Y-101791700D02*
X166621429Y-101829795D01*
X166621429Y-101829795D02*
X166430953Y-101829795D01*
X167230953Y-101829795D02*
X167230953Y-101029795D01*
X167764286Y-101029795D02*
X167916667Y-101029795D01*
X167916667Y-101029795D02*
X167992857Y-101067890D01*
X167992857Y-101067890D02*
X168069048Y-101144080D01*
X168069048Y-101144080D02*
X168107143Y-101296461D01*
X168107143Y-101296461D02*
X168107143Y-101563128D01*
X168107143Y-101563128D02*
X168069048Y-101715509D01*
X168069048Y-101715509D02*
X167992857Y-101791700D01*
X167992857Y-101791700D02*
X167916667Y-101829795D01*
X167916667Y-101829795D02*
X167764286Y-101829795D01*
X167764286Y-101829795D02*
X167688095Y-101791700D01*
X167688095Y-101791700D02*
X167611905Y-101715509D01*
X167611905Y-101715509D02*
X167573809Y-101563128D01*
X167573809Y-101563128D02*
X167573809Y-101296461D01*
X167573809Y-101296461D02*
X167611905Y-101144080D01*
X167611905Y-101144080D02*
X167688095Y-101067890D01*
X167688095Y-101067890D02*
X167764286Y-101029795D01*
X166773810Y-103003604D02*
X166735714Y-103041700D01*
X166735714Y-103041700D02*
X166621429Y-103079795D01*
X166621429Y-103079795D02*
X166545238Y-103079795D01*
X166545238Y-103079795D02*
X166430952Y-103041700D01*
X166430952Y-103041700D02*
X166354762Y-102965509D01*
X166354762Y-102965509D02*
X166316667Y-102889319D01*
X166316667Y-102889319D02*
X166278571Y-102736938D01*
X166278571Y-102736938D02*
X166278571Y-102622652D01*
X166278571Y-102622652D02*
X166316667Y-102470271D01*
X166316667Y-102470271D02*
X166354762Y-102394080D01*
X166354762Y-102394080D02*
X166430952Y-102317890D01*
X166430952Y-102317890D02*
X166545238Y-102279795D01*
X166545238Y-102279795D02*
X166621429Y-102279795D01*
X166621429Y-102279795D02*
X166735714Y-102317890D01*
X166735714Y-102317890D02*
X166773810Y-102355985D01*
X167497619Y-103079795D02*
X167116667Y-103079795D01*
X167116667Y-103079795D02*
X167116667Y-102279795D01*
X167764286Y-103079795D02*
X167764286Y-102279795D01*
X168221429Y-103079795D02*
X167878571Y-102622652D01*
X168221429Y-102279795D02*
X167764286Y-102736938D01*
X166811905Y-104349795D02*
X166545238Y-103968842D01*
X166354762Y-104349795D02*
X166354762Y-103549795D01*
X166354762Y-103549795D02*
X166659524Y-103549795D01*
X166659524Y-103549795D02*
X166735714Y-103587890D01*
X166735714Y-103587890D02*
X166773809Y-103625985D01*
X166773809Y-103625985D02*
X166811905Y-103702176D01*
X166811905Y-103702176D02*
X166811905Y-103816461D01*
X166811905Y-103816461D02*
X166773809Y-103892652D01*
X166773809Y-103892652D02*
X166735714Y-103930747D01*
X166735714Y-103930747D02*
X166659524Y-103968842D01*
X166659524Y-103968842D02*
X166354762Y-103968842D01*
X167116666Y-104311700D02*
X167230952Y-104349795D01*
X167230952Y-104349795D02*
X167421428Y-104349795D01*
X167421428Y-104349795D02*
X167497619Y-104311700D01*
X167497619Y-104311700D02*
X167535714Y-104273604D01*
X167535714Y-104273604D02*
X167573809Y-104197414D01*
X167573809Y-104197414D02*
X167573809Y-104121223D01*
X167573809Y-104121223D02*
X167535714Y-104045033D01*
X167535714Y-104045033D02*
X167497619Y-104006938D01*
X167497619Y-104006938D02*
X167421428Y-103968842D01*
X167421428Y-103968842D02*
X167269047Y-103930747D01*
X167269047Y-103930747D02*
X167192857Y-103892652D01*
X167192857Y-103892652D02*
X167154762Y-103854557D01*
X167154762Y-103854557D02*
X167116666Y-103778366D01*
X167116666Y-103778366D02*
X167116666Y-103702176D01*
X167116666Y-103702176D02*
X167154762Y-103625985D01*
X167154762Y-103625985D02*
X167192857Y-103587890D01*
X167192857Y-103587890D02*
X167269047Y-103549795D01*
X167269047Y-103549795D02*
X167459524Y-103549795D01*
X167459524Y-103549795D02*
X167573809Y-103587890D01*
X167802381Y-103549795D02*
X168259524Y-103549795D01*
X168030952Y-104349795D02*
X168030952Y-103549795D01*
X167459523Y-104857890D02*
X167383333Y-104819795D01*
X167383333Y-104819795D02*
X167269047Y-104819795D01*
X167269047Y-104819795D02*
X167154761Y-104857890D01*
X167154761Y-104857890D02*
X167078571Y-104934080D01*
X167078571Y-104934080D02*
X167040476Y-105010271D01*
X167040476Y-105010271D02*
X167002380Y-105162652D01*
X167002380Y-105162652D02*
X167002380Y-105276938D01*
X167002380Y-105276938D02*
X167040476Y-105429319D01*
X167040476Y-105429319D02*
X167078571Y-105505509D01*
X167078571Y-105505509D02*
X167154761Y-105581700D01*
X167154761Y-105581700D02*
X167269047Y-105619795D01*
X167269047Y-105619795D02*
X167345238Y-105619795D01*
X167345238Y-105619795D02*
X167459523Y-105581700D01*
X167459523Y-105581700D02*
X167497619Y-105543604D01*
X167497619Y-105543604D02*
X167497619Y-105276938D01*
X167497619Y-105276938D02*
X167345238Y-105276938D01*
%TO.C,J_RX1*%
D11*
X138480000Y-82250000D02*
G75*
G02*
X138220000Y-82250000I-130000J0D01*
G01*
X138220000Y-82250000D02*
G75*
G02*
X138480000Y-82250000I130000J0D01*
G01*
%TO.C,L_BUCK1*%
D12*
X134090000Y-91890000D02*
X140310000Y-91890000D01*
X140310000Y-98110000D02*
X134090000Y-98110000D01*
%TO.C,C_VCAP1*%
X154761252Y-104765000D02*
X154238748Y-104765000D01*
X154761252Y-106235000D02*
X154238748Y-106235000D01*
%TO.C,C_BUCK_BOOT1*%
X131390000Y-102107836D02*
X131390000Y-101892164D01*
X132110000Y-102107836D02*
X132110000Y-101892164D01*
%TO.C,LED_STAT1*%
X158515000Y-108087500D02*
X158515000Y-110372500D01*
X158515000Y-110372500D02*
X159985000Y-110372500D01*
X159985000Y-110372500D02*
X159985000Y-108087500D01*
%TO.C,U_BUCK1*%
D13*
X132675000Y-104400000D02*
X132675000Y-100400000D01*
X137725000Y-104400000D02*
X137725000Y-100400000D01*
D14*
X132795000Y-106720000D02*
G75*
G02*
X132595000Y-106720000I-100000J0D01*
G01*
X132595000Y-106720000D02*
G75*
G02*
X132795000Y-106720000I100000J0D01*
G01*
%TO.C,C_BUCK_IN2*%
D12*
X136640000Y-108188748D02*
X136640000Y-109611252D01*
X139360000Y-108188748D02*
X139360000Y-109611252D01*
%TO.C,J_CAM1*%
D11*
X147030000Y-82250000D02*
G75*
G02*
X146770000Y-82250000I-130000J0D01*
G01*
X146770000Y-82250000D02*
G75*
G02*
X147030000Y-82250000I130000J0D01*
G01*
%TO.C,R_VBAT_D1*%
D12*
X142870000Y-107356359D02*
X142870000Y-107663641D01*
X143630000Y-107356359D02*
X143630000Y-107663641D01*
%TO.C,D_TVS1*%
X146760000Y-110350000D02*
X141250000Y-110350000D01*
X146760000Y-113650000D02*
X141250000Y-113650000D01*
X146760000Y-113650000D02*
X146760000Y-110350000D01*
%TO.C,C_VDD3*%
X155392164Y-100890000D02*
X155607836Y-100890000D01*
X155392164Y-101610000D02*
X155607836Y-101610000D01*
%TO.C,R_LED3*%
X161096359Y-106370000D02*
X161403641Y-106370000D01*
X161096359Y-107130000D02*
X161403641Y-107130000D01*
%TO.C,C_VDD2*%
X146890000Y-103142164D02*
X146890000Y-103357836D01*
X147610000Y-103142164D02*
X147610000Y-103357836D01*
%TO.C,TP_VBAT_ADC_0*%
X142400000Y-104500000D02*
G75*
G02*
X141000000Y-104500000I-700000J0D01*
G01*
X141000000Y-104500000D02*
G75*
G02*
X142400000Y-104500000I700000J0D01*
G01*
%TO.C,C_BUCK_OUT1*%
X139838748Y-99390000D02*
X141261252Y-99390000D01*
X139838748Y-102110000D02*
X141261252Y-102110000D01*
%TO.C,LED_PWR1*%
X163015000Y-108087500D02*
X163015000Y-110372500D01*
X163015000Y-110372500D02*
X164485000Y-110372500D01*
X164485000Y-110372500D02*
X164485000Y-108087500D01*
%TO.C,D_USB_VBUS1*%
X157750000Y-98960000D02*
X157750000Y-95100000D01*
X157750000Y-98960000D02*
X159750000Y-98960000D01*
X159750000Y-98960000D02*
X159750000Y-95100000D01*
%TO.C,C_VDD1*%
X144357836Y-88730000D02*
X144142164Y-88730000D01*
X144357836Y-89450000D02*
X144142164Y-89450000D01*
%TO.C,U_MCU1*%
X144890000Y-89890000D02*
X145840000Y-89890000D01*
X144890000Y-90840000D02*
X144890000Y-89890000D01*
X144890000Y-100110000D02*
X144890000Y-99160000D01*
X145840000Y-100110000D02*
X144890000Y-100110000D01*
X154160000Y-89890000D02*
X155110000Y-89890000D01*
X155110000Y-89890000D02*
X155110000Y-90840000D01*
X155110000Y-99160000D02*
X155110000Y-100110000D01*
X155110000Y-100110000D02*
X154160000Y-100110000D01*
X144250000Y-90840000D02*
X143910000Y-90370000D01*
X144590000Y-90370000D01*
X144250000Y-90840000D01*
G36*
X144250000Y-90840000D02*
G01*
X143910000Y-90370000D01*
X144590000Y-90370000D01*
X144250000Y-90840000D01*
G37*
%TO.C,J_USB1*%
X161045000Y-98225000D02*
X161045000Y-89275000D01*
X164125000Y-89155000D02*
X165025000Y-89155000D01*
X164125000Y-98345000D02*
X165025000Y-98345000D01*
X167725000Y-89155000D02*
X170455000Y-89155000D01*
X167725000Y-98345000D02*
X170455000Y-98345000D01*
X170455000Y-98345000D02*
X170455000Y-89155000D01*
%TO.C,J_VTX1*%
D11*
X153530000Y-82250000D02*
G75*
G02*
X153270000Y-82250000I-130000J0D01*
G01*
X153270000Y-82250000D02*
G75*
G02*
X153530000Y-82250000I130000J0D01*
G01*
%TO.C,R_LED1*%
D12*
X163336359Y-106370000D02*
X163643641Y-106370000D01*
X163336359Y-107130000D02*
X163643641Y-107130000D01*
%TO.C,C_B1*%
X148312500Y-108652500D02*
X149100000Y-108652500D01*
X148706250Y-108258750D02*
X148706250Y-109046250D01*
X149340000Y-108154437D02*
X149340000Y-109440000D01*
X149340000Y-108154437D02*
X150404437Y-107090000D01*
X149340000Y-112845563D02*
X149340000Y-111560000D01*
X149340000Y-112845563D02*
X150404437Y-113910000D01*
X150404437Y-107090000D02*
X156160000Y-107090000D01*
X150404437Y-113910000D02*
X156160000Y-113910000D01*
X156160000Y-107090000D02*
X156160000Y-109440000D01*
X156160000Y-113910000D02*
X156160000Y-111560000D01*
%TO.C,R_FLASH_CS1*%
X161153641Y-99370000D02*
X160846359Y-99370000D01*
X161153641Y-100130000D02*
X160846359Y-100130000D01*
%TO.C,J_SWD1*%
D11*
X169130000Y-99327500D02*
G75*
G02*
X168870000Y-99327500I-130000J0D01*
G01*
X168870000Y-99327500D02*
G75*
G02*
X169130000Y-99327500I130000J0D01*
G01*
%TO.C,C_BUCK_IN1*%
D12*
X133390000Y-108188748D02*
X133390000Y-109611252D01*
X136110000Y-108188748D02*
X136110000Y-109611252D01*
%TO.C,C_VBAT_ADC1*%
X144890000Y-107402164D02*
X144890000Y-107617836D01*
X145610000Y-107402164D02*
X145610000Y-107617836D01*
%TO.C,C_VDD_BULK1*%
X149609420Y-103990000D02*
X149890580Y-103990000D01*
X149609420Y-105010000D02*
X149890580Y-105010000D01*
%TO.C,C_NRST1*%
X142390000Y-89627836D02*
X142390000Y-89412164D01*
X143110000Y-89627836D02*
X143110000Y-89412164D01*
%TO.C,LED_STAT2*%
X160765000Y-108087500D02*
X160765000Y-110372500D01*
X160765000Y-110372500D02*
X162235000Y-110372500D01*
X162235000Y-110372500D02*
X162235000Y-108087500D01*
%TO.C,D_BUCK1*%
X130100000Y-98210000D02*
X130100000Y-92700000D01*
X130100000Y-98210000D02*
X133400000Y-98210000D01*
X133400000Y-98210000D02*
X133400000Y-92700000D01*
%TO.C,R_VBAT_D2*%
X143870000Y-107663641D02*
X143870000Y-107356359D01*
X144630000Y-107663641D02*
X144630000Y-107356359D01*
%TO.C,C_BUCK_IN3*%
X131740000Y-107939420D02*
X131740000Y-108220580D01*
X132760000Y-107939420D02*
X132760000Y-108220580D01*
%TO.C,TP_5VIDEO_0*%
X131450000Y-99500000D02*
G75*
G02*
X130050000Y-99500000I-700000J0D01*
G01*
X130050000Y-99500000D02*
G75*
G02*
X131450000Y-99500000I700000J0D01*
G01*
%TO.C,R_LED2*%
X158856359Y-106370000D02*
X159163641Y-106370000D01*
X158856359Y-107130000D02*
X159163641Y-107130000D01*
%TO.C,C_5V_BULK1*%
X137140580Y-90240000D02*
X136859420Y-90240000D01*
X137140580Y-91260000D02*
X136859420Y-91260000D01*
%TO.C,C_VDD4*%
X155890000Y-89607836D02*
X155890000Y-89392164D01*
X156610000Y-89607836D02*
X156610000Y-89392164D01*
%TD*%
%LPC*%
G36*
X143171341Y-114999306D02*
G01*
X143334090Y-115056254D01*
X143480087Y-115147990D01*
X143602010Y-115269913D01*
X143693746Y-115415910D01*
X143750694Y-115578659D01*
X143770000Y-115750000D01*
X143770000Y-119250000D01*
X143750694Y-119421341D01*
X143693746Y-119584090D01*
X143602010Y-119730087D01*
X143480087Y-119852010D01*
X143334090Y-119943746D01*
X143171341Y-120000694D01*
X143000000Y-120020000D01*
X139500000Y-120020000D01*
X139328659Y-120000694D01*
X139165910Y-119943746D01*
X139019913Y-119852010D01*
X138897990Y-119730087D01*
X138806254Y-119584090D01*
X138749306Y-119421341D01*
X138730000Y-119250000D01*
X138730000Y-115750000D01*
X138749306Y-115578659D01*
X138806254Y-115415910D01*
X138897990Y-115269913D01*
X139019913Y-115147990D01*
X139165910Y-115056254D01*
X139328659Y-114999306D01*
X139500000Y-114980000D01*
X143000000Y-114980000D01*
X143171341Y-114999306D01*
G37*
G36*
X151171341Y-114999306D02*
G01*
X151334090Y-115056254D01*
X151480087Y-115147990D01*
X151602010Y-115269913D01*
X151693746Y-115415910D01*
X151750694Y-115578659D01*
X151770000Y-115750000D01*
X151770000Y-119250000D01*
X151750694Y-119421341D01*
X151693746Y-119584090D01*
X151602010Y-119730087D01*
X151480087Y-119852010D01*
X151334090Y-119943746D01*
X151171341Y-120000694D01*
X151000000Y-120020000D01*
X147500000Y-120020000D01*
X147328659Y-120000694D01*
X147165910Y-119943746D01*
X147019913Y-119852010D01*
X146897990Y-119730087D01*
X146806254Y-119584090D01*
X146749306Y-119421341D01*
X146730000Y-119250000D01*
X146730000Y-115750000D01*
X146749306Y-115578659D01*
X146806254Y-115415910D01*
X146897990Y-115269913D01*
X147019913Y-115147990D01*
X147165910Y-115056254D01*
X147328659Y-114999306D01*
X147500000Y-114980000D01*
X151000000Y-114980000D01*
X151171341Y-114999306D01*
G37*
G36*
X134866719Y-113634994D02*
G01*
X134877104Y-113634994D01*
X134928245Y-113643094D01*
X135066025Y-113661233D01*
X135099644Y-113670241D01*
X135128181Y-113674761D01*
X135183060Y-113692592D01*
X135270696Y-113716074D01*
X135326608Y-113739233D01*
X135369947Y-113753315D01*
X135410547Y-113774002D01*
X135466461Y-113797162D01*
X135545030Y-113842524D01*
X135596448Y-113868723D01*
X135619826Y-113885708D01*
X135649965Y-113903109D01*
X135760217Y-113987708D01*
X135802106Y-114018142D01*
X135809447Y-114025483D01*
X135818065Y-114032096D01*
X135967903Y-114181934D01*
X135974515Y-114190551D01*
X135981858Y-114197894D01*
X136012295Y-114239788D01*
X136096890Y-114350034D01*
X136114289Y-114380171D01*
X136131277Y-114403552D01*
X136157478Y-114454976D01*
X136202837Y-114533538D01*
X136225994Y-114589445D01*
X136246685Y-114630053D01*
X136260768Y-114673398D01*
X136283925Y-114729303D01*
X136307403Y-114816926D01*
X136325239Y-114871819D01*
X136329759Y-114900362D01*
X136338766Y-114933974D01*
X136356904Y-115071742D01*
X136365006Y-115122896D01*
X136365006Y-115133281D01*
X136366424Y-115144052D01*
X136366424Y-115355947D01*
X136365006Y-115366717D01*
X136365006Y-115377104D01*
X136356903Y-115428261D01*
X136338766Y-115566025D01*
X136329760Y-115599635D01*
X136325239Y-115628181D01*
X136307401Y-115683078D01*
X136283925Y-115770696D01*
X136260770Y-115826597D01*
X136246685Y-115869947D01*
X136225992Y-115910558D01*
X136202837Y-115966461D01*
X136157483Y-116045015D01*
X136131277Y-116096448D01*
X136114286Y-116119832D01*
X136096890Y-116149965D01*
X136012309Y-116260192D01*
X135981858Y-116302106D01*
X135974511Y-116309452D01*
X135967903Y-116318065D01*
X135818065Y-116467903D01*
X135809452Y-116474511D01*
X135802106Y-116481858D01*
X135760192Y-116512309D01*
X135649965Y-116596890D01*
X135619832Y-116614286D01*
X135596448Y-116631277D01*
X135545015Y-116657483D01*
X135466461Y-116702837D01*
X135410558Y-116725992D01*
X135369947Y-116746685D01*
X135326597Y-116760770D01*
X135270696Y-116783925D01*
X135183078Y-116807401D01*
X135128181Y-116825239D01*
X135099635Y-116829760D01*
X135066025Y-116838766D01*
X134928258Y-116856903D01*
X134877104Y-116865006D01*
X134866718Y-116865006D01*
X134855948Y-116866424D01*
X134644052Y-116866424D01*
X134633281Y-116865006D01*
X134622896Y-116865006D01*
X134571742Y-116856904D01*
X134433974Y-116838766D01*
X134400362Y-116829759D01*
X134371819Y-116825239D01*
X134316926Y-116807403D01*
X134229303Y-116783925D01*
X134173398Y-116760768D01*
X134130053Y-116746685D01*
X134089445Y-116725994D01*
X134033538Y-116702837D01*
X133954976Y-116657478D01*
X133903552Y-116631277D01*
X133880171Y-116614289D01*
X133850034Y-116596890D01*
X133739788Y-116512295D01*
X133697894Y-116481858D01*
X133690551Y-116474515D01*
X133681934Y-116467903D01*
X133532096Y-116318065D01*
X133525483Y-116309447D01*
X133518142Y-116302106D01*
X133487708Y-116260217D01*
X133403109Y-116149965D01*
X133385708Y-116119826D01*
X133368723Y-116096448D01*
X133342524Y-116045030D01*
X133297162Y-115966461D01*
X133274002Y-115910547D01*
X133253315Y-115869947D01*
X133239233Y-115826608D01*
X133216074Y-115770696D01*
X133192592Y-115683060D01*
X133174761Y-115628181D01*
X133170241Y-115599644D01*
X133161233Y-115566025D01*
X133143094Y-115428249D01*
X133134994Y-115377104D01*
X133134994Y-115366717D01*
X133133576Y-115355947D01*
X133133576Y-115144052D01*
X133134994Y-115133281D01*
X133134994Y-115122896D01*
X133143093Y-115071755D01*
X133161233Y-114933974D01*
X133170241Y-114900353D01*
X133174761Y-114871819D01*
X133192590Y-114816943D01*
X133216074Y-114729303D01*
X133239235Y-114673386D01*
X133253315Y-114630053D01*
X133273999Y-114589456D01*
X133297162Y-114533538D01*
X133342528Y-114454961D01*
X133368723Y-114403552D01*
X133385705Y-114380177D01*
X133403109Y-114350034D01*
X133487721Y-114239763D01*
X133518142Y-114197894D01*
X133525480Y-114190555D01*
X133532096Y-114181934D01*
X133681934Y-114032096D01*
X133690555Y-114025480D01*
X133697894Y-114018142D01*
X133739763Y-113987721D01*
X133850034Y-113903109D01*
X133880177Y-113885705D01*
X133903552Y-113868723D01*
X133954961Y-113842528D01*
X134033538Y-113797162D01*
X134089456Y-113773999D01*
X134130053Y-113753315D01*
X134173386Y-113739235D01*
X134229303Y-113716074D01*
X134316943Y-113692590D01*
X134371819Y-113674761D01*
X134400353Y-113670241D01*
X134433974Y-113661233D01*
X134571755Y-113643093D01*
X134622896Y-113634994D01*
X134633281Y-113634994D01*
X134644052Y-113633576D01*
X134855948Y-113633576D01*
X134866719Y-113634994D01*
G37*
G36*
X165366719Y-113634994D02*
G01*
X165377104Y-113634994D01*
X165428245Y-113643094D01*
X165566025Y-113661233D01*
X165599644Y-113670241D01*
X165628181Y-113674761D01*
X165683060Y-113692592D01*
X165770696Y-113716074D01*
X165826608Y-113739233D01*
X165869947Y-113753315D01*
X165910547Y-113774002D01*
X165966461Y-113797162D01*
X166045030Y-113842524D01*
X166096448Y-113868723D01*
X166119826Y-113885708D01*
X166149965Y-113903109D01*
X166260217Y-113987708D01*
X166302106Y-114018142D01*
X166309447Y-114025483D01*
X166318065Y-114032096D01*
X166467903Y-114181934D01*
X166474515Y-114190551D01*
X166481858Y-114197894D01*
X166512295Y-114239788D01*
X166596890Y-114350034D01*
X166614289Y-114380171D01*
X166631277Y-114403552D01*
X166657478Y-114454976D01*
X166702837Y-114533538D01*
X166725994Y-114589445D01*
X166746685Y-114630053D01*
X166760768Y-114673398D01*
X166783925Y-114729303D01*
X166807403Y-114816926D01*
X166825239Y-114871819D01*
X166829759Y-114900362D01*
X166838766Y-114933974D01*
X166856904Y-115071742D01*
X166865006Y-115122896D01*
X166865006Y-115133281D01*
X166866424Y-115144052D01*
X166866424Y-115355947D01*
X166865006Y-115366717D01*
X166865006Y-115377104D01*
X166856903Y-115428261D01*
X166838766Y-115566025D01*
X166829760Y-115599635D01*
X166825239Y-115628181D01*
X166807401Y-115683078D01*
X166783925Y-115770696D01*
X166760770Y-115826597D01*
X166746685Y-115869947D01*
X166725992Y-115910558D01*
X166702837Y-115966461D01*
X166657483Y-116045015D01*
X166631277Y-116096448D01*
X166614286Y-116119832D01*
X166596890Y-116149965D01*
X166512309Y-116260192D01*
X166481858Y-116302106D01*
X166474511Y-116309452D01*
X166467903Y-116318065D01*
X166318065Y-116467903D01*
X166309452Y-116474511D01*
X166302106Y-116481858D01*
X166260192Y-116512309D01*
X166149965Y-116596890D01*
X166119832Y-116614286D01*
X166096448Y-116631277D01*
X166045015Y-116657483D01*
X165966461Y-116702837D01*
X165910558Y-116725992D01*
X165869947Y-116746685D01*
X165826597Y-116760770D01*
X165770696Y-116783925D01*
X165683078Y-116807401D01*
X165628181Y-116825239D01*
X165599635Y-116829760D01*
X165566025Y-116838766D01*
X165428258Y-116856903D01*
X165377104Y-116865006D01*
X165366718Y-116865006D01*
X165355948Y-116866424D01*
X165144052Y-116866424D01*
X165133281Y-116865006D01*
X165122896Y-116865006D01*
X165071742Y-116856904D01*
X164933974Y-116838766D01*
X164900362Y-116829759D01*
X164871819Y-116825239D01*
X164816926Y-116807403D01*
X164729303Y-116783925D01*
X164673398Y-116760768D01*
X164630053Y-116746685D01*
X164589445Y-116725994D01*
X164533538Y-116702837D01*
X164454976Y-116657478D01*
X164403552Y-116631277D01*
X164380171Y-116614289D01*
X164350034Y-116596890D01*
X164239788Y-116512295D01*
X164197894Y-116481858D01*
X164190551Y-116474515D01*
X164181934Y-116467903D01*
X164032096Y-116318065D01*
X164025483Y-116309447D01*
X164018142Y-116302106D01*
X163987708Y-116260217D01*
X163903109Y-116149965D01*
X163885708Y-116119826D01*
X163868723Y-116096448D01*
X163842524Y-116045030D01*
X163797162Y-115966461D01*
X163774002Y-115910547D01*
X163753315Y-115869947D01*
X163739233Y-115826608D01*
X163716074Y-115770696D01*
X163692592Y-115683060D01*
X163674761Y-115628181D01*
X163670241Y-115599644D01*
X163661233Y-115566025D01*
X163643094Y-115428249D01*
X163634994Y-115377104D01*
X163634994Y-115366717D01*
X163633576Y-115355947D01*
X163633576Y-115144052D01*
X163634994Y-115133281D01*
X163634994Y-115122896D01*
X163643093Y-115071755D01*
X163661233Y-114933974D01*
X163670241Y-114900353D01*
X163674761Y-114871819D01*
X163692590Y-114816943D01*
X163716074Y-114729303D01*
X163739235Y-114673386D01*
X163753315Y-114630053D01*
X163773999Y-114589456D01*
X163797162Y-114533538D01*
X163842528Y-114454961D01*
X163868723Y-114403552D01*
X163885705Y-114380177D01*
X163903109Y-114350034D01*
X163987721Y-114239763D01*
X164018142Y-114197894D01*
X164025480Y-114190555D01*
X164032096Y-114181934D01*
X164181934Y-114032096D01*
X164190555Y-114025480D01*
X164197894Y-114018142D01*
X164239763Y-113987721D01*
X164350034Y-113903109D01*
X164380177Y-113885705D01*
X164403552Y-113868723D01*
X164454961Y-113842528D01*
X164533538Y-113797162D01*
X164589456Y-113773999D01*
X164630053Y-113753315D01*
X164673386Y-113739235D01*
X164729303Y-113716074D01*
X164816943Y-113692590D01*
X164871819Y-113674761D01*
X164900353Y-113670241D01*
X164933974Y-113661233D01*
X165071755Y-113643093D01*
X165122896Y-113634994D01*
X165133281Y-113634994D01*
X165144052Y-113633576D01*
X165355948Y-113633576D01*
X165366719Y-113634994D01*
G37*
G36*
X142256411Y-111081275D02*
G01*
X142318664Y-111089471D01*
X142334324Y-111096773D01*
X142353325Y-111100553D01*
X142378491Y-111117368D01*
X142404422Y-111129460D01*
X142420197Y-111145235D01*
X142440919Y-111159081D01*
X142454764Y-111179802D01*
X142470539Y-111195577D01*
X142482629Y-111221505D01*
X142499447Y-111246675D01*
X142503226Y-111265677D01*
X142510528Y-111281335D01*
X142518722Y-111343575D01*
X142520000Y-111350000D01*
X142520000Y-112650000D01*
X142518721Y-112656426D01*
X142510528Y-112718664D01*
X142503227Y-112734320D01*
X142499447Y-112753325D01*
X142482628Y-112778496D01*
X142470539Y-112804422D01*
X142454766Y-112820194D01*
X142440919Y-112840919D01*
X142420194Y-112854766D01*
X142404422Y-112870539D01*
X142378496Y-112882628D01*
X142353325Y-112899447D01*
X142334320Y-112903227D01*
X142318664Y-112910528D01*
X142256426Y-112918721D01*
X142250000Y-112920000D01*
X140250000Y-112920000D01*
X140243575Y-112918722D01*
X140181335Y-112910528D01*
X140165677Y-112903226D01*
X140146675Y-112899447D01*
X140121505Y-112882629D01*
X140095577Y-112870539D01*
X140079802Y-112854764D01*
X140059081Y-112840919D01*
X140045235Y-112820197D01*
X140029460Y-112804422D01*
X140017368Y-112778491D01*
X140000553Y-112753325D01*
X139996773Y-112734324D01*
X139989471Y-112718664D01*
X139981275Y-112656411D01*
X139980000Y-112650000D01*
X139980000Y-111350000D01*
X139981275Y-111343590D01*
X139989471Y-111281335D01*
X139996773Y-111265673D01*
X140000553Y-111246675D01*
X140017367Y-111221510D01*
X140029460Y-111195577D01*
X140045237Y-111179799D01*
X140059081Y-111159081D01*
X140079799Y-111145237D01*
X140095577Y-111129460D01*
X140121510Y-111117367D01*
X140146675Y-111100553D01*
X140165673Y-111096773D01*
X140181335Y-111089471D01*
X140243590Y-111081275D01*
X140250000Y-111080000D01*
X142250000Y-111080000D01*
X142256411Y-111081275D01*
G37*
G36*
X146256411Y-111081275D02*
G01*
X146318664Y-111089471D01*
X146334324Y-111096773D01*
X146353325Y-111100553D01*
X146378491Y-111117368D01*
X146404422Y-111129460D01*
X146420197Y-111145235D01*
X146440919Y-111159081D01*
X146454764Y-111179802D01*
X146470539Y-111195577D01*
X146482629Y-111221505D01*
X146499447Y-111246675D01*
X146503226Y-111265677D01*
X146510528Y-111281335D01*
X146518722Y-111343575D01*
X146520000Y-111350000D01*
X146520000Y-112650000D01*
X146518721Y-112656426D01*
X146510528Y-112718664D01*
X146503227Y-112734320D01*
X146499447Y-112753325D01*
X146482628Y-112778496D01*
X146470539Y-112804422D01*
X146454766Y-112820194D01*
X146440919Y-112840919D01*
X146420194Y-112854766D01*
X146404422Y-112870539D01*
X146378496Y-112882628D01*
X146353325Y-112899447D01*
X146334320Y-112903227D01*
X146318664Y-112910528D01*
X146256426Y-112918721D01*
X146250000Y-112920000D01*
X144250000Y-112920000D01*
X144243575Y-112918722D01*
X144181335Y-112910528D01*
X144165677Y-112903226D01*
X144146675Y-112899447D01*
X144121505Y-112882629D01*
X144095577Y-112870539D01*
X144079802Y-112854764D01*
X144059081Y-112840919D01*
X144045235Y-112820197D01*
X144029460Y-112804422D01*
X144017368Y-112778491D01*
X144000553Y-112753325D01*
X143996773Y-112734324D01*
X143989471Y-112718664D01*
X143981275Y-112656411D01*
X143980000Y-112650000D01*
X143980000Y-111350000D01*
X143981275Y-111343590D01*
X143989471Y-111281335D01*
X143996773Y-111265673D01*
X144000553Y-111246675D01*
X144017367Y-111221510D01*
X144029460Y-111195577D01*
X144045237Y-111179799D01*
X144059081Y-111159081D01*
X144079799Y-111145237D01*
X144095577Y-111129460D01*
X144121510Y-111117367D01*
X144146675Y-111100553D01*
X144165673Y-111096773D01*
X144181335Y-111089471D01*
X144243590Y-111081275D01*
X144250000Y-111080000D01*
X146250000Y-111080000D01*
X146256411Y-111081275D01*
G37*
G36*
X151556411Y-109681275D02*
G01*
X151618664Y-109689471D01*
X151634324Y-109696773D01*
X151653325Y-109700553D01*
X151678491Y-109717368D01*
X151704422Y-109729460D01*
X151720197Y-109745235D01*
X151740919Y-109759081D01*
X151754764Y-109779802D01*
X151770539Y-109795577D01*
X151782629Y-109821505D01*
X151799447Y-109846675D01*
X151803226Y-109865677D01*
X151810528Y-109881335D01*
X151818722Y-109943575D01*
X151820000Y-109950000D01*
X151820000Y-111050000D01*
X151818721Y-111056426D01*
X151810528Y-111118664D01*
X151803227Y-111134320D01*
X151799447Y-111153325D01*
X151782628Y-111178496D01*
X151770539Y-111204422D01*
X151754766Y-111220194D01*
X151740919Y-111240919D01*
X151720194Y-111254766D01*
X151704422Y-111270539D01*
X151678496Y-111282628D01*
X151653325Y-111299447D01*
X151634320Y-111303227D01*
X151618664Y-111310528D01*
X151556426Y-111318721D01*
X151550000Y-111320000D01*
X148550000Y-111320000D01*
X148543575Y-111318722D01*
X148481335Y-111310528D01*
X148465677Y-111303226D01*
X148446675Y-111299447D01*
X148421505Y-111282629D01*
X148395577Y-111270539D01*
X148379802Y-111254764D01*
X148359081Y-111240919D01*
X148345235Y-111220197D01*
X148329460Y-111204422D01*
X148317368Y-111178491D01*
X148300553Y-111153325D01*
X148296773Y-111134324D01*
X148289471Y-111118664D01*
X148281275Y-111056411D01*
X148280000Y-111050000D01*
X148280000Y-109950000D01*
X148281275Y-109943590D01*
X148289471Y-109881335D01*
X148296773Y-109865673D01*
X148300553Y-109846675D01*
X148317367Y-109821510D01*
X148329460Y-109795577D01*
X148345237Y-109779799D01*
X148359081Y-109759081D01*
X148379799Y-109745237D01*
X148395577Y-109729460D01*
X148421510Y-109717367D01*
X148446675Y-109700553D01*
X148465673Y-109696773D01*
X148481335Y-109689471D01*
X148543590Y-109681275D01*
X148550000Y-109680000D01*
X151550000Y-109680000D01*
X151556411Y-109681275D01*
G37*
G36*
X156956411Y-109681275D02*
G01*
X157018664Y-109689471D01*
X157034324Y-109696773D01*
X157053325Y-109700553D01*
X157078491Y-109717368D01*
X157104422Y-109729460D01*
X157120197Y-109745235D01*
X157140919Y-109759081D01*
X157154764Y-109779802D01*
X157170539Y-109795577D01*
X157182629Y-109821505D01*
X157199447Y-109846675D01*
X157203226Y-109865677D01*
X157210528Y-109881335D01*
X157218722Y-109943575D01*
X157220000Y-109950000D01*
X157220000Y-111050000D01*
X157218721Y-111056426D01*
X157210528Y-111118664D01*
X157203227Y-111134320D01*
X157199447Y-111153325D01*
X157182628Y-111178496D01*
X157170539Y-111204422D01*
X157154766Y-111220194D01*
X157140919Y-111240919D01*
X157120194Y-111254766D01*
X157104422Y-111270539D01*
X157078496Y-111282628D01*
X157053325Y-111299447D01*
X157034320Y-111303227D01*
X157018664Y-111310528D01*
X156956426Y-111318721D01*
X156950000Y-111320000D01*
X153950000Y-111320000D01*
X153943575Y-111318722D01*
X153881335Y-111310528D01*
X153865677Y-111303226D01*
X153846675Y-111299447D01*
X153821505Y-111282629D01*
X153795577Y-111270539D01*
X153779802Y-111254764D01*
X153759081Y-111240919D01*
X153745235Y-111220197D01*
X153729460Y-111204422D01*
X153717368Y-111178491D01*
X153700553Y-111153325D01*
X153696773Y-111134324D01*
X153689471Y-111118664D01*
X153681275Y-111056411D01*
X153680000Y-111050000D01*
X153680000Y-109950000D01*
X153681275Y-109943590D01*
X153689471Y-109881335D01*
X153696773Y-109865673D01*
X153700553Y-109846675D01*
X153717367Y-109821510D01*
X153729460Y-109795577D01*
X153745237Y-109779799D01*
X153759081Y-109759081D01*
X153779799Y-109745237D01*
X153795577Y-109729460D01*
X153821510Y-109717367D01*
X153846675Y-109700553D01*
X153865673Y-109696773D01*
X153881335Y-109689471D01*
X153943590Y-109681275D01*
X153950000Y-109680000D01*
X156950000Y-109680000D01*
X156956411Y-109681275D01*
G37*
G36*
X135856411Y-109781275D02*
G01*
X135918664Y-109789471D01*
X135934324Y-109796773D01*
X135953325Y-109800553D01*
X135978491Y-109817368D01*
X136004422Y-109829460D01*
X136020197Y-109845235D01*
X136040919Y-109859081D01*
X136054764Y-109879802D01*
X136070539Y-109895577D01*
X136082629Y-109921505D01*
X136099447Y-109946675D01*
X136103226Y-109965677D01*
X136110528Y-109981335D01*
X136118722Y-110043575D01*
X136120000Y-110050000D01*
X136120000Y-110700000D01*
X136118721Y-110706426D01*
X136110528Y-110768664D01*
X136103227Y-110784320D01*
X136099447Y-110803325D01*
X136082628Y-110828496D01*
X136070539Y-110854422D01*
X136054766Y-110870194D01*
X136040919Y-110890919D01*
X136020194Y-110904766D01*
X136004422Y-110920539D01*
X135978496Y-110932628D01*
X135953325Y-110949447D01*
X135934320Y-110953227D01*
X135918664Y-110960528D01*
X135856426Y-110968721D01*
X135850000Y-110970000D01*
X133650000Y-110970000D01*
X133643575Y-110968722D01*
X133581335Y-110960528D01*
X133565677Y-110953226D01*
X133546675Y-110949447D01*
X133521505Y-110932629D01*
X133495577Y-110920539D01*
X133479802Y-110904764D01*
X133459081Y-110890919D01*
X133445235Y-110870197D01*
X133429460Y-110854422D01*
X133417368Y-110828491D01*
X133400553Y-110803325D01*
X133396773Y-110784324D01*
X133389471Y-110768664D01*
X133381275Y-110706411D01*
X133380000Y-110700000D01*
X133380000Y-110050000D01*
X133381275Y-110043590D01*
X133389471Y-109981335D01*
X133396773Y-109965673D01*
X133400553Y-109946675D01*
X133417367Y-109921510D01*
X133429460Y-109895577D01*
X133445237Y-109879799D01*
X133459081Y-109859081D01*
X133479799Y-109845237D01*
X133495577Y-109829460D01*
X133521510Y-109817367D01*
X133546675Y-109800553D01*
X133565673Y-109796773D01*
X133581335Y-109789471D01*
X133643590Y-109781275D01*
X133650000Y-109780000D01*
X135850000Y-109780000D01*
X135856411Y-109781275D01*
G37*
G36*
X139106411Y-109781275D02*
G01*
X139168664Y-109789471D01*
X139184324Y-109796773D01*
X139203325Y-109800553D01*
X139228491Y-109817368D01*
X139254422Y-109829460D01*
X139270197Y-109845235D01*
X139290919Y-109859081D01*
X139304764Y-109879802D01*
X139320539Y-109895577D01*
X139332629Y-109921505D01*
X139349447Y-109946675D01*
X139353226Y-109965677D01*
X139360528Y-109981335D01*
X139368722Y-110043575D01*
X139370000Y-110050000D01*
X139370000Y-110700000D01*
X139368721Y-110706426D01*
X139360528Y-110768664D01*
X139353227Y-110784320D01*
X139349447Y-110803325D01*
X139332628Y-110828496D01*
X139320539Y-110854422D01*
X139304766Y-110870194D01*
X139290919Y-110890919D01*
X139270194Y-110904766D01*
X139254422Y-110920539D01*
X139228496Y-110932628D01*
X139203325Y-110949447D01*
X139184320Y-110953227D01*
X139168664Y-110960528D01*
X139106426Y-110968721D01*
X139100000Y-110970000D01*
X136900000Y-110970000D01*
X136893575Y-110968722D01*
X136831335Y-110960528D01*
X136815677Y-110953226D01*
X136796675Y-110949447D01*
X136771505Y-110932629D01*
X136745577Y-110920539D01*
X136729802Y-110904764D01*
X136709081Y-110890919D01*
X136695235Y-110870197D01*
X136679460Y-110854422D01*
X136667368Y-110828491D01*
X136650553Y-110803325D01*
X136646773Y-110784324D01*
X136639471Y-110768664D01*
X136631275Y-110706411D01*
X136630000Y-110700000D01*
X136630000Y-110050000D01*
X136631275Y-110043590D01*
X136639471Y-109981335D01*
X136646773Y-109965673D01*
X136650553Y-109946675D01*
X136667367Y-109921510D01*
X136679460Y-109895577D01*
X136695237Y-109879799D01*
X136709081Y-109859081D01*
X136729799Y-109845237D01*
X136745577Y-109829460D01*
X136771510Y-109817367D01*
X136796675Y-109800553D01*
X136815673Y-109796773D01*
X136831335Y-109789471D01*
X136893590Y-109781275D01*
X136900000Y-109780000D01*
X139100000Y-109780000D01*
X139106411Y-109781275D01*
G37*
G36*
X159510297Y-109218305D02*
G01*
X159559082Y-109223965D01*
X159575750Y-109231324D01*
X159597616Y-109235674D01*
X159621023Y-109251314D01*
X159640686Y-109259996D01*
X159654115Y-109273425D01*
X159675072Y-109287428D01*
X159689074Y-109308384D01*
X159702503Y-109321813D01*
X159711183Y-109341473D01*
X159726826Y-109364884D01*
X159731175Y-109386752D01*
X159738534Y-109403417D01*
X159744192Y-109452191D01*
X159745000Y-109456250D01*
X159745000Y-109893750D01*
X159744192Y-109897809D01*
X159738534Y-109946582D01*
X159731176Y-109963246D01*
X159726826Y-109985116D01*
X159711182Y-110008528D01*
X159702503Y-110028186D01*
X159689076Y-110041612D01*
X159675072Y-110062572D01*
X159654112Y-110076576D01*
X159640686Y-110090003D01*
X159621028Y-110098682D01*
X159597616Y-110114326D01*
X159575746Y-110118676D01*
X159559082Y-110126034D01*
X159510309Y-110131692D01*
X159506250Y-110132500D01*
X158993750Y-110132500D01*
X158989691Y-110131692D01*
X158940917Y-110126034D01*
X158924252Y-110118675D01*
X158902384Y-110114326D01*
X158878973Y-110098683D01*
X158859313Y-110090003D01*
X158845884Y-110076574D01*
X158824928Y-110062572D01*
X158810925Y-110041615D01*
X158797496Y-110028186D01*
X158788814Y-110008523D01*
X158773174Y-109985116D01*
X158768824Y-109963250D01*
X158761465Y-109946582D01*
X158755805Y-109897797D01*
X158755000Y-109893750D01*
X158755000Y-109456250D01*
X158755804Y-109452203D01*
X158761465Y-109403417D01*
X158768824Y-109386748D01*
X158773174Y-109364884D01*
X158788813Y-109341478D01*
X158797496Y-109321813D01*
X158810927Y-109308381D01*
X158824928Y-109287428D01*
X158845881Y-109273427D01*
X158859313Y-109259996D01*
X158878978Y-109251313D01*
X158902384Y-109235674D01*
X158924248Y-109231324D01*
X158940917Y-109223965D01*
X158989703Y-109218304D01*
X158993750Y-109217500D01*
X159506250Y-109217500D01*
X159510297Y-109218305D01*
G37*
G36*
X161760297Y-109218305D02*
G01*
X161809082Y-109223965D01*
X161825750Y-109231324D01*
X161847616Y-109235674D01*
X161871023Y-109251314D01*
X161890686Y-109259996D01*
X161904115Y-109273425D01*
X161925072Y-109287428D01*
X161939074Y-109308384D01*
X161952503Y-109321813D01*
X161961183Y-109341473D01*
X161976826Y-109364884D01*
X161981175Y-109386752D01*
X161988534Y-109403417D01*
X161994192Y-109452191D01*
X161995000Y-109456250D01*
X161995000Y-109893750D01*
X161994192Y-109897809D01*
X161988534Y-109946582D01*
X161981176Y-109963246D01*
X161976826Y-109985116D01*
X161961182Y-110008528D01*
X161952503Y-110028186D01*
X161939076Y-110041612D01*
X161925072Y-110062572D01*
X161904112Y-110076576D01*
X161890686Y-110090003D01*
X161871028Y-110098682D01*
X161847616Y-110114326D01*
X161825746Y-110118676D01*
X161809082Y-110126034D01*
X161760309Y-110131692D01*
X161756250Y-110132500D01*
X161243750Y-110132500D01*
X161239691Y-110131692D01*
X161190917Y-110126034D01*
X161174252Y-110118675D01*
X161152384Y-110114326D01*
X161128973Y-110098683D01*
X161109313Y-110090003D01*
X161095884Y-110076574D01*
X161074928Y-110062572D01*
X161060925Y-110041615D01*
X161047496Y-110028186D01*
X161038814Y-110008523D01*
X161023174Y-109985116D01*
X161018824Y-109963250D01*
X161011465Y-109946582D01*
X161005805Y-109897797D01*
X161005000Y-109893750D01*
X161005000Y-109456250D01*
X161005804Y-109452203D01*
X161011465Y-109403417D01*
X161018824Y-109386748D01*
X161023174Y-109364884D01*
X161038813Y-109341478D01*
X161047496Y-109321813D01*
X161060927Y-109308381D01*
X161074928Y-109287428D01*
X161095881Y-109273427D01*
X161109313Y-109259996D01*
X161128978Y-109251313D01*
X161152384Y-109235674D01*
X161174248Y-109231324D01*
X161190917Y-109223965D01*
X161239703Y-109218304D01*
X161243750Y-109217500D01*
X161756250Y-109217500D01*
X161760297Y-109218305D01*
G37*
G36*
X164010297Y-109218305D02*
G01*
X164059082Y-109223965D01*
X164075750Y-109231324D01*
X164097616Y-109235674D01*
X164121023Y-109251314D01*
X164140686Y-109259996D01*
X164154115Y-109273425D01*
X164175072Y-109287428D01*
X164189074Y-109308384D01*
X164202503Y-109321813D01*
X164211183Y-109341473D01*
X164226826Y-109364884D01*
X164231175Y-109386752D01*
X164238534Y-109403417D01*
X164244192Y-109452191D01*
X164245000Y-109456250D01*
X164245000Y-109893750D01*
X164244192Y-109897809D01*
X164238534Y-109946582D01*
X164231176Y-109963246D01*
X164226826Y-109985116D01*
X164211182Y-110008528D01*
X164202503Y-110028186D01*
X164189076Y-110041612D01*
X164175072Y-110062572D01*
X164154112Y-110076576D01*
X164140686Y-110090003D01*
X164121028Y-110098682D01*
X164097616Y-110114326D01*
X164075746Y-110118676D01*
X164059082Y-110126034D01*
X164010309Y-110131692D01*
X164006250Y-110132500D01*
X163493750Y-110132500D01*
X163489691Y-110131692D01*
X163440917Y-110126034D01*
X163424252Y-110118675D01*
X163402384Y-110114326D01*
X163378973Y-110098683D01*
X163359313Y-110090003D01*
X163345884Y-110076574D01*
X163324928Y-110062572D01*
X163310925Y-110041615D01*
X163297496Y-110028186D01*
X163288814Y-110008523D01*
X163273174Y-109985116D01*
X163268824Y-109963250D01*
X163261465Y-109946582D01*
X163255805Y-109897797D01*
X163255000Y-109893750D01*
X163255000Y-109456250D01*
X163255804Y-109452203D01*
X163261465Y-109403417D01*
X163268824Y-109386748D01*
X163273174Y-109364884D01*
X163288813Y-109341478D01*
X163297496Y-109321813D01*
X163310927Y-109308381D01*
X163324928Y-109287428D01*
X163345881Y-109273427D01*
X163359313Y-109259996D01*
X163378978Y-109251313D01*
X163402384Y-109235674D01*
X163424248Y-109231324D01*
X163440917Y-109223965D01*
X163489703Y-109218304D01*
X163493750Y-109217500D01*
X164006250Y-109217500D01*
X164010297Y-109218305D01*
G37*
G36*
X132504047Y-108385805D02*
G01*
X132554263Y-108391631D01*
X132571421Y-108399206D01*
X132593757Y-108403650D01*
X132617668Y-108419626D01*
X132637968Y-108428590D01*
X132651832Y-108442454D01*
X132673241Y-108456759D01*
X132687545Y-108478167D01*
X132701409Y-108492031D01*
X132710371Y-108512329D01*
X132726350Y-108536243D01*
X132730793Y-108558581D01*
X132738368Y-108575736D01*
X132744192Y-108625942D01*
X132745000Y-108630000D01*
X132745000Y-109080000D01*
X132744192Y-109084059D01*
X132738368Y-109134263D01*
X132730793Y-109151417D01*
X132726350Y-109173757D01*
X132710370Y-109197672D01*
X132701409Y-109217968D01*
X132687547Y-109231829D01*
X132673241Y-109253241D01*
X132651829Y-109267547D01*
X132637968Y-109281409D01*
X132617672Y-109290370D01*
X132593757Y-109306350D01*
X132571417Y-109310793D01*
X132554263Y-109318368D01*
X132504059Y-109324192D01*
X132500000Y-109325000D01*
X132000000Y-109325000D01*
X131995942Y-109324192D01*
X131945736Y-109318368D01*
X131928581Y-109310793D01*
X131906243Y-109306350D01*
X131882329Y-109290371D01*
X131862031Y-109281409D01*
X131848167Y-109267545D01*
X131826759Y-109253241D01*
X131812454Y-109231832D01*
X131798590Y-109217968D01*
X131789626Y-109197668D01*
X131773650Y-109173757D01*
X131769206Y-109151421D01*
X131761631Y-109134263D01*
X131755805Y-109084047D01*
X131755000Y-109080000D01*
X131755000Y-108630000D01*
X131755804Y-108625954D01*
X131761631Y-108575736D01*
X131769207Y-108558577D01*
X131773650Y-108536243D01*
X131789625Y-108512333D01*
X131798590Y-108492031D01*
X131812456Y-108478164D01*
X131826759Y-108456759D01*
X131848164Y-108442456D01*
X131862031Y-108428590D01*
X131882333Y-108419625D01*
X131906243Y-108403650D01*
X131928577Y-108399207D01*
X131945736Y-108391631D01*
X131995954Y-108385804D01*
X132000000Y-108385000D01*
X132500000Y-108385000D01*
X132504047Y-108385805D01*
G37*
G36*
X159510297Y-107643305D02*
G01*
X159559082Y-107648965D01*
X159575750Y-107656324D01*
X159597616Y-107660674D01*
X159621023Y-107676314D01*
X159640686Y-107684996D01*
X159654115Y-107698425D01*
X159675072Y-107712428D01*
X159689074Y-107733384D01*
X159702503Y-107746813D01*
X159711183Y-107766473D01*
X159726826Y-107789884D01*
X159731175Y-107811752D01*
X159738534Y-107828417D01*
X159744192Y-107877191D01*
X159745000Y-107881250D01*
X159745000Y-108318750D01*
X159744192Y-108322809D01*
X159738534Y-108371582D01*
X159731176Y-108388246D01*
X159726826Y-108410116D01*
X159711182Y-108433528D01*
X159702503Y-108453186D01*
X159689076Y-108466612D01*
X159675072Y-108487572D01*
X159654112Y-108501576D01*
X159640686Y-108515003D01*
X159621028Y-108523682D01*
X159597616Y-108539326D01*
X159575746Y-108543676D01*
X159559082Y-108551034D01*
X159510309Y-108556692D01*
X159506250Y-108557500D01*
X158993750Y-108557500D01*
X158989691Y-108556692D01*
X158940917Y-108551034D01*
X158924252Y-108543675D01*
X158902384Y-108539326D01*
X158878973Y-108523683D01*
X158859313Y-108515003D01*
X158845884Y-108501574D01*
X158824928Y-108487572D01*
X158810925Y-108466615D01*
X158797496Y-108453186D01*
X158788814Y-108433523D01*
X158773174Y-108410116D01*
X158768824Y-108388250D01*
X158761465Y-108371582D01*
X158755805Y-108322797D01*
X158755000Y-108318750D01*
X158755000Y-107881250D01*
X158755804Y-107877203D01*
X158761465Y-107828417D01*
X158768824Y-107811748D01*
X158773174Y-107789884D01*
X158788813Y-107766478D01*
X158797496Y-107746813D01*
X158810927Y-107733381D01*
X158824928Y-107712428D01*
X158845881Y-107698427D01*
X158859313Y-107684996D01*
X158878978Y-107676313D01*
X158902384Y-107660674D01*
X158924248Y-107656324D01*
X158940917Y-107648965D01*
X158989703Y-107643304D01*
X158993750Y-107642500D01*
X159506250Y-107642500D01*
X159510297Y-107643305D01*
G37*
G36*
X161760297Y-107643305D02*
G01*
X161809082Y-107648965D01*
X161825750Y-107656324D01*
X161847616Y-107660674D01*
X161871023Y-107676314D01*
X161890686Y-107684996D01*
X161904115Y-107698425D01*
X161925072Y-107712428D01*
X161939074Y-107733384D01*
X161952503Y-107746813D01*
X161961183Y-107766473D01*
X161976826Y-107789884D01*
X161981175Y-107811752D01*
X161988534Y-107828417D01*
X161994192Y-107877191D01*
X161995000Y-107881250D01*
X161995000Y-108318750D01*
X161994192Y-108322809D01*
X161988534Y-108371582D01*
X161981176Y-108388246D01*
X161976826Y-108410116D01*
X161961182Y-108433528D01*
X161952503Y-108453186D01*
X161939076Y-108466612D01*
X161925072Y-108487572D01*
X161904112Y-108501576D01*
X161890686Y-108515003D01*
X161871028Y-108523682D01*
X161847616Y-108539326D01*
X161825746Y-108543676D01*
X161809082Y-108551034D01*
X161760309Y-108556692D01*
X161756250Y-108557500D01*
X161243750Y-108557500D01*
X161239691Y-108556692D01*
X161190917Y-108551034D01*
X161174252Y-108543675D01*
X161152384Y-108539326D01*
X161128973Y-108523683D01*
X161109313Y-108515003D01*
X161095884Y-108501574D01*
X161074928Y-108487572D01*
X161060925Y-108466615D01*
X161047496Y-108453186D01*
X161038814Y-108433523D01*
X161023174Y-108410116D01*
X161018824Y-108388250D01*
X161011465Y-108371582D01*
X161005805Y-108322797D01*
X161005000Y-108318750D01*
X161005000Y-107881250D01*
X161005804Y-107877203D01*
X161011465Y-107828417D01*
X161018824Y-107811748D01*
X161023174Y-107789884D01*
X161038813Y-107766478D01*
X161047496Y-107746813D01*
X161060927Y-107733381D01*
X161074928Y-107712428D01*
X161095881Y-107698427D01*
X161109313Y-107684996D01*
X161128978Y-107676313D01*
X161152384Y-107660674D01*
X161174248Y-107656324D01*
X161190917Y-107648965D01*
X161239703Y-107643304D01*
X161243750Y-107642500D01*
X161756250Y-107642500D01*
X161760297Y-107643305D01*
G37*
G36*
X164010297Y-107643305D02*
G01*
X164059082Y-107648965D01*
X164075750Y-107656324D01*
X164097616Y-107660674D01*
X164121023Y-107676314D01*
X164140686Y-107684996D01*
X164154115Y-107698425D01*
X164175072Y-107712428D01*
X164189074Y-107733384D01*
X164202503Y-107746813D01*
X164211183Y-107766473D01*
X164226826Y-107789884D01*
X164231175Y-107811752D01*
X164238534Y-107828417D01*
X164244192Y-107877191D01*
X164245000Y-107881250D01*
X164245000Y-108318750D01*
X164244192Y-108322809D01*
X164238534Y-108371582D01*
X164231176Y-108388246D01*
X164226826Y-108410116D01*
X164211182Y-108433528D01*
X164202503Y-108453186D01*
X164189076Y-108466612D01*
X164175072Y-108487572D01*
X164154112Y-108501576D01*
X164140686Y-108515003D01*
X164121028Y-108523682D01*
X164097616Y-108539326D01*
X164075746Y-108543676D01*
X164059082Y-108551034D01*
X164010309Y-108556692D01*
X164006250Y-108557500D01*
X163493750Y-108557500D01*
X163489691Y-108556692D01*
X163440917Y-108551034D01*
X163424252Y-108543675D01*
X163402384Y-108539326D01*
X163378973Y-108523683D01*
X163359313Y-108515003D01*
X163345884Y-108501574D01*
X163324928Y-108487572D01*
X163310925Y-108466615D01*
X163297496Y-108453186D01*
X163288814Y-108433523D01*
X163273174Y-108410116D01*
X163268824Y-108388250D01*
X163261465Y-108371582D01*
X163255805Y-108322797D01*
X163255000Y-108318750D01*
X163255000Y-107881250D01*
X163255804Y-107877203D01*
X163261465Y-107828417D01*
X163268824Y-107811748D01*
X163273174Y-107789884D01*
X163288813Y-107766478D01*
X163297496Y-107746813D01*
X163310927Y-107733381D01*
X163324928Y-107712428D01*
X163345881Y-107698427D01*
X163359313Y-107684996D01*
X163378978Y-107676313D01*
X163402384Y-107660674D01*
X163424248Y-107656324D01*
X163440917Y-107648965D01*
X163489703Y-107643304D01*
X163493750Y-107642500D01*
X164006250Y-107642500D01*
X164010297Y-107643305D01*
G37*
G36*
X143494316Y-107741799D02*
G01*
X143544602Y-107775398D01*
X143578201Y-107825684D01*
X143590000Y-107885000D01*
X143590000Y-108155000D01*
X143578201Y-108214316D01*
X143544602Y-108264602D01*
X143494316Y-108298201D01*
X143435000Y-108310000D01*
X143065000Y-108310000D01*
X143005684Y-108298201D01*
X142955398Y-108264602D01*
X142921799Y-108214316D01*
X142910000Y-108155000D01*
X142910000Y-107885000D01*
X142921799Y-107825684D01*
X142955398Y-107775398D01*
X143005684Y-107741799D01*
X143065000Y-107730000D01*
X143435000Y-107730000D01*
X143494316Y-107741799D01*
G37*
G36*
X144494316Y-107741799D02*
G01*
X144544602Y-107775398D01*
X144578201Y-107825684D01*
X144590000Y-107885000D01*
X144590000Y-108155000D01*
X144578201Y-108214316D01*
X144544602Y-108264602D01*
X144494316Y-108298201D01*
X144435000Y-108310000D01*
X144065000Y-108310000D01*
X144005684Y-108298201D01*
X143955398Y-108264602D01*
X143921799Y-108214316D01*
X143910000Y-108155000D01*
X143910000Y-107885000D01*
X143921799Y-107825684D01*
X143955398Y-107775398D01*
X144005684Y-107741799D01*
X144065000Y-107730000D01*
X144435000Y-107730000D01*
X144494316Y-107741799D01*
G37*
G36*
X145481229Y-107702179D02*
G01*
X145533137Y-107736863D01*
X145567821Y-107788771D01*
X145580000Y-107850000D01*
X145580000Y-108130000D01*
X145567821Y-108191229D01*
X145533137Y-108243137D01*
X145481229Y-108277821D01*
X145420000Y-108290000D01*
X145080000Y-108290000D01*
X145018771Y-108277821D01*
X144966863Y-108243137D01*
X144932179Y-108191229D01*
X144920000Y-108130000D01*
X144920000Y-107850000D01*
X144932179Y-107788771D01*
X144966863Y-107736863D01*
X145018771Y-107702179D01*
X145080000Y-107690000D01*
X145420000Y-107690000D01*
X145481229Y-107702179D01*
G37*
G36*
X135856411Y-106831275D02*
G01*
X135918664Y-106839471D01*
X135934324Y-106846773D01*
X135953325Y-106850553D01*
X135978491Y-106867368D01*
X136004422Y-106879460D01*
X136020197Y-106895235D01*
X136040919Y-106909081D01*
X136054764Y-106929802D01*
X136070539Y-106945577D01*
X136082629Y-106971505D01*
X136099447Y-106996675D01*
X136103226Y-107015677D01*
X136110528Y-107031335D01*
X136118722Y-107093575D01*
X136120000Y-107100000D01*
X136120000Y-107750000D01*
X136118721Y-107756426D01*
X136110528Y-107818664D01*
X136103227Y-107834320D01*
X136099447Y-107853325D01*
X136082628Y-107878496D01*
X136070539Y-107904422D01*
X136054766Y-107920194D01*
X136040919Y-107940919D01*
X136020194Y-107954766D01*
X136004422Y-107970539D01*
X135978496Y-107982628D01*
X135953325Y-107999447D01*
X135934320Y-108003227D01*
X135918664Y-108010528D01*
X135856426Y-108018721D01*
X135850000Y-108020000D01*
X133650000Y-108020000D01*
X133643575Y-108018722D01*
X133581335Y-108010528D01*
X133565677Y-108003226D01*
X133546675Y-107999447D01*
X133521505Y-107982629D01*
X133495577Y-107970539D01*
X133479802Y-107954764D01*
X133459081Y-107940919D01*
X133445235Y-107920197D01*
X133429460Y-107904422D01*
X133417368Y-107878491D01*
X133400553Y-107853325D01*
X133396773Y-107834324D01*
X133389471Y-107818664D01*
X133381275Y-107756411D01*
X133380000Y-107750000D01*
X133380000Y-107100000D01*
X133381275Y-107093590D01*
X133389471Y-107031335D01*
X133396773Y-107015673D01*
X133400553Y-106996675D01*
X133417367Y-106971510D01*
X133429460Y-106945577D01*
X133445237Y-106929799D01*
X133459081Y-106909081D01*
X133479799Y-106895237D01*
X133495577Y-106879460D01*
X133521510Y-106867367D01*
X133546675Y-106850553D01*
X133565673Y-106846773D01*
X133581335Y-106839471D01*
X133643590Y-106831275D01*
X133650000Y-106830000D01*
X135850000Y-106830000D01*
X135856411Y-106831275D01*
G37*
G36*
X139106411Y-106831275D02*
G01*
X139168664Y-106839471D01*
X139184324Y-106846773D01*
X139203325Y-106850553D01*
X139228491Y-106867368D01*
X139254422Y-106879460D01*
X139270197Y-106895235D01*
X139290919Y-106909081D01*
X139304764Y-106929802D01*
X139320539Y-106945577D01*
X139332629Y-106971505D01*
X139349447Y-106996675D01*
X139353226Y-107015677D01*
X139360528Y-107031335D01*
X139368722Y-107093575D01*
X139370000Y-107100000D01*
X139370000Y-107750000D01*
X139368721Y-107756426D01*
X139360528Y-107818664D01*
X139353227Y-107834320D01*
X139349447Y-107853325D01*
X139332628Y-107878496D01*
X139320539Y-107904422D01*
X139304766Y-107920194D01*
X139290919Y-107940919D01*
X139270194Y-107954766D01*
X139254422Y-107970539D01*
X139228496Y-107982628D01*
X139203325Y-107999447D01*
X139184320Y-108003227D01*
X139168664Y-108010528D01*
X139106426Y-108018721D01*
X139100000Y-108020000D01*
X136900000Y-108020000D01*
X136893575Y-108018722D01*
X136831335Y-108010528D01*
X136815677Y-108003226D01*
X136796675Y-107999447D01*
X136771505Y-107982629D01*
X136745577Y-107970539D01*
X136729802Y-107954764D01*
X136709081Y-107940919D01*
X136695235Y-107920197D01*
X136679460Y-107904422D01*
X136667368Y-107878491D01*
X136650553Y-107853325D01*
X136646773Y-107834324D01*
X136639471Y-107818664D01*
X136631275Y-107756411D01*
X136630000Y-107750000D01*
X136630000Y-107100000D01*
X136631275Y-107093590D01*
X136639471Y-107031335D01*
X136646773Y-107015673D01*
X136650553Y-106996675D01*
X136667367Y-106971510D01*
X136679460Y-106945577D01*
X136695237Y-106929799D01*
X136709081Y-106909081D01*
X136729799Y-106895237D01*
X136745577Y-106879460D01*
X136771510Y-106867367D01*
X136796675Y-106850553D01*
X136815673Y-106846773D01*
X136831335Y-106839471D01*
X136893590Y-106831275D01*
X136900000Y-106830000D01*
X139100000Y-106830000D01*
X139106411Y-106831275D01*
G37*
G36*
X132504047Y-106835805D02*
G01*
X132554263Y-106841631D01*
X132571421Y-106849206D01*
X132593757Y-106853650D01*
X132617668Y-106869626D01*
X132637968Y-106878590D01*
X132651832Y-106892454D01*
X132673241Y-106906759D01*
X132687545Y-106928167D01*
X132701409Y-106942031D01*
X132710371Y-106962329D01*
X132726350Y-106986243D01*
X132730793Y-107008581D01*
X132738368Y-107025736D01*
X132744192Y-107075942D01*
X132745000Y-107080000D01*
X132745000Y-107530000D01*
X132744192Y-107534059D01*
X132738368Y-107584263D01*
X132730793Y-107601417D01*
X132726350Y-107623757D01*
X132710370Y-107647672D01*
X132701409Y-107667968D01*
X132687547Y-107681829D01*
X132673241Y-107703241D01*
X132651829Y-107717547D01*
X132637968Y-107731409D01*
X132617672Y-107740370D01*
X132593757Y-107756350D01*
X132571417Y-107760793D01*
X132554263Y-107768368D01*
X132504059Y-107774192D01*
X132500000Y-107775000D01*
X132000000Y-107775000D01*
X131995942Y-107774192D01*
X131945736Y-107768368D01*
X131928581Y-107760793D01*
X131906243Y-107756350D01*
X131882329Y-107740371D01*
X131862031Y-107731409D01*
X131848167Y-107717545D01*
X131826759Y-107703241D01*
X131812454Y-107681832D01*
X131798590Y-107667968D01*
X131789626Y-107647668D01*
X131773650Y-107623757D01*
X131769206Y-107601421D01*
X131761631Y-107584263D01*
X131755805Y-107534047D01*
X131755000Y-107530000D01*
X131755000Y-107080000D01*
X131755804Y-107075954D01*
X131761631Y-107025736D01*
X131769207Y-107008577D01*
X131773650Y-106986243D01*
X131789625Y-106962333D01*
X131798590Y-106942031D01*
X131812456Y-106928164D01*
X131826759Y-106906759D01*
X131848164Y-106892456D01*
X131862031Y-106878590D01*
X131882333Y-106869625D01*
X131906243Y-106853650D01*
X131928577Y-106849207D01*
X131945736Y-106841631D01*
X131995954Y-106835804D01*
X132000000Y-106835000D01*
X132500000Y-106835000D01*
X132504047Y-106835805D01*
G37*
G36*
X145481229Y-106742179D02*
G01*
X145533137Y-106776863D01*
X145567821Y-106828771D01*
X145580000Y-106890000D01*
X145580000Y-107170000D01*
X145567821Y-107231229D01*
X145533137Y-107283137D01*
X145481229Y-107317821D01*
X145420000Y-107330000D01*
X145080000Y-107330000D01*
X145018771Y-107317821D01*
X144966863Y-107283137D01*
X144932179Y-107231229D01*
X144920000Y-107170000D01*
X144920000Y-106890000D01*
X144932179Y-106828771D01*
X144966863Y-106776863D01*
X145018771Y-106742179D01*
X145080000Y-106730000D01*
X145420000Y-106730000D01*
X145481229Y-106742179D01*
G37*
G36*
X143494316Y-106721799D02*
G01*
X143544602Y-106755398D01*
X143578201Y-106805684D01*
X143590000Y-106865000D01*
X143590000Y-107135000D01*
X143578201Y-107194316D01*
X143544602Y-107244602D01*
X143494316Y-107278201D01*
X143435000Y-107290000D01*
X143065000Y-107290000D01*
X143005684Y-107278201D01*
X142955398Y-107244602D01*
X142921799Y-107194316D01*
X142910000Y-107135000D01*
X142910000Y-106865000D01*
X142921799Y-106805684D01*
X142955398Y-106755398D01*
X143005684Y-106721799D01*
X143065000Y-106710000D01*
X143435000Y-106710000D01*
X143494316Y-106721799D01*
G37*
G36*
X144494316Y-106721799D02*
G01*
X144544602Y-106755398D01*
X144578201Y-106805684D01*
X144590000Y-106865000D01*
X144590000Y-107135000D01*
X144578201Y-107194316D01*
X144544602Y-107244602D01*
X144494316Y-107278201D01*
X144435000Y-107290000D01*
X144065000Y-107290000D01*
X144005684Y-107278201D01*
X143955398Y-107244602D01*
X143921799Y-107194316D01*
X143910000Y-107135000D01*
X143910000Y-106865000D01*
X143921799Y-106805684D01*
X143955398Y-106755398D01*
X144005684Y-106721799D01*
X144065000Y-106710000D01*
X144435000Y-106710000D01*
X144494316Y-106721799D01*
G37*
G36*
X158694316Y-106421799D02*
G01*
X158744602Y-106455398D01*
X158778201Y-106505684D01*
X158790000Y-106565000D01*
X158790000Y-106935000D01*
X158778201Y-106994316D01*
X158744602Y-107044602D01*
X158694316Y-107078201D01*
X158635000Y-107090000D01*
X158365000Y-107090000D01*
X158305684Y-107078201D01*
X158255398Y-107044602D01*
X158221799Y-106994316D01*
X158210000Y-106935000D01*
X158210000Y-106565000D01*
X158221799Y-106505684D01*
X158255398Y-106455398D01*
X158305684Y-106421799D01*
X158365000Y-106410000D01*
X158635000Y-106410000D01*
X158694316Y-106421799D01*
G37*
G36*
X159714316Y-106421799D02*
G01*
X159764602Y-106455398D01*
X159798201Y-106505684D01*
X159810000Y-106565000D01*
X159810000Y-106935000D01*
X159798201Y-106994316D01*
X159764602Y-107044602D01*
X159714316Y-107078201D01*
X159655000Y-107090000D01*
X159385000Y-107090000D01*
X159325684Y-107078201D01*
X159275398Y-107044602D01*
X159241799Y-106994316D01*
X159230000Y-106935000D01*
X159230000Y-106565000D01*
X159241799Y-106505684D01*
X159275398Y-106455398D01*
X159325684Y-106421799D01*
X159385000Y-106410000D01*
X159655000Y-106410000D01*
X159714316Y-106421799D01*
G37*
G36*
X160934316Y-106421799D02*
G01*
X160984602Y-106455398D01*
X161018201Y-106505684D01*
X161030000Y-106565000D01*
X161030000Y-106935000D01*
X161018201Y-106994316D01*
X160984602Y-107044602D01*
X160934316Y-107078201D01*
X160875000Y-107090000D01*
X160605000Y-107090000D01*
X160545684Y-107078201D01*
X160495398Y-107044602D01*
X160461799Y-106994316D01*
X160450000Y-106935000D01*
X160450000Y-106565000D01*
X160461799Y-106505684D01*
X160495398Y-106455398D01*
X160545684Y-106421799D01*
X160605000Y-106410000D01*
X160875000Y-106410000D01*
X160934316Y-106421799D01*
G37*
G36*
X161954316Y-106421799D02*
G01*
X162004602Y-106455398D01*
X162038201Y-106505684D01*
X162050000Y-106565000D01*
X162050000Y-106935000D01*
X162038201Y-106994316D01*
X162004602Y-107044602D01*
X161954316Y-107078201D01*
X161895000Y-107090000D01*
X161625000Y-107090000D01*
X161565684Y-107078201D01*
X161515398Y-107044602D01*
X161481799Y-106994316D01*
X161470000Y-106935000D01*
X161470000Y-106565000D01*
X161481799Y-106505684D01*
X161515398Y-106455398D01*
X161565684Y-106421799D01*
X161625000Y-106410000D01*
X161895000Y-106410000D01*
X161954316Y-106421799D01*
G37*
G36*
X163174316Y-106421799D02*
G01*
X163224602Y-106455398D01*
X163258201Y-106505684D01*
X163270000Y-106565000D01*
X163270000Y-106935000D01*
X163258201Y-106994316D01*
X163224602Y-107044602D01*
X163174316Y-107078201D01*
X163115000Y-107090000D01*
X162845000Y-107090000D01*
X162785684Y-107078201D01*
X162735398Y-107044602D01*
X162701799Y-106994316D01*
X162690000Y-106935000D01*
X162690000Y-106565000D01*
X162701799Y-106505684D01*
X162735398Y-106455398D01*
X162785684Y-106421799D01*
X162845000Y-106410000D01*
X163115000Y-106410000D01*
X163174316Y-106421799D01*
G37*
G36*
X164194316Y-106421799D02*
G01*
X164244602Y-106455398D01*
X164278201Y-106505684D01*
X164290000Y-106565000D01*
X164290000Y-106935000D01*
X164278201Y-106994316D01*
X164244602Y-107044602D01*
X164194316Y-107078201D01*
X164135000Y-107090000D01*
X163865000Y-107090000D01*
X163805684Y-107078201D01*
X163755398Y-107044602D01*
X163721799Y-106994316D01*
X163710000Y-106935000D01*
X163710000Y-106565000D01*
X163721799Y-106505684D01*
X163755398Y-106455398D01*
X163805684Y-106421799D01*
X163865000Y-106410000D01*
X164135000Y-106410000D01*
X164194316Y-106421799D01*
G37*
G36*
X153806411Y-104756275D02*
G01*
X153868664Y-104764471D01*
X153884324Y-104771773D01*
X153903325Y-104775553D01*
X153928491Y-104792368D01*
X153954422Y-104804460D01*
X153970197Y-104820235D01*
X153990919Y-104834081D01*
X154004764Y-104854802D01*
X154020539Y-104870577D01*
X154032629Y-104896505D01*
X154049447Y-104921675D01*
X154053226Y-104940677D01*
X154060528Y-104956335D01*
X154068722Y-105018575D01*
X154070000Y-105025000D01*
X154070000Y-105975000D01*
X154068721Y-105981426D01*
X154060528Y-106043664D01*
X154053227Y-106059320D01*
X154049447Y-106078325D01*
X154032628Y-106103496D01*
X154020539Y-106129422D01*
X154004766Y-106145194D01*
X153990919Y-106165919D01*
X153970194Y-106179766D01*
X153954422Y-106195539D01*
X153928496Y-106207628D01*
X153903325Y-106224447D01*
X153884320Y-106228227D01*
X153868664Y-106235528D01*
X153806426Y-106243721D01*
X153800000Y-106245000D01*
X153300000Y-106245000D01*
X153293575Y-106243722D01*
X153231335Y-106235528D01*
X153215677Y-106228226D01*
X153196675Y-106224447D01*
X153171505Y-106207629D01*
X153145577Y-106195539D01*
X153129802Y-106179764D01*
X153109081Y-106165919D01*
X153095235Y-106145197D01*
X153079460Y-106129422D01*
X153067368Y-106103491D01*
X153050553Y-106078325D01*
X153046773Y-106059324D01*
X153039471Y-106043664D01*
X153031275Y-105981411D01*
X153030000Y-105975000D01*
X153030000Y-105025000D01*
X153031275Y-105018590D01*
X153039471Y-104956335D01*
X153046773Y-104940673D01*
X153050553Y-104921675D01*
X153067367Y-104896510D01*
X153079460Y-104870577D01*
X153095237Y-104854799D01*
X153109081Y-104834081D01*
X153129799Y-104820237D01*
X153145577Y-104804460D01*
X153171510Y-104792367D01*
X153196675Y-104775553D01*
X153215673Y-104771773D01*
X153231335Y-104764471D01*
X153293590Y-104756275D01*
X153300000Y-104755000D01*
X153800000Y-104755000D01*
X153806411Y-104756275D01*
G37*
G36*
X155706411Y-104756275D02*
G01*
X155768664Y-104764471D01*
X155784324Y-104771773D01*
X155803325Y-104775553D01*
X155828491Y-104792368D01*
X155854422Y-104804460D01*
X155870197Y-104820235D01*
X155890919Y-104834081D01*
X155904764Y-104854802D01*
X155920539Y-104870577D01*
X155932629Y-104896505D01*
X155949447Y-104921675D01*
X155953226Y-104940677D01*
X155960528Y-104956335D01*
X155968722Y-105018575D01*
X155970000Y-105025000D01*
X155970000Y-105975000D01*
X155968721Y-105981426D01*
X155960528Y-106043664D01*
X155953227Y-106059320D01*
X155949447Y-106078325D01*
X155932628Y-106103496D01*
X155920539Y-106129422D01*
X155904766Y-106145194D01*
X155890919Y-106165919D01*
X155870194Y-106179766D01*
X155854422Y-106195539D01*
X155828496Y-106207628D01*
X155803325Y-106224447D01*
X155784320Y-106228227D01*
X155768664Y-106235528D01*
X155706426Y-106243721D01*
X155700000Y-106245000D01*
X155200000Y-106245000D01*
X155193575Y-106243722D01*
X155131335Y-106235528D01*
X155115677Y-106228226D01*
X155096675Y-106224447D01*
X155071505Y-106207629D01*
X155045577Y-106195539D01*
X155029802Y-106179764D01*
X155009081Y-106165919D01*
X154995235Y-106145197D01*
X154979460Y-106129422D01*
X154967368Y-106103491D01*
X154950553Y-106078325D01*
X154946773Y-106059324D01*
X154939471Y-106043664D01*
X154931275Y-105981411D01*
X154930000Y-105975000D01*
X154930000Y-105025000D01*
X154931275Y-105018590D01*
X154939471Y-104956335D01*
X154946773Y-104940673D01*
X154950553Y-104921675D01*
X154967367Y-104896510D01*
X154979460Y-104870577D01*
X154995237Y-104854799D01*
X155009081Y-104834081D01*
X155029799Y-104820237D01*
X155045577Y-104804460D01*
X155071510Y-104792367D01*
X155096675Y-104775553D01*
X155115673Y-104771773D01*
X155131335Y-104764471D01*
X155193590Y-104756275D01*
X155200000Y-104755000D01*
X155700000Y-104755000D01*
X155706411Y-104756275D01*
G37*
G36*
X133556355Y-103877231D02*
G01*
X133587175Y-103897825D01*
X133607769Y-103928645D01*
X133615000Y-103965000D01*
X133615000Y-105785000D01*
X133607769Y-105821355D01*
X133587175Y-105852175D01*
X133556355Y-105872769D01*
X133520000Y-105880000D01*
X133070000Y-105880000D01*
X133033645Y-105872769D01*
X133002825Y-105852175D01*
X132982231Y-105821355D01*
X132975000Y-105785000D01*
X132975000Y-103965000D01*
X132982231Y-103928645D01*
X133002825Y-103897825D01*
X133033645Y-103877231D01*
X133070000Y-103870000D01*
X133520000Y-103870000D01*
X133556355Y-103877231D01*
G37*
G36*
X134826355Y-103877231D02*
G01*
X134857175Y-103897825D01*
X134877769Y-103928645D01*
X134885000Y-103965000D01*
X134885000Y-105785000D01*
X134877769Y-105821355D01*
X134857175Y-105852175D01*
X134826355Y-105872769D01*
X134790000Y-105880000D01*
X134340000Y-105880000D01*
X134303645Y-105872769D01*
X134272825Y-105852175D01*
X134252231Y-105821355D01*
X134245000Y-105785000D01*
X134245000Y-103965000D01*
X134252231Y-103928645D01*
X134272825Y-103897825D01*
X134303645Y-103877231D01*
X134340000Y-103870000D01*
X134790000Y-103870000D01*
X134826355Y-103877231D01*
G37*
G36*
X136096355Y-103877231D02*
G01*
X136127175Y-103897825D01*
X136147769Y-103928645D01*
X136155000Y-103965000D01*
X136155000Y-105785000D01*
X136147769Y-105821355D01*
X136127175Y-105852175D01*
X136096355Y-105872769D01*
X136060000Y-105880000D01*
X135610000Y-105880000D01*
X135573645Y-105872769D01*
X135542825Y-105852175D01*
X135522231Y-105821355D01*
X135515000Y-105785000D01*
X135515000Y-103965000D01*
X135522231Y-103928645D01*
X135542825Y-103897825D01*
X135573645Y-103877231D01*
X135610000Y-103870000D01*
X136060000Y-103870000D01*
X136096355Y-103877231D01*
G37*
G36*
X137366355Y-103877231D02*
G01*
X137397175Y-103897825D01*
X137417769Y-103928645D01*
X137425000Y-103965000D01*
X137425000Y-105785000D01*
X137417769Y-105821355D01*
X137397175Y-105852175D01*
X137366355Y-105872769D01*
X137330000Y-105880000D01*
X136880000Y-105880000D01*
X136843645Y-105872769D01*
X136812825Y-105852175D01*
X136792231Y-105821355D01*
X136785000Y-105785000D01*
X136785000Y-103965000D01*
X136792231Y-103928645D01*
X136812825Y-103897825D01*
X136843645Y-103877231D01*
X136880000Y-103870000D01*
X137330000Y-103870000D01*
X137366355Y-103877231D01*
G37*
G36*
X169708883Y-104851202D02*
G01*
X169767279Y-104890221D01*
X169806298Y-104948617D01*
X169820000Y-105017500D01*
X169820000Y-105497500D01*
X169806298Y-105566383D01*
X169767279Y-105624779D01*
X169708883Y-105663798D01*
X169640000Y-105677500D01*
X168360000Y-105677500D01*
X168291117Y-105663798D01*
X168232721Y-105624779D01*
X168193702Y-105566383D01*
X168180000Y-105497500D01*
X168180000Y-105017500D01*
X168193702Y-104948617D01*
X168232721Y-104890221D01*
X168291117Y-104851202D01*
X168360000Y-104837500D01*
X169640000Y-104837500D01*
X169708883Y-104851202D01*
G37*
G36*
X141898995Y-104019583D02*
G01*
X142016556Y-104087456D01*
X142112544Y-104183444D01*
X142180417Y-104301005D01*
X142215551Y-104432126D01*
X142215551Y-104567874D01*
X142180417Y-104698995D01*
X142112544Y-104816556D01*
X142016556Y-104912544D01*
X141898995Y-104980417D01*
X141767874Y-105015551D01*
X141632126Y-105015551D01*
X141501005Y-104980417D01*
X141383444Y-104912544D01*
X141287456Y-104816556D01*
X141219583Y-104698995D01*
X141184449Y-104567874D01*
X141184449Y-104432126D01*
X141219583Y-104301005D01*
X141287456Y-104183444D01*
X141383444Y-104087456D01*
X141501005Y-104019583D01*
X141632126Y-103984449D01*
X141767874Y-103984449D01*
X141898995Y-104019583D01*
G37*
G36*
X149204047Y-104005805D02*
G01*
X149254263Y-104011631D01*
X149271421Y-104019206D01*
X149293757Y-104023650D01*
X149317668Y-104039626D01*
X149337968Y-104048590D01*
X149351832Y-104062454D01*
X149373241Y-104076759D01*
X149387545Y-104098167D01*
X149401409Y-104112031D01*
X149410371Y-104132329D01*
X149426350Y-104156243D01*
X149430793Y-104178581D01*
X149438368Y-104195736D01*
X149444192Y-104245942D01*
X149445000Y-104250000D01*
X149445000Y-104750000D01*
X149444192Y-104754059D01*
X149438368Y-104804263D01*
X149430793Y-104821417D01*
X149426350Y-104843757D01*
X149410370Y-104867672D01*
X149401409Y-104887968D01*
X149387547Y-104901829D01*
X149373241Y-104923241D01*
X149351829Y-104937547D01*
X149337968Y-104951409D01*
X149317672Y-104960370D01*
X149293757Y-104976350D01*
X149271417Y-104980793D01*
X149254263Y-104988368D01*
X149204059Y-104994192D01*
X149200000Y-104995000D01*
X148750000Y-104995000D01*
X148745942Y-104994192D01*
X148695736Y-104988368D01*
X148678581Y-104980793D01*
X148656243Y-104976350D01*
X148632329Y-104960371D01*
X148612031Y-104951409D01*
X148598167Y-104937545D01*
X148576759Y-104923241D01*
X148562454Y-104901832D01*
X148548590Y-104887968D01*
X148539626Y-104867668D01*
X148523650Y-104843757D01*
X148519206Y-104821421D01*
X148511631Y-104804263D01*
X148505805Y-104754047D01*
X148505000Y-104750000D01*
X148505000Y-104250000D01*
X148505804Y-104245954D01*
X148511631Y-104195736D01*
X148519207Y-104178577D01*
X148523650Y-104156243D01*
X148539625Y-104132333D01*
X148548590Y-104112031D01*
X148562456Y-104098164D01*
X148576759Y-104076759D01*
X148598164Y-104062456D01*
X148612031Y-104048590D01*
X148632333Y-104039625D01*
X148656243Y-104023650D01*
X148678577Y-104019207D01*
X148695736Y-104011631D01*
X148745954Y-104005804D01*
X148750000Y-104005000D01*
X149200000Y-104005000D01*
X149204047Y-104005805D01*
G37*
G36*
X150754047Y-104005805D02*
G01*
X150804263Y-104011631D01*
X150821421Y-104019206D01*
X150843757Y-104023650D01*
X150867668Y-104039626D01*
X150887968Y-104048590D01*
X150901832Y-104062454D01*
X150923241Y-104076759D01*
X150937545Y-104098167D01*
X150951409Y-104112031D01*
X150960371Y-104132329D01*
X150976350Y-104156243D01*
X150980793Y-104178581D01*
X150988368Y-104195736D01*
X150994192Y-104245942D01*
X150995000Y-104250000D01*
X150995000Y-104750000D01*
X150994192Y-104754059D01*
X150988368Y-104804263D01*
X150980793Y-104821417D01*
X150976350Y-104843757D01*
X150960370Y-104867672D01*
X150951409Y-104887968D01*
X150937547Y-104901829D01*
X150923241Y-104923241D01*
X150901829Y-104937547D01*
X150887968Y-104951409D01*
X150867672Y-104960370D01*
X150843757Y-104976350D01*
X150821417Y-104980793D01*
X150804263Y-104988368D01*
X150754059Y-104994192D01*
X150750000Y-104995000D01*
X150300000Y-104995000D01*
X150295942Y-104994192D01*
X150245736Y-104988368D01*
X150228581Y-104980793D01*
X150206243Y-104976350D01*
X150182329Y-104960371D01*
X150162031Y-104951409D01*
X150148167Y-104937545D01*
X150126759Y-104923241D01*
X150112454Y-104901832D01*
X150098590Y-104887968D01*
X150089626Y-104867668D01*
X150073650Y-104843757D01*
X150069206Y-104821421D01*
X150061631Y-104804263D01*
X150055805Y-104754047D01*
X150055000Y-104750000D01*
X150055000Y-104250000D01*
X150055804Y-104245954D01*
X150061631Y-104195736D01*
X150069207Y-104178577D01*
X150073650Y-104156243D01*
X150089625Y-104132333D01*
X150098590Y-104112031D01*
X150112456Y-104098164D01*
X150126759Y-104076759D01*
X150148164Y-104062456D01*
X150162031Y-104048590D01*
X150182333Y-104039625D01*
X150206243Y-104023650D01*
X150228577Y-104019207D01*
X150245736Y-104011631D01*
X150295954Y-104005804D01*
X150300000Y-104005000D01*
X150750000Y-104005000D01*
X150754047Y-104005805D01*
G37*
G36*
X169708883Y-103581202D02*
G01*
X169767279Y-103620221D01*
X169806298Y-103678617D01*
X169820000Y-103747500D01*
X169820000Y-104227500D01*
X169806298Y-104296383D01*
X169767279Y-104354779D01*
X169708883Y-104393798D01*
X169640000Y-104407500D01*
X168360000Y-104407500D01*
X168291117Y-104393798D01*
X168232721Y-104354779D01*
X168193702Y-104296383D01*
X168180000Y-104227500D01*
X168180000Y-103747500D01*
X168193702Y-103678617D01*
X168232721Y-103620221D01*
X168291117Y-103581202D01*
X168360000Y-103567500D01*
X169640000Y-103567500D01*
X169708883Y-103581202D01*
G37*
G36*
X147481229Y-103442179D02*
G01*
X147533137Y-103476863D01*
X147567821Y-103528771D01*
X147580000Y-103590000D01*
X147580000Y-103870000D01*
X147567821Y-103931229D01*
X147533137Y-103983137D01*
X147481229Y-104017821D01*
X147420000Y-104030000D01*
X147080000Y-104030000D01*
X147018771Y-104017821D01*
X146966863Y-103983137D01*
X146932179Y-103931229D01*
X146920000Y-103870000D01*
X146920000Y-103590000D01*
X146932179Y-103528771D01*
X146966863Y-103476863D01*
X147018771Y-103442179D01*
X147080000Y-103430000D01*
X147420000Y-103430000D01*
X147481229Y-103442179D01*
G37*
G36*
X136750000Y-103600000D02*
G01*
X133650000Y-103600000D01*
X133650000Y-101200000D01*
X136750000Y-101200000D01*
X136750000Y-103600000D01*
G37*
G36*
X169708883Y-102311202D02*
G01*
X169767279Y-102350221D01*
X169806298Y-102408617D01*
X169820000Y-102477500D01*
X169820000Y-102957500D01*
X169806298Y-103026383D01*
X169767279Y-103084779D01*
X169708883Y-103123798D01*
X169640000Y-103137500D01*
X168360000Y-103137500D01*
X168291117Y-103123798D01*
X168232721Y-103084779D01*
X168193702Y-103026383D01*
X168180000Y-102957500D01*
X168180000Y-102477500D01*
X168193702Y-102408617D01*
X168232721Y-102350221D01*
X168291117Y-102311202D01*
X168360000Y-102297500D01*
X169640000Y-102297500D01*
X169708883Y-102311202D01*
G37*
G36*
X147481229Y-102482179D02*
G01*
X147533137Y-102516863D01*
X147567821Y-102568771D01*
X147580000Y-102630000D01*
X147580000Y-102910000D01*
X147567821Y-102971229D01*
X147533137Y-103023137D01*
X147481229Y-103057821D01*
X147420000Y-103070000D01*
X147080000Y-103070000D01*
X147018771Y-103057821D01*
X146966863Y-103023137D01*
X146932179Y-102971229D01*
X146920000Y-102910000D01*
X146920000Y-102630000D01*
X146932179Y-102568771D01*
X146966863Y-102516863D01*
X147018771Y-102482179D01*
X147080000Y-102470000D01*
X147420000Y-102470000D01*
X147481229Y-102482179D01*
G37*
G36*
X131981229Y-102192179D02*
G01*
X132033137Y-102226863D01*
X132067821Y-102278771D01*
X132080000Y-102340000D01*
X132080000Y-102620000D01*
X132067821Y-102681229D01*
X132033137Y-102733137D01*
X131981229Y-102767821D01*
X131920000Y-102780000D01*
X131580000Y-102780000D01*
X131518771Y-102767821D01*
X131466863Y-102733137D01*
X131432179Y-102681229D01*
X131420000Y-102620000D01*
X131420000Y-102340000D01*
X131432179Y-102278771D01*
X131466863Y-102226863D01*
X131518771Y-102192179D01*
X131580000Y-102180000D01*
X131920000Y-102180000D01*
X131981229Y-102192179D01*
G37*
G36*
X139406411Y-99381275D02*
G01*
X139468664Y-99389471D01*
X139484324Y-99396773D01*
X139503325Y-99400553D01*
X139528491Y-99417368D01*
X139554422Y-99429460D01*
X139570197Y-99445235D01*
X139590919Y-99459081D01*
X139604764Y-99479802D01*
X139620539Y-99495577D01*
X139632629Y-99521505D01*
X139649447Y-99546675D01*
X139653226Y-99565677D01*
X139660528Y-99581335D01*
X139668722Y-99643575D01*
X139670000Y-99650000D01*
X139670000Y-101850000D01*
X139668721Y-101856426D01*
X139660528Y-101918664D01*
X139653227Y-101934320D01*
X139649447Y-101953325D01*
X139632628Y-101978496D01*
X139620539Y-102004422D01*
X139604766Y-102020194D01*
X139590919Y-102040919D01*
X139570194Y-102054766D01*
X139554422Y-102070539D01*
X139528496Y-102082628D01*
X139503325Y-102099447D01*
X139484320Y-102103227D01*
X139468664Y-102110528D01*
X139406426Y-102118721D01*
X139400000Y-102120000D01*
X138750000Y-102120000D01*
X138743575Y-102118722D01*
X138681335Y-102110528D01*
X138665677Y-102103226D01*
X138646675Y-102099447D01*
X138621505Y-102082629D01*
X138595577Y-102070539D01*
X138579802Y-102054764D01*
X138559081Y-102040919D01*
X138545235Y-102020197D01*
X138529460Y-102004422D01*
X138517368Y-101978491D01*
X138500553Y-101953325D01*
X138496773Y-101934324D01*
X138489471Y-101918664D01*
X138481275Y-101856411D01*
X138480000Y-101850000D01*
X138480000Y-99650000D01*
X138481275Y-99643590D01*
X138489471Y-99581335D01*
X138496773Y-99565673D01*
X138500553Y-99546675D01*
X138517367Y-99521510D01*
X138529460Y-99495577D01*
X138545237Y-99479799D01*
X138559081Y-99459081D01*
X138579799Y-99445237D01*
X138595577Y-99429460D01*
X138621510Y-99417367D01*
X138646675Y-99400553D01*
X138665673Y-99396773D01*
X138681335Y-99389471D01*
X138743590Y-99381275D01*
X138750000Y-99380000D01*
X139400000Y-99380000D01*
X139406411Y-99381275D01*
G37*
G36*
X142356411Y-99381275D02*
G01*
X142418664Y-99389471D01*
X142434324Y-99396773D01*
X142453325Y-99400553D01*
X142478491Y-99417368D01*
X142504422Y-99429460D01*
X142520197Y-99445235D01*
X142540919Y-99459081D01*
X142554764Y-99479802D01*
X142570539Y-99495577D01*
X142582629Y-99521505D01*
X142599447Y-99546675D01*
X142603226Y-99565677D01*
X142610528Y-99581335D01*
X142618722Y-99643575D01*
X142620000Y-99650000D01*
X142620000Y-101850000D01*
X142618721Y-101856426D01*
X142610528Y-101918664D01*
X142603227Y-101934320D01*
X142599447Y-101953325D01*
X142582628Y-101978496D01*
X142570539Y-102004422D01*
X142554766Y-102020194D01*
X142540919Y-102040919D01*
X142520194Y-102054766D01*
X142504422Y-102070539D01*
X142478496Y-102082628D01*
X142453325Y-102099447D01*
X142434320Y-102103227D01*
X142418664Y-102110528D01*
X142356426Y-102118721D01*
X142350000Y-102120000D01*
X141700000Y-102120000D01*
X141693575Y-102118722D01*
X141631335Y-102110528D01*
X141615677Y-102103226D01*
X141596675Y-102099447D01*
X141571505Y-102082629D01*
X141545577Y-102070539D01*
X141529802Y-102054764D01*
X141509081Y-102040919D01*
X141495235Y-102020197D01*
X141479460Y-102004422D01*
X141467368Y-101978491D01*
X141450553Y-101953325D01*
X141446773Y-101934324D01*
X141439471Y-101918664D01*
X141431275Y-101856411D01*
X141430000Y-101850000D01*
X141430000Y-99650000D01*
X141431275Y-99643590D01*
X141439471Y-99581335D01*
X141446773Y-99565673D01*
X141450553Y-99546675D01*
X141467367Y-99521510D01*
X141479460Y-99495577D01*
X141495237Y-99479799D01*
X141509081Y-99459081D01*
X141529799Y-99445237D01*
X141545577Y-99429460D01*
X141571510Y-99417367D01*
X141596675Y-99400553D01*
X141615673Y-99396773D01*
X141631335Y-99389471D01*
X141693590Y-99381275D01*
X141700000Y-99380000D01*
X142350000Y-99380000D01*
X142356411Y-99381275D01*
G37*
G36*
X169708883Y-101041202D02*
G01*
X169767279Y-101080221D01*
X169806298Y-101138617D01*
X169820000Y-101207500D01*
X169820000Y-101687500D01*
X169806298Y-101756383D01*
X169767279Y-101814779D01*
X169708883Y-101853798D01*
X169640000Y-101867500D01*
X168360000Y-101867500D01*
X168291117Y-101853798D01*
X168232721Y-101814779D01*
X168193702Y-101756383D01*
X168180000Y-101687500D01*
X168180000Y-101207500D01*
X168193702Y-101138617D01*
X168232721Y-101080221D01*
X168291117Y-101041202D01*
X168360000Y-101027500D01*
X169640000Y-101027500D01*
X169708883Y-101041202D01*
G37*
G36*
X131981229Y-101232179D02*
G01*
X132033137Y-101266863D01*
X132067821Y-101318771D01*
X132080000Y-101380000D01*
X132080000Y-101660000D01*
X132067821Y-101721229D01*
X132033137Y-101773137D01*
X131981229Y-101807821D01*
X131920000Y-101820000D01*
X131580000Y-101820000D01*
X131518771Y-101807821D01*
X131466863Y-101773137D01*
X131432179Y-101721229D01*
X131420000Y-101660000D01*
X131420000Y-101380000D01*
X131432179Y-101318771D01*
X131466863Y-101266863D01*
X131518771Y-101232179D01*
X131580000Y-101220000D01*
X131920000Y-101220000D01*
X131981229Y-101232179D01*
G37*
G36*
X155221229Y-100932179D02*
G01*
X155273137Y-100966863D01*
X155307821Y-101018771D01*
X155320000Y-101080000D01*
X155320000Y-101420000D01*
X155307821Y-101481229D01*
X155273137Y-101533137D01*
X155221229Y-101567821D01*
X155160000Y-101580000D01*
X154880000Y-101580000D01*
X154818771Y-101567821D01*
X154766863Y-101533137D01*
X154732179Y-101481229D01*
X154720000Y-101420000D01*
X154720000Y-101080000D01*
X154732179Y-101018771D01*
X154766863Y-100966863D01*
X154818771Y-100932179D01*
X154880000Y-100920000D01*
X155160000Y-100920000D01*
X155221229Y-100932179D01*
G37*
G36*
X156181229Y-100932179D02*
G01*
X156233137Y-100966863D01*
X156267821Y-101018771D01*
X156280000Y-101080000D01*
X156280000Y-101420000D01*
X156267821Y-101481229D01*
X156233137Y-101533137D01*
X156181229Y-101567821D01*
X156120000Y-101580000D01*
X155840000Y-101580000D01*
X155778771Y-101567821D01*
X155726863Y-101533137D01*
X155692179Y-101481229D01*
X155680000Y-101420000D01*
X155680000Y-101080000D01*
X155692179Y-101018771D01*
X155726863Y-100966863D01*
X155778771Y-100932179D01*
X155840000Y-100920000D01*
X156120000Y-100920000D01*
X156181229Y-100932179D01*
G37*
G36*
X146361355Y-99887231D02*
G01*
X146392175Y-99907825D01*
X146412769Y-99938645D01*
X146420000Y-99975000D01*
X146420000Y-101375000D01*
X146412769Y-101411355D01*
X146392175Y-101442175D01*
X146361355Y-101462769D01*
X146325000Y-101470000D01*
X146175000Y-101470000D01*
X146138645Y-101462769D01*
X146107825Y-101442175D01*
X146087231Y-101411355D01*
X146080000Y-101375000D01*
X146080000Y-99975000D01*
X146087231Y-99938645D01*
X146107825Y-99907825D01*
X146138645Y-99887231D01*
X146175000Y-99880000D01*
X146325000Y-99880000D01*
X146361355Y-99887231D01*
G37*
G36*
X146861355Y-99887231D02*
G01*
X146892175Y-99907825D01*
X146912769Y-99938645D01*
X146920000Y-99975000D01*
X146920000Y-101375000D01*
X146912769Y-101411355D01*
X146892175Y-101442175D01*
X146861355Y-101462769D01*
X146825000Y-101470000D01*
X146675000Y-101470000D01*
X146638645Y-101462769D01*
X146607825Y-101442175D01*
X146587231Y-101411355D01*
X146580000Y-101375000D01*
X146580000Y-99975000D01*
X146587231Y-99938645D01*
X146607825Y-99907825D01*
X146638645Y-99887231D01*
X146675000Y-99880000D01*
X146825000Y-99880000D01*
X146861355Y-99887231D01*
G37*
G36*
X147361355Y-99887231D02*
G01*
X147392175Y-99907825D01*
X147412769Y-99938645D01*
X147420000Y-99975000D01*
X147420000Y-101375000D01*
X147412769Y-101411355D01*
X147392175Y-101442175D01*
X147361355Y-101462769D01*
X147325000Y-101470000D01*
X147175000Y-101470000D01*
X147138645Y-101462769D01*
X147107825Y-101442175D01*
X147087231Y-101411355D01*
X147080000Y-101375000D01*
X147080000Y-99975000D01*
X147087231Y-99938645D01*
X147107825Y-99907825D01*
X147138645Y-99887231D01*
X147175000Y-99880000D01*
X147325000Y-99880000D01*
X147361355Y-99887231D01*
G37*
G36*
X147861355Y-99887231D02*
G01*
X147892175Y-99907825D01*
X147912769Y-99938645D01*
X147920000Y-99975000D01*
X147920000Y-101375000D01*
X147912769Y-101411355D01*
X147892175Y-101442175D01*
X147861355Y-101462769D01*
X147825000Y-101470000D01*
X147675000Y-101470000D01*
X147638645Y-101462769D01*
X147607825Y-101442175D01*
X147587231Y-101411355D01*
X147580000Y-101375000D01*
X147580000Y-99975000D01*
X147587231Y-99938645D01*
X147607825Y-99907825D01*
X147638645Y-99887231D01*
X147675000Y-99880000D01*
X147825000Y-99880000D01*
X147861355Y-99887231D01*
G37*
G36*
X148361355Y-99887231D02*
G01*
X148392175Y-99907825D01*
X148412769Y-99938645D01*
X148420000Y-99975000D01*
X148420000Y-101375000D01*
X148412769Y-101411355D01*
X148392175Y-101442175D01*
X148361355Y-101462769D01*
X148325000Y-101470000D01*
X148175000Y-101470000D01*
X148138645Y-101462769D01*
X148107825Y-101442175D01*
X148087231Y-101411355D01*
X148080000Y-101375000D01*
X148080000Y-99975000D01*
X148087231Y-99938645D01*
X148107825Y-99907825D01*
X148138645Y-99887231D01*
X148175000Y-99880000D01*
X148325000Y-99880000D01*
X148361355Y-99887231D01*
G37*
G36*
X148861355Y-99887231D02*
G01*
X148892175Y-99907825D01*
X148912769Y-99938645D01*
X148920000Y-99975000D01*
X148920000Y-101375000D01*
X148912769Y-101411355D01*
X148892175Y-101442175D01*
X148861355Y-101462769D01*
X148825000Y-101470000D01*
X148675000Y-101470000D01*
X148638645Y-101462769D01*
X148607825Y-101442175D01*
X148587231Y-101411355D01*
X148580000Y-101375000D01*
X148580000Y-99975000D01*
X148587231Y-99938645D01*
X148607825Y-99907825D01*
X148638645Y-99887231D01*
X148675000Y-99880000D01*
X148825000Y-99880000D01*
X148861355Y-99887231D01*
G37*
G36*
X149361355Y-99887231D02*
G01*
X149392175Y-99907825D01*
X149412769Y-99938645D01*
X149420000Y-99975000D01*
X149420000Y-101375000D01*
X149412769Y-101411355D01*
X149392175Y-101442175D01*
X149361355Y-101462769D01*
X149325000Y-101470000D01*
X149175000Y-101470000D01*
X149138645Y-101462769D01*
X149107825Y-101442175D01*
X149087231Y-101411355D01*
X149080000Y-101375000D01*
X149080000Y-99975000D01*
X149087231Y-99938645D01*
X149107825Y-99907825D01*
X149138645Y-99887231D01*
X149175000Y-99880000D01*
X149325000Y-99880000D01*
X149361355Y-99887231D01*
G37*
G36*
X149861355Y-99887231D02*
G01*
X149892175Y-99907825D01*
X149912769Y-99938645D01*
X149920000Y-99975000D01*
X149920000Y-101375000D01*
X149912769Y-101411355D01*
X149892175Y-101442175D01*
X149861355Y-101462769D01*
X149825000Y-101470000D01*
X149675000Y-101470000D01*
X149638645Y-101462769D01*
X149607825Y-101442175D01*
X149587231Y-101411355D01*
X149580000Y-101375000D01*
X149580000Y-99975000D01*
X149587231Y-99938645D01*
X149607825Y-99907825D01*
X149638645Y-99887231D01*
X149675000Y-99880000D01*
X149825000Y-99880000D01*
X149861355Y-99887231D01*
G37*
G36*
X150361355Y-99887231D02*
G01*
X150392175Y-99907825D01*
X150412769Y-99938645D01*
X150420000Y-99975000D01*
X150420000Y-101375000D01*
X150412769Y-101411355D01*
X150392175Y-101442175D01*
X150361355Y-101462769D01*
X150325000Y-101470000D01*
X150175000Y-101470000D01*
X150138645Y-101462769D01*
X150107825Y-101442175D01*
X150087231Y-101411355D01*
X150080000Y-101375000D01*
X150080000Y-99975000D01*
X150087231Y-99938645D01*
X150107825Y-99907825D01*
X150138645Y-99887231D01*
X150175000Y-99880000D01*
X150325000Y-99880000D01*
X150361355Y-99887231D01*
G37*
G36*
X150861355Y-99887231D02*
G01*
X150892175Y-99907825D01*
X150912769Y-99938645D01*
X150920000Y-99975000D01*
X150920000Y-101375000D01*
X150912769Y-101411355D01*
X150892175Y-101442175D01*
X150861355Y-101462769D01*
X150825000Y-101470000D01*
X150675000Y-101470000D01*
X150638645Y-101462769D01*
X150607825Y-101442175D01*
X150587231Y-101411355D01*
X150580000Y-101375000D01*
X150580000Y-99975000D01*
X150587231Y-99938645D01*
X150607825Y-99907825D01*
X150638645Y-99887231D01*
X150675000Y-99880000D01*
X150825000Y-99880000D01*
X150861355Y-99887231D01*
G37*
G36*
X151361355Y-99887231D02*
G01*
X151392175Y-99907825D01*
X151412769Y-99938645D01*
X151420000Y-99975000D01*
X151420000Y-101375000D01*
X151412769Y-101411355D01*
X151392175Y-101442175D01*
X151361355Y-101462769D01*
X151325000Y-101470000D01*
X151175000Y-101470000D01*
X151138645Y-101462769D01*
X151107825Y-101442175D01*
X151087231Y-101411355D01*
X151080000Y-101375000D01*
X151080000Y-99975000D01*
X151087231Y-99938645D01*
X151107825Y-99907825D01*
X151138645Y-99887231D01*
X151175000Y-99880000D01*
X151325000Y-99880000D01*
X151361355Y-99887231D01*
G37*
G36*
X151861355Y-99887231D02*
G01*
X151892175Y-99907825D01*
X151912769Y-99938645D01*
X151920000Y-99975000D01*
X151920000Y-101375000D01*
X151912769Y-101411355D01*
X151892175Y-101442175D01*
X151861355Y-101462769D01*
X151825000Y-101470000D01*
X151675000Y-101470000D01*
X151638645Y-101462769D01*
X151607825Y-101442175D01*
X151587231Y-101411355D01*
X151580000Y-101375000D01*
X151580000Y-99975000D01*
X151587231Y-99938645D01*
X151607825Y-99907825D01*
X151638645Y-99887231D01*
X151675000Y-99880000D01*
X151825000Y-99880000D01*
X151861355Y-99887231D01*
G37*
G36*
X152361355Y-99887231D02*
G01*
X152392175Y-99907825D01*
X152412769Y-99938645D01*
X152420000Y-99975000D01*
X152420000Y-101375000D01*
X152412769Y-101411355D01*
X152392175Y-101442175D01*
X152361355Y-101462769D01*
X152325000Y-101470000D01*
X152175000Y-101470000D01*
X152138645Y-101462769D01*
X152107825Y-101442175D01*
X152087231Y-101411355D01*
X152080000Y-101375000D01*
X152080000Y-99975000D01*
X152087231Y-99938645D01*
X152107825Y-99907825D01*
X152138645Y-99887231D01*
X152175000Y-99880000D01*
X152325000Y-99880000D01*
X152361355Y-99887231D01*
G37*
G36*
X152861355Y-99887231D02*
G01*
X152892175Y-99907825D01*
X152912769Y-99938645D01*
X152920000Y-99975000D01*
X152920000Y-101375000D01*
X152912769Y-101411355D01*
X152892175Y-101442175D01*
X152861355Y-101462769D01*
X152825000Y-101470000D01*
X152675000Y-101470000D01*
X152638645Y-101462769D01*
X152607825Y-101442175D01*
X152587231Y-101411355D01*
X152580000Y-101375000D01*
X152580000Y-99975000D01*
X152587231Y-99938645D01*
X152607825Y-99907825D01*
X152638645Y-99887231D01*
X152675000Y-99880000D01*
X152825000Y-99880000D01*
X152861355Y-99887231D01*
G37*
G36*
X153361355Y-99887231D02*
G01*
X153392175Y-99907825D01*
X153412769Y-99938645D01*
X153420000Y-99975000D01*
X153420000Y-101375000D01*
X153412769Y-101411355D01*
X153392175Y-101442175D01*
X153361355Y-101462769D01*
X153325000Y-101470000D01*
X153175000Y-101470000D01*
X153138645Y-101462769D01*
X153107825Y-101442175D01*
X153087231Y-101411355D01*
X153080000Y-101375000D01*
X153080000Y-99975000D01*
X153087231Y-99938645D01*
X153107825Y-99907825D01*
X153138645Y-99887231D01*
X153175000Y-99880000D01*
X153325000Y-99880000D01*
X153361355Y-99887231D01*
G37*
G36*
X153861355Y-99887231D02*
G01*
X153892175Y-99907825D01*
X153912769Y-99938645D01*
X153920000Y-99975000D01*
X153920000Y-101375000D01*
X153912769Y-101411355D01*
X153892175Y-101442175D01*
X153861355Y-101462769D01*
X153825000Y-101470000D01*
X153675000Y-101470000D01*
X153638645Y-101462769D01*
X153607825Y-101442175D01*
X153587231Y-101411355D01*
X153580000Y-101375000D01*
X153580000Y-99975000D01*
X153587231Y-99938645D01*
X153607825Y-99907825D01*
X153638645Y-99887231D01*
X153675000Y-99880000D01*
X153825000Y-99880000D01*
X153861355Y-99887231D01*
G37*
G36*
X133556355Y-98927231D02*
G01*
X133587175Y-98947825D01*
X133607769Y-98978645D01*
X133615000Y-99015000D01*
X133615000Y-100835000D01*
X133607769Y-100871355D01*
X133587175Y-100902175D01*
X133556355Y-100922769D01*
X133520000Y-100930000D01*
X133070000Y-100930000D01*
X133033645Y-100922769D01*
X133002825Y-100902175D01*
X132982231Y-100871355D01*
X132975000Y-100835000D01*
X132975000Y-99015000D01*
X132982231Y-98978645D01*
X133002825Y-98947825D01*
X133033645Y-98927231D01*
X133070000Y-98920000D01*
X133520000Y-98920000D01*
X133556355Y-98927231D01*
G37*
G36*
X134826355Y-98927231D02*
G01*
X134857175Y-98947825D01*
X134877769Y-98978645D01*
X134885000Y-99015000D01*
X134885000Y-100835000D01*
X134877769Y-100871355D01*
X134857175Y-100902175D01*
X134826355Y-100922769D01*
X134790000Y-100930000D01*
X134340000Y-100930000D01*
X134303645Y-100922769D01*
X134272825Y-100902175D01*
X134252231Y-100871355D01*
X134245000Y-100835000D01*
X134245000Y-99015000D01*
X134252231Y-98978645D01*
X134272825Y-98947825D01*
X134303645Y-98927231D01*
X134340000Y-98920000D01*
X134790000Y-98920000D01*
X134826355Y-98927231D01*
G37*
G36*
X136096355Y-98927231D02*
G01*
X136127175Y-98947825D01*
X136147769Y-98978645D01*
X136155000Y-99015000D01*
X136155000Y-100835000D01*
X136147769Y-100871355D01*
X136127175Y-100902175D01*
X136096355Y-100922769D01*
X136060000Y-100930000D01*
X135610000Y-100930000D01*
X135573645Y-100922769D01*
X135542825Y-100902175D01*
X135522231Y-100871355D01*
X135515000Y-100835000D01*
X135515000Y-99015000D01*
X135522231Y-98978645D01*
X135542825Y-98947825D01*
X135573645Y-98927231D01*
X135610000Y-98920000D01*
X136060000Y-98920000D01*
X136096355Y-98927231D01*
G37*
G36*
X137366355Y-98927231D02*
G01*
X137397175Y-98947825D01*
X137417769Y-98978645D01*
X137425000Y-99015000D01*
X137425000Y-100835000D01*
X137417769Y-100871355D01*
X137397175Y-100902175D01*
X137366355Y-100922769D01*
X137330000Y-100930000D01*
X136880000Y-100930000D01*
X136843645Y-100922769D01*
X136812825Y-100902175D01*
X136792231Y-100871355D01*
X136785000Y-100835000D01*
X136785000Y-99015000D01*
X136792231Y-98978645D01*
X136812825Y-98947825D01*
X136843645Y-98927231D01*
X136880000Y-98920000D01*
X137330000Y-98920000D01*
X137366355Y-98927231D01*
G37*
G36*
X169708883Y-99771202D02*
G01*
X169767279Y-99810221D01*
X169806298Y-99868617D01*
X169820000Y-99937500D01*
X169820000Y-100417500D01*
X169806298Y-100486383D01*
X169767279Y-100544779D01*
X169708883Y-100583798D01*
X169640000Y-100597500D01*
X168360000Y-100597500D01*
X168291117Y-100583798D01*
X168232721Y-100544779D01*
X168193702Y-100486383D01*
X168180000Y-100417500D01*
X168180000Y-99937500D01*
X168193702Y-99868617D01*
X168232721Y-99810221D01*
X168291117Y-99771202D01*
X168360000Y-99757500D01*
X169640000Y-99757500D01*
X169708883Y-99771202D01*
G37*
G36*
X160684316Y-99421799D02*
G01*
X160734602Y-99455398D01*
X160768201Y-99505684D01*
X160780000Y-99565000D01*
X160780000Y-99935000D01*
X160768201Y-99994316D01*
X160734602Y-100044602D01*
X160684316Y-100078201D01*
X160625000Y-100090000D01*
X160355000Y-100090000D01*
X160295684Y-100078201D01*
X160245398Y-100044602D01*
X160211799Y-99994316D01*
X160200000Y-99935000D01*
X160200000Y-99565000D01*
X160211799Y-99505684D01*
X160245398Y-99455398D01*
X160295684Y-99421799D01*
X160355000Y-99410000D01*
X160625000Y-99410000D01*
X160684316Y-99421799D01*
G37*
G36*
X161704316Y-99421799D02*
G01*
X161754602Y-99455398D01*
X161788201Y-99505684D01*
X161800000Y-99565000D01*
X161800000Y-99935000D01*
X161788201Y-99994316D01*
X161754602Y-100044602D01*
X161704316Y-100078201D01*
X161645000Y-100090000D01*
X161375000Y-100090000D01*
X161315684Y-100078201D01*
X161265398Y-100044602D01*
X161231799Y-99994316D01*
X161220000Y-99935000D01*
X161220000Y-99565000D01*
X161231799Y-99505684D01*
X161265398Y-99455398D01*
X161315684Y-99421799D01*
X161375000Y-99410000D01*
X161645000Y-99410000D01*
X161704316Y-99421799D01*
G37*
G36*
X130948995Y-99019583D02*
G01*
X131066556Y-99087456D01*
X131162544Y-99183444D01*
X131230417Y-99301005D01*
X131265551Y-99432126D01*
X131265551Y-99567874D01*
X131230417Y-99698995D01*
X131162544Y-99816556D01*
X131066556Y-99912544D01*
X130948995Y-99980417D01*
X130817874Y-100015551D01*
X130682126Y-100015551D01*
X130551005Y-99980417D01*
X130433444Y-99912544D01*
X130337456Y-99816556D01*
X130269583Y-99698995D01*
X130234449Y-99567874D01*
X130234449Y-99432126D01*
X130269583Y-99301005D01*
X130337456Y-99183444D01*
X130433444Y-99087456D01*
X130551005Y-99019583D01*
X130682126Y-98984449D01*
X130817874Y-98984449D01*
X130948995Y-99019583D01*
G37*
G36*
X145061355Y-98587231D02*
G01*
X145092175Y-98607825D01*
X145112769Y-98638645D01*
X145120000Y-98675000D01*
X145120000Y-98825000D01*
X145112769Y-98861355D01*
X145092175Y-98892175D01*
X145061355Y-98912769D01*
X145025000Y-98920000D01*
X143625000Y-98920000D01*
X143588645Y-98912769D01*
X143557825Y-98892175D01*
X143537231Y-98861355D01*
X143530000Y-98825000D01*
X143530000Y-98675000D01*
X143537231Y-98638645D01*
X143557825Y-98607825D01*
X143588645Y-98587231D01*
X143625000Y-98580000D01*
X145025000Y-98580000D01*
X145061355Y-98587231D01*
G37*
G36*
X156411355Y-98587231D02*
G01*
X156442175Y-98607825D01*
X156462769Y-98638645D01*
X156470000Y-98675000D01*
X156470000Y-98825000D01*
X156462769Y-98861355D01*
X156442175Y-98892175D01*
X156411355Y-98912769D01*
X156375000Y-98920000D01*
X154975000Y-98920000D01*
X154938645Y-98912769D01*
X154907825Y-98892175D01*
X154887231Y-98861355D01*
X154880000Y-98825000D01*
X154880000Y-98675000D01*
X154887231Y-98638645D01*
X154907825Y-98607825D01*
X154938645Y-98587231D01*
X154975000Y-98580000D01*
X156375000Y-98580000D01*
X156411355Y-98587231D01*
G37*
G36*
X159056411Y-97581275D02*
G01*
X159118664Y-97589471D01*
X159134324Y-97596773D01*
X159153325Y-97600553D01*
X159178491Y-97617368D01*
X159204422Y-97629460D01*
X159220197Y-97645235D01*
X159240919Y-97659081D01*
X159254764Y-97679802D01*
X159270539Y-97695577D01*
X159282629Y-97721505D01*
X159299447Y-97746675D01*
X159303226Y-97765677D01*
X159310528Y-97781335D01*
X159318722Y-97843575D01*
X159320000Y-97850000D01*
X159320000Y-98450000D01*
X159318721Y-98456426D01*
X159310528Y-98518664D01*
X159303227Y-98534320D01*
X159299447Y-98553325D01*
X159282628Y-98578496D01*
X159270539Y-98604422D01*
X159254766Y-98620194D01*
X159240919Y-98640919D01*
X159220194Y-98654766D01*
X159204422Y-98670539D01*
X159178496Y-98682628D01*
X159153325Y-98699447D01*
X159134320Y-98703227D01*
X159118664Y-98710528D01*
X159056426Y-98718721D01*
X159050000Y-98720000D01*
X158450000Y-98720000D01*
X158443575Y-98718722D01*
X158381335Y-98710528D01*
X158365677Y-98703226D01*
X158346675Y-98699447D01*
X158321505Y-98682629D01*
X158295577Y-98670539D01*
X158279802Y-98654764D01*
X158259081Y-98640919D01*
X158245235Y-98620197D01*
X158229460Y-98604422D01*
X158217368Y-98578491D01*
X158200553Y-98553325D01*
X158196773Y-98534324D01*
X158189471Y-98518664D01*
X158181275Y-98456411D01*
X158180000Y-98450000D01*
X158180000Y-97850000D01*
X158181275Y-97843590D01*
X158189471Y-97781335D01*
X158196773Y-97765673D01*
X158200553Y-97746675D01*
X158217367Y-97721510D01*
X158229460Y-97695577D01*
X158245237Y-97679799D01*
X158259081Y-97659081D01*
X158279799Y-97645237D01*
X158295577Y-97629460D01*
X158321510Y-97617367D01*
X158346675Y-97600553D01*
X158365673Y-97596773D01*
X158381335Y-97589471D01*
X158443590Y-97581275D01*
X158450000Y-97580000D01*
X159050000Y-97580000D01*
X159056411Y-97581275D01*
G37*
G36*
X163516347Y-97609021D02*
G01*
X163634861Y-97640777D01*
X163741118Y-97702124D01*
X163827876Y-97788882D01*
X163889223Y-97895139D01*
X163920979Y-98013653D01*
X163920979Y-98136347D01*
X163889223Y-98254861D01*
X163827876Y-98361118D01*
X163741118Y-98447876D01*
X163634861Y-98509223D01*
X163516347Y-98540979D01*
X163455000Y-98545000D01*
X163453362Y-98545000D01*
X161956638Y-98545000D01*
X161955000Y-98545000D01*
X161893653Y-98540979D01*
X161775139Y-98509223D01*
X161668882Y-98447876D01*
X161582124Y-98361118D01*
X161520777Y-98254861D01*
X161489021Y-98136347D01*
X161489021Y-98013653D01*
X161520777Y-97895139D01*
X161582124Y-97788882D01*
X161668882Y-97702124D01*
X161775139Y-97640777D01*
X161893653Y-97609021D01*
X161955000Y-97605000D01*
X163455000Y-97605000D01*
X163516347Y-97609021D01*
G37*
G36*
X166546347Y-97609021D02*
G01*
X166664861Y-97640777D01*
X166771118Y-97702124D01*
X166857876Y-97788882D01*
X166919223Y-97895139D01*
X166950979Y-98013653D01*
X166950979Y-98136347D01*
X166919223Y-98254861D01*
X166857876Y-98361118D01*
X166771118Y-98447876D01*
X166664861Y-98509223D01*
X166546347Y-98540979D01*
X166485000Y-98545000D01*
X166483362Y-98545000D01*
X165686638Y-98545000D01*
X165685000Y-98545000D01*
X165623653Y-98540979D01*
X165505139Y-98509223D01*
X165398882Y-98447876D01*
X165312124Y-98361118D01*
X165250777Y-98254861D01*
X165219021Y-98136347D01*
X165219021Y-98013653D01*
X165250777Y-97895139D01*
X165312124Y-97788882D01*
X165398882Y-97702124D01*
X165505139Y-97640777D01*
X165623653Y-97609021D01*
X165685000Y-97605000D01*
X166485000Y-97605000D01*
X166546347Y-97609021D01*
G37*
G36*
X145061355Y-98087231D02*
G01*
X145092175Y-98107825D01*
X145112769Y-98138645D01*
X145120000Y-98175000D01*
X145120000Y-98325000D01*
X145112769Y-98361355D01*
X145092175Y-98392175D01*
X145061355Y-98412769D01*
X145025000Y-98420000D01*
X143625000Y-98420000D01*
X143588645Y-98412769D01*
X143557825Y-98392175D01*
X143537231Y-98361355D01*
X143530000Y-98325000D01*
X143530000Y-98175000D01*
X143537231Y-98138645D01*
X143557825Y-98107825D01*
X143588645Y-98087231D01*
X143625000Y-98080000D01*
X145025000Y-98080000D01*
X145061355Y-98087231D01*
G37*
G36*
X156411355Y-98087231D02*
G01*
X156442175Y-98107825D01*
X156462769Y-98138645D01*
X156470000Y-98175000D01*
X156470000Y-98325000D01*
X156462769Y-98361355D01*
X156442175Y-98392175D01*
X156411355Y-98412769D01*
X156375000Y-98420000D01*
X154975000Y-98420000D01*
X154938645Y-98412769D01*
X154907825Y-98392175D01*
X154887231Y-98361355D01*
X154880000Y-98325000D01*
X154880000Y-98175000D01*
X154887231Y-98138645D01*
X154907825Y-98107825D01*
X154938645Y-98087231D01*
X154975000Y-98080000D01*
X156375000Y-98080000D01*
X156411355Y-98087231D01*
G37*
G36*
X132406411Y-95431275D02*
G01*
X132468664Y-95439471D01*
X132484324Y-95446773D01*
X132503325Y-95450553D01*
X132528491Y-95467368D01*
X132554422Y-95479460D01*
X132570197Y-95495235D01*
X132590919Y-95509081D01*
X132604764Y-95529802D01*
X132620539Y-95545577D01*
X132632629Y-95571505D01*
X132649447Y-95596675D01*
X132653226Y-95615677D01*
X132660528Y-95631335D01*
X132668722Y-95693575D01*
X132670000Y-95700000D01*
X132670000Y-97700000D01*
X132668721Y-97706426D01*
X132660528Y-97768664D01*
X132653227Y-97784320D01*
X132649447Y-97803325D01*
X132632628Y-97828496D01*
X132620539Y-97854422D01*
X132604766Y-97870194D01*
X132590919Y-97890919D01*
X132570194Y-97904766D01*
X132554422Y-97920539D01*
X132528496Y-97932628D01*
X132503325Y-97949447D01*
X132484320Y-97953227D01*
X132468664Y-97960528D01*
X132406426Y-97968721D01*
X132400000Y-97970000D01*
X131100000Y-97970000D01*
X131093575Y-97968722D01*
X131031335Y-97960528D01*
X131015677Y-97953226D01*
X130996675Y-97949447D01*
X130971505Y-97932629D01*
X130945577Y-97920539D01*
X130929802Y-97904764D01*
X130909081Y-97890919D01*
X130895235Y-97870197D01*
X130879460Y-97854422D01*
X130867368Y-97828491D01*
X130850553Y-97803325D01*
X130846773Y-97784324D01*
X130839471Y-97768664D01*
X130831275Y-97706411D01*
X130830000Y-97700000D01*
X130830000Y-95700000D01*
X130831275Y-95693590D01*
X130839471Y-95631335D01*
X130846773Y-95615673D01*
X130850553Y-95596675D01*
X130867367Y-95571510D01*
X130879460Y-95545577D01*
X130895237Y-95529799D01*
X130909081Y-95509081D01*
X130929799Y-95495237D01*
X130945577Y-95479460D01*
X130971510Y-95467367D01*
X130996675Y-95450553D01*
X131015673Y-95446773D01*
X131031335Y-95439471D01*
X131093590Y-95431275D01*
X131100000Y-95430000D01*
X132400000Y-95430000D01*
X132406411Y-95431275D01*
G37*
G36*
X145061355Y-97587231D02*
G01*
X145092175Y-97607825D01*
X145112769Y-97638645D01*
X145120000Y-97675000D01*
X145120000Y-97825000D01*
X145112769Y-97861355D01*
X145092175Y-97892175D01*
X145061355Y-97912769D01*
X145025000Y-97920000D01*
X143625000Y-97920000D01*
X143588645Y-97912769D01*
X143557825Y-97892175D01*
X143537231Y-97861355D01*
X143530000Y-97825000D01*
X143530000Y-97675000D01*
X143537231Y-97638645D01*
X143557825Y-97607825D01*
X143588645Y-97587231D01*
X143625000Y-97580000D01*
X145025000Y-97580000D01*
X145061355Y-97587231D01*
G37*
G36*
X156411355Y-97587231D02*
G01*
X156442175Y-97607825D01*
X156462769Y-97638645D01*
X156470000Y-97675000D01*
X156470000Y-97825000D01*
X156462769Y-97861355D01*
X156442175Y-97892175D01*
X156411355Y-97912769D01*
X156375000Y-97920000D01*
X154975000Y-97920000D01*
X154938645Y-97912769D01*
X154907825Y-97892175D01*
X154887231Y-97861355D01*
X154880000Y-97825000D01*
X154880000Y-97675000D01*
X154887231Y-97638645D01*
X154907825Y-97607825D01*
X154938645Y-97587231D01*
X154975000Y-97580000D01*
X156375000Y-97580000D01*
X156411355Y-97587231D01*
G37*
G36*
X135457731Y-92137758D02*
G01*
X135463608Y-92139814D01*
X135468634Y-92140355D01*
X135521456Y-92160056D01*
X135582935Y-92181569D01*
X135586818Y-92184435D01*
X135588019Y-92184883D01*
X135629498Y-92215933D01*
X135689663Y-92260337D01*
X135734083Y-92320525D01*
X135765116Y-92361980D01*
X135765563Y-92363179D01*
X135768431Y-92367065D01*
X135789953Y-92428571D01*
X135809644Y-92481365D01*
X135810183Y-92486387D01*
X135812242Y-92492269D01*
X135820000Y-92575000D01*
X135820000Y-97425000D01*
X135812242Y-97507731D01*
X135810183Y-97513612D01*
X135809644Y-97518634D01*
X135789958Y-97571412D01*
X135768431Y-97632935D01*
X135765562Y-97636821D01*
X135765116Y-97638019D01*
X135734135Y-97679403D01*
X135689663Y-97739663D01*
X135629403Y-97784135D01*
X135588019Y-97815116D01*
X135586821Y-97815562D01*
X135582935Y-97818431D01*
X135521412Y-97839958D01*
X135468634Y-97859644D01*
X135463612Y-97860183D01*
X135457731Y-97862242D01*
X135375000Y-97870000D01*
X134525000Y-97870000D01*
X134442269Y-97862242D01*
X134436387Y-97860183D01*
X134431365Y-97859644D01*
X134378571Y-97839953D01*
X134317065Y-97818431D01*
X134313179Y-97815563D01*
X134311980Y-97815116D01*
X134270525Y-97784083D01*
X134210337Y-97739663D01*
X134165933Y-97679498D01*
X134134883Y-97638019D01*
X134134435Y-97636818D01*
X134131569Y-97632935D01*
X134110056Y-97571456D01*
X134090355Y-97518634D01*
X134089814Y-97513608D01*
X134087758Y-97507731D01*
X134080000Y-97425000D01*
X134080000Y-92575000D01*
X134087758Y-92492269D01*
X134089814Y-92486391D01*
X134090355Y-92481365D01*
X134110062Y-92428527D01*
X134131569Y-92367065D01*
X134134434Y-92363182D01*
X134134883Y-92361980D01*
X134165986Y-92320430D01*
X134210337Y-92260337D01*
X134270430Y-92215986D01*
X134311980Y-92184883D01*
X134313182Y-92184434D01*
X134317065Y-92181569D01*
X134378527Y-92160062D01*
X134431365Y-92140355D01*
X134436391Y-92139814D01*
X134442269Y-92137758D01*
X134525000Y-92130000D01*
X135375000Y-92130000D01*
X135457731Y-92137758D01*
G37*
G36*
X139957731Y-92137758D02*
G01*
X139963608Y-92139814D01*
X139968634Y-92140355D01*
X140021456Y-92160056D01*
X140082935Y-92181569D01*
X140086818Y-92184435D01*
X140088019Y-92184883D01*
X140129498Y-92215933D01*
X140189663Y-92260337D01*
X140234083Y-92320525D01*
X140265116Y-92361980D01*
X140265563Y-92363179D01*
X140268431Y-92367065D01*
X140289953Y-92428571D01*
X140309644Y-92481365D01*
X140310183Y-92486387D01*
X140312242Y-92492269D01*
X140320000Y-92575000D01*
X140320000Y-97425000D01*
X140312242Y-97507731D01*
X140310183Y-97513612D01*
X140309644Y-97518634D01*
X140289958Y-97571412D01*
X140268431Y-97632935D01*
X140265562Y-97636821D01*
X140265116Y-97638019D01*
X140234135Y-97679403D01*
X140189663Y-97739663D01*
X140129403Y-97784135D01*
X140088019Y-97815116D01*
X140086821Y-97815562D01*
X140082935Y-97818431D01*
X140021412Y-97839958D01*
X139968634Y-97859644D01*
X139963612Y-97860183D01*
X139957731Y-97862242D01*
X139875000Y-97870000D01*
X139025000Y-97870000D01*
X138942269Y-97862242D01*
X138936387Y-97860183D01*
X138931365Y-97859644D01*
X138878571Y-97839953D01*
X138817065Y-97818431D01*
X138813179Y-97815563D01*
X138811980Y-97815116D01*
X138770525Y-97784083D01*
X138710337Y-97739663D01*
X138665933Y-97679498D01*
X138634883Y-97638019D01*
X138634435Y-97636818D01*
X138631569Y-97632935D01*
X138610056Y-97571456D01*
X138590355Y-97518634D01*
X138589814Y-97513608D01*
X138587758Y-97507731D01*
X138580000Y-97425000D01*
X138580000Y-92575000D01*
X138587758Y-92492269D01*
X138589814Y-92486391D01*
X138590355Y-92481365D01*
X138610062Y-92428527D01*
X138631569Y-92367065D01*
X138634434Y-92363182D01*
X138634883Y-92361980D01*
X138665986Y-92320430D01*
X138710337Y-92260337D01*
X138770430Y-92215986D01*
X138811980Y-92184883D01*
X138813182Y-92184434D01*
X138817065Y-92181569D01*
X138878527Y-92160062D01*
X138931365Y-92140355D01*
X138936391Y-92139814D01*
X138942269Y-92137758D01*
X139025000Y-92130000D01*
X139875000Y-92130000D01*
X139957731Y-92137758D01*
G37*
G36*
X145061355Y-97087231D02*
G01*
X145092175Y-97107825D01*
X145112769Y-97138645D01*
X145120000Y-97175000D01*
X145120000Y-97325000D01*
X145112769Y-97361355D01*
X145092175Y-97392175D01*
X145061355Y-97412769D01*
X145025000Y-97420000D01*
X143625000Y-97420000D01*
X143588645Y-97412769D01*
X143557825Y-97392175D01*
X143537231Y-97361355D01*
X143530000Y-97325000D01*
X143530000Y-97175000D01*
X143537231Y-97138645D01*
X143557825Y-97107825D01*
X143588645Y-97087231D01*
X143625000Y-97080000D01*
X145025000Y-97080000D01*
X145061355Y-97087231D01*
G37*
G36*
X156411355Y-97087231D02*
G01*
X156442175Y-97107825D01*
X156462769Y-97138645D01*
X156470000Y-97175000D01*
X156470000Y-97325000D01*
X156462769Y-97361355D01*
X156442175Y-97392175D01*
X156411355Y-97412769D01*
X156375000Y-97420000D01*
X154975000Y-97420000D01*
X154938645Y-97412769D01*
X154907825Y-97392175D01*
X154887231Y-97361355D01*
X154880000Y-97325000D01*
X154880000Y-97175000D01*
X154887231Y-97138645D01*
X154907825Y-97107825D01*
X154938645Y-97087231D01*
X154975000Y-97080000D01*
X156375000Y-97080000D01*
X156411355Y-97087231D01*
G37*
G36*
X161866593Y-96383165D02*
G01*
X161950242Y-96431459D01*
X162018541Y-96499758D01*
X162066835Y-96583407D01*
X162091835Y-96676705D01*
X162091835Y-96773295D01*
X162066835Y-96866593D01*
X162018541Y-96950242D01*
X161950242Y-97018541D01*
X161866593Y-97066835D01*
X161773295Y-97091835D01*
X161676705Y-97091835D01*
X161583407Y-97066835D01*
X161499758Y-97018541D01*
X161431459Y-96950242D01*
X161383165Y-96866593D01*
X161358165Y-96773295D01*
X161358165Y-96676705D01*
X161383165Y-96583407D01*
X161431459Y-96499758D01*
X161499758Y-96431459D01*
X161583407Y-96383165D01*
X161676705Y-96358165D01*
X161773295Y-96358165D01*
X161866593Y-96383165D01*
G37*
G36*
X163216593Y-96383165D02*
G01*
X163300242Y-96431459D01*
X163368541Y-96499758D01*
X163416835Y-96583407D01*
X163441835Y-96676705D01*
X163441835Y-96773295D01*
X163416835Y-96866593D01*
X163368541Y-96950242D01*
X163300242Y-97018541D01*
X163216593Y-97066835D01*
X163123295Y-97091835D01*
X163026705Y-97091835D01*
X162933407Y-97066835D01*
X162849758Y-97018541D01*
X162781459Y-96950242D01*
X162733165Y-96866593D01*
X162708165Y-96773295D01*
X162708165Y-96676705D01*
X162733165Y-96583407D01*
X162781459Y-96499758D01*
X162849758Y-96431459D01*
X162933407Y-96383165D01*
X163026705Y-96358165D01*
X163123295Y-96358165D01*
X163216593Y-96383165D01*
G37*
G36*
X145061355Y-96587231D02*
G01*
X145092175Y-96607825D01*
X145112769Y-96638645D01*
X145120000Y-96675000D01*
X145120000Y-96825000D01*
X145112769Y-96861355D01*
X145092175Y-96892175D01*
X145061355Y-96912769D01*
X145025000Y-96920000D01*
X143625000Y-96920000D01*
X143588645Y-96912769D01*
X143557825Y-96892175D01*
X143537231Y-96861355D01*
X143530000Y-96825000D01*
X143530000Y-96675000D01*
X143537231Y-96638645D01*
X143557825Y-96607825D01*
X143588645Y-96587231D01*
X143625000Y-96580000D01*
X145025000Y-96580000D01*
X145061355Y-96587231D01*
G37*
G36*
X156411355Y-96587231D02*
G01*
X156442175Y-96607825D01*
X156462769Y-96638645D01*
X156470000Y-96675000D01*
X156470000Y-96825000D01*
X156462769Y-96861355D01*
X156442175Y-96892175D01*
X156411355Y-96912769D01*
X156375000Y-96920000D01*
X154975000Y-96920000D01*
X154938645Y-96912769D01*
X154907825Y-96892175D01*
X154887231Y-96861355D01*
X154880000Y-96825000D01*
X154880000Y-96675000D01*
X154887231Y-96638645D01*
X154907825Y-96607825D01*
X154938645Y-96587231D01*
X154975000Y-96580000D01*
X156375000Y-96580000D01*
X156411355Y-96587231D01*
G37*
G36*
X145061355Y-96087231D02*
G01*
X145092175Y-96107825D01*
X145112769Y-96138645D01*
X145120000Y-96175000D01*
X145120000Y-96325000D01*
X145112769Y-96361355D01*
X145092175Y-96392175D01*
X145061355Y-96412769D01*
X145025000Y-96420000D01*
X143625000Y-96420000D01*
X143588645Y-96412769D01*
X143557825Y-96392175D01*
X143537231Y-96361355D01*
X143530000Y-96325000D01*
X143530000Y-96175000D01*
X143537231Y-96138645D01*
X143557825Y-96107825D01*
X143588645Y-96087231D01*
X143625000Y-96080000D01*
X145025000Y-96080000D01*
X145061355Y-96087231D01*
G37*
G36*
X156411355Y-96087231D02*
G01*
X156442175Y-96107825D01*
X156462769Y-96138645D01*
X156470000Y-96175000D01*
X156470000Y-96325000D01*
X156462769Y-96361355D01*
X156442175Y-96392175D01*
X156411355Y-96412769D01*
X156375000Y-96420000D01*
X154975000Y-96420000D01*
X154938645Y-96412769D01*
X154907825Y-96392175D01*
X154887231Y-96361355D01*
X154880000Y-96325000D01*
X154880000Y-96175000D01*
X154887231Y-96138645D01*
X154907825Y-96107825D01*
X154938645Y-96087231D01*
X154975000Y-96080000D01*
X156375000Y-96080000D01*
X156411355Y-96087231D01*
G37*
G36*
X161866593Y-95533165D02*
G01*
X161950242Y-95581459D01*
X162018541Y-95649758D01*
X162066835Y-95733407D01*
X162091835Y-95826705D01*
X162091835Y-95923295D01*
X162066835Y-96016593D01*
X162018541Y-96100242D01*
X161950242Y-96168541D01*
X161866593Y-96216835D01*
X161773295Y-96241835D01*
X161676705Y-96241835D01*
X161583407Y-96216835D01*
X161499758Y-96168541D01*
X161431459Y-96100242D01*
X161383165Y-96016593D01*
X161358165Y-95923295D01*
X161358165Y-95826705D01*
X161383165Y-95733407D01*
X161431459Y-95649758D01*
X161499758Y-95581459D01*
X161583407Y-95533165D01*
X161676705Y-95508165D01*
X161773295Y-95508165D01*
X161866593Y-95533165D01*
G37*
G36*
X163216593Y-95533165D02*
G01*
X163300242Y-95581459D01*
X163368541Y-95649758D01*
X163416835Y-95733407D01*
X163441835Y-95826705D01*
X163441835Y-95923295D01*
X163416835Y-96016593D01*
X163368541Y-96100242D01*
X163300242Y-96168541D01*
X163216593Y-96216835D01*
X163123295Y-96241835D01*
X163026705Y-96241835D01*
X162933407Y-96216835D01*
X162849758Y-96168541D01*
X162781459Y-96100242D01*
X162733165Y-96016593D01*
X162708165Y-95923295D01*
X162708165Y-95826705D01*
X162733165Y-95733407D01*
X162781459Y-95649758D01*
X162849758Y-95581459D01*
X162933407Y-95533165D01*
X163026705Y-95508165D01*
X163123295Y-95508165D01*
X163216593Y-95533165D01*
G37*
G36*
X145061355Y-95587231D02*
G01*
X145092175Y-95607825D01*
X145112769Y-95638645D01*
X145120000Y-95675000D01*
X145120000Y-95825000D01*
X145112769Y-95861355D01*
X145092175Y-95892175D01*
X145061355Y-95912769D01*
X145025000Y-95920000D01*
X143625000Y-95920000D01*
X143588645Y-95912769D01*
X143557825Y-95892175D01*
X143537231Y-95861355D01*
X143530000Y-95825000D01*
X143530000Y-95675000D01*
X143537231Y-95638645D01*
X143557825Y-95607825D01*
X143588645Y-95587231D01*
X143625000Y-95580000D01*
X145025000Y-95580000D01*
X145061355Y-95587231D01*
G37*
G36*
X156411355Y-95587231D02*
G01*
X156442175Y-95607825D01*
X156462769Y-95638645D01*
X156470000Y-95675000D01*
X156470000Y-95825000D01*
X156462769Y-95861355D01*
X156442175Y-95892175D01*
X156411355Y-95912769D01*
X156375000Y-95920000D01*
X154975000Y-95920000D01*
X154938645Y-95912769D01*
X154907825Y-95892175D01*
X154887231Y-95861355D01*
X154880000Y-95825000D01*
X154880000Y-95675000D01*
X154887231Y-95638645D01*
X154907825Y-95607825D01*
X154938645Y-95587231D01*
X154975000Y-95580000D01*
X156375000Y-95580000D01*
X156411355Y-95587231D01*
G37*
G36*
X159056411Y-94781275D02*
G01*
X159118664Y-94789471D01*
X159134324Y-94796773D01*
X159153325Y-94800553D01*
X159178491Y-94817368D01*
X159204422Y-94829460D01*
X159220197Y-94845235D01*
X159240919Y-94859081D01*
X159254764Y-94879802D01*
X159270539Y-94895577D01*
X159282629Y-94921505D01*
X159299447Y-94946675D01*
X159303226Y-94965677D01*
X159310528Y-94981335D01*
X159318722Y-95043575D01*
X159320000Y-95050000D01*
X159320000Y-95650000D01*
X159318721Y-95656426D01*
X159310528Y-95718664D01*
X159303227Y-95734320D01*
X159299447Y-95753325D01*
X159282628Y-95778496D01*
X159270539Y-95804422D01*
X159254766Y-95820194D01*
X159240919Y-95840919D01*
X159220194Y-95854766D01*
X159204422Y-95870539D01*
X159178496Y-95882628D01*
X159153325Y-95899447D01*
X159134320Y-95903227D01*
X159118664Y-95910528D01*
X159056426Y-95918721D01*
X159050000Y-95920000D01*
X158450000Y-95920000D01*
X158443575Y-95918722D01*
X158381335Y-95910528D01*
X158365677Y-95903226D01*
X158346675Y-95899447D01*
X158321505Y-95882629D01*
X158295577Y-95870539D01*
X158279802Y-95854764D01*
X158259081Y-95840919D01*
X158245235Y-95820197D01*
X158229460Y-95804422D01*
X158217368Y-95778491D01*
X158200553Y-95753325D01*
X158196773Y-95734324D01*
X158189471Y-95718664D01*
X158181275Y-95656411D01*
X158180000Y-95650000D01*
X158180000Y-95050000D01*
X158181275Y-95043590D01*
X158189471Y-94981335D01*
X158196773Y-94965673D01*
X158200553Y-94946675D01*
X158217367Y-94921510D01*
X158229460Y-94895577D01*
X158245237Y-94879799D01*
X158259081Y-94859081D01*
X158279799Y-94845237D01*
X158295577Y-94829460D01*
X158321510Y-94817367D01*
X158346675Y-94800553D01*
X158365673Y-94796773D01*
X158381335Y-94789471D01*
X158443590Y-94781275D01*
X158450000Y-94780000D01*
X159050000Y-94780000D01*
X159056411Y-94781275D01*
G37*
G36*
X145061355Y-95087231D02*
G01*
X145092175Y-95107825D01*
X145112769Y-95138645D01*
X145120000Y-95175000D01*
X145120000Y-95325000D01*
X145112769Y-95361355D01*
X145092175Y-95392175D01*
X145061355Y-95412769D01*
X145025000Y-95420000D01*
X143625000Y-95420000D01*
X143588645Y-95412769D01*
X143557825Y-95392175D01*
X143537231Y-95361355D01*
X143530000Y-95325000D01*
X143530000Y-95175000D01*
X143537231Y-95138645D01*
X143557825Y-95107825D01*
X143588645Y-95087231D01*
X143625000Y-95080000D01*
X145025000Y-95080000D01*
X145061355Y-95087231D01*
G37*
G36*
X156411355Y-95087231D02*
G01*
X156442175Y-95107825D01*
X156462769Y-95138645D01*
X156470000Y-95175000D01*
X156470000Y-95325000D01*
X156462769Y-95361355D01*
X156442175Y-95392175D01*
X156411355Y-95412769D01*
X156375000Y-95420000D01*
X154975000Y-95420000D01*
X154938645Y-95412769D01*
X154907825Y-95392175D01*
X154887231Y-95361355D01*
X154880000Y-95325000D01*
X154880000Y-95175000D01*
X154887231Y-95138645D01*
X154907825Y-95107825D01*
X154938645Y-95087231D01*
X154975000Y-95080000D01*
X156375000Y-95080000D01*
X156411355Y-95087231D01*
G37*
G36*
X161866593Y-94683165D02*
G01*
X161950242Y-94731459D01*
X162018541Y-94799758D01*
X162066835Y-94883407D01*
X162091835Y-94976705D01*
X162091835Y-95073295D01*
X162066835Y-95166593D01*
X162018541Y-95250242D01*
X161950242Y-95318541D01*
X161866593Y-95366835D01*
X161773295Y-95391835D01*
X161676705Y-95391835D01*
X161583407Y-95366835D01*
X161499758Y-95318541D01*
X161431459Y-95250242D01*
X161383165Y-95166593D01*
X161358165Y-95073295D01*
X161358165Y-94976705D01*
X161383165Y-94883407D01*
X161431459Y-94799758D01*
X161499758Y-94731459D01*
X161583407Y-94683165D01*
X161676705Y-94658165D01*
X161773295Y-94658165D01*
X161866593Y-94683165D01*
G37*
G36*
X163216593Y-94683165D02*
G01*
X163300242Y-94731459D01*
X163368541Y-94799758D01*
X163416835Y-94883407D01*
X163441835Y-94976705D01*
X163441835Y-95073295D01*
X163416835Y-95166593D01*
X163368541Y-95250242D01*
X163300242Y-95318541D01*
X163216593Y-95366835D01*
X163123295Y-95391835D01*
X163026705Y-95391835D01*
X162933407Y-95366835D01*
X162849758Y-95318541D01*
X162781459Y-95250242D01*
X162733165Y-95166593D01*
X162708165Y-95073295D01*
X162708165Y-94976705D01*
X162733165Y-94883407D01*
X162781459Y-94799758D01*
X162849758Y-94731459D01*
X162933407Y-94683165D01*
X163026705Y-94658165D01*
X163123295Y-94658165D01*
X163216593Y-94683165D01*
G37*
G36*
X145061355Y-94587231D02*
G01*
X145092175Y-94607825D01*
X145112769Y-94638645D01*
X145120000Y-94675000D01*
X145120000Y-94825000D01*
X145112769Y-94861355D01*
X145092175Y-94892175D01*
X145061355Y-94912769D01*
X145025000Y-94920000D01*
X143625000Y-94920000D01*
X143588645Y-94912769D01*
X143557825Y-94892175D01*
X143537231Y-94861355D01*
X143530000Y-94825000D01*
X143530000Y-94675000D01*
X143537231Y-94638645D01*
X143557825Y-94607825D01*
X143588645Y-94587231D01*
X143625000Y-94580000D01*
X145025000Y-94580000D01*
X145061355Y-94587231D01*
G37*
G36*
X156411355Y-94587231D02*
G01*
X156442175Y-94607825D01*
X156462769Y-94638645D01*
X156470000Y-94675000D01*
X156470000Y-94825000D01*
X156462769Y-94861355D01*
X156442175Y-94892175D01*
X156411355Y-94912769D01*
X156375000Y-94920000D01*
X154975000Y-94920000D01*
X154938645Y-94912769D01*
X154907825Y-94892175D01*
X154887231Y-94861355D01*
X154880000Y-94825000D01*
X154880000Y-94675000D01*
X154887231Y-94638645D01*
X154907825Y-94607825D01*
X154938645Y-94587231D01*
X154975000Y-94580000D01*
X156375000Y-94580000D01*
X156411355Y-94587231D01*
G37*
G36*
X161866593Y-93833165D02*
G01*
X161950242Y-93881459D01*
X162018541Y-93949758D01*
X162066835Y-94033407D01*
X162091835Y-94126705D01*
X162091835Y-94223295D01*
X162066835Y-94316593D01*
X162018541Y-94400242D01*
X161950242Y-94468541D01*
X161866593Y-94516835D01*
X161773295Y-94541835D01*
X161676705Y-94541835D01*
X161583407Y-94516835D01*
X161499758Y-94468541D01*
X161431459Y-94400242D01*
X161383165Y-94316593D01*
X161358165Y-94223295D01*
X161358165Y-94126705D01*
X161383165Y-94033407D01*
X161431459Y-93949758D01*
X161499758Y-93881459D01*
X161583407Y-93833165D01*
X161676705Y-93808165D01*
X161773295Y-93808165D01*
X161866593Y-93833165D01*
G37*
G36*
X163216593Y-93833165D02*
G01*
X163300242Y-93881459D01*
X163368541Y-93949758D01*
X163416835Y-94033407D01*
X163441835Y-94126705D01*
X163441835Y-94223295D01*
X163416835Y-94316593D01*
X163368541Y-94400242D01*
X163300242Y-94468541D01*
X163216593Y-94516835D01*
X163123295Y-94541835D01*
X163026705Y-94541835D01*
X162933407Y-94516835D01*
X162849758Y-94468541D01*
X162781459Y-94400242D01*
X162733165Y-94316593D01*
X162708165Y-94223295D01*
X162708165Y-94126705D01*
X162733165Y-94033407D01*
X162781459Y-93949758D01*
X162849758Y-93881459D01*
X162933407Y-93833165D01*
X163026705Y-93808165D01*
X163123295Y-93808165D01*
X163216593Y-93833165D01*
G37*
G36*
X145061355Y-94087231D02*
G01*
X145092175Y-94107825D01*
X145112769Y-94138645D01*
X145120000Y-94175000D01*
X145120000Y-94325000D01*
X145112769Y-94361355D01*
X145092175Y-94392175D01*
X145061355Y-94412769D01*
X145025000Y-94420000D01*
X143625000Y-94420000D01*
X143588645Y-94412769D01*
X143557825Y-94392175D01*
X143537231Y-94361355D01*
X143530000Y-94325000D01*
X143530000Y-94175000D01*
X143537231Y-94138645D01*
X143557825Y-94107825D01*
X143588645Y-94087231D01*
X143625000Y-94080000D01*
X145025000Y-94080000D01*
X145061355Y-94087231D01*
G37*
G36*
X156411355Y-94087231D02*
G01*
X156442175Y-94107825D01*
X156462769Y-94138645D01*
X156470000Y-94175000D01*
X156470000Y-94325000D01*
X156462769Y-94361355D01*
X156442175Y-94392175D01*
X156411355Y-94412769D01*
X156375000Y-94420000D01*
X154975000Y-94420000D01*
X154938645Y-94412769D01*
X154907825Y-94392175D01*
X154887231Y-94361355D01*
X154880000Y-94325000D01*
X154880000Y-94175000D01*
X154887231Y-94138645D01*
X154907825Y-94107825D01*
X154938645Y-94087231D01*
X154975000Y-94080000D01*
X156375000Y-94080000D01*
X156411355Y-94087231D01*
G37*
G36*
X132406411Y-91431275D02*
G01*
X132468664Y-91439471D01*
X132484324Y-91446773D01*
X132503325Y-91450553D01*
X132528491Y-91467368D01*
X132554422Y-91479460D01*
X132570197Y-91495235D01*
X132590919Y-91509081D01*
X132604764Y-91529802D01*
X132620539Y-91545577D01*
X132632629Y-91571505D01*
X132649447Y-91596675D01*
X132653226Y-91615677D01*
X132660528Y-91631335D01*
X132668722Y-91693575D01*
X132670000Y-91700000D01*
X132670000Y-93700000D01*
X132668721Y-93706426D01*
X132660528Y-93768664D01*
X132653227Y-93784320D01*
X132649447Y-93803325D01*
X132632628Y-93828496D01*
X132620539Y-93854422D01*
X132604766Y-93870194D01*
X132590919Y-93890919D01*
X132570194Y-93904766D01*
X132554422Y-93920539D01*
X132528496Y-93932628D01*
X132503325Y-93949447D01*
X132484320Y-93953227D01*
X132468664Y-93960528D01*
X132406426Y-93968721D01*
X132400000Y-93970000D01*
X131100000Y-93970000D01*
X131093575Y-93968722D01*
X131031335Y-93960528D01*
X131015677Y-93953226D01*
X130996675Y-93949447D01*
X130971505Y-93932629D01*
X130945577Y-93920539D01*
X130929802Y-93904764D01*
X130909081Y-93890919D01*
X130895235Y-93870197D01*
X130879460Y-93854422D01*
X130867368Y-93828491D01*
X130850553Y-93803325D01*
X130846773Y-93784324D01*
X130839471Y-93768664D01*
X130831275Y-93706411D01*
X130830000Y-93700000D01*
X130830000Y-91700000D01*
X130831275Y-91693590D01*
X130839471Y-91631335D01*
X130846773Y-91615673D01*
X130850553Y-91596675D01*
X130867367Y-91571510D01*
X130879460Y-91545577D01*
X130895237Y-91529799D01*
X130909081Y-91509081D01*
X130929799Y-91495237D01*
X130945577Y-91479460D01*
X130971510Y-91467367D01*
X130996675Y-91450553D01*
X131015673Y-91446773D01*
X131031335Y-91439471D01*
X131093590Y-91431275D01*
X131100000Y-91430000D01*
X132400000Y-91430000D01*
X132406411Y-91431275D01*
G37*
G36*
X145061355Y-93587231D02*
G01*
X145092175Y-93607825D01*
X145112769Y-93638645D01*
X145120000Y-93675000D01*
X145120000Y-93825000D01*
X145112769Y-93861355D01*
X145092175Y-93892175D01*
X145061355Y-93912769D01*
X145025000Y-93920000D01*
X143625000Y-93920000D01*
X143588645Y-93912769D01*
X143557825Y-93892175D01*
X143537231Y-93861355D01*
X143530000Y-93825000D01*
X143530000Y-93675000D01*
X143537231Y-93638645D01*
X143557825Y-93607825D01*
X143588645Y-93587231D01*
X143625000Y-93580000D01*
X145025000Y-93580000D01*
X145061355Y-93587231D01*
G37*
G36*
X156411355Y-93587231D02*
G01*
X156442175Y-93607825D01*
X156462769Y-93638645D01*
X156470000Y-93675000D01*
X156470000Y-93825000D01*
X156462769Y-93861355D01*
X156442175Y-93892175D01*
X156411355Y-93912769D01*
X156375000Y-93920000D01*
X154975000Y-93920000D01*
X154938645Y-93912769D01*
X154907825Y-93892175D01*
X154887231Y-93861355D01*
X154880000Y-93825000D01*
X154880000Y-93675000D01*
X154887231Y-93638645D01*
X154907825Y-93607825D01*
X154938645Y-93587231D01*
X154975000Y-93580000D01*
X156375000Y-93580000D01*
X156411355Y-93587231D01*
G37*
G36*
X161866593Y-92983165D02*
G01*
X161950242Y-93031459D01*
X162018541Y-93099758D01*
X162066835Y-93183407D01*
X162091835Y-93276705D01*
X162091835Y-93373295D01*
X162066835Y-93466593D01*
X162018541Y-93550242D01*
X161950242Y-93618541D01*
X161866593Y-93666835D01*
X161773295Y-93691835D01*
X161676705Y-93691835D01*
X161583407Y-93666835D01*
X161499758Y-93618541D01*
X161431459Y-93550242D01*
X161383165Y-93466593D01*
X161358165Y-93373295D01*
X161358165Y-93276705D01*
X161383165Y-93183407D01*
X161431459Y-93099758D01*
X161499758Y-93031459D01*
X161583407Y-92983165D01*
X161676705Y-92958165D01*
X161773295Y-92958165D01*
X161866593Y-92983165D01*
G37*
G36*
X163216593Y-92983165D02*
G01*
X163300242Y-93031459D01*
X163368541Y-93099758D01*
X163416835Y-93183407D01*
X163441835Y-93276705D01*
X163441835Y-93373295D01*
X163416835Y-93466593D01*
X163368541Y-93550242D01*
X163300242Y-93618541D01*
X163216593Y-93666835D01*
X163123295Y-93691835D01*
X163026705Y-93691835D01*
X162933407Y-93666835D01*
X162849758Y-93618541D01*
X162781459Y-93550242D01*
X162733165Y-93466593D01*
X162708165Y-93373295D01*
X162708165Y-93276705D01*
X162733165Y-93183407D01*
X162781459Y-93099758D01*
X162849758Y-93031459D01*
X162933407Y-92983165D01*
X163026705Y-92958165D01*
X163123295Y-92958165D01*
X163216593Y-92983165D01*
G37*
G36*
X145061355Y-93087231D02*
G01*
X145092175Y-93107825D01*
X145112769Y-93138645D01*
X145120000Y-93175000D01*
X145120000Y-93325000D01*
X145112769Y-93361355D01*
X145092175Y-93392175D01*
X145061355Y-93412769D01*
X145025000Y-93420000D01*
X143625000Y-93420000D01*
X143588645Y-93412769D01*
X143557825Y-93392175D01*
X143537231Y-93361355D01*
X143530000Y-93325000D01*
X143530000Y-93175000D01*
X143537231Y-93138645D01*
X143557825Y-93107825D01*
X143588645Y-93087231D01*
X143625000Y-93080000D01*
X145025000Y-93080000D01*
X145061355Y-93087231D01*
G37*
G36*
X156411355Y-93087231D02*
G01*
X156442175Y-93107825D01*
X156462769Y-93138645D01*
X156470000Y-93175000D01*
X156470000Y-93325000D01*
X156462769Y-93361355D01*
X156442175Y-93392175D01*
X156411355Y-93412769D01*
X156375000Y-93420000D01*
X154975000Y-93420000D01*
X154938645Y-93412769D01*
X154907825Y-93392175D01*
X154887231Y-93361355D01*
X154880000Y-93325000D01*
X154880000Y-93175000D01*
X154887231Y-93138645D01*
X154907825Y-93107825D01*
X154938645Y-93087231D01*
X154975000Y-93080000D01*
X156375000Y-93080000D01*
X156411355Y-93087231D01*
G37*
G36*
X145061355Y-92587231D02*
G01*
X145092175Y-92607825D01*
X145112769Y-92638645D01*
X145120000Y-92675000D01*
X145120000Y-92825000D01*
X145112769Y-92861355D01*
X145092175Y-92892175D01*
X145061355Y-92912769D01*
X145025000Y-92920000D01*
X143625000Y-92920000D01*
X143588645Y-92912769D01*
X143557825Y-92892175D01*
X143537231Y-92861355D01*
X143530000Y-92825000D01*
X143530000Y-92675000D01*
X143537231Y-92638645D01*
X143557825Y-92607825D01*
X143588645Y-92587231D01*
X143625000Y-92580000D01*
X145025000Y-92580000D01*
X145061355Y-92587231D01*
G37*
G36*
X156411355Y-92587231D02*
G01*
X156442175Y-92607825D01*
X156462769Y-92638645D01*
X156470000Y-92675000D01*
X156470000Y-92825000D01*
X156462769Y-92861355D01*
X156442175Y-92892175D01*
X156411355Y-92912769D01*
X156375000Y-92920000D01*
X154975000Y-92920000D01*
X154938645Y-92912769D01*
X154907825Y-92892175D01*
X154887231Y-92861355D01*
X154880000Y-92825000D01*
X154880000Y-92675000D01*
X154887231Y-92638645D01*
X154907825Y-92607825D01*
X154938645Y-92587231D01*
X154975000Y-92580000D01*
X156375000Y-92580000D01*
X156411355Y-92587231D01*
G37*
G36*
X161866593Y-92133165D02*
G01*
X161950242Y-92181459D01*
X162018541Y-92249758D01*
X162066835Y-92333407D01*
X162091835Y-92426705D01*
X162091835Y-92523295D01*
X162066835Y-92616593D01*
X162018541Y-92700242D01*
X161950242Y-92768541D01*
X161866593Y-92816835D01*
X161773295Y-92841835D01*
X161676705Y-92841835D01*
X161583407Y-92816835D01*
X161499758Y-92768541D01*
X161431459Y-92700242D01*
X161383165Y-92616593D01*
X161358165Y-92523295D01*
X161358165Y-92426705D01*
X161383165Y-92333407D01*
X161431459Y-92249758D01*
X161499758Y-92181459D01*
X161583407Y-92133165D01*
X161676705Y-92108165D01*
X161773295Y-92108165D01*
X161866593Y-92133165D01*
G37*
G36*
X163216593Y-92133165D02*
G01*
X163300242Y-92181459D01*
X163368541Y-92249758D01*
X163416835Y-92333407D01*
X163441835Y-92426705D01*
X163441835Y-92523295D01*
X163416835Y-92616593D01*
X163368541Y-92700242D01*
X163300242Y-92768541D01*
X163216593Y-92816835D01*
X163123295Y-92841835D01*
X163026705Y-92841835D01*
X162933407Y-92816835D01*
X162849758Y-92768541D01*
X162781459Y-92700242D01*
X162733165Y-92616593D01*
X162708165Y-92523295D01*
X162708165Y-92426705D01*
X162733165Y-92333407D01*
X162781459Y-92249758D01*
X162849758Y-92181459D01*
X162933407Y-92133165D01*
X163026705Y-92108165D01*
X163123295Y-92108165D01*
X163216593Y-92133165D01*
G37*
G36*
X145061355Y-92087231D02*
G01*
X145092175Y-92107825D01*
X145112769Y-92138645D01*
X145120000Y-92175000D01*
X145120000Y-92325000D01*
X145112769Y-92361355D01*
X145092175Y-92392175D01*
X145061355Y-92412769D01*
X145025000Y-92420000D01*
X143625000Y-92420000D01*
X143588645Y-92412769D01*
X143557825Y-92392175D01*
X143537231Y-92361355D01*
X143530000Y-92325000D01*
X143530000Y-92175000D01*
X143537231Y-92138645D01*
X143557825Y-92107825D01*
X143588645Y-92087231D01*
X143625000Y-92080000D01*
X145025000Y-92080000D01*
X145061355Y-92087231D01*
G37*
G36*
X156411355Y-92087231D02*
G01*
X156442175Y-92107825D01*
X156462769Y-92138645D01*
X156470000Y-92175000D01*
X156470000Y-92325000D01*
X156462769Y-92361355D01*
X156442175Y-92392175D01*
X156411355Y-92412769D01*
X156375000Y-92420000D01*
X154975000Y-92420000D01*
X154938645Y-92412769D01*
X154907825Y-92392175D01*
X154887231Y-92361355D01*
X154880000Y-92325000D01*
X154880000Y-92175000D01*
X154887231Y-92138645D01*
X154907825Y-92107825D01*
X154938645Y-92087231D01*
X154975000Y-92080000D01*
X156375000Y-92080000D01*
X156411355Y-92087231D01*
G37*
G36*
X161866593Y-91283165D02*
G01*
X161950242Y-91331459D01*
X162018541Y-91399758D01*
X162066835Y-91483407D01*
X162091835Y-91576705D01*
X162091835Y-91673295D01*
X162066835Y-91766593D01*
X162018541Y-91850242D01*
X161950242Y-91918541D01*
X161866593Y-91966835D01*
X161773295Y-91991835D01*
X161676705Y-91991835D01*
X161583407Y-91966835D01*
X161499758Y-91918541D01*
X161431459Y-91850242D01*
X161383165Y-91766593D01*
X161358165Y-91673295D01*
X161358165Y-91576705D01*
X161383165Y-91483407D01*
X161431459Y-91399758D01*
X161499758Y-91331459D01*
X161583407Y-91283165D01*
X161676705Y-91258165D01*
X161773295Y-91258165D01*
X161866593Y-91283165D01*
G37*
G36*
X163216593Y-91283165D02*
G01*
X163300242Y-91331459D01*
X163368541Y-91399758D01*
X163416835Y-91483407D01*
X163441835Y-91576705D01*
X163441835Y-91673295D01*
X163416835Y-91766593D01*
X163368541Y-91850242D01*
X163300242Y-91918541D01*
X163216593Y-91966835D01*
X163123295Y-91991835D01*
X163026705Y-91991835D01*
X162933407Y-91966835D01*
X162849758Y-91918541D01*
X162781459Y-91850242D01*
X162733165Y-91766593D01*
X162708165Y-91673295D01*
X162708165Y-91576705D01*
X162733165Y-91483407D01*
X162781459Y-91399758D01*
X162849758Y-91331459D01*
X162933407Y-91283165D01*
X163026705Y-91258165D01*
X163123295Y-91258165D01*
X163216593Y-91283165D01*
G37*
G36*
X145061355Y-91587231D02*
G01*
X145092175Y-91607825D01*
X145112769Y-91638645D01*
X145120000Y-91675000D01*
X145120000Y-91825000D01*
X145112769Y-91861355D01*
X145092175Y-91892175D01*
X145061355Y-91912769D01*
X145025000Y-91920000D01*
X143625000Y-91920000D01*
X143588645Y-91912769D01*
X143557825Y-91892175D01*
X143537231Y-91861355D01*
X143530000Y-91825000D01*
X143530000Y-91675000D01*
X143537231Y-91638645D01*
X143557825Y-91607825D01*
X143588645Y-91587231D01*
X143625000Y-91580000D01*
X145025000Y-91580000D01*
X145061355Y-91587231D01*
G37*
G36*
X156411355Y-91587231D02*
G01*
X156442175Y-91607825D01*
X156462769Y-91638645D01*
X156470000Y-91675000D01*
X156470000Y-91825000D01*
X156462769Y-91861355D01*
X156442175Y-91892175D01*
X156411355Y-91912769D01*
X156375000Y-91920000D01*
X154975000Y-91920000D01*
X154938645Y-91912769D01*
X154907825Y-91892175D01*
X154887231Y-91861355D01*
X154880000Y-91825000D01*
X154880000Y-91675000D01*
X154887231Y-91638645D01*
X154907825Y-91607825D01*
X154938645Y-91587231D01*
X154975000Y-91580000D01*
X156375000Y-91580000D01*
X156411355Y-91587231D01*
G37*
G36*
X145061355Y-91087231D02*
G01*
X145092175Y-91107825D01*
X145112769Y-91138645D01*
X145120000Y-91175000D01*
X145120000Y-91325000D01*
X145112769Y-91361355D01*
X145092175Y-91392175D01*
X145061355Y-91412769D01*
X145025000Y-91420000D01*
X143625000Y-91420000D01*
X143588645Y-91412769D01*
X143557825Y-91392175D01*
X143537231Y-91361355D01*
X143530000Y-91325000D01*
X143530000Y-91175000D01*
X143537231Y-91138645D01*
X143557825Y-91107825D01*
X143588645Y-91087231D01*
X143625000Y-91080000D01*
X145025000Y-91080000D01*
X145061355Y-91087231D01*
G37*
G36*
X156411355Y-91087231D02*
G01*
X156442175Y-91107825D01*
X156462769Y-91138645D01*
X156470000Y-91175000D01*
X156470000Y-91325000D01*
X156462769Y-91361355D01*
X156442175Y-91392175D01*
X156411355Y-91412769D01*
X156375000Y-91420000D01*
X154975000Y-91420000D01*
X154938645Y-91412769D01*
X154907825Y-91392175D01*
X154887231Y-91361355D01*
X154880000Y-91325000D01*
X154880000Y-91175000D01*
X154887231Y-91138645D01*
X154907825Y-91107825D01*
X154938645Y-91087231D01*
X154975000Y-91080000D01*
X156375000Y-91080000D01*
X156411355Y-91087231D01*
G37*
G36*
X136454047Y-90255805D02*
G01*
X136504263Y-90261631D01*
X136521421Y-90269206D01*
X136543757Y-90273650D01*
X136567668Y-90289626D01*
X136587968Y-90298590D01*
X136601832Y-90312454D01*
X136623241Y-90326759D01*
X136637545Y-90348167D01*
X136651409Y-90362031D01*
X136660371Y-90382329D01*
X136676350Y-90406243D01*
X136680793Y-90428581D01*
X136688368Y-90445736D01*
X136694192Y-90495942D01*
X136695000Y-90500000D01*
X136695000Y-91000000D01*
X136694192Y-91004059D01*
X136688368Y-91054263D01*
X136680793Y-91071417D01*
X136676350Y-91093757D01*
X136660370Y-91117672D01*
X136651409Y-91137968D01*
X136637547Y-91151829D01*
X136623241Y-91173241D01*
X136601829Y-91187547D01*
X136587968Y-91201409D01*
X136567672Y-91210370D01*
X136543757Y-91226350D01*
X136521417Y-91230793D01*
X136504263Y-91238368D01*
X136454059Y-91244192D01*
X136450000Y-91245000D01*
X136000000Y-91245000D01*
X135995942Y-91244192D01*
X135945736Y-91238368D01*
X135928581Y-91230793D01*
X135906243Y-91226350D01*
X135882329Y-91210371D01*
X135862031Y-91201409D01*
X135848167Y-91187545D01*
X135826759Y-91173241D01*
X135812454Y-91151832D01*
X135798590Y-91137968D01*
X135789626Y-91117668D01*
X135773650Y-91093757D01*
X135769206Y-91071421D01*
X135761631Y-91054263D01*
X135755805Y-91004047D01*
X135755000Y-91000000D01*
X135755000Y-90500000D01*
X135755804Y-90495954D01*
X135761631Y-90445736D01*
X135769207Y-90428577D01*
X135773650Y-90406243D01*
X135789625Y-90382333D01*
X135798590Y-90362031D01*
X135812456Y-90348164D01*
X135826759Y-90326759D01*
X135848164Y-90312456D01*
X135862031Y-90298590D01*
X135882333Y-90289625D01*
X135906243Y-90273650D01*
X135928577Y-90269207D01*
X135945736Y-90261631D01*
X135995954Y-90255804D01*
X136000000Y-90255000D01*
X136450000Y-90255000D01*
X136454047Y-90255805D01*
G37*
G36*
X138004047Y-90255805D02*
G01*
X138054263Y-90261631D01*
X138071421Y-90269206D01*
X138093757Y-90273650D01*
X138117668Y-90289626D01*
X138137968Y-90298590D01*
X138151832Y-90312454D01*
X138173241Y-90326759D01*
X138187545Y-90348167D01*
X138201409Y-90362031D01*
X138210371Y-90382329D01*
X138226350Y-90406243D01*
X138230793Y-90428581D01*
X138238368Y-90445736D01*
X138244192Y-90495942D01*
X138245000Y-90500000D01*
X138245000Y-91000000D01*
X138244192Y-91004059D01*
X138238368Y-91054263D01*
X138230793Y-91071417D01*
X138226350Y-91093757D01*
X138210370Y-91117672D01*
X138201409Y-91137968D01*
X138187547Y-91151829D01*
X138173241Y-91173241D01*
X138151829Y-91187547D01*
X138137968Y-91201409D01*
X138117672Y-91210370D01*
X138093757Y-91226350D01*
X138071417Y-91230793D01*
X138054263Y-91238368D01*
X138004059Y-91244192D01*
X138000000Y-91245000D01*
X137550000Y-91245000D01*
X137545942Y-91244192D01*
X137495736Y-91238368D01*
X137478581Y-91230793D01*
X137456243Y-91226350D01*
X137432329Y-91210371D01*
X137412031Y-91201409D01*
X137398167Y-91187545D01*
X137376759Y-91173241D01*
X137362454Y-91151832D01*
X137348590Y-91137968D01*
X137339626Y-91117668D01*
X137323650Y-91093757D01*
X137319206Y-91071421D01*
X137311631Y-91054263D01*
X137305805Y-91004047D01*
X137305000Y-91000000D01*
X137305000Y-90500000D01*
X137305804Y-90495954D01*
X137311631Y-90445736D01*
X137319207Y-90428577D01*
X137323650Y-90406243D01*
X137339625Y-90382333D01*
X137348590Y-90362031D01*
X137362456Y-90348164D01*
X137376759Y-90326759D01*
X137398164Y-90312456D01*
X137412031Y-90298590D01*
X137432333Y-90289625D01*
X137456243Y-90273650D01*
X137478577Y-90269207D01*
X137495736Y-90261631D01*
X137545954Y-90255804D01*
X137550000Y-90255000D01*
X138000000Y-90255000D01*
X138004047Y-90255805D01*
G37*
G36*
X161866593Y-90433165D02*
G01*
X161950242Y-90481459D01*
X162018541Y-90549758D01*
X162066835Y-90633407D01*
X162091835Y-90726705D01*
X162091835Y-90823295D01*
X162066835Y-90916593D01*
X162018541Y-91000242D01*
X161950242Y-91068541D01*
X161866593Y-91116835D01*
X161773295Y-91141835D01*
X161676705Y-91141835D01*
X161583407Y-91116835D01*
X161499758Y-91068541D01*
X161431459Y-91000242D01*
X161383165Y-90916593D01*
X161358165Y-90823295D01*
X161358165Y-90726705D01*
X161383165Y-90633407D01*
X161431459Y-90549758D01*
X161499758Y-90481459D01*
X161583407Y-90433165D01*
X161676705Y-90408165D01*
X161773295Y-90408165D01*
X161866593Y-90433165D01*
G37*
G36*
X163216593Y-90433165D02*
G01*
X163300242Y-90481459D01*
X163368541Y-90549758D01*
X163416835Y-90633407D01*
X163441835Y-90726705D01*
X163441835Y-90823295D01*
X163416835Y-90916593D01*
X163368541Y-91000242D01*
X163300242Y-91068541D01*
X163216593Y-91116835D01*
X163123295Y-91141835D01*
X163026705Y-91141835D01*
X162933407Y-91116835D01*
X162849758Y-91068541D01*
X162781459Y-91000242D01*
X162733165Y-90916593D01*
X162708165Y-90823295D01*
X162708165Y-90726705D01*
X162733165Y-90633407D01*
X162781459Y-90549758D01*
X162849758Y-90481459D01*
X162933407Y-90433165D01*
X163026705Y-90408165D01*
X163123295Y-90408165D01*
X163216593Y-90433165D01*
G37*
G36*
X142981229Y-89712179D02*
G01*
X143033137Y-89746863D01*
X143067821Y-89798771D01*
X143080000Y-89860000D01*
X143080000Y-90140000D01*
X143067821Y-90201229D01*
X143033137Y-90253137D01*
X142981229Y-90287821D01*
X142920000Y-90300000D01*
X142580000Y-90300000D01*
X142518771Y-90287821D01*
X142466863Y-90253137D01*
X142432179Y-90201229D01*
X142420000Y-90140000D01*
X142420000Y-89860000D01*
X142432179Y-89798771D01*
X142466863Y-89746863D01*
X142518771Y-89712179D01*
X142580000Y-89700000D01*
X142920000Y-89700000D01*
X142981229Y-89712179D01*
G37*
G36*
X156481229Y-89692179D02*
G01*
X156533137Y-89726863D01*
X156567821Y-89778771D01*
X156580000Y-89840000D01*
X156580000Y-90120000D01*
X156567821Y-90181229D01*
X156533137Y-90233137D01*
X156481229Y-90267821D01*
X156420000Y-90280000D01*
X156080000Y-90280000D01*
X156018771Y-90267821D01*
X155966863Y-90233137D01*
X155932179Y-90181229D01*
X155920000Y-90120000D01*
X155920000Y-89840000D01*
X155932179Y-89778771D01*
X155966863Y-89726863D01*
X156018771Y-89692179D01*
X156080000Y-89680000D01*
X156420000Y-89680000D01*
X156481229Y-89692179D01*
G37*
G36*
X146361355Y-88537231D02*
G01*
X146392175Y-88557825D01*
X146412769Y-88588645D01*
X146420000Y-88625000D01*
X146420000Y-90025000D01*
X146412769Y-90061355D01*
X146392175Y-90092175D01*
X146361355Y-90112769D01*
X146325000Y-90120000D01*
X146175000Y-90120000D01*
X146138645Y-90112769D01*
X146107825Y-90092175D01*
X146087231Y-90061355D01*
X146080000Y-90025000D01*
X146080000Y-88625000D01*
X146087231Y-88588645D01*
X146107825Y-88557825D01*
X146138645Y-88537231D01*
X146175000Y-88530000D01*
X146325000Y-88530000D01*
X146361355Y-88537231D01*
G37*
G36*
X146861355Y-88537231D02*
G01*
X146892175Y-88557825D01*
X146912769Y-88588645D01*
X146920000Y-88625000D01*
X146920000Y-90025000D01*
X146912769Y-90061355D01*
X146892175Y-90092175D01*
X146861355Y-90112769D01*
X146825000Y-90120000D01*
X146675000Y-90120000D01*
X146638645Y-90112769D01*
X146607825Y-90092175D01*
X146587231Y-90061355D01*
X146580000Y-90025000D01*
X146580000Y-88625000D01*
X146587231Y-88588645D01*
X146607825Y-88557825D01*
X146638645Y-88537231D01*
X146675000Y-88530000D01*
X146825000Y-88530000D01*
X146861355Y-88537231D01*
G37*
G36*
X147361355Y-88537231D02*
G01*
X147392175Y-88557825D01*
X147412769Y-88588645D01*
X147420000Y-88625000D01*
X147420000Y-90025000D01*
X147412769Y-90061355D01*
X147392175Y-90092175D01*
X147361355Y-90112769D01*
X147325000Y-90120000D01*
X147175000Y-90120000D01*
X147138645Y-90112769D01*
X147107825Y-90092175D01*
X147087231Y-90061355D01*
X147080000Y-90025000D01*
X147080000Y-88625000D01*
X147087231Y-88588645D01*
X147107825Y-88557825D01*
X147138645Y-88537231D01*
X147175000Y-88530000D01*
X147325000Y-88530000D01*
X147361355Y-88537231D01*
G37*
G36*
X147861355Y-88537231D02*
G01*
X147892175Y-88557825D01*
X147912769Y-88588645D01*
X147920000Y-88625000D01*
X147920000Y-90025000D01*
X147912769Y-90061355D01*
X147892175Y-90092175D01*
X147861355Y-90112769D01*
X147825000Y-90120000D01*
X147675000Y-90120000D01*
X147638645Y-90112769D01*
X147607825Y-90092175D01*
X147587231Y-90061355D01*
X147580000Y-90025000D01*
X147580000Y-88625000D01*
X147587231Y-88588645D01*
X147607825Y-88557825D01*
X147638645Y-88537231D01*
X147675000Y-88530000D01*
X147825000Y-88530000D01*
X147861355Y-88537231D01*
G37*
G36*
X148361355Y-88537231D02*
G01*
X148392175Y-88557825D01*
X148412769Y-88588645D01*
X148420000Y-88625000D01*
X148420000Y-90025000D01*
X148412769Y-90061355D01*
X148392175Y-90092175D01*
X148361355Y-90112769D01*
X148325000Y-90120000D01*
X148175000Y-90120000D01*
X148138645Y-90112769D01*
X148107825Y-90092175D01*
X148087231Y-90061355D01*
X148080000Y-90025000D01*
X148080000Y-88625000D01*
X148087231Y-88588645D01*
X148107825Y-88557825D01*
X148138645Y-88537231D01*
X148175000Y-88530000D01*
X148325000Y-88530000D01*
X148361355Y-88537231D01*
G37*
G36*
X148861355Y-88537231D02*
G01*
X148892175Y-88557825D01*
X148912769Y-88588645D01*
X148920000Y-88625000D01*
X148920000Y-90025000D01*
X148912769Y-90061355D01*
X148892175Y-90092175D01*
X148861355Y-90112769D01*
X148825000Y-90120000D01*
X148675000Y-90120000D01*
X148638645Y-90112769D01*
X148607825Y-90092175D01*
X148587231Y-90061355D01*
X148580000Y-90025000D01*
X148580000Y-88625000D01*
X148587231Y-88588645D01*
X148607825Y-88557825D01*
X148638645Y-88537231D01*
X148675000Y-88530000D01*
X148825000Y-88530000D01*
X148861355Y-88537231D01*
G37*
G36*
X149361355Y-88537231D02*
G01*
X149392175Y-88557825D01*
X149412769Y-88588645D01*
X149420000Y-88625000D01*
X149420000Y-90025000D01*
X149412769Y-90061355D01*
X149392175Y-90092175D01*
X149361355Y-90112769D01*
X149325000Y-90120000D01*
X149175000Y-90120000D01*
X149138645Y-90112769D01*
X149107825Y-90092175D01*
X149087231Y-90061355D01*
X149080000Y-90025000D01*
X149080000Y-88625000D01*
X149087231Y-88588645D01*
X149107825Y-88557825D01*
X149138645Y-88537231D01*
X149175000Y-88530000D01*
X149325000Y-88530000D01*
X149361355Y-88537231D01*
G37*
G36*
X149861355Y-88537231D02*
G01*
X149892175Y-88557825D01*
X149912769Y-88588645D01*
X149920000Y-88625000D01*
X149920000Y-90025000D01*
X149912769Y-90061355D01*
X149892175Y-90092175D01*
X149861355Y-90112769D01*
X149825000Y-90120000D01*
X149675000Y-90120000D01*
X149638645Y-90112769D01*
X149607825Y-90092175D01*
X149587231Y-90061355D01*
X149580000Y-90025000D01*
X149580000Y-88625000D01*
X149587231Y-88588645D01*
X149607825Y-88557825D01*
X149638645Y-88537231D01*
X149675000Y-88530000D01*
X149825000Y-88530000D01*
X149861355Y-88537231D01*
G37*
G36*
X150361355Y-88537231D02*
G01*
X150392175Y-88557825D01*
X150412769Y-88588645D01*
X150420000Y-88625000D01*
X150420000Y-90025000D01*
X150412769Y-90061355D01*
X150392175Y-90092175D01*
X150361355Y-90112769D01*
X150325000Y-90120000D01*
X150175000Y-90120000D01*
X150138645Y-90112769D01*
X150107825Y-90092175D01*
X150087231Y-90061355D01*
X150080000Y-90025000D01*
X150080000Y-88625000D01*
X150087231Y-88588645D01*
X150107825Y-88557825D01*
X150138645Y-88537231D01*
X150175000Y-88530000D01*
X150325000Y-88530000D01*
X150361355Y-88537231D01*
G37*
G36*
X150861355Y-88537231D02*
G01*
X150892175Y-88557825D01*
X150912769Y-88588645D01*
X150920000Y-88625000D01*
X150920000Y-90025000D01*
X150912769Y-90061355D01*
X150892175Y-90092175D01*
X150861355Y-90112769D01*
X150825000Y-90120000D01*
X150675000Y-90120000D01*
X150638645Y-90112769D01*
X150607825Y-90092175D01*
X150587231Y-90061355D01*
X150580000Y-90025000D01*
X150580000Y-88625000D01*
X150587231Y-88588645D01*
X150607825Y-88557825D01*
X150638645Y-88537231D01*
X150675000Y-88530000D01*
X150825000Y-88530000D01*
X150861355Y-88537231D01*
G37*
G36*
X151361355Y-88537231D02*
G01*
X151392175Y-88557825D01*
X151412769Y-88588645D01*
X151420000Y-88625000D01*
X151420000Y-90025000D01*
X151412769Y-90061355D01*
X151392175Y-90092175D01*
X151361355Y-90112769D01*
X151325000Y-90120000D01*
X151175000Y-90120000D01*
X151138645Y-90112769D01*
X151107825Y-90092175D01*
X151087231Y-90061355D01*
X151080000Y-90025000D01*
X151080000Y-88625000D01*
X151087231Y-88588645D01*
X151107825Y-88557825D01*
X151138645Y-88537231D01*
X151175000Y-88530000D01*
X151325000Y-88530000D01*
X151361355Y-88537231D01*
G37*
G36*
X151861355Y-88537231D02*
G01*
X151892175Y-88557825D01*
X151912769Y-88588645D01*
X151920000Y-88625000D01*
X151920000Y-90025000D01*
X151912769Y-90061355D01*
X151892175Y-90092175D01*
X151861355Y-90112769D01*
X151825000Y-90120000D01*
X151675000Y-90120000D01*
X151638645Y-90112769D01*
X151607825Y-90092175D01*
X151587231Y-90061355D01*
X151580000Y-90025000D01*
X151580000Y-88625000D01*
X151587231Y-88588645D01*
X151607825Y-88557825D01*
X151638645Y-88537231D01*
X151675000Y-88530000D01*
X151825000Y-88530000D01*
X151861355Y-88537231D01*
G37*
G36*
X152361355Y-88537231D02*
G01*
X152392175Y-88557825D01*
X152412769Y-88588645D01*
X152420000Y-88625000D01*
X152420000Y-90025000D01*
X152412769Y-90061355D01*
X152392175Y-90092175D01*
X152361355Y-90112769D01*
X152325000Y-90120000D01*
X152175000Y-90120000D01*
X152138645Y-90112769D01*
X152107825Y-90092175D01*
X152087231Y-90061355D01*
X152080000Y-90025000D01*
X152080000Y-88625000D01*
X152087231Y-88588645D01*
X152107825Y-88557825D01*
X152138645Y-88537231D01*
X152175000Y-88530000D01*
X152325000Y-88530000D01*
X152361355Y-88537231D01*
G37*
G36*
X152861355Y-88537231D02*
G01*
X152892175Y-88557825D01*
X152912769Y-88588645D01*
X152920000Y-88625000D01*
X152920000Y-90025000D01*
X152912769Y-90061355D01*
X152892175Y-90092175D01*
X152861355Y-90112769D01*
X152825000Y-90120000D01*
X152675000Y-90120000D01*
X152638645Y-90112769D01*
X152607825Y-90092175D01*
X152587231Y-90061355D01*
X152580000Y-90025000D01*
X152580000Y-88625000D01*
X152587231Y-88588645D01*
X152607825Y-88557825D01*
X152638645Y-88537231D01*
X152675000Y-88530000D01*
X152825000Y-88530000D01*
X152861355Y-88537231D01*
G37*
G36*
X153361355Y-88537231D02*
G01*
X153392175Y-88557825D01*
X153412769Y-88588645D01*
X153420000Y-88625000D01*
X153420000Y-90025000D01*
X153412769Y-90061355D01*
X153392175Y-90092175D01*
X153361355Y-90112769D01*
X153325000Y-90120000D01*
X153175000Y-90120000D01*
X153138645Y-90112769D01*
X153107825Y-90092175D01*
X153087231Y-90061355D01*
X153080000Y-90025000D01*
X153080000Y-88625000D01*
X153087231Y-88588645D01*
X153107825Y-88557825D01*
X153138645Y-88537231D01*
X153175000Y-88530000D01*
X153325000Y-88530000D01*
X153361355Y-88537231D01*
G37*
G36*
X153861355Y-88537231D02*
G01*
X153892175Y-88557825D01*
X153912769Y-88588645D01*
X153920000Y-88625000D01*
X153920000Y-90025000D01*
X153912769Y-90061355D01*
X153892175Y-90092175D01*
X153861355Y-90112769D01*
X153825000Y-90120000D01*
X153675000Y-90120000D01*
X153638645Y-90112769D01*
X153607825Y-90092175D01*
X153587231Y-90061355D01*
X153580000Y-90025000D01*
X153580000Y-88625000D01*
X153587231Y-88588645D01*
X153607825Y-88557825D01*
X153638645Y-88537231D01*
X153675000Y-88530000D01*
X153825000Y-88530000D01*
X153861355Y-88537231D01*
G37*
G36*
X163516347Y-88959021D02*
G01*
X163634861Y-88990777D01*
X163741118Y-89052124D01*
X163827876Y-89138882D01*
X163889223Y-89245139D01*
X163920979Y-89363653D01*
X163920979Y-89486347D01*
X163889223Y-89604861D01*
X163827876Y-89711118D01*
X163741118Y-89797876D01*
X163634861Y-89859223D01*
X163516347Y-89890979D01*
X163455000Y-89895000D01*
X163453362Y-89895000D01*
X161956638Y-89895000D01*
X161955000Y-89895000D01*
X161893653Y-89890979D01*
X161775139Y-89859223D01*
X161668882Y-89797876D01*
X161582124Y-89711118D01*
X161520777Y-89604861D01*
X161489021Y-89486347D01*
X161489021Y-89363653D01*
X161520777Y-89245139D01*
X161582124Y-89138882D01*
X161668882Y-89052124D01*
X161775139Y-88990777D01*
X161893653Y-88959021D01*
X161955000Y-88955000D01*
X163455000Y-88955000D01*
X163516347Y-88959021D01*
G37*
G36*
X166546347Y-88959021D02*
G01*
X166664861Y-88990777D01*
X166771118Y-89052124D01*
X166857876Y-89138882D01*
X166919223Y-89245139D01*
X166950979Y-89363653D01*
X166950979Y-89486347D01*
X166919223Y-89604861D01*
X166857876Y-89711118D01*
X166771118Y-89797876D01*
X166664861Y-89859223D01*
X166546347Y-89890979D01*
X166485000Y-89895000D01*
X166483362Y-89895000D01*
X165686638Y-89895000D01*
X165685000Y-89895000D01*
X165623653Y-89890979D01*
X165505139Y-89859223D01*
X165398882Y-89797876D01*
X165312124Y-89711118D01*
X165250777Y-89604861D01*
X165219021Y-89486347D01*
X165219021Y-89363653D01*
X165250777Y-89245139D01*
X165312124Y-89138882D01*
X165398882Y-89052124D01*
X165505139Y-88990777D01*
X165623653Y-88959021D01*
X165685000Y-88955000D01*
X166485000Y-88955000D01*
X166546347Y-88959021D01*
G37*
G36*
X143971229Y-88772179D02*
G01*
X144023137Y-88806863D01*
X144057821Y-88858771D01*
X144070000Y-88920000D01*
X144070000Y-89260000D01*
X144057821Y-89321229D01*
X144023137Y-89373137D01*
X143971229Y-89407821D01*
X143910000Y-89420000D01*
X143630000Y-89420000D01*
X143568771Y-89407821D01*
X143516863Y-89373137D01*
X143482179Y-89321229D01*
X143470000Y-89260000D01*
X143470000Y-88920000D01*
X143482179Y-88858771D01*
X143516863Y-88806863D01*
X143568771Y-88772179D01*
X143630000Y-88760000D01*
X143910000Y-88760000D01*
X143971229Y-88772179D01*
G37*
G36*
X144931229Y-88772179D02*
G01*
X144983137Y-88806863D01*
X145017821Y-88858771D01*
X145030000Y-88920000D01*
X145030000Y-89260000D01*
X145017821Y-89321229D01*
X144983137Y-89373137D01*
X144931229Y-89407821D01*
X144870000Y-89420000D01*
X144590000Y-89420000D01*
X144528771Y-89407821D01*
X144476863Y-89373137D01*
X144442179Y-89321229D01*
X144430000Y-89260000D01*
X144430000Y-88920000D01*
X144442179Y-88858771D01*
X144476863Y-88806863D01*
X144528771Y-88772179D01*
X144590000Y-88760000D01*
X144870000Y-88760000D01*
X144931229Y-88772179D01*
G37*
G36*
X142981229Y-88752179D02*
G01*
X143033137Y-88786863D01*
X143067821Y-88838771D01*
X143080000Y-88900000D01*
X143080000Y-89180000D01*
X143067821Y-89241229D01*
X143033137Y-89293137D01*
X142981229Y-89327821D01*
X142920000Y-89340000D01*
X142580000Y-89340000D01*
X142518771Y-89327821D01*
X142466863Y-89293137D01*
X142432179Y-89241229D01*
X142420000Y-89180000D01*
X142420000Y-88900000D01*
X142432179Y-88838771D01*
X142466863Y-88786863D01*
X142518771Y-88752179D01*
X142580000Y-88740000D01*
X142920000Y-88740000D01*
X142981229Y-88752179D01*
G37*
G36*
X156481229Y-88732179D02*
G01*
X156533137Y-88766863D01*
X156567821Y-88818771D01*
X156580000Y-88880000D01*
X156580000Y-89160000D01*
X156567821Y-89221229D01*
X156533137Y-89273137D01*
X156481229Y-89307821D01*
X156420000Y-89320000D01*
X156080000Y-89320000D01*
X156018771Y-89307821D01*
X155966863Y-89273137D01*
X155932179Y-89221229D01*
X155920000Y-89160000D01*
X155920000Y-88880000D01*
X155932179Y-88818771D01*
X155966863Y-88766863D01*
X156018771Y-88732179D01*
X156080000Y-88720000D01*
X156420000Y-88720000D01*
X156481229Y-88732179D01*
G37*
G36*
X134866719Y-83134994D02*
G01*
X134877104Y-83134994D01*
X134928245Y-83143094D01*
X135066025Y-83161233D01*
X135099644Y-83170241D01*
X135128181Y-83174761D01*
X135183060Y-83192592D01*
X135270696Y-83216074D01*
X135326608Y-83239233D01*
X135369947Y-83253315D01*
X135410547Y-83274002D01*
X135466461Y-83297162D01*
X135545030Y-83342524D01*
X135596448Y-83368723D01*
X135619826Y-83385708D01*
X135649965Y-83403109D01*
X135760217Y-83487708D01*
X135802106Y-83518142D01*
X135809447Y-83525483D01*
X135818065Y-83532096D01*
X135967903Y-83681934D01*
X135974515Y-83690551D01*
X135981858Y-83697894D01*
X136012295Y-83739788D01*
X136096890Y-83850034D01*
X136114289Y-83880171D01*
X136131277Y-83903552D01*
X136157478Y-83954976D01*
X136202837Y-84033538D01*
X136225994Y-84089445D01*
X136246685Y-84130053D01*
X136260768Y-84173398D01*
X136283925Y-84229303D01*
X136307403Y-84316926D01*
X136325239Y-84371819D01*
X136329759Y-84400362D01*
X136338766Y-84433974D01*
X136356904Y-84571742D01*
X136365006Y-84622896D01*
X136365006Y-84633281D01*
X136366424Y-84644052D01*
X136366424Y-84855947D01*
X136365006Y-84866717D01*
X136365006Y-84877104D01*
X136356903Y-84928261D01*
X136338766Y-85066025D01*
X136329760Y-85099635D01*
X136325239Y-85128181D01*
X136307401Y-85183078D01*
X136283925Y-85270696D01*
X136260770Y-85326597D01*
X136246685Y-85369947D01*
X136225992Y-85410558D01*
X136202837Y-85466461D01*
X136157483Y-85545015D01*
X136131277Y-85596448D01*
X136114286Y-85619832D01*
X136096890Y-85649965D01*
X136012309Y-85760192D01*
X135981858Y-85802106D01*
X135974511Y-85809452D01*
X135967903Y-85818065D01*
X135818065Y-85967903D01*
X135809452Y-85974511D01*
X135802106Y-85981858D01*
X135760192Y-86012309D01*
X135649965Y-86096890D01*
X135619832Y-86114286D01*
X135596448Y-86131277D01*
X135545015Y-86157483D01*
X135466461Y-86202837D01*
X135410558Y-86225992D01*
X135369947Y-86246685D01*
X135326597Y-86260770D01*
X135270696Y-86283925D01*
X135183078Y-86307401D01*
X135128181Y-86325239D01*
X135099635Y-86329760D01*
X135066025Y-86338766D01*
X134928258Y-86356903D01*
X134877104Y-86365006D01*
X134866718Y-86365006D01*
X134855948Y-86366424D01*
X134644052Y-86366424D01*
X134633281Y-86365006D01*
X134622896Y-86365006D01*
X134571742Y-86356904D01*
X134433974Y-86338766D01*
X134400362Y-86329759D01*
X134371819Y-86325239D01*
X134316926Y-86307403D01*
X134229303Y-86283925D01*
X134173398Y-86260768D01*
X134130053Y-86246685D01*
X134089445Y-86225994D01*
X134033538Y-86202837D01*
X133954976Y-86157478D01*
X133903552Y-86131277D01*
X133880171Y-86114289D01*
X133850034Y-86096890D01*
X133739788Y-86012295D01*
X133697894Y-85981858D01*
X133690551Y-85974515D01*
X133681934Y-85967903D01*
X133532096Y-85818065D01*
X133525483Y-85809447D01*
X133518142Y-85802106D01*
X133487708Y-85760217D01*
X133403109Y-85649965D01*
X133385708Y-85619826D01*
X133368723Y-85596448D01*
X133342524Y-85545030D01*
X133297162Y-85466461D01*
X133274002Y-85410547D01*
X133253315Y-85369947D01*
X133239233Y-85326608D01*
X133216074Y-85270696D01*
X133192592Y-85183060D01*
X133174761Y-85128181D01*
X133170241Y-85099644D01*
X133161233Y-85066025D01*
X133143094Y-84928249D01*
X133134994Y-84877104D01*
X133134994Y-84866717D01*
X133133576Y-84855947D01*
X133133576Y-84644052D01*
X133134994Y-84633281D01*
X133134994Y-84622896D01*
X133143093Y-84571755D01*
X133161233Y-84433974D01*
X133170241Y-84400353D01*
X133174761Y-84371819D01*
X133192590Y-84316943D01*
X133216074Y-84229303D01*
X133239235Y-84173386D01*
X133253315Y-84130053D01*
X133273999Y-84089456D01*
X133297162Y-84033538D01*
X133342528Y-83954961D01*
X133368723Y-83903552D01*
X133385705Y-83880177D01*
X133403109Y-83850034D01*
X133487721Y-83739763D01*
X133518142Y-83697894D01*
X133525480Y-83690555D01*
X133532096Y-83681934D01*
X133681934Y-83532096D01*
X133690555Y-83525480D01*
X133697894Y-83518142D01*
X133739763Y-83487721D01*
X133850034Y-83403109D01*
X133880177Y-83385705D01*
X133903552Y-83368723D01*
X133954961Y-83342528D01*
X134033538Y-83297162D01*
X134089456Y-83273999D01*
X134130053Y-83253315D01*
X134173386Y-83239235D01*
X134229303Y-83216074D01*
X134316943Y-83192590D01*
X134371819Y-83174761D01*
X134400353Y-83170241D01*
X134433974Y-83161233D01*
X134571755Y-83143093D01*
X134622896Y-83134994D01*
X134633281Y-83134994D01*
X134644052Y-83133576D01*
X134855948Y-83133576D01*
X134866719Y-83134994D01*
G37*
G36*
X165366719Y-83134994D02*
G01*
X165377104Y-83134994D01*
X165428245Y-83143094D01*
X165566025Y-83161233D01*
X165599644Y-83170241D01*
X165628181Y-83174761D01*
X165683060Y-83192592D01*
X165770696Y-83216074D01*
X165826608Y-83239233D01*
X165869947Y-83253315D01*
X165910547Y-83274002D01*
X165966461Y-83297162D01*
X166045030Y-83342524D01*
X166096448Y-83368723D01*
X166119826Y-83385708D01*
X166149965Y-83403109D01*
X166260217Y-83487708D01*
X166302106Y-83518142D01*
X166309447Y-83525483D01*
X166318065Y-83532096D01*
X166467903Y-83681934D01*
X166474515Y-83690551D01*
X166481858Y-83697894D01*
X166512295Y-83739788D01*
X166596890Y-83850034D01*
X166614289Y-83880171D01*
X166631277Y-83903552D01*
X166657478Y-83954976D01*
X166702837Y-84033538D01*
X166725994Y-84089445D01*
X166746685Y-84130053D01*
X166760768Y-84173398D01*
X166783925Y-84229303D01*
X166807403Y-84316926D01*
X166825239Y-84371819D01*
X166829759Y-84400362D01*
X166838766Y-84433974D01*
X166856904Y-84571742D01*
X166865006Y-84622896D01*
X166865006Y-84633281D01*
X166866424Y-84644052D01*
X166866424Y-84855947D01*
X166865006Y-84866717D01*
X166865006Y-84877104D01*
X166856903Y-84928261D01*
X166838766Y-85066025D01*
X166829760Y-85099635D01*
X166825239Y-85128181D01*
X166807401Y-85183078D01*
X166783925Y-85270696D01*
X166760770Y-85326597D01*
X166746685Y-85369947D01*
X166725992Y-85410558D01*
X166702837Y-85466461D01*
X166657483Y-85545015D01*
X166631277Y-85596448D01*
X166614286Y-85619832D01*
X166596890Y-85649965D01*
X166512309Y-85760192D01*
X166481858Y-85802106D01*
X166474511Y-85809452D01*
X166467903Y-85818065D01*
X166318065Y-85967903D01*
X166309452Y-85974511D01*
X166302106Y-85981858D01*
X166260192Y-86012309D01*
X166149965Y-86096890D01*
X166119832Y-86114286D01*
X166096448Y-86131277D01*
X166045015Y-86157483D01*
X165966461Y-86202837D01*
X165910558Y-86225992D01*
X165869947Y-86246685D01*
X165826597Y-86260770D01*
X165770696Y-86283925D01*
X165683078Y-86307401D01*
X165628181Y-86325239D01*
X165599635Y-86329760D01*
X165566025Y-86338766D01*
X165428258Y-86356903D01*
X165377104Y-86365006D01*
X165366718Y-86365006D01*
X165355948Y-86366424D01*
X165144052Y-86366424D01*
X165133281Y-86365006D01*
X165122896Y-86365006D01*
X165071742Y-86356904D01*
X164933974Y-86338766D01*
X164900362Y-86329759D01*
X164871819Y-86325239D01*
X164816926Y-86307403D01*
X164729303Y-86283925D01*
X164673398Y-86260768D01*
X164630053Y-86246685D01*
X164589445Y-86225994D01*
X164533538Y-86202837D01*
X164454976Y-86157478D01*
X164403552Y-86131277D01*
X164380171Y-86114289D01*
X164350034Y-86096890D01*
X164239788Y-86012295D01*
X164197894Y-85981858D01*
X164190551Y-85974515D01*
X164181934Y-85967903D01*
X164032096Y-85818065D01*
X164025483Y-85809447D01*
X164018142Y-85802106D01*
X163987708Y-85760217D01*
X163903109Y-85649965D01*
X163885708Y-85619826D01*
X163868723Y-85596448D01*
X163842524Y-85545030D01*
X163797162Y-85466461D01*
X163774002Y-85410547D01*
X163753315Y-85369947D01*
X163739233Y-85326608D01*
X163716074Y-85270696D01*
X163692592Y-85183060D01*
X163674761Y-85128181D01*
X163670241Y-85099644D01*
X163661233Y-85066025D01*
X163643094Y-84928249D01*
X163634994Y-84877104D01*
X163634994Y-84866717D01*
X163633576Y-84855947D01*
X163633576Y-84644052D01*
X163634994Y-84633281D01*
X163634994Y-84622896D01*
X163643093Y-84571755D01*
X163661233Y-84433974D01*
X163670241Y-84400353D01*
X163674761Y-84371819D01*
X163692590Y-84316943D01*
X163716074Y-84229303D01*
X163739235Y-84173386D01*
X163753315Y-84130053D01*
X163773999Y-84089456D01*
X163797162Y-84033538D01*
X163842528Y-83954961D01*
X163868723Y-83903552D01*
X163885705Y-83880177D01*
X163903109Y-83850034D01*
X163987721Y-83739763D01*
X164018142Y-83697894D01*
X164025480Y-83690555D01*
X164032096Y-83681934D01*
X164181934Y-83532096D01*
X164190555Y-83525480D01*
X164197894Y-83518142D01*
X164239763Y-83487721D01*
X164350034Y-83403109D01*
X164380177Y-83385705D01*
X164403552Y-83368723D01*
X164454961Y-83342528D01*
X164533538Y-83297162D01*
X164589456Y-83273999D01*
X164630053Y-83253315D01*
X164673386Y-83239235D01*
X164729303Y-83216074D01*
X164816943Y-83192590D01*
X164871819Y-83174761D01*
X164900353Y-83170241D01*
X164933974Y-83161233D01*
X165071755Y-83143093D01*
X165122896Y-83134994D01*
X165133281Y-83134994D01*
X165144052Y-83133576D01*
X165355948Y-83133576D01*
X165366719Y-83134994D01*
G37*
G36*
X141996537Y-80345224D02*
G01*
X142061421Y-80388579D01*
X142104776Y-80453463D01*
X142120000Y-80530000D01*
X142120000Y-81070000D01*
X142104776Y-81146537D01*
X142061421Y-81211421D01*
X142013006Y-81243771D01*
X142008523Y-81289286D01*
X142070999Y-81351762D01*
X142095476Y-81407197D01*
X142110188Y-81438746D01*
X142110519Y-81441266D01*
X142112563Y-81445894D01*
X142120000Y-81510000D01*
X142120000Y-82990000D01*
X142112563Y-83054106D01*
X142110519Y-83058733D01*
X142110188Y-83061253D01*
X142095488Y-83092776D01*
X142070999Y-83148238D01*
X142008523Y-83210713D01*
X142013005Y-83256227D01*
X142061421Y-83288579D01*
X142104776Y-83353463D01*
X142120000Y-83430000D01*
X142120000Y-83970000D01*
X142104776Y-84046537D01*
X142061421Y-84111421D01*
X141996537Y-84154776D01*
X141920000Y-84170000D01*
X140980000Y-84170000D01*
X140903463Y-84154776D01*
X140838579Y-84111421D01*
X140795224Y-84046537D01*
X140780000Y-83970000D01*
X140780000Y-83430000D01*
X140795224Y-83353463D01*
X140838579Y-83288579D01*
X140886993Y-83256228D01*
X140891475Y-83210712D01*
X140829001Y-83148238D01*
X140804533Y-83092824D01*
X140789811Y-83061253D01*
X140789478Y-83058730D01*
X140787437Y-83054106D01*
X140780000Y-82990000D01*
X140780000Y-81510000D01*
X140787437Y-81445894D01*
X140789478Y-81441269D01*
X140789811Y-81438746D01*
X140804540Y-81407157D01*
X140829001Y-81351762D01*
X140891475Y-81289287D01*
X140886992Y-81243770D01*
X140838579Y-81211421D01*
X140795224Y-81146537D01*
X140780000Y-81070000D01*
X140780000Y-80530000D01*
X140795224Y-80453463D01*
X140838579Y-80388579D01*
X140903463Y-80345224D01*
X140980000Y-80330000D01*
X141920000Y-80330000D01*
X141996537Y-80345224D01*
G37*
G36*
X150546537Y-80345224D02*
G01*
X150611421Y-80388579D01*
X150654776Y-80453463D01*
X150670000Y-80530000D01*
X150670000Y-81070000D01*
X150654776Y-81146537D01*
X150611421Y-81211421D01*
X150563006Y-81243771D01*
X150558523Y-81289286D01*
X150620999Y-81351762D01*
X150645476Y-81407197D01*
X150660188Y-81438746D01*
X150660519Y-81441266D01*
X150662563Y-81445894D01*
X150670000Y-81510000D01*
X150670000Y-82990000D01*
X150662563Y-83054106D01*
X150660519Y-83058733D01*
X150660188Y-83061253D01*
X150645488Y-83092776D01*
X150620999Y-83148238D01*
X150558523Y-83210713D01*
X150563005Y-83256227D01*
X150611421Y-83288579D01*
X150654776Y-83353463D01*
X150670000Y-83430000D01*
X150670000Y-83970000D01*
X150654776Y-84046537D01*
X150611421Y-84111421D01*
X150546537Y-84154776D01*
X150470000Y-84170000D01*
X149530000Y-84170000D01*
X149453463Y-84154776D01*
X149388579Y-84111421D01*
X149345224Y-84046537D01*
X149330000Y-83970000D01*
X149330000Y-83430000D01*
X149345224Y-83353463D01*
X149388579Y-83288579D01*
X149436993Y-83256228D01*
X149441475Y-83210712D01*
X149379001Y-83148238D01*
X149354533Y-83092824D01*
X149339811Y-83061253D01*
X149339478Y-83058730D01*
X149337437Y-83054106D01*
X149330000Y-82990000D01*
X149330000Y-81510000D01*
X149337437Y-81445894D01*
X149339478Y-81441269D01*
X149339811Y-81438746D01*
X149354540Y-81407157D01*
X149379001Y-81351762D01*
X149441475Y-81289287D01*
X149436992Y-81243770D01*
X149388579Y-81211421D01*
X149345224Y-81146537D01*
X149330000Y-81070000D01*
X149330000Y-80530000D01*
X149345224Y-80453463D01*
X149388579Y-80388579D01*
X149453463Y-80345224D01*
X149530000Y-80330000D01*
X150470000Y-80330000D01*
X150546537Y-80345224D01*
G37*
G36*
X161046537Y-80345224D02*
G01*
X161111421Y-80388579D01*
X161154776Y-80453463D01*
X161170000Y-80530000D01*
X161170000Y-81070000D01*
X161154776Y-81146537D01*
X161111421Y-81211421D01*
X161063006Y-81243771D01*
X161058523Y-81289286D01*
X161120999Y-81351762D01*
X161145476Y-81407197D01*
X161160188Y-81438746D01*
X161160519Y-81441266D01*
X161162563Y-81445894D01*
X161170000Y-81510000D01*
X161170000Y-82990000D01*
X161162563Y-83054106D01*
X161160519Y-83058733D01*
X161160188Y-83061253D01*
X161145488Y-83092776D01*
X161120999Y-83148238D01*
X161058523Y-83210713D01*
X161063005Y-83256227D01*
X161111421Y-83288579D01*
X161154776Y-83353463D01*
X161170000Y-83430000D01*
X161170000Y-83970000D01*
X161154776Y-84046537D01*
X161111421Y-84111421D01*
X161046537Y-84154776D01*
X160970000Y-84170000D01*
X160030000Y-84170000D01*
X159953463Y-84154776D01*
X159888579Y-84111421D01*
X159845224Y-84046537D01*
X159830000Y-83970000D01*
X159830000Y-83430000D01*
X159845224Y-83353463D01*
X159888579Y-83288579D01*
X159936993Y-83256228D01*
X159941475Y-83210712D01*
X159879001Y-83148238D01*
X159854533Y-83092824D01*
X159839811Y-83061253D01*
X159839478Y-83058730D01*
X159837437Y-83054106D01*
X159830000Y-82990000D01*
X159830000Y-81510000D01*
X159837437Y-81445894D01*
X159839478Y-81441269D01*
X159839811Y-81438746D01*
X159854540Y-81407157D01*
X159879001Y-81351762D01*
X159941475Y-81289287D01*
X159936992Y-81243770D01*
X159888579Y-81211421D01*
X159845224Y-81146537D01*
X159830000Y-81070000D01*
X159830000Y-80530000D01*
X159845224Y-80453463D01*
X159888579Y-80388579D01*
X159953463Y-80345224D01*
X160030000Y-80330000D01*
X160970000Y-80330000D01*
X161046537Y-80345224D01*
G37*
G36*
X139904106Y-81237437D02*
G01*
X139908730Y-81239478D01*
X139911253Y-81239811D01*
X139942824Y-81254533D01*
X139998238Y-81279001D01*
X140070999Y-81351762D01*
X140095476Y-81407197D01*
X140110188Y-81438746D01*
X140110519Y-81441266D01*
X140112563Y-81445894D01*
X140120000Y-81510000D01*
X140120000Y-82990000D01*
X140112563Y-83054106D01*
X140110519Y-83058733D01*
X140110188Y-83061253D01*
X140095484Y-83092783D01*
X140070999Y-83148238D01*
X139998238Y-83220999D01*
X139942783Y-83245484D01*
X139911253Y-83260188D01*
X139908733Y-83260519D01*
X139904106Y-83262563D01*
X139840000Y-83270000D01*
X139060000Y-83270000D01*
X138995894Y-83262563D01*
X138991266Y-83260519D01*
X138988746Y-83260188D01*
X138957197Y-83245476D01*
X138901762Y-83220999D01*
X138829001Y-83148238D01*
X138804533Y-83092824D01*
X138789811Y-83061253D01*
X138789478Y-83058730D01*
X138787437Y-83054106D01*
X138780000Y-82990000D01*
X138780000Y-81510000D01*
X138787437Y-81445894D01*
X138789478Y-81441269D01*
X138789811Y-81438746D01*
X138804541Y-81407157D01*
X138829001Y-81351762D01*
X138901762Y-81279001D01*
X138957157Y-81254541D01*
X138988746Y-81239811D01*
X138991269Y-81239478D01*
X138995894Y-81237437D01*
X139060000Y-81230000D01*
X139840000Y-81230000D01*
X139904106Y-81237437D01*
G37*
G36*
X143904106Y-81237437D02*
G01*
X143908730Y-81239478D01*
X143911253Y-81239811D01*
X143942824Y-81254533D01*
X143998238Y-81279001D01*
X144070999Y-81351762D01*
X144095476Y-81407197D01*
X144110188Y-81438746D01*
X144110519Y-81441266D01*
X144112563Y-81445894D01*
X144120000Y-81510000D01*
X144120000Y-82990000D01*
X144112563Y-83054106D01*
X144110519Y-83058733D01*
X144110188Y-83061253D01*
X144095484Y-83092783D01*
X144070999Y-83148238D01*
X143998238Y-83220999D01*
X143942783Y-83245484D01*
X143911253Y-83260188D01*
X143908733Y-83260519D01*
X143904106Y-83262563D01*
X143840000Y-83270000D01*
X143060000Y-83270000D01*
X142995894Y-83262563D01*
X142991266Y-83260519D01*
X142988746Y-83260188D01*
X142957197Y-83245476D01*
X142901762Y-83220999D01*
X142829001Y-83148238D01*
X142804533Y-83092824D01*
X142789811Y-83061253D01*
X142789478Y-83058730D01*
X142787437Y-83054106D01*
X142780000Y-82990000D01*
X142780000Y-81510000D01*
X142787437Y-81445894D01*
X142789478Y-81441269D01*
X142789811Y-81438746D01*
X142804541Y-81407157D01*
X142829001Y-81351762D01*
X142901762Y-81279001D01*
X142957157Y-81254541D01*
X142988746Y-81239811D01*
X142991269Y-81239478D01*
X142995894Y-81237437D01*
X143060000Y-81230000D01*
X143840000Y-81230000D01*
X143904106Y-81237437D01*
G37*
G36*
X145904106Y-81237437D02*
G01*
X145908730Y-81239478D01*
X145911253Y-81239811D01*
X145942824Y-81254533D01*
X145998238Y-81279001D01*
X146070999Y-81351762D01*
X146095476Y-81407197D01*
X146110188Y-81438746D01*
X146110519Y-81441266D01*
X146112563Y-81445894D01*
X146120000Y-81510000D01*
X146120000Y-82990000D01*
X146112563Y-83054106D01*
X146110519Y-83058733D01*
X146110188Y-83061253D01*
X146095484Y-83092783D01*
X146070999Y-83148238D01*
X145998238Y-83220999D01*
X145942783Y-83245484D01*
X145911253Y-83260188D01*
X145908733Y-83260519D01*
X145904106Y-83262563D01*
X145840000Y-83270000D01*
X145060000Y-83270000D01*
X144995894Y-83262563D01*
X144991266Y-83260519D01*
X144988746Y-83260188D01*
X144957197Y-83245476D01*
X144901762Y-83220999D01*
X144829001Y-83148238D01*
X144804533Y-83092824D01*
X144789811Y-83061253D01*
X144789478Y-83058730D01*
X144787437Y-83054106D01*
X144780000Y-82990000D01*
X144780000Y-81510000D01*
X144787437Y-81445894D01*
X144789478Y-81441269D01*
X144789811Y-81438746D01*
X144804541Y-81407157D01*
X144829001Y-81351762D01*
X144901762Y-81279001D01*
X144957157Y-81254541D01*
X144988746Y-81239811D01*
X144991269Y-81239478D01*
X144995894Y-81237437D01*
X145060000Y-81230000D01*
X145840000Y-81230000D01*
X145904106Y-81237437D01*
G37*
G36*
X148454106Y-81237437D02*
G01*
X148458730Y-81239478D01*
X148461253Y-81239811D01*
X148492824Y-81254533D01*
X148548238Y-81279001D01*
X148620999Y-81351762D01*
X148645476Y-81407197D01*
X148660188Y-81438746D01*
X148660519Y-81441266D01*
X148662563Y-81445894D01*
X148670000Y-81510000D01*
X148670000Y-82990000D01*
X148662563Y-83054106D01*
X148660519Y-83058733D01*
X148660188Y-83061253D01*
X148645484Y-83092783D01*
X148620999Y-83148238D01*
X148548238Y-83220999D01*
X148492783Y-83245484D01*
X148461253Y-83260188D01*
X148458733Y-83260519D01*
X148454106Y-83262563D01*
X148390000Y-83270000D01*
X147610000Y-83270000D01*
X147545894Y-83262563D01*
X147541266Y-83260519D01*
X147538746Y-83260188D01*
X147507197Y-83245476D01*
X147451762Y-83220999D01*
X147379001Y-83148238D01*
X147354533Y-83092824D01*
X147339811Y-83061253D01*
X147339478Y-83058730D01*
X147337437Y-83054106D01*
X147330000Y-82990000D01*
X147330000Y-81510000D01*
X147337437Y-81445894D01*
X147339478Y-81441269D01*
X147339811Y-81438746D01*
X147354541Y-81407157D01*
X147379001Y-81351762D01*
X147451762Y-81279001D01*
X147507157Y-81254541D01*
X147538746Y-81239811D01*
X147541269Y-81239478D01*
X147545894Y-81237437D01*
X147610000Y-81230000D01*
X148390000Y-81230000D01*
X148454106Y-81237437D01*
G37*
G36*
X152454106Y-81237437D02*
G01*
X152458730Y-81239478D01*
X152461253Y-81239811D01*
X152492824Y-81254533D01*
X152548238Y-81279001D01*
X152620999Y-81351762D01*
X152645476Y-81407197D01*
X152660188Y-81438746D01*
X152660519Y-81441266D01*
X152662563Y-81445894D01*
X152670000Y-81510000D01*
X152670000Y-82990000D01*
X152662563Y-83054106D01*
X152660519Y-83058733D01*
X152660188Y-83061253D01*
X152645484Y-83092783D01*
X152620999Y-83148238D01*
X152548238Y-83220999D01*
X152492783Y-83245484D01*
X152461253Y-83260188D01*
X152458733Y-83260519D01*
X152454106Y-83262563D01*
X152390000Y-83270000D01*
X151610000Y-83270000D01*
X151545894Y-83262563D01*
X151541266Y-83260519D01*
X151538746Y-83260188D01*
X151507197Y-83245476D01*
X151451762Y-83220999D01*
X151379001Y-83148238D01*
X151354533Y-83092824D01*
X151339811Y-83061253D01*
X151339478Y-83058730D01*
X151337437Y-83054106D01*
X151330000Y-82990000D01*
X151330000Y-81510000D01*
X151337437Y-81445894D01*
X151339478Y-81441269D01*
X151339811Y-81438746D01*
X151354541Y-81407157D01*
X151379001Y-81351762D01*
X151451762Y-81279001D01*
X151507157Y-81254541D01*
X151538746Y-81239811D01*
X151541269Y-81239478D01*
X151545894Y-81237437D01*
X151610000Y-81230000D01*
X152390000Y-81230000D01*
X152454106Y-81237437D01*
G37*
G36*
X154954106Y-81237437D02*
G01*
X154958730Y-81239478D01*
X154961253Y-81239811D01*
X154992824Y-81254533D01*
X155048238Y-81279001D01*
X155120999Y-81351762D01*
X155145476Y-81407197D01*
X155160188Y-81438746D01*
X155160519Y-81441266D01*
X155162563Y-81445894D01*
X155170000Y-81510000D01*
X155170000Y-82990000D01*
X155162563Y-83054106D01*
X155160519Y-83058733D01*
X155160188Y-83061253D01*
X155145484Y-83092783D01*
X155120999Y-83148238D01*
X155048238Y-83220999D01*
X154992783Y-83245484D01*
X154961253Y-83260188D01*
X154958733Y-83260519D01*
X154954106Y-83262563D01*
X154890000Y-83270000D01*
X154110000Y-83270000D01*
X154045894Y-83262563D01*
X154041266Y-83260519D01*
X154038746Y-83260188D01*
X154007197Y-83245476D01*
X153951762Y-83220999D01*
X153879001Y-83148238D01*
X153854533Y-83092824D01*
X153839811Y-83061253D01*
X153839478Y-83058730D01*
X153837437Y-83054106D01*
X153830000Y-82990000D01*
X153830000Y-81510000D01*
X153837437Y-81445894D01*
X153839478Y-81441269D01*
X153839811Y-81438746D01*
X153854541Y-81407157D01*
X153879001Y-81351762D01*
X153951762Y-81279001D01*
X154007157Y-81254541D01*
X154038746Y-81239811D01*
X154041269Y-81239478D01*
X154045894Y-81237437D01*
X154110000Y-81230000D01*
X154890000Y-81230000D01*
X154954106Y-81237437D01*
G37*
G36*
X156954106Y-81237437D02*
G01*
X156958730Y-81239478D01*
X156961253Y-81239811D01*
X156992824Y-81254533D01*
X157048238Y-81279001D01*
X157120999Y-81351762D01*
X157145476Y-81407197D01*
X157160188Y-81438746D01*
X157160519Y-81441266D01*
X157162563Y-81445894D01*
X157170000Y-81510000D01*
X157170000Y-82990000D01*
X157162563Y-83054106D01*
X157160519Y-83058733D01*
X157160188Y-83061253D01*
X157145484Y-83092783D01*
X157120999Y-83148238D01*
X157048238Y-83220999D01*
X156992783Y-83245484D01*
X156961253Y-83260188D01*
X156958733Y-83260519D01*
X156954106Y-83262563D01*
X156890000Y-83270000D01*
X156110000Y-83270000D01*
X156045894Y-83262563D01*
X156041266Y-83260519D01*
X156038746Y-83260188D01*
X156007197Y-83245476D01*
X155951762Y-83220999D01*
X155879001Y-83148238D01*
X155854533Y-83092824D01*
X155839811Y-83061253D01*
X155839478Y-83058730D01*
X155837437Y-83054106D01*
X155830000Y-82990000D01*
X155830000Y-81510000D01*
X155837437Y-81445894D01*
X155839478Y-81441269D01*
X155839811Y-81438746D01*
X155854541Y-81407157D01*
X155879001Y-81351762D01*
X155951762Y-81279001D01*
X156007157Y-81254541D01*
X156038746Y-81239811D01*
X156041269Y-81239478D01*
X156045894Y-81237437D01*
X156110000Y-81230000D01*
X156890000Y-81230000D01*
X156954106Y-81237437D01*
G37*
G36*
X158954106Y-81237437D02*
G01*
X158958730Y-81239478D01*
X158961253Y-81239811D01*
X158992824Y-81254533D01*
X159048238Y-81279001D01*
X159120999Y-81351762D01*
X159145476Y-81407197D01*
X159160188Y-81438746D01*
X159160519Y-81441266D01*
X159162563Y-81445894D01*
X159170000Y-81510000D01*
X159170000Y-82990000D01*
X159162563Y-83054106D01*
X159160519Y-83058733D01*
X159160188Y-83061253D01*
X159145484Y-83092783D01*
X159120999Y-83148238D01*
X159048238Y-83220999D01*
X158992783Y-83245484D01*
X158961253Y-83260188D01*
X158958733Y-83260519D01*
X158954106Y-83262563D01*
X158890000Y-83270000D01*
X158110000Y-83270000D01*
X158045894Y-83262563D01*
X158041266Y-83260519D01*
X158038746Y-83260188D01*
X158007197Y-83245476D01*
X157951762Y-83220999D01*
X157879001Y-83148238D01*
X157854533Y-83092824D01*
X157839811Y-83061253D01*
X157839478Y-83058730D01*
X157837437Y-83054106D01*
X157830000Y-82990000D01*
X157830000Y-81510000D01*
X157837437Y-81445894D01*
X157839478Y-81441269D01*
X157839811Y-81438746D01*
X157854541Y-81407157D01*
X157879001Y-81351762D01*
X157951762Y-81279001D01*
X158007157Y-81254541D01*
X158038746Y-81239811D01*
X158041269Y-81239478D01*
X158045894Y-81237437D01*
X158110000Y-81230000D01*
X158890000Y-81230000D01*
X158954106Y-81237437D01*
G37*
%LPD*%
M02*
